<?xml version="1.0"?>
<VTKFile type="UnstructuredGrid" version="2.2">
  <UnstructuredGrid>
    <Piece NumberOfPoints="1024" NumberOfCells="64">
      <Points>
        <DataArray type="Float64" NumberOfComponents="3" format="ascii">0.2499999999999999 0.2499999999999999 0 0.3438750500400399 0.2499999999999998 0 0.2499999999999997 0.3749999999999997 0 0.3438750500400401 0.3750000000000002 0 0.28129168334668 0.25 0 0.3125833666933599 0.25 0 0.2500000000000001 0.2916666666666667 0 0.2500000000000001 0.3333333333333335 0 0.3438750500400399 0.2916666666666667 0 0.3438750500400399 0.3333333333333333 0 0.2812916833466802 0.3750000000000001 0 0.3125833666933598 0.3749999999999998 0 0.28129168334668 0.2916666666666667 0 0.31258336669336 0.2916666666666668 0 0.2812916833466801 0.3333333333333334 0 0.3125833666933601 0.3333333333333334 0 0.3438750500400399 0.2499999999999999 0 0.3749999999999999 0.2499999999999998 0 0.3438750500400395 0.3749999999999997 0 0.3750000000000002 0.3438750500400402 0 0.3542500333600266 0.25 0 0.3646250166800132 0.25 0 0.3438750500400399 0.2916666666666667 0 0.3438750500400401 0.3333333333333335 0 0.3749999999999999 0.28129168334668 0 0.375 0.3125833666933599 0 0.3542500333600268 0.3630439952961292 0 0.3646250166800132 0.3527803889044893 0 0.3542500333600266 0.2876813317653764 0 0.3646250166800135 0.2842601296348299 0 0.3542500333600268 0.3253626635307529 0 0.3646250166800135 0.3185202592696598 0 0.3749999999999999 0.25 0 0.4999999999999999 0.2499999999999998 0 0.3749999999999996 0.3438750500400397 0 0.5000000000000003 0.3000000000000002 0 0.4166666666666667 0.25 0 0.4583333333333333 0.2499999999999999 0 0.3750000000000001 0.28129168334668 0 0.3750000000000002 0.3125833666933601 0 0.4999999999999999 0.2666666666666666 0 0.5 0.2833333333333332 0 0.4166666666666669 0.3181881314227381 0 0.4583333333333331 0.3043884234282415 0 0.4166666666666666 0.2727293771409127 0 0.4583333333333334 0.2681294744760806 0 0.4166666666666669 0.2954587542818254 0 0.4583333333333335 0.2862589489521611 0 0.4999999999999999 0.25 0 0.6249999999999999 0.2499999999999998 0 0.4999999999999994 0.2999999999999997 0 0.6250000000000003 0.3438750500400401 0 0.5416666666666666 0.25 0 0.5833333333333333 0.25 0 0.5000000000000001 0.2666666666666667 0 0.5000000000000002 0.2833333333333334 0 0.6249999999999999 0.2812916833466799 0 0.6249999999999999 0.3125833666933599 0 0.5416666666666671 0.3043884234282417 0 0.583333333333333 0.3181881314227379 0 0.5416666666666666 0.2681294744760805 0 0.5833333333333334 0.2727293771409128 0 0.5416666666666669 0.2862589489521611 0 0.5833333333333336 0.2954587542818254 0 0.625 0.2499999999999999 0 0.65612494995996 0.2499999999999998 0 0.6249999999999992 0.3438750500400396 0 0.6561249499599604 0.3750000000000002 0 0.6353749833199865 0.25 0 0.6457499666399732 0.25 0 0.625 0.28129168334668 0 0.6250000000000003 0.3125833666933601 0 0.6561249499599601 0.2916666666666667 0 0.65612494995996 0.3333333333333333 0 0.635374983319987 0.3527803889044896 0 0.645749966639973 0.363043995296129 0 0.6353749833199867 0.2842601296348298 0 0.6457499666399735 0.2876813317653765 0 0.6353749833199869 0.3185202592696598 0 0.6457499666399735 0.3253626635307529 0 0.65612494995996 0.2499999999999999 0 0.7499999999999999 0.2499999999999998 0 0.6561249499599593 0.3749999999999997 0 0.7500000000000003 0.3750000000000002 0 0.6874166333066399 0.25 0 0.7187083166533198 0.25 0 0.6561249499599601 0.2916666666666667 0 0.6561249499599604 0.3333333333333335 0 0.7499999999999999 0.2916666666666667 0 0.75 0.3333333333333333 0 0.6874166333066404 0.3750000000000001 0 0.7187083166533197 0.3749999999999998 0 0.6874166333066399 0.2916666666666667 0 0.7187083166533202 0.2916666666666668 0 0.6874166333066403 0.3333333333333334 0 0.7187083166533202 0.3333333333333334 0 0.25 0.3750000000000001 0 0.3438750500400399 0.3749999999999999 0 0.2499999999999997 0.4999999999999994 0 0.3000000000000002 0.5000000000000003 0 0.28129168334668 0.3750000000000002 0 0.3125833666933598 0.3749999999999999 0 0.2500000000000001 0.4166666666666669 0 0.2500000000000001 0.4583333333333335 0 0.318188131422738 0.4166666666666666 0 0.3043884234282416 0.4583333333333333 0 0.2666666666666669 0.5000000000000002 0 0.2833333333333332 0.4999999999999998 0 0.2727293771409127 0.4166666666666666 0 0.2954587542818253 0.4166666666666668 0 0.2681294744760807 0.4583333333333335 0 0.2862589489521612 0.4583333333333335 0 0.65612494995996 0.3750000000000001 0 0.7499999999999999 0.3749999999999999 0 0.6999999999999992 0.4999999999999994 0 0.7500000000000003 0.5000000000000003 0 0.6874166333066399 0.3750000000000002 0 0.7187083166533198 0.3749999999999999 0 0.6818118685772619 0.4166666666666669 0 0.6956115765717588 0.4583333333333335 0 0.7499999999999999 0.4166666666666666 0 0.75 0.4583333333333333 0 0.716666666666667 0.5000000000000002 0 0.7333333333333329 0.4999999999999998 0 0.7045412457181746 0.4166666666666666 0 0.7272706228590875 0.4166666666666668 0 0.7137410510478391 0.4583333333333335 0 0.7318705255239197 0.4583333333333335 0 0.25 0.4999999999999999 0 0.2999999999999999 0.4999999999999996 0 0.2499999999999997 0.6249999999999994 0 0.3438750500400401 0.6250000000000003 0 0.2666666666666667 0.5 0 0.2833333333333333 0.4999999999999999 0 0.2500000000000001 0.5416666666666667 0 0.2500000000000001 0.5833333333333337 0 0.3043884234282415 0.5416666666666665 0 0.318188131422738 0.5833333333333333 0 0.2812916833466802 0.6250000000000002 0 0.3125833666933598 0.6249999999999998 0 0.2681294744760805 0.5416666666666666 0 0.2862589489521611 0.5416666666666669 0 0.2727293771409128 0.5833333333333336 0 0.2954587542818254 0.5833333333333336 0 0.6999999999999998 0.4999999999999999 0 0.7499999999999999 0.4999999999999996 0 0.6561249499599593 0.6249999999999994 0 0.7500000000000003 0.6250000000000003 0 0.7166666666666666 0.5 0 0.7333333333333332 0.4999999999999999 0 0.6956115765717584 0.5416666666666667 0 0.6818118685772623 0.5833333333333337 0 0.7499999999999999 0.5416666666666665 0 0.7499999999999999 0.5833333333333333 0 0.6874166333066404 0.6250000000000002 0 0.7187083166533197 0.6249999999999998 0 0.7137410510478388 0.5416666666666666 0 0.7318705255239197 0.5416666666666669 0 0.7045412457181749 0.5833333333333336 0 0.7272706228590875 0.5833333333333336 0 0.2499999999999999 0.6249999999999999 0 0.3438750500400399 0.6249999999999999 0 0.2499999999999997 0.7499999999999992 0 0.3438750500400401 0.7500000000000003 0 0.28129168334668 0.6249999999999999 0 0.3125833666933599 0.6249999999999998 0 0.2500000000000001 0.6666666666666666 0 0.2500000000000001 0.7083333333333338 0 0.3438750500400399 0.6666666666666666 0 0.3438750500400399 0.7083333333333333 0 0.2812916833466802 0.7500000000000003 0 0.3125833666933598 0.7499999999999997 0 0.28129168334668 0.6666666666666665 0 0.31258336669336 0.6666666666666669 0 0.2812916833466801 0.7083333333333336 0 0.3125833666933601 0.7083333333333336 0 0.3438750500400399 0.6249999999999999 0 0.3749999999999999 0.65612494995996 0 0.3438750500400395 0.7499999999999992 0 0.3750000000000002 0.7500000000000003 0 0.3542500333600266 0.6369560047038707 0 0.3646250166800132 0.6472196110955103 0 0.3438750500400399 0.6666666666666666 0 0.3438750500400401 0.7083333333333338 0 0.3749999999999999 0.68741663330664 0 0.375 0.7187083166533199 0 0.3542500333600268 0.7500000000000003 0 0.3646250166800132 0.7499999999999997 0 0.3542500333600266 0.6746373364692471 0 0.3646250166800135 0.6814797407303406 0 0.3542500333600268 0.7123186682346239 0 0.3646250166800135 0.7157398703651704 0 0.3749999999999999 0.65612494995996 0 0.4999999999999999 0.7 0 0.3749999999999996 0.7499999999999992 0 0.5000000000000003 0.7500000000000003 0 0.4166666666666667 0.6818118685772619 0 0.4583333333333333 0.6956115765717582 0 0.3750000000000001 0.68741663330664 0 0.3750000000000002 0.7187083166533204 0 0.4999999999999999 0.7166666666666668 0 0.5 0.7333333333333334 0 0.4166666666666669 0.7500000000000003 0 0.4583333333333331 0.7499999999999997 0 0.4166666666666666 0.7045412457181746 0 0.4583333333333334 0.7137410510478392 0 0.4166666666666669 0.7272706228590875 0 0.4583333333333335 0.7318705255239197 0 0.4999999999999999 0.7 0 0.6249999999999999 0.65612494995996 0 0.4999999999999994 0.7499999999999992 0 0.6250000000000003 0.7500000000000003 0 0.5416666666666666 0.6956115765717583 0 0.5833333333333333 0.6818118685772618 0 0.5000000000000001 0.7166666666666667 0 0.5000000000000002 0.7333333333333337 0 0.6249999999999999 0.68741663330664 0 0.6249999999999999 0.7187083166533199 0 0.5416666666666671 0.7500000000000003 0 0.583333333333333 0.7499999999999997 0 0.5416666666666666 0.7137410510478389 0 0.5833333333333334 0.7045412457181749 0 0.5416666666666669 0.7318705255239197 0 0.5833333333333336 0.7272706228590876 0 0.625 0.65612494995996 0 0.65612494995996 0.6249999999999999 0 0.6249999999999992 0.7499999999999992 0 0.6561249499599604 0.7500000000000003 0 0.6353749833199865 0.6472196110955104 0 0.6457499666399732 0.6369560047038706 0 0.625 0.68741663330664 0 0.6250000000000003 0.7187083166533204 0 0.6561249499599601 0.6666666666666666 0 0.65612494995996 0.7083333333333333 0 0.635374983319987 0.7500000000000003 0 0.645749966639973 0.7499999999999997 0 0.6353749833199867 0.6814797407303402 0 0.6457499666399735 0.6746373364692474 0 0.6353749833199869 0.7157398703651704 0 0.6457499666399735 0.7123186682346239 0 0.65612494995996 0.6249999999999999 0 0.7499999999999999 0.6249999999999999 0 0.6561249499599593 0.7499999999999992 0 0.7500000000000003 0.7500000000000003 0 0.6874166333066399 0.6249999999999999 0 0.7187083166533198 0.6249999999999998 0 0.6561249499599601 0.6666666666666666 0 0.6561249499599604 0.7083333333333338 0 0.7499999999999999 0.6666666666666666 0 0.75 0.7083333333333333 0 0.6874166333066404 0.7500000000000003 0 0.7187083166533197 0.7499999999999997 0 0.6874166333066399 0.6666666666666665 0 0.7187083166533202 0.6666666666666669 0 0.6874166333066403 0.7083333333333336 0 0.7187083166533202 0.7083333333333336 0 -7.58941520739854e-18 -1.900967809091251e-17 0 0.125 -1.105886215935214e-17 0 -1.380550766298208e-17 0.1249999999999999 0 0.125 0.125 0 0.04166666666666666 2.111841203333054e-17 0 0.08333333333333334 -3.192936114903526e-18 0 1.235682762185626e-17 0.0416666666666667 0 1.409770538679005e-17 0.08333333333333336 0 0.1249999999999999 0.04166666666666666 0 0.125 0.08333333333333333 0 0.04166666666666672 0.125 0 0.08333333333333331 0.125 0 0.04166666666666666 0.04166666666666666 0 0.08333333333333331 0.04166666666666667 0 0.0416666666666667 0.08333333333333334 0 0.08333333333333333 0.08333333333333334 0 0.125 -1.900967809091251e-17 0 0.25 -1.105886215935214e-17 0 0.1249999999999999 0.1249999999999999 0 0.2500000000000001 0.125 0 0.1666666666666666 2.111841203333054e-17 0 0.2083333333333333 -3.192936114903526e-18 0 0.125 0.0416666666666667 0 0.1250000000000001 0.08333333333333336 0 0.2499999999999999 0.04166666666666666 0 0.25 0.08333333333333333 0 0.1666666666666668 0.125 0 0.2083333333333332 0.125 0 0.1666666666666667 0.04166666666666666 0 0.2083333333333333 0.04166666666666667 0 0.1666666666666667 0.08333333333333334 0 0.2083333333333334 0.08333333333333334 0 0.2499999999999999 -1.900967809091251e-17 0 0.3749999999999999 -1.105886215935214e-17 0 0.2499999999999997 0.1249999999999999 0 0.3750000000000001 0.125 0 0.2916666666666667 2.111841203333054e-17 0 0.3333333333333333 -3.192936114903526e-18 0 0.2500000000000001 0.0416666666666667 0 0.2500000000000002 0.08333333333333336 0 0.3749999999999999 0.04166666666666666 0 0.3749999999999999 0.08333333333333333 0 0.2916666666666669 0.125 0 0.3333333333333331 0.125 0 0.2916666666666667 0.04166666666666666 0 0.3333333333333334 0.04166666666666667 0 0.2916666666666668 0.08333333333333334 0 0.3333333333333334 0.08333333333333334 0 0.3749999999999999 -1.900967809091251e-17 0 0.4999999999999999 -1.105886215935214e-17 0 0.3749999999999996 0.1249999999999999 0 0.5000000000000003 0.125 0 0.4166666666666667 2.111841203333054e-17 0 0.4583333333333333 -3.192936114903526e-18 0 0.3750000000000001 0.0416666666666667 0 0.3750000000000002 0.08333333333333336 0 0.4999999999999999 0.04166666666666666 0 0.5 0.08333333333333333 0 0.4166666666666669 0.125 0 0.4583333333333331 0.125 0 0.4166666666666666 0.04166666666666666 0 0.4583333333333334 0.04166666666666667 0 0.4166666666666669 0.08333333333333334 0 0.4583333333333335 0.08333333333333334 0 0.4999999999999999 -1.900967809091251e-17 0 0.6249999999999999 -1.105886215935214e-17 0 0.4999999999999994 0.1249999999999999 0 0.6250000000000003 0.125 0 0.5416666666666666 2.111841203333054e-17 0 0.5833333333333333 -3.192936114903526e-18 0 0.5000000000000001 0.0416666666666667 0 0.5000000000000002 0.08333333333333336 0 0.6249999999999999 0.04166666666666666 0 0.6249999999999999 0.08333333333333333 0 0.5416666666666671 0.125 0 0.583333333333333 0.125 0 0.5416666666666666 0.04166666666666666 0 0.5833333333333334 0.04166666666666667 0 0.5416666666666669 0.08333333333333334 0 0.5833333333333336 0.08333333333333334 0 0.6249999999999999 -1.900967809091251e-17 0 0.7499999999999999 -1.105886215935214e-17 0 0.6249999999999992 0.1249999999999999 0 0.7500000000000003 0.125 0 0.6666666666666665 2.111841203333054e-17 0 0.7083333333333331 -3.192936114903526e-18 0 0.625 0.0416666666666667 0 0.6250000000000004 0.08333333333333336 0 0.7499999999999999 0.04166666666666666 0 0.7499999999999999 0.08333333333333333 0 0.666666666666667 0.125 0 0.708333333333333 0.125 0 0.6666666666666665 0.04166666666666666 0 0.7083333333333336 0.04166666666666667 0 0.6666666666666669 0.08333333333333334 0 0.7083333333333336 0.08333333333333334 0 0.75 -1.900967809091251e-17 0 0.8749999999999999 -1.105886215935214e-17 0 0.7499999999999992 0.1249999999999999 0 0.8750000000000003 0.125 0 0.7916666666666667 2.111841203333054e-17 0 0.8333333333333331 -3.192936114903526e-18 0 0.7500000000000002 0.0416666666666667 0 0.7500000000000004 0.08333333333333336 0 0.8749999999999998 0.04166666666666666 0 0.8749999999999999 0.08333333333333333 0 0.791666666666667 0.125 0 0.8333333333333329 0.125 0 0.7916666666666665 0.04166666666666666 0 0.8333333333333336 0.04166666666666667 0 0.791666666666667 0.08333333333333334 0 0.8333333333333337 0.08333333333333334 0 0.8750000000000001 -1.900967809091251e-17 0 0.9999999999999998 -1.105886215935214e-17 0 0.8749999999999989 0.1249999999999999 0 1.000000000000001 0.125 0 0.9166666666666666 2.111841203333054e-17 0 0.9583333333333331 -3.192936114903526e-18 0 0.8750000000000002 0.0416666666666667 0 0.8750000000000004 0.08333333333333336 0 0.9999999999999998 0.04166666666666666 0 0.9999999999999999 0.08333333333333333 0 0.9166666666666671 0.125 0 0.9583333333333329 0.125 0 0.9166666666666665 0.04166666666666666 0 0.9583333333333337 0.04166666666666667 0 0.916666666666667 0.08333333333333334 0 0.9583333333333337 0.08333333333333334 0 -7.58941520739854e-18 0.125 0 0.125 0.1249999999999999 0 -1.380550766298208e-17 0.2499999999999998 0 0.125 0.2500000000000002 0 0.04166666666666666 0.125 0 0.08333333333333334 0.1249999999999999 0 1.235682762185626e-17 0.1666666666666667 0 1.409770538679005e-17 0.2083333333333334 0 0.1249999999999999 0.1666666666666666 0 0.125 0.2083333333333333 0 0.04166666666666672 0.2500000000000001 0 0.08333333333333331 0.2499999999999999 0 0.04166666666666666 0.1666666666666667 0 0.08333333333333331 0.1666666666666667 0 0.0416666666666667 0.2083333333333334 0 0.08333333333333333 0.2083333333333334 0 0.125 0.125 0 0.25 0.1249999999999999 0 0.1249999999999999 0.2499999999999998 0 0.2500000000000001 0.2500000000000002 0 0.1666666666666666 0.125 0 0.2083333333333333 0.1249999999999999 0 0.125 0.1666666666666667 0 0.1250000000000001 0.2083333333333334 0 0.2499999999999999 0.1666666666666666 0 0.25 0.2083333333333333 0 0.1666666666666668 0.2500000000000001 0 0.2083333333333332 0.2499999999999999 0 0.1666666666666667 0.1666666666666667 0 0.2083333333333333 0.1666666666666667 0 0.1666666666666667 0.2083333333333334 0 0.2083333333333334 0.2083333333333334 0 0.2499999999999999 0.125 0 0.3749999999999999 0.1249999999999999 0 0.2499999999999997 0.2499999999999998 0 0.3750000000000001 0.2500000000000002 0 0.2916666666666667 0.125 0 0.3333333333333333 0.1249999999999999 0 0.2500000000000001 0.1666666666666667 0 0.2500000000000002 0.2083333333333334 0 0.3749999999999999 0.1666666666666666 0 0.3749999999999999 0.2083333333333333 0 0.2916666666666669 0.2500000000000001 0 0.3333333333333331 0.2499999999999999 0 0.2916666666666667 0.1666666666666667 0 0.3333333333333334 0.1666666666666667 0 0.2916666666666668 0.2083333333333334 0 0.3333333333333334 0.2083333333333334 0 0.3749999999999999 0.125 0 0.4999999999999999 0.1249999999999999 0 0.3749999999999996 0.2499999999999998 0 0.5000000000000003 0.2500000000000002 0 0.4166666666666667 0.125 0 0.4583333333333333 0.1249999999999999 0 0.3750000000000001 0.1666666666666667 0 0.3750000000000002 0.2083333333333334 0 0.4999999999999999 0.1666666666666666 0 0.5 0.2083333333333333 0 0.4166666666666669 0.2500000000000001 0 0.4583333333333331 0.2499999999999999 0 0.4166666666666666 0.1666666666666667 0 0.4583333333333334 0.1666666666666667 0 0.4166666666666669 0.2083333333333334 0 0.4583333333333335 0.2083333333333334 0 0.4999999999999999 0.125 0 0.6249999999999999 0.1249999999999999 0 0.4999999999999994 0.2499999999999998 0 0.6250000000000003 0.2500000000000002 0 0.5416666666666666 0.125 0 0.5833333333333333 0.1249999999999999 0 0.5000000000000001 0.1666666666666667 0 0.5000000000000002 0.2083333333333334 0 0.6249999999999999 0.1666666666666666 0 0.6249999999999999 0.2083333333333333 0 0.5416666666666671 0.2500000000000001 0 0.583333333333333 0.2499999999999999 0 0.5416666666666666 0.1666666666666667 0 0.5833333333333334 0.1666666666666667 0 0.5416666666666669 0.2083333333333334 0 0.5833333333333336 0.2083333333333334 0 0.6249999999999999 0.125 0 0.7499999999999999 0.1249999999999999 0 0.6249999999999992 0.2499999999999998 0 0.7500000000000003 0.2500000000000002 0 0.6666666666666665 0.125 0 0.7083333333333331 0.1249999999999999 0 0.625 0.1666666666666667 0 0.6250000000000004 0.2083333333333334 0 0.7499999999999999 0.1666666666666666 0 0.7499999999999999 0.2083333333333333 0 0.666666666666667 0.2500000000000001 0 0.708333333333333 0.2499999999999999 0 0.6666666666666665 0.1666666666666667 0 0.7083333333333336 0.1666666666666667 0 0.6666666666666669 0.2083333333333334 0 0.7083333333333336 0.2083333333333334 0 0.75 0.125 0 0.8749999999999999 0.1249999999999999 0 0.7499999999999992 0.2499999999999998 0 0.8750000000000003 0.2500000000000002 0 0.7916666666666667 0.125 0 0.8333333333333331 0.1249999999999999 0 0.7500000000000002 0.1666666666666667 0 0.7500000000000004 0.2083333333333334 0 0.8749999999999998 0.1666666666666666 0 0.8749999999999999 0.2083333333333333 0 0.791666666666667 0.2500000000000001 0 0.8333333333333329 0.2499999999999999 0 0.7916666666666665 0.1666666666666667 0 0.8333333333333336 0.1666666666666667 0 0.791666666666667 0.2083333333333334 0 0.8333333333333337 0.2083333333333334 0 0.8750000000000001 0.125 0 0.9999999999999998 0.1249999999999999 0 0.8749999999999989 0.2499999999999998 0 1.000000000000001 0.2500000000000002 0 0.9166666666666666 0.125 0 0.9583333333333331 0.1249999999999999 0 0.8750000000000002 0.1666666666666667 0 0.8750000000000004 0.2083333333333334 0 0.9999999999999998 0.1666666666666666 0 0.9999999999999999 0.2083333333333333 0 0.9166666666666671 0.2500000000000001 0 0.9583333333333329 0.2499999999999999 0 0.9166666666666665 0.1666666666666667 0 0.9583333333333337 0.1666666666666667 0 0.916666666666667 0.2083333333333334 0 0.9583333333333337 0.2083333333333334 0 -7.58941520739854e-18 0.2499999999999999 0 0.125 0.2499999999999998 0 -1.380550766298208e-17 0.3749999999999997 0 0.125 0.3750000000000002 0 0.04166666666666666 0.25 0 0.08333333333333334 0.25 0 1.235682762185626e-17 0.2916666666666667 0 1.409770538679005e-17 0.3333333333333335 0 0.1249999999999999 0.2916666666666667 0 0.125 0.3333333333333333 0 0.04166666666666672 0.3750000000000001 0 0.08333333333333331 0.3749999999999998 0 0.04166666666666666 0.2916666666666667 0 0.08333333333333331 0.2916666666666668 0 0.0416666666666667 0.3333333333333334 0 0.08333333333333333 0.3333333333333334 0 0.125 0.2499999999999999 0 0.25 0.2499999999999998 0 0.1249999999999999 0.3749999999999997 0 0.2500000000000001 0.3750000000000002 0 0.1666666666666666 0.25 0 0.2083333333333333 0.25 0 0.125 0.2916666666666667 0 0.1250000000000001 0.3333333333333335 0 0.2499999999999999 0.2916666666666667 0 0.25 0.3333333333333333 0 0.1666666666666668 0.3750000000000001 0 0.2083333333333332 0.3749999999999998 0 0.1666666666666667 0.2916666666666667 0 0.2083333333333333 0.2916666666666668 0 0.1666666666666667 0.3333333333333334 0 0.2083333333333334 0.3333333333333334 0 0.75 0.2499999999999999 0 0.8749999999999999 0.2499999999999998 0 0.7499999999999992 0.3749999999999997 0 0.8750000000000003 0.3750000000000002 0 0.7916666666666667 0.25 0 0.8333333333333331 0.25 0 0.7500000000000002 0.2916666666666667 0 0.7500000000000004 0.3333333333333335 0 0.8749999999999998 0.2916666666666667 0 0.8749999999999999 0.3333333333333333 0 0.791666666666667 0.3750000000000001 0 0.8333333333333329 0.3749999999999998 0 0.7916666666666665 0.2916666666666667 0 0.8333333333333336 0.2916666666666668 0 0.791666666666667 0.3333333333333334 0 0.8333333333333337 0.3333333333333334 0 0.8750000000000001 0.2499999999999999 0 0.9999999999999998 0.2499999999999998 0 0.8749999999999989 0.3749999999999997 0 1.000000000000001 0.3750000000000002 0 0.9166666666666666 0.25 0 0.9583333333333331 0.25 0 0.8750000000000002 0.2916666666666667 0 0.8750000000000004 0.3333333333333335 0 0.9999999999999998 0.2916666666666667 0 0.9999999999999999 0.3333333333333333 0 0.9166666666666671 0.3750000000000001 0 0.9583333333333329 0.3749999999999998 0 0.9166666666666665 0.2916666666666667 0 0.9583333333333337 0.2916666666666668 0 0.916666666666667 0.3333333333333334 0 0.9583333333333337 0.3333333333333334 0 -7.58941520739854e-18 0.3750000000000001 0 0.125 0.3749999999999999 0 -1.380550766298208e-17 0.4999999999999994 0 0.125 0.5000000000000003 0 0.04166666666666666 0.3750000000000002 0 0.08333333333333334 0.3749999999999999 0 1.235682762185626e-17 0.4166666666666669 0 1.409770538679005e-17 0.4583333333333335 0 0.1249999999999999 0.4166666666666666 0 0.125 0.4583333333333333 0 0.04166666666666672 0.5000000000000002 0 0.08333333333333331 0.4999999999999998 0 0.04166666666666666 0.4166666666666666 0 0.08333333333333331 0.4166666666666668 0 0.0416666666666667 0.4583333333333335 0 0.08333333333333333 0.4583333333333335 0 0.125 0.3750000000000001 0 0.25 0.3749999999999999 0 0.1249999999999999 0.4999999999999994 0 0.2500000000000001 0.5000000000000003 0 0.1666666666666666 0.3750000000000002 0 0.2083333333333333 0.3749999999999999 0 0.125 0.4166666666666669 0 0.1250000000000001 0.4583333333333335 0 0.2499999999999999 0.4166666666666666 0 0.25 0.4583333333333333 0 0.1666666666666668 0.5000000000000002 0 0.2083333333333332 0.4999999999999998 0 0.1666666666666667 0.4166666666666666 0 0.2083333333333333 0.4166666666666668 0 0.1666666666666667 0.4583333333333335 0 0.2083333333333334 0.4583333333333335 0 0.75 0.3750000000000001 0 0.8749999999999999 0.3749999999999999 0 0.7499999999999992 0.4999999999999994 0 0.8750000000000003 0.5000000000000003 0 0.7916666666666667 0.3750000000000002 0 0.8333333333333331 0.3749999999999999 0 0.7500000000000002 0.4166666666666669 0 0.7500000000000004 0.4583333333333335 0 0.8749999999999998 0.4166666666666666 0 0.8749999999999999 0.4583333333333333 0 0.791666666666667 0.5000000000000002 0 0.8333333333333329 0.4999999999999998 0 0.7916666666666665 0.4166666666666666 0 0.8333333333333336 0.4166666666666668 0 0.791666666666667 0.4583333333333335 0 0.8333333333333337 0.4583333333333335 0 0.8750000000000001 0.3750000000000001 0 0.9999999999999998 0.3749999999999999 0 0.8749999999999989 0.4999999999999994 0 1.000000000000001 0.5000000000000003 0 0.9166666666666666 0.3750000000000002 0 0.9583333333333331 0.3749999999999999 0 0.8750000000000002 0.4166666666666669 0 0.8750000000000004 0.4583333333333335 0 0.9999999999999998 0.4166666666666666 0 0.9999999999999999 0.4583333333333333 0 0.9166666666666671 0.5000000000000002 0 0.9583333333333329 0.4999999999999998 0 0.9166666666666665 0.4166666666666666 0 0.9583333333333337 0.4166666666666668 0 0.916666666666667 0.4583333333333335 0 0.9583333333333337 0.4583333333333335 0 -7.58941520739854e-18 0.4999999999999999 0 0.125 0.4999999999999996 0 -1.380550766298208e-17 0.6249999999999994 0 0.125 0.6250000000000003 0 0.04166666666666666 0.5 0 0.08333333333333334 0.4999999999999999 0 1.235682762185626e-17 0.5416666666666667 0 1.409770538679005e-17 0.5833333333333337 0 0.1249999999999999 0.5416666666666665 0 0.125 0.5833333333333333 0 0.04166666666666672 0.6250000000000002 0 0.08333333333333331 0.6249999999999998 0 0.04166666666666666 0.5416666666666666 0 0.08333333333333331 0.5416666666666669 0 0.0416666666666667 0.5833333333333336 0 0.08333333333333333 0.5833333333333336 0 0.125 0.4999999999999999 0 0.25 0.4999999999999996 0 0.1249999999999999 0.6249999999999994 0 0.2500000000000001 0.6250000000000003 0 0.1666666666666666 0.5 0 0.2083333333333333 0.4999999999999999 0 0.125 0.5416666666666667 0 0.1250000000000001 0.5833333333333337 0 0.2499999999999999 0.5416666666666665 0 0.25 0.5833333333333333 0 0.1666666666666668 0.6250000000000002 0 0.2083333333333332 0.6249999999999998 0 0.1666666666666667 0.5416666666666666 0 0.2083333333333333 0.5416666666666669 0 0.1666666666666667 0.5833333333333336 0 0.2083333333333334 0.5833333333333336 0 0.75 0.4999999999999999 0 0.8749999999999999 0.4999999999999996 0 0.7499999999999992 0.6249999999999994 0 0.8750000000000003 0.6250000000000003 0 0.7916666666666667 0.5 0 0.8333333333333331 0.4999999999999999 0 0.7500000000000002 0.5416666666666667 0 0.7500000000000004 0.5833333333333337 0 0.8749999999999998 0.5416666666666665 0 0.8749999999999999 0.5833333333333333 0 0.791666666666667 0.6250000000000002 0 0.8333333333333329 0.6249999999999998 0 0.7916666666666665 0.5416666666666666 0 0.8333333333333336 0.5416666666666669 0 0.791666666666667 0.5833333333333336 0 0.8333333333333337 0.5833333333333336 0 0.8750000000000001 0.4999999999999999 0 0.9999999999999998 0.4999999999999996 0 0.8749999999999989 0.6249999999999994 0 1.000000000000001 0.6250000000000003 0 0.9166666666666666 0.5 0 0.9583333333333331 0.4999999999999999 0 0.8750000000000002 0.5416666666666667 0 0.8750000000000004 0.5833333333333337 0 0.9999999999999998 0.5416666666666665 0 0.9999999999999999 0.5833333333333333 0 0.9166666666666671 0.6250000000000002 0 0.9583333333333329 0.6249999999999998 0 0.9166666666666665 0.5416666666666666 0 0.9583333333333337 0.5416666666666669 0 0.916666666666667 0.5833333333333336 0 0.9583333333333337 0.5833333333333336 0 -7.58941520739854e-18 0.6249999999999999 0 0.125 0.6249999999999999 0 -1.380550766298208e-17 0.7499999999999992 0 0.125 0.7500000000000003 0 0.04166666666666666 0.6249999999999999 0 0.08333333333333334 0.6249999999999998 0 1.235682762185626e-17 0.6666666666666666 0 1.409770538679005e-17 0.7083333333333338 0 0.1249999999999999 0.6666666666666666 0 0.125 0.7083333333333333 0 0.04166666666666672 0.7500000000000003 0 0.08333333333333331 0.7499999999999997 0 0.04166666666666666 0.6666666666666665 0 0.08333333333333331 0.6666666666666669 0 0.0416666666666667 0.7083333333333336 0 0.08333333333333333 0.7083333333333336 0 0.125 0.6249999999999999 0 0.25 0.6249999999999999 0 0.1249999999999999 0.7499999999999992 0 0.2500000000000001 0.7500000000000003 0 0.1666666666666666 0.6249999999999999 0 0.2083333333333333 0.6249999999999998 0 0.125 0.6666666666666666 0 0.1250000000000001 0.7083333333333338 0 0.2499999999999999 0.6666666666666666 0 0.25 0.7083333333333333 0 0.1666666666666668 0.7500000000000003 0 0.2083333333333332 0.7499999999999997 0 0.1666666666666667 0.6666666666666665 0 0.2083333333333333 0.6666666666666669 0 0.1666666666666667 0.7083333333333336 0 0.2083333333333334 0.7083333333333336 0 0.75 0.6249999999999999 0 0.8749999999999999 0.6249999999999999 0 0.7499999999999992 0.7499999999999992 0 0.8750000000000003 0.7500000000000003 0 0.7916666666666667 0.6249999999999999 0 0.8333333333333331 0.6249999999999998 0 0.7500000000000002 0.6666666666666666 0 0.7500000000000004 0.7083333333333338 0 0.8749999999999998 0.6666666666666666 0 0.8749999999999999 0.7083333333333333 0 0.791666666666667 0.7500000000000003 0 0.8333333333333329 0.7499999999999997 0 0.7916666666666665 0.6666666666666665 0 0.8333333333333336 0.6666666666666669 0 0.791666666666667 0.7083333333333336 0 0.8333333333333337 0.7083333333333336 0 0.8750000000000001 0.6249999999999999 0 0.9999999999999998 0.6249999999999999 0 0.8749999999999989 0.7499999999999992 0 1.000000000000001 0.7500000000000003 0 0.9166666666666666 0.6249999999999999 0 0.9583333333333331 0.6249999999999998 0 0.8750000000000002 0.6666666666666666 0 0.8750000000000004 0.7083333333333338 0 0.9999999999999998 0.6666666666666666 0 0.9999999999999999 0.7083333333333333 0 0.9166666666666671 0.7500000000000003 0 0.9583333333333329 0.7499999999999997 0 0.9166666666666665 0.6666666666666665 0 0.9583333333333337 0.6666666666666669 0 0.916666666666667 0.7083333333333336 0 0.9583333333333337 0.7083333333333336 0 -7.58941520739854e-18 0.7500000000000001 0 0.125 0.7499999999999999 0 -1.380550766298208e-17 0.8749999999999992 0 0.125 0.8750000000000003 0 0.04166666666666666 0.7500000000000001 0 0.08333333333333334 0.7499999999999998 0 1.235682762185626e-17 0.7916666666666669 0 1.409770538679005e-17 0.8333333333333337 0 0.1249999999999999 0.7916666666666664 0 0.125 0.8333333333333333 0 0.04166666666666672 0.8750000000000003 0 0.08333333333333331 0.8749999999999996 0 0.04166666666666666 0.7916666666666665 0 0.08333333333333331 0.7916666666666669 0 0.0416666666666667 0.8333333333333336 0 0.08333333333333333 0.8333333333333337 0 0.125 0.7500000000000001 0 0.25 0.7499999999999999 0 0.1249999999999999 0.8749999999999992 0 0.2500000000000001 0.8750000000000003 0 0.1666666666666666 0.7500000000000001 0 0.2083333333333333 0.7499999999999998 0 0.125 0.7916666666666669 0 0.1250000000000001 0.8333333333333337 0 0.2499999999999999 0.7916666666666664 0 0.25 0.8333333333333333 0 0.1666666666666668 0.8750000000000003 0 0.2083333333333332 0.8749999999999996 0 0.1666666666666667 0.7916666666666665 0 0.2083333333333333 0.7916666666666669 0 0.1666666666666667 0.8333333333333336 0 0.2083333333333334 0.8333333333333337 0 0.2499999999999999 0.7500000000000001 0 0.3749999999999999 0.7499999999999999 0 0.2499999999999997 0.8749999999999992 0 0.3750000000000001 0.8750000000000003 0 0.2916666666666667 0.7500000000000001 0 0.3333333333333333 0.7499999999999998 0 0.2500000000000001 0.7916666666666669 0 0.2500000000000002 0.8333333333333337 0 0.3749999999999999 0.7916666666666664 0 0.3749999999999999 0.8333333333333333 0 0.2916666666666669 0.8750000000000003 0 0.3333333333333331 0.8749999999999996 0 0.2916666666666667 0.7916666666666665 0 0.3333333333333334 0.7916666666666669 0 0.2916666666666668 0.8333333333333336 0 0.3333333333333334 0.8333333333333337 0 0.3749999999999999 0.7500000000000001 0 0.4999999999999999 0.7499999999999999 0 0.3749999999999996 0.8749999999999992 0 0.5000000000000003 0.8750000000000003 0 0.4166666666666667 0.7500000000000001 0 0.4583333333333333 0.7499999999999998 0 0.3750000000000001 0.7916666666666669 0 0.3750000000000002 0.8333333333333337 0 0.4999999999999999 0.7916666666666664 0 0.5 0.8333333333333333 0 0.4166666666666669 0.8750000000000003 0 0.4583333333333331 0.8749999999999996 0 0.4166666666666666 0.7916666666666665 0 0.4583333333333334 0.7916666666666669 0 0.4166666666666669 0.8333333333333336 0 0.4583333333333335 0.8333333333333337 0 0.4999999999999999 0.7500000000000001 0 0.6249999999999999 0.7499999999999999 0 0.4999999999999994 0.8749999999999992 0 0.6250000000000003 0.8750000000000003 0 0.5416666666666666 0.7500000000000001 0 0.5833333333333333 0.7499999999999998 0 0.5000000000000001 0.7916666666666669 0 0.5000000000000002 0.8333333333333337 0 0.6249999999999999 0.7916666666666664 0 0.6249999999999999 0.8333333333333333 0 0.5416666666666671 0.8750000000000003 0 0.583333333333333 0.8749999999999996 0 0.5416666666666666 0.7916666666666665 0 0.5833333333333334 0.7916666666666669 0 0.5416666666666669 0.8333333333333336 0 0.5833333333333336 0.8333333333333337 0 0.6249999999999999 0.7500000000000001 0 0.7499999999999999 0.7499999999999999 0 0.6249999999999992 0.8749999999999992 0 0.7500000000000003 0.8750000000000003 0 0.6666666666666665 0.7500000000000001 0 0.7083333333333331 0.7499999999999998 0 0.625 0.7916666666666669 0 0.6250000000000004 0.8333333333333337 0 0.7499999999999999 0.7916666666666664 0 0.7499999999999999 0.8333333333333333 0 0.666666666666667 0.8750000000000003 0 0.708333333333333 0.8749999999999996 0 0.6666666666666665 0.7916666666666665 0 0.7083333333333336 0.7916666666666669 0 0.6666666666666669 0.8333333333333336 0 0.7083333333333336 0.8333333333333337 0 0.75 0.7500000000000001 0 0.8749999999999999 0.7499999999999999 0 0.7499999999999992 0.8749999999999992 0 0.8750000000000003 0.8750000000000003 0 0.7916666666666667 0.7500000000000001 0 0.8333333333333331 0.7499999999999998 0 0.7500000000000002 0.7916666666666669 0 0.7500000000000004 0.8333333333333337 0 0.8749999999999998 0.7916666666666664 0 0.8749999999999999 0.8333333333333333 0 0.791666666666667 0.8750000000000003 0 0.8333333333333329 0.8749999999999996 0 0.7916666666666665 0.7916666666666665 0 0.8333333333333336 0.7916666666666669 0 0.791666666666667 0.8333333333333336 0 0.8333333333333337 0.8333333333333337 0 0.8750000000000001 0.7500000000000001 0 0.9999999999999998 0.7499999999999999 0 0.8749999999999989 0.8749999999999992 0 1.000000000000001 0.8750000000000003 0 0.9166666666666666 0.7500000000000001 0 0.9583333333333331 0.7499999999999998 0 0.8750000000000002 0.7916666666666669 0 0.8750000000000004 0.8333333333333337 0 0.9999999999999998 0.7916666666666664 0 0.9999999999999999 0.8333333333333333 0 0.9166666666666671 0.8750000000000003 0 0.9583333333333329 0.8749999999999996 0 0.9166666666666665 0.7916666666666665 0 0.9583333333333337 0.7916666666666669 0 0.916666666666667 0.8333333333333336 0 0.9583333333333337 0.8333333333333337 0 -7.58941520739854e-18 0.8750000000000001 0 0.125 0.8749999999999998 0 -1.380550766298208e-17 0.9999999999999989 0 0.125 1.000000000000001 0 0.04166666666666666 0.8750000000000003 0 0.08333333333333334 0.8749999999999999 0 1.235682762185626e-17 0.916666666666667 0 1.409770538679005e-17 0.9583333333333338 0 0.1249999999999999 0.9166666666666664 0 0.125 0.9583333333333333 0 0.04166666666666672 1 0 0.08333333333333331 0.9999999999999996 0 0.04166666666666666 0.9166666666666665 0 0.08333333333333331 0.916666666666667 0 0.0416666666666667 0.9583333333333337 0 0.08333333333333333 0.9583333333333337 0 0.125 0.8750000000000001 0 0.25 0.8749999999999998 0 0.1249999999999999 0.9999999999999989 0 0.2500000000000001 1.000000000000001 0 0.1666666666666666 0.8750000000000003 0 0.2083333333333333 0.8749999999999999 0 0.125 0.916666666666667 0 0.1250000000000001 0.9583333333333338 0 0.2499999999999999 0.9166666666666664 0 0.25 0.9583333333333333 0 0.1666666666666668 1 0 0.2083333333333332 0.9999999999999996 0 0.1666666666666667 0.9166666666666665 0 0.2083333333333333 0.916666666666667 0 0.1666666666666667 0.9583333333333337 0 0.2083333333333334 0.9583333333333337 0 0.2499999999999999 0.8750000000000001 0 0.3749999999999999 0.8749999999999998 0 0.2499999999999997 0.9999999999999989 0 0.3750000000000001 1.000000000000001 0 0.2916666666666667 0.8750000000000003 0 0.3333333333333333 0.8749999999999999 0 0.2500000000000001 0.916666666666667 0 0.2500000000000002 0.9583333333333338 0 0.3749999999999999 0.9166666666666664 0 0.3749999999999999 0.9583333333333333 0 0.2916666666666669 1 0 0.3333333333333331 0.9999999999999996 0 0.2916666666666667 0.9166666666666665 0 0.3333333333333334 0.916666666666667 0 0.2916666666666668 0.9583333333333337 0 0.3333333333333334 0.9583333333333337 0 0.3749999999999999 0.8750000000000001 0 0.4999999999999999 0.8749999999999998 0 0.3749999999999996 0.9999999999999989 0 0.5000000000000003 1.000000000000001 0 0.4166666666666667 0.8750000000000003 0 0.4583333333333333 0.8749999999999999 0 0.3750000000000001 0.916666666666667 0 0.3750000000000002 0.9583333333333338 0 0.4999999999999999 0.9166666666666664 0 0.5 0.9583333333333333 0 0.4166666666666669 1 0 0.4583333333333331 0.9999999999999996 0 0.4166666666666666 0.9166666666666665 0 0.4583333333333334 0.916666666666667 0 0.4166666666666669 0.9583333333333337 0 0.4583333333333335 0.9583333333333337 0 0.4999999999999999 0.8750000000000001 0 0.6249999999999999 0.8749999999999998 0 0.4999999999999994 0.9999999999999989 0 0.6250000000000003 1.000000000000001 0 0.5416666666666666 0.8750000000000003 0 0.5833333333333333 0.8749999999999999 0 0.5000000000000001 0.916666666666667 0 0.5000000000000002 0.9583333333333338 0 0.6249999999999999 0.9166666666666664 0 0.6249999999999999 0.9583333333333333 0 0.5416666666666671 1 0 0.583333333333333 0.9999999999999996 0 0.5416666666666666 0.9166666666666665 0 0.5833333333333334 0.916666666666667 0 0.5416666666666669 0.9583333333333337 0 0.5833333333333336 0.9583333333333337 0 0.6249999999999999 0.8750000000000001 0 0.7499999999999999 0.8749999999999998 0 0.6249999999999992 0.9999999999999989 0 0.7500000000000003 1.000000000000001 0 0.6666666666666665 0.8750000000000003 0 0.7083333333333331 0.8749999999999999 0 0.625 0.916666666666667 0 0.6250000000000004 0.9583333333333338 0 0.7499999999999999 0.9166666666666664 0 0.7499999999999999 0.9583333333333333 0 0.666666666666667 1 0 0.708333333333333 0.9999999999999996 0 0.6666666666666665 0.9166666666666665 0 0.7083333333333336 0.916666666666667 0 0.6666666666666669 0.9583333333333337 0 0.7083333333333336 0.9583333333333337 0 0.75 0.8750000000000001 0 0.8749999999999999 0.8749999999999998 0 0.7499999999999992 0.9999999999999989 0 0.8750000000000003 1.000000000000001 0 0.7916666666666667 0.8750000000000003 0 0.8333333333333331 0.8749999999999999 0 0.7500000000000002 0.916666666666667 0 0.7500000000000004 0.9583333333333338 0 0.8749999999999998 0.9166666666666664 0 0.8749999999999999 0.9583333333333333 0 0.791666666666667 1 0 0.8333333333333329 0.9999999999999996 0 0.7916666666666665 0.9166666666666665 0 0.8333333333333336 0.916666666666667 0 0.791666666666667 0.9583333333333337 0 0.8333333333333337 0.9583333333333337 0 0.8750000000000001 0.8750000000000001 0 0.9999999999999998 0.8749999999999998 0 0.8749999999999989 0.9999999999999989 0 1.000000000000001 1.000000000000001 0 0.9166666666666666 0.8750000000000003 0 0.9583333333333331 0.8749999999999999 0 0.8750000000000002 0.916666666666667 0 0.8750000000000004 0.9583333333333338 0 0.9999999999999998 0.9166666666666664 0 0.9999999999999999 0.9583333333333333 0 0.9166666666666671 1 0 0.9583333333333329 0.9999999999999996 0 0.9166666666666665 0.9166666666666665 0 0.9583333333333337 0.916666666666667 0 0.916666666666667 0.9583333333333337 0 0.9583333333333337 0.9583333333333337 0 </DataArray>
      </Points>
      <Cells>
        <DataArray type="Int32" Name="connectivity" format="ascii">0 1 3 2 4 5 8 9 10 11 6 7 12 13 14 15 16 17 19 18 20 21 24 25 26 27 22 23 28 29 30 31 32 33 35 34 36 37 40 41 42 43 38 39 44 45 46 47 48 49 51 50 52 53 56 57 58 59 54 55 60 61 62 63 64 65 67 66 68 69 72 73 74 75 70 71 76 77 78 79 80 81 83 82 84 85 88 89 90 91 86 87 92 93 94 95 96 97 99 98 100 101 104 105 106 107 102 103 108 109 110 111 112 113 115 114 116 117 120 121 122 123 118 119 124 125 126 127 128 129 131 130 132 133 136 137 138 139 134 135 140 141 142 143 144 145 147 146 148 149 152 153 154 155 150 151 156 157 158 159 160 161 163 162 164 165 168 169 170 171 166 167 172 173 174 175 176 177 179 178 180 181 184 185 186 187 182 183 188 189 190 191 192 193 195 194 196 197 200 201 202 203 198 199 204 205 206 207 208 209 211 210 212 213 216 217 218 219 214 215 220 221 222 223 224 225 227 226 228 229 232 233 234 235 230 231 236 237 238 239 240 241 243 242 244 245 248 249 250 251 246 247 252 253 254 255 256 257 259 258 260 261 264 265 266 267 262 263 268 269 270 271 272 273 275 274 276 277 280 281 282 283 278 279 284 285 286 287 288 289 291 290 292 293 296 297 298 299 294 295 300 301 302 303 304 305 307 306 308 309 312 313 314 315 310 311 316 317 318 319 320 321 323 322 324 325 328 329 330 331 326 327 332 333 334 335 336 337 339 338 340 341 344 345 346 347 342 343 348 349 350 351 352 353 355 354 356 357 360 361 362 363 358 359 364 365 366 367 368 369 371 370 372 373 376 377 378 379 374 375 380 381 382 383 384 385 387 386 388 389 392 393 394 395 390 391 396 397 398 399 400 401 403 402 404 405 408 409 410 411 406 407 412 413 414 415 416 417 419 418 420 421 424 425 426 427 422 423 428 429 430 431 432 433 435 434 436 437 440 441 442 443 438 439 444 445 446 447 448 449 451 450 452 453 456 457 458 459 454 455 460 461 462 463 464 465 467 466 468 469 472 473 474 475 470 471 476 477 478 479 480 481 483 482 484 485 488 489 490 491 486 487 492 493 494 495 496 497 499 498 500 501 504 505 506 507 502 503 508 509 510 511 512 513 515 514 516 517 520 521 522 523 518 519 524 525 526 527 528 529 531 530 532 533 536 537 538 539 534 535 540 541 542 543 544 545 547 546 548 549 552 553 554 555 550 551 556 557 558 559 560 561 563 562 564 565 568 569 570 571 566 567 572 573 574 575 576 577 579 578 580 581 584 585 586 587 582 583 588 589 590 591 592 593 595 594 596 597 600 601 602 603 598 599 604 605 606 607 608 609 611 610 612 613 616 617 618 619 614 615 620 621 622 623 624 625 627 626 628 629 632 633 634 635 630 631 636 637 638 639 640 641 643 642 644 645 648 649 650 651 646 647 652 653 654 655 656 657 659 658 660 661 664 665 666 667 662 663 668 669 670 671 672 673 675 674 676 677 680 681 682 683 678 679 684 685 686 687 688 689 691 690 692 693 696 697 698 699 694 695 700 701 702 703 704 705 707 706 708 709 712 713 714 715 710 711 716 717 718 719 720 721 723 722 724 725 728 729 730 731 726 727 732 733 734 735 736 737 739 738 740 741 744 745 746 747 742 743 748 749 750 751 752 753 755 754 756 757 760 761 762 763 758 759 764 765 766 767 768 769 771 770 772 773 776 777 778 779 774 775 780 781 782 783 784 785 787 786 788 789 792 793 794 795 790 791 796 797 798 799 800 801 803 802 804 805 808 809 810 811 806 807 812 813 814 815 816 817 819 818 820 821 824 825 826 827 822 823 828 829 830 831 832 833 835 834 836 837 840 841 842 843 838 839 844 845 846 847 848 849 851 850 852 853 856 857 858 859 854 855 860 861 862 863 864 865 867 866 868 869 872 873 874 875 870 871 876 877 878 879 880 881 883 882 884 885 888 889 890 891 886 887 892 893 894 895 896 897 899 898 900 901 904 905 906 907 902 903 908 909 910 911 912 913 915 914 916 917 920 921 922 923 918 919 924 925 926 927 928 929 931 930 932 933 936 937 938 939 934 935 940 941 942 943 944 945 947 946 948 949 952 953 954 955 950 951 956 957 958 959 960 961 963 962 964 965 968 969 970 971 966 967 972 973 974 975 976 977 979 978 980 981 984 985 986 987 982 983 988 989 990 991 992 993 995 994 996 997 1000 1001 1002 1003 998 999 1004 1005 1006 1007 1008 1009 1011 1010 1012 1013 1016 1017 1018 1019 1014 1015 1020 1021 1022 1023 </DataArray>
        <DataArray type="Int32" Name="offsets" format="ascii">16 32 48 64 80 96 112 128 144 160 176 192 208 224 240 256 272 288 304 320 336 352 368 384 400 416 432 448 464 480 496 512 528 544 560 576 592 608 624 640 656 672 688 704 720 736 752 768 784 800 816 832 848 864 880 896 912 928 944 960 976 992 1008 1024 </DataArray>
        <DataArray type="Int8" Name="types" format="ascii">70 70 70 70 70 70 70 70 70 70 70 70 70 70 70 70 70 70 70 70 70 70 70 70 70 70 70 70 70 70 70 70 70 70 70 70 70 70 70 70 70 70 70 70 70 70 70 70 70 70 70 70 70 70 70 70 70 70 70 70 70 70 70 70 </DataArray>
      </Cells>
      <CellData>
        <DataArray type="UInt8" Name="vtkGhostType" format="ascii" RangeMin="0" RangeMax="1">0 0 0 0 0 0 0 0 0 0 0 0 0 0 0 0 0 0 0 0 0 0 0 0 0 0 0 0 0 0 0 0 0 0 0 0 0 0 0 0 0 0 0 0 0 0 0 0 0 0 0 0 0 0 0 0 0 0 0 0 0 0 0 0 </DataArray>
        <DataArray type="Int64" IdType="1" Name="vtkOriginalCellIds" format="ascii" RangeMin="0" RangeMax="63">0 1 2 3 4 5 6 7 8 9 10 11 12 13 14 15 16 17 18 19 20 21 22 23 24 25 26 27 28 29 30 31 32 33 34 35 36 37 38 39 40 41 42 43 44 45 46 47 48 49 50 51 52 53 54 55 56 57 58 59 60 61 62 63 </DataArray>
      </CellData>
      <PointData Vectors="solution">
        <DataArray type="Int64" IdType="1" Name="vtkOriginalPointIds" format="ascii" RangeMin="0" RangeMax="1023">0 1 2 3 4 5 6 7 8 9 10 11 12 13 14 15 16 17 18 19 20 21 22 23 24 25 26 27 28 29 30 31 32 33 34 35 36 37 38 39 40 41 42 43 44 45 46 47 48 49 50 51 52 53 54 55 56 57 58 59 60 61 62 63 64 65 66 67 68 69 70 71 72 73 74 75 76 77 78 79 80 81 82 83 84 85 86 87 88 89 90 91 92 93 94 95 96 97 98 99 100 101 102 103 104 105 106 107 108 109 110 111 112 113 114 115 116 117 118 119 120 121 122 123 124 125 126 127 128 129 130 131 132 133 134 135 136 137 138 139 140 141 142 143 144 145 146 147 148 149 150 151 152 153 154 155 156 157 158 159 160 161 162 163 164 165 166 167 168 169 170 171 172 173 174 175 176 177 178 179 180 181 182 183 184 185 186 187 188 189 190 191 192 193 194 195 196 197 198 199 200 201 202 203 204 205 206 207 208 209 210 211 212 213 214 215 216 217 218 219 220 221 222 223 224 225 226 227 228 229 230 231 232 233 234 235 236 237 238 239 240 241 242 243 244 245 246 247 248 249 250 251 252 253 254 255 256 257 258 259 260 261 262 263 264 265 266 267 268 269 270 271 272 273 274 275 276 277 278 279 280 281 282 283 284 285 286 287 288 289 290 291 292 293 294 295 296 297 298 299 300 301 302 303 304 305 306 307 308 309 310 311 312 313 314 315 316 317 318 319 320 321 322 323 324 325 326 327 328 329 330 331 332 333 334 335 336 337 338 339 340 341 342 343 344 345 346 347 348 349 350 351 352 353 354 355 356 357 358 359 360 361 362 363 364 365 366 367 368 369 370 371 372 373 374 375 376 377 378 379 380 381 382 383 384 385 386 387 388 389 390 391 392 393 394 395 396 397 398 399 400 401 402 403 404 405 406 407 408 409 410 411 412 413 414 415 416 417 418 419 420 421 422 423 424 425 426 427 428 429 430 431 432 433 434 435 436 437 438 439 440 441 442 443 444 445 446 447 448 449 450 451 452 453 454 455 456 457 458 459 460 461 462 463 464 465 466 467 468 469 470 471 472 473 474 475 476 477 478 479 480 481 482 483 484 485 486 487 488 489 490 491 492 493 494 495 496 497 498 499 500 501 502 503 504 505 506 507 508 509 510 511 512 513 514 515 516 517 518 519 520 521 522 523 524 525 526 527 528 529 530 531 532 533 534 535 536 537 538 539 540 541 542 543 544 545 546 547 548 549 550 551 552 553 554 555 556 557 558 559 560 561 562 563 564 565 566 567 568 569 570 571 572 573 574 575 576 577 578 579 580 581 582 583 584 585 586 587 588 589 590 591 592 593 594 595 596 597 598 599 600 601 602 603 604 605 606 607 608 609 610 611 612 613 614 615 616 617 618 619 620 621 622 623 624 625 626 627 628 629 630 631 632 633 634 635 636 637 638 639 640 641 642 643 644 645 646 647 648 649 650 651 652 653 654 655 656 657 658 659 660 661 662 663 664 665 666 667 668 669 670 671 672 673 674 675 676 677 678 679 680 681 682 683 684 685 686 687 688 689 690 691 692 693 694 695 696 697 698 699 700 701 702 703 704 705 706 707 708 709 710 711 712 713 714 715 716 717 718 719 720 721 722 723 724 725 726 727 728 729 730 731 732 733 734 735 736 737 738 739 740 741 742 743 744 745 746 747 748 749 750 751 752 753 754 755 756 757 758 759 760 761 762 763 764 765 766 767 768 769 770 771 772 773 774 775 776 777 778 779 780 781 782 783 784 785 786 787 788 789 790 791 792 793 794 795 796 797 798 799 800 801 802 803 804 805 806 807 808 809 810 811 812 813 814 815 816 817 818 819 820 821 822 823 824 825 826 827 828 829 830 831 832 833 834 835 836 837 838 839 840 841 842 843 844 845 846 847 848 849 850 851 852 853 854 855 856 857 858 859 860 861 862 863 864 865 866 867 868 869 870 871 872 873 874 875 876 877 878 879 880 881 882 883 884 885 886 887 888 889 890 891 892 893 894 895 896 897 898 899 900 901 902 903 904 905 906 907 908 909 910 911 912 913 914 915 916 917 918 919 920 921 922 923 924 925 926 927 928 929 930 931 932 933 934 935 936 937 938 939 940 941 942 943 944 945 946 947 948 949 950 951 952 953 954 955 956 957 958 959 960 961 962 963 964 965 966 967 968 969 970 971 972 973 974 975 976 977 978 979 980 981 982 983 984 985 986 987 988 989 990 991 992 993 994 995 996 997 998 999 1000 1001 1002 1003 1004 1005 1006 1007 1008 1009 1010 1011 1012 1013 1014 1015 1016 1017 1018 1019 1020 1021 1022 1023 </DataArray>
        <DataArray type="UInt8" Name="vtkGhostType" format="ascii" RangeMin="0" RangeMax="0">0 0 0 0 0 0 0 0 0 0 0 0 0 0 0 0 0 0 0 0 0 0 0 0 0 0 0 0 0 0 0 0 0 0 0 0 0 0 0 0 0 0 0 0 0 0 0 0 0 0 0 0 0 0 0 0 0 0 0 0 0 0 0 0 0 0 0 0 0 0 0 0 0 0 0 0 0 0 0 0 0 0 0 0 0 0 0 0 0 0 0 0 0 0 0 0 0 0 0 0 0 0 0 0 0 0 0 0 0 0 0 0 0 0 0 0 0 0 0 0 0 0 0 0 0 0 0 0 0 0 0 0 0 0 0 0 0 0 0 0 0 0 0 0 0 0 0 0 0 0 0 0 0 0 0 0 0 0 0 0 0 0 0 0 0 0 0 0 0 0 0 0 0 0 0 0 0 0 0 0 0 0 0 0 0 0 0 0 0 0 0 0 0 0 0 0 0 0 0 0 0 0 0 0 0 0 0 0 0 0 0 0 0 0 0 0 0 0 0 0 0 0 0 0 0 0 0 0 0 0 0 0 0 0 0 0 0 0 0 0 0 0 0 0 0 0 0 0 0 0 0 0 0 0 0 0 0 0 0 0 0 0 0 0 0 0 0 0 0 0 0 0 0 0 0 0 0 0 0 0 0 0 0 0 0 0 0 0 0 0 0 0 0 0 0 0 0 0 0 0 0 0 0 0 0 0 0 0 0 0 0 0 0 0 0 0 0 0 0 0 0 0 0 0 0 0 0 0 0 0 0 0 0 0 0 0 0 0 0 0 0 0 0 0 0 0 0 0 0 0 0 0 0 0 0 0 0 0 0 0 0 0 0 0 0 0 0 0 0 0 0 0 0 0 0 0 0 0 0 0 0 0 0 0 0 0 0 0 0 0 0 0 0 0 0 0 0 0 0 0 0 0 0 0 0 0 0 0 0 0 0 0 0 0 0 0 0 0 0 0 0 0 0 0 0 0 0 0 0 0 0 0 0 0 0 0 0 0 0 0 0 0 0 0 0 0 0 0 0 0 0 0 0 0 0 0 0 0 0 0 0 0 0 0 0 0 0 0 0 0 0 0 0 0 0 0 0 0 0 0 0 0 0 0 0 0 0 0 0 0 0 0 0 0 0 0 0 0 0 0 0 0 0 0 0 0 0 0 0 0 0 0 0 0 0 0 0 0 0 0 0 0 0 0 0 0 0 0 0 0 0 0 0 0 0 0 0 0 0 0 0 0 0 0 0 0 0 0 0 0 0 0 0 0 0 0 0 0 0 0 0 0 0 0 0 0 0 0 0 0 0 0 0 0 0 0 0 0 0 0 0 0 0 0 0 0 0 0 0 0 0 0 0 0 0 0 0 0 0 0 0 0 0 0 0 0 0 0 0 0 0 0 0 0 0 0 0 0 0 0 0 0 0 0 0 0 0 0 0 0 0 0 0 0 0 0 0 0 0 0 0 0 0 0 0 0 0 0 0 0 0 0 0 0 0 0 0 0 0 0 0 0 0 0 0 0 0 0 0 0 0 0 0 0 0 0 0 0 0 0 0 0 0 0 0 0 0 0 0 0 0 0 0 0 0 0 0 0 0 0 0 0 0 0 0 0 0 0 0 0 0 0 0 0 0 0 0 0 0 0 0 0 0 0 0 0 0 0 0 0 0 0 0 0 0 0 0 0 0 0 0 0 0 0 0 0 0 0 0 0 0 0 0 0 0 0 0 0 0 0 0 0 0 0 0 0 0 0 0 0 0 0 0 0 0 0 0 0 0 0 0 0 0 0 0 0 0 0 0 0 0 0 0 0 0 0 0 0 0 0 0 0 0 0 0 0 0 0 0 0 0 0 0 0 0 0 0 0 0 0 0 0 0 0 0 0 0 0 0 0 0 0 0 0 0 0 0 0 0 0 0 0 0 0 0 0 0 0 0 0 0 0 0 0 0 0 0 0 0 0 0 0 0 0 0 0 0 0 0 0 0 0 0 0 0 0 0 0 0 0 0 0 0 0 0 0 0 0 0 0 0 0 0 0 0 0 0 0 0 0 0 0 0 0 0 0 0 0 0 0 0 0 0 0 0 0 0 0 0 0 0 0 0 0 0 0 0 0 0 0 0 0 0 0 0 0 0 0 0 0 0 0 0 0 0 0 0 0 0 0 0 0 0 0 0 0 0 0 0 0 0 0 0 0 0 0 0 0 0 0 0 0 0 0 0 0 0 0 0 0 0 0 0 0 0 0 0 0 0 0 0 0 0 0 0 0 0 0 0 0 0 0 0 0 0 0 0 0 0 0 0 0 0 0 0 0 0 0 0 0 0 0 0 0 </DataArray>
        <DataArray type="Float64" Name="solution" format="ascii" NumberOfComponents="3">0.5100106654156332 0.5100106592476986 0 0.6291272241646759 0.6295778010237836 0 0.6692211344379627 0.668621192692916 0 0.8228213546696562 0.8226719631337261 0 0.5497161849986478 0.5498663731730606 0 0.5894217045816621 0.5897220870984223 0 0.5630808217564104 0.5628808370627718 0 0.6161509780971877 0.6157510148778449 0 0.6936919343330028 0.6939425217270978 0 0.758256644501329 0.7583072424304116 0 0.7204212078485281 0.7199714495065204 0 0.771621281259091 0.7713217063201221 0 0.6066178592819412 0.6065680652842138 0 0.6501548968074724 0.6502552935056563 0 0.6635195335652349 0.6632697573953671 0 0.7108880890332823 0.7107884999128896 0 0.6291272241646764 0.629577801023784 0 0.6686211784036911 0.6692211493154625 0 0.8228213546696546 0.8226719631337244 0 0.822671965857297 0.8228213520925651 0 0.6422918755776815 0.6427922504543437 0 0.6554565269906867 0.6560066998849036 0 0.693691934333003 0.6939425217270981 0 0.7582566445013297 0.758307242430412 0 0.7199714408882267 0.7204212169078306 0 0.7713217033727616 0.7716212845001975 0 0.8209061203811153 0.8208639093822752 0 0.8209874965974528 0.8210443436473283 0 0.7018299571788262 0.7021494700969877 0 0.7106335168596093 0.7110192478057122 0 0.7613680387799712 0.7615066897396319 0 0.7658105067285316 0.7660317957265207 0 0.668621178403692 0.6692211493154634 0 0.7102227084211881 0.7103434206119025 0 0.8226719658572957 0.8228213520925639 0 0.8239963007119308 0.8256378449813193 0 0.6824883550761909 0.6829285730809433 0 0.6963555317486897 0.6966359968464231 0 0.7199714408882271 0.7204212169078307 0 0.7713217033727621 0.7716212845001981 0 0.748147239184769 0.7487748954017081 0 0.7860717699483495 0.7872063701915133 0 0.8088071149461941 0.8097204897847542 0 0.8086125703446052 0.809908892424676 0 0.7245946083661918 0.7251925453155468 0 0.7337745446139952 0.734393628705841 0 0.7667008616561931 0.7674565175501507 0 0.7711935574793006 0.7721512605652591 0 0.7102227084211886 0.710343420611903 0 0.6618656400919247 0.664180517308647 0 0.8239963007119291 0.8256378449813175 0 0.8214787662202458 0.8220551646056536 0 0.6941036856447674 0.6949557861774844 0 0.6779846628683462 0.679568151743066 0 0.7481472391847697 0.7487748954017087 0 0.7860717699483504 0.7872063701915142 0 0.7150700154680321 0.7168053997409829 0 0.7682743908441392 0.7694302821733184 0 0.8074349423315135 0.8090541772712129 0 0.8069969710979866 0.8084299573368297 0 0.7318807712070162 0.7329885832087273 0 0.7209887656115599 0.7225220869409873 0 0.7696578567692649 0.77102138023997 0 0.7639928683547732 0.7654760221389084 0 0.6618656400919248 0.6641805173086471 0 0.6234333870649927 0.6251718591917212 0 0.8214787662202467 0.8220551646056546 0 0.8220551668639861 0.8214787630879152 0 0.649054889082948 0.6511776312696723 0 0.6362441380739705 0.6381747452306971 0 0.7150700154680319 0.7168053997409828 0 0.7682743908441387 0.7694302821733181 0 0.6896406469979905 0.6906074938237861 0 0.7558479069309885 0.7560431284558508 0 0.8199964358890122 0.8202157828576652 0 0.820061985112831 0.8198991272550372 0 0.7060354046849691 0.7075236817990029 0 0.6975167537535903 0.69874953923881 0 0.7630159202869906 0.7638697323283341 0 0.7587893694332106 0.7593243332469234 0 0.6234333870649931 0.6251718591917217 0 0.5075189942484283 0.5075189878639913 0 0.8220551668639873 0.8214787630879163 0 0.664180505836615 0.6618656480539167 0 0.5847952561261383 0.5859542354158116 0 0.5461571251872837 0.5467366116399018 0 0.6896406469979909 0.6906074938237862 0 0.7558479069309882 0.7560431284558504 0 0.5597394981111579 0.5589678745939671 0 0.6119600019738864 0.610416761323942 0 0.7694302798548625 0.7682743914099157 0 0.7168053928457396 0.7150700197319171 0 0.6463402640357131 0.6467276207471797 0 0.6030398810734352 0.6028477476705733 0 0.7078852719452877 0.7075010060785476 0 0.659922636959587 0.6589588837012448 0 0.6692211344379639 0.6686211926929172 0 0.822821354669655 0.822671963133725 0 0.710343422531437 0.7102227133162746 0 0.8256378465501935 0.8239963003558688 0 0.7204212078485279 0.71997144950652 0 0.7716212812590915 0.7713217063201224 0 0.6829285638024554 0.6824883662340367 0 0.6966359931669469 0.6963555397751564 0 0.8097204887992008 0.8088071154785293 0 0.8099088918617987 0.808612571277479 0 0.7487748972043569 0.7481472423294737 0 0.7872063718772739 0.7860717713426701 0 0.7251925388013704 0.7245946159822008 0 0.7674565138002857 0.7667008657303651 0 0.7343936260652308 0.7337745502759307 0 0.7721512589635151 0.7711935607767052 0 0.8220551668639866 0.8214787630879157 0 0.6641805058366158 0.6618656480539175 0 0.8256378465501952 0.8239963003558703 0 0.7103434225314372 0.7102227133162753 0 0.7694302798548633 0.7682743914099166 0 0.7168053928457396 0.7150700197319171 0 0.8084299568181417 0.806996970278173 0 0.8090541771242553 0.8074349422983048 0 0.6795681447348898 0.677984669808037 0 0.6949557836331637 0.6941036915621563 0 0.7872063718772742 0.7860717713426704 0 0.7487748972043575 0.7481472423294745 0 0.7654760194570577 0.7639928701214609 0 0.7225220820959734 0.7209887699647486 0 0.7710213792938917 0.7696578587195888 0 0.7329885814635275 0.7318807751408725 0 0.710343422531438 0.7102227133162756 0 0.8256378465501923 0.8239963003558678 0 0.6641805058366157 0.6618656480539183 0 0.8220551668639857 0.821478763087915 0 0.7487748972043564 0.7481472423294732 0 0.7872063718772744 0.7860717713426704 0 0.6949557836331639 0.6941036915621566 0 0.6795681447348899 0.6779846698080376 0 0.8090541771242555 0.8074349422983051 0 0.8084299568181409 0.8069969702781724 0 0.7168053928457393 0.7150700197319175 0 0.7694302798548622 0.7682743914099159 0 0.7329885814635276 0.7318807751408727 0 0.7710213792938915 0.7696578587195889 0 0.7225220820959735 0.720988769964749 0 0.7654760194570573 0.7639928701214609 0 0.8256378465501937 0.823996300355869 0 0.7103434225314378 0.7102227133162758 0 0.822821354669658 0.822671963133727 0 0.6692211344379621 0.6686211926929165 0 0.7872063718772749 0.786071771342671 0 0.7487748972043569 0.7481472423294739 0 0.8099088918617993 0.8086125712774792 0 0.8097204887992003 0.8088071154785286 0 0.6966359931669465 0.6963555397751567 0 0.6829285638024546 0.682488366234037 0 0.771621281259091 0.7713217063201219 0 0.7204212078485278 0.7199714495065206 0 0.7721512589635151 0.771193560776705 0 0.73439362606523 0.7337745502759302 0 0.7674565138002848 0.7667008657303644 0 0.7251925388013697 0.7245946159822007 0 0.6641805058366156 0.6618656480539182 0 0.8220551668639856 0.821478763087915 0 0.5075189942484289 0.5075189878639926 0 0.6234333870649926 0.6251718591917208 0 0.716805392845739 0.7150700197319172 0 0.7694302798548625 0.7682743914099162 0 0.6119600019738868 0.6104167613239431 0 0.5597394981111573 0.5589678745939672 0 0.7558479069309879 0.7560431284558504 0 0.6896406469979905 0.6906074938237858 0 0.5461571251872834 0.5467366116399019 0 0.5847952561261385 0.5859542354158118 0 0.6599226369595871 0.6589588837012456 0 0.7078852719452873 0.7075010060785476 0 0.603039881073435 0.6028477476705735 0 0.6463402640357127 0.6467276207471795 0 0.8220551668639856 0.821478763087915 0 0.8214787662202454 0.8220551646056532 0 0.6234333870649938 0.625171859191722 0 0.6618656400919249 0.6641805173086465 0 0.82006198511283 0.8198991272550362 0 0.8199964358890119 0.8202157828576651 0 0.7558479069309881 0.7560431284558504 0 0.6896406469979899 0.6906074938237852 0 0.7682743908441387 0.7694302821733177 0 0.7150700154680319 0.7168053997409822 0 0.6362441380739702 0.6381747452306962 0 0.6490548890829484 0.6511776312696721 0 0.7587893694332103 0.7593243332469231 0 0.7630159202869902 0.7638697323283334 0 0.69751675375359 0.6987495392388092 0 0.7060354046849691 0.7075236817990025 0 0.8214787662202454 0.8220551646056532 0 0.8239963007119309 0.8256378449813193 0 0.6618656400919263 0.6641805173086478 0 0.7102227084211898 0.710343420611904 0 0.8069969710979864 0.8084299573368291 0 0.8074349423315141 0.8090541772712132 0 0.7682743908441387 0.7694302821733178 0 0.7150700154680314 0.7168053997409817 0 0.7860717699483506 0.7872063701915142 0 0.7481472391847711 0.7487748954017101 0 0.6779846628683464 0.6795681517430654 0 0.6941036856447697 0.6949557861774863 0 0.7639928683547732 0.7654760221389082 0 0.7696578567692648 0.7710213802399697 0 0.72098876561156 0.7225220869409869 0 0.7318807712070168 0.7329885832087275 0 0.8239963007119309 0.8256378449813193 0 0.8226719658572978 0.822821352092565 0 0.7102227084211928 0.710343420611907 0 0.6686211784036903 0.6692211493154621 0 0.8086125703446059 0.8099088924246763 0 0.8088071149461942 0.8097204897847539 0 0.786071769948351 0.7872063701915147 0 0.7481472391847703 0.7487748954017092 0 0.7713217033727622 0.7716212845001976 0 0.719971440888227 0.7204212169078306 0 0.6963555317486904 0.6966359968464237 0 0.6824883550761919 0.6829285730809445 0 0.7711935574793007 0.772151260565259 0 0.7667008616561924 0.7674565175501498 0 0.7337745446139955 0.7343936287058412 0 0.7245946083661914 0.7251925453155463 0 0.8226719658572976 0.8228213520925649 0 0.8228213546696567 0.8226719631337257 0 0.6686211784036931 0.6692211493154648 0 0.6291272241646755 0.6295778010237835 0 0.8209874965974538 0.8210443436473283 0 0.820906120381116 0.820863909382275 0 0.771321703372762 0.7716212845001973 0 0.7199714408882256 0.7204212169078291 0 0.7582566445013292 0.7583072424304113 0 0.6936919343330027 0.6939425217270976 0 0.6554565269906851 0.6560066998849022 0 0.6422918755776817 0.6427922504543444 0 0.7658105067285313 0.7660317957265199 0 0.7613680387799705 0.7615066897396308 0 0.7106335168596076 0.7110192478057106 0 0.701829957178825 0.7021494700969865 0 0.8228213546696567 0.8226719631337257 0 0.6692211344379629 0.6686211926929174 0 0.6291272241646781 0.6295778010237861 0 0.5100106654156327 0.5100106592476981 0 0.7716212812590922 0.7713217063201231 0 0.7204212078485277 0.7199714495065204 0 0.7582566445013292 0.7583072424304113 0 0.6936919343330015 0.6939425217270965 0 0.6161509780971864 0.6157510148778446 0 0.5630808217564103 0.562880837062772 0 0.5894217045816608 0.5897220870984212 0 0.5497161849986488 0.5498663731730618 0 0.710888089033282 0.7107884999128895 0 0.6635195335652335 0.6632697573953663 0 0.6501548968074709 0.6502552935056548 0 0.6066178592819401 0.6065680652842129 0 -6.866524055873798e-19 -6.866524063566554e-19 0 -3.382084310036179e-18 -3.38208431849821e-18 0 1.18384831750588e-19 6.612981268243195e-20 0 0.1484355608609471 0.1484355610272435 0 1.100349772869839e-17 1.100349773946825e-17 0 -2.712491143749045e-18 -2.71249114990325e-18 0 9.647252156823864e-18 9.64725216451662e-18 0 1.105467544659912e-17 1.105467545275333e-17 0 0.04947852028698232 0.04947852034241448 0 0.09895704057396472 0.09895704068482901 0 0.04947852028698244 0.04947852034241459 0 0.09895704057396466 0.09895704068482897 0 0.01649284009566078 0.01649284011413817 0 0.03298568019132156 0.03298568022827633 0 0.0329856801913216 0.03298568022827637 0 0.06597136038264315 0.06597136045655268 0 -1.98617420441334e-17 -1.986174207105805e-17 0 -1.573686818703648e-17 -1.587870303274148e-17 0 0.1484355608609468 0.1484355610272433 0 0.274547328443153 0.2761610565148913 0 3.823665011605583e-17 3.834116001985568e-17 0 -6.378422195544884e-18 -6.438142133979578e-18 0 0.04947852028698239 0.04947852034241454 0 0.09895704057396483 0.09895704068482913 0 0.09151577614771768 0.09205368550496376 0 0.1830315522954354 0.1841073710099275 0 0.1904728167216825 0.1910107261897929 0 0.2325100725824177 0.233585891352342 0 0.06349093890722747 0.06367024206326427 0 0.0775033575274726 0.07786196378411404 0 0.126981877814455 0.1273404841265286 0 0.1550067150549452 0.1557239275682281 0 -4.388420825829547e-17 -4.417534294547156e-17 0 -1.997663194644016e-17 -2.020638669435236e-17 0 0.2745473284431527 0.2761610565148909 0 0.3563048051406737 0.3590037762528721 0 5.951092637333897e-17 5.984994968808006e-17 0 -4.039020951661176e-18 -4.131307166664157e-18 0 0.09151577614771779 0.09205368550496387 0 0.1830315522954356 0.1841073710099278 0 0.1187682683802245 0.1196679254176239 0 0.2375365367604489 0.2393358508352479 0 0.30179982067566 0.3037752964275516 0 0.3290523129081665 0.3313895363402116 0 0.10059994022522 0.1012584321425172 0 0.1096841043027222 0.1104631787800706 0 0.20119988045044 0.2025168642850345 0 0.2193682086054445 0.2209263575601412 0 -5.802159457386835e-17 -5.853091427875608e-17 0 -2.127651751326721e-17 -2.111828827879989e-17 0 0.356304805140673 0.3590037762528714 0 0.3881937452698417 0.3860229320381516 0 7.174836135557507e-17 7.188244844526912e-17 0 -1.033598932318688e-17 -1.030559409331345e-17 0 0.1187682683802246 0.1196679254176241 0 0.2375365367604492 0.2393358508352481 0 0.1293979150899472 0.1286743106793838 0 0.2587958301798944 0.2573486213587676 0 0.3669344518503962 0.3680101615146318 0 0.3775640985601189 0.3770165467763915 0 0.1223114839501321 0.1226700538382106 0 0.1258546995200397 0.1256721822587973 0 0.2446229679002642 0.2453401076764213 0 0.2517093990400794 0.2513443645175945 0 -7.485418980200454e-17 -7.443975426940217e-17 0 -1.969355705148271e-17 -1.973209904255397e-17 0 0.3881937452698414 0.3860229320381512 0 0.359065506679472 0.3593897654271767 0 7.297960563880727e-17 7.281430706448294e-17 0 -4.737382057188871e-18 -4.739340012976869e-18 0 0.1293979150899474 0.128674310679384 0 0.2587958301798946 0.2573486213587678 0 0.1196885022264907 0.1197965884757256 0 0.2393770044529814 0.2395931769514511 0 0.3784843324063851 0.3771452098344932 0 0.3687749195429286 0.3682674876308351 0 0.1261614441354617 0.1257150699448311 0 0.1229249731809762 0.1227558292102783 0 0.2523228882709234 0.2514301398896622 0 0.2458499463619524 0.2455116584205567 0 -6.009681702373755e-17 -6.012519086157891e-17 0 -1.482151893353525e-17 -1.483206650962891e-17 0 0.359065506679472 0.3593897654271767 0 0.2752187153422793 0.2753557867957755 0 6.248496965708875e-17 6.252424902812147e-17 0 -3.351398819773285e-18 -3.357971480594788e-18 0 0.1196885022264908 0.1197965884757257 0 0.2393770044529814 0.2395931769514512 0 0.09173957178075984 0.0917852622652586 0 0.1834791435615197 0.1835705245305172 0 0.331116576233741 0.3313784392167096 0 0.3031676457880106 0.303367113006243 0 0.1103721920779138 0.1104594797389033 0 0.1010558819293367 0.1011223710020809 0 0.2207443841558274 0.2209189594778064 0 0.2021117638586734 0.2022447420041617 0 -4.692841169633571e-17 -4.695764092153088e-17 0 -7.680423283658442e-18 -7.679789152533826e-18 0 0.2752187153422799 0.2753557867957762 0 0.1493259883794067 0.1493259878301468 0 4.420841088723835e-17 4.422236067433825e-17 0 -5.26895504657338e-18 -5.271491357641523e-18 0 0.09173957178075984 0.0917852622652586 0 0.1834791435615195 0.183570524530517 0 0.04977532945980255 0.04977532927671593 0 0.09955065891960491 0.09955065855343168 0 0.2332544730213217 0.2333458538072327 0 0.1912902307003649 0.1913359208186905 0 0.07775149100710736 0.07778195126907766 0 0.06376341023345479 0.06377864027289663 0 0.1555029820142145 0.1555639025381551 0 0.1275268204669094 0.1275572805457931 0 -1.000990668544237e-17 -1.001180889587594e-17 0 6.907714603072452e-19 6.90771457766408e-19 0 0.1493259883794084 0.1493259878301486 0 -1.278756836008549e-15 -1.278756832382774e-15 0 1.797770022770827e-17 1.797770017180985e-17 0 -1.372721790753718e-18 -1.372721780590369e-18 0 0.04977532945980242 0.04977532927671581 0 0.09955065891960457 0.09955065855343136 0 -3.343357490815825e-17 -3.343357514445612e-17 0 -6.893946419723817e-17 -6.893946466221135e-17 0 0.09955065891960427 0.09955065855343105 0 0.04977532945980288 0.04977532927671627 0 0.0331835529732016 0.03318355285114386 0 0.01659177648660061 0.01659177642557174 0 0.06636710594640277 0.06636710570228729 0 0.03318355297320113 0.03318355285114339 0 -1.460475494280714e-17 -1.462714997273871e-17 0 0.1484355608609469 0.1484355610272434 0 -1.347314255483708e-17 -1.331637755763612e-17 0 0.2761610586157474 0.2745473288023245 0 0.04947852028698237 0.04947852034241453 0 0.09895704057396466 0.09895704068482897 0 3.014950448032076e-17 3.00599244852171e-17 0 2.602358102775504e-17 2.596386103101927e-17 0 0.1910107267792136 0.1904728169522703 0 0.2335858926974803 0.2325100728772972 0 0.09205368620524919 0.09151577626744156 0 0.1841073724104979 0.1830315525348827 0 0.06367024225973793 0.06349093898409014 0 0.1273404845194759 0.1269818779681803 0 0.07786196423249357 0.07750335762576588 0 0.155723928464987 0.1550067152515316 0 0.148435560860947 0.1484355610272435 0 0.2745473284431528 0.276161056514891 0 0.2761610586157466 0.2745473288023237 0 0.510010665415634 0.5100106592476994 0 0.1904728167216824 0.1910107261897928 0 0.2325100725824176 0.233585891352342 0 0.1910107267792138 0.1904728169522705 0 0.2335858926974808 0.2325100728772977 0 0.3530351074339797 0.3541109240924937 0 0.4315228864248067 0.4320607916700964 0 0.3541109275490428 0.3530351056174494 0 0.4320607964823378 0.4315228824325738 0 0.2450188536641358 0.2450188526656782 0 0.299026980549058 0.2995648883790862 0 0.2995648906065894 0.2990269791415638 0 0.3655438885156981 0.3655438854058302 0 0.2745473284431529 0.2761610565148912 0 0.356304805140673 0.3590037762528714 0 0.5100106654156326 0.510010659247698 0 0.6686211784036923 0.6692211493154637 0 0.3017998206756601 0.3037752964275517 0 0.3290523129081664 0.3313895363402115 0 0.35303510743398 0.354110924092494 0 0.4315228864248071 0.4320607916700968 0 0.4604102628950127 0.4624095672737355 0 0.5645157206493522 0.5658153582945993 0 0.5628808364116534 0.5630808226036208 0 0.6157510074076722 0.6161509859595415 0 0.3888268259209909 0.3902104718195745 0 0.4246185444080021 0.4263100195466553 0 0.4758538311663222 0.4766456472115976 0 0.5201847759078373 0.5212305027530987 0 0.3563048051406733 0.3590037762528717 0 0.3881937452698414 0.3860229320381512 0 0.6686211784036908 0.6692211493154623 0 0.7102227084211893 0.7103434206119037 0 0.3669344518503963 0.3680101615146318 0 0.3775640985601187 0.3770165467763915 0 0.4604102628950131 0.4624095672737359 0 0.564515720649353 0.5658153582946001 0 0.4955367329869573 0.4941297615627353 0 0.6028797207040728 0.6022365910873191 0 0.6824883550761912 0.6829285730809436 0 0.6963555317486896 0.6966359968464231 0 0.4721190862589943 0.4729829653700688 0 0.4838279096229761 0.4835563634664024 0 0.5773037206675928 0.5779557692255063 0 0.5900917206858329 0.5900961801564129 0 0.3881937452698416 0.3860229320381514 0 0.3590655066794718 0.3593897654271765 0 0.7102227084211878 0.7103434206119023 0 0.6618656400919253 0.6641805173086477 0 0.3784843324063852 0.3771452098344933 0 0.3687749195429284 0.3682674876308348 0 0.4955367329869576 0.4941297615627356 0 0.6028797207040734 0.6022365910873195 0 0.459998884483623 0.4609866827210002 0 0.560932262287774 0.5625836000148238 0 0.6941036856447677 0.6949557861774847 0 0.6779846628683464 0.679568151743066 0 0.483690783485846 0.4830820686154904 0 0.4718448339847346 0.4720343756682455 0 0.5888972345653067 0.5890189273964874 0 0.5749147484265403 0.5758012637056557 0 0.3590655066794721 0.3593897654271768 0 0.2752187153422793 0.2753557867957756 0 0.6618656400919248 0.6641805173086471 0 0.5075189942484284 0.5075189878639914 0 0.3311165762337413 0.3313784392167098 0 0.3031676457880103 0.3033671130062428 0 0.4599988844836232 0.4609866827210005 0 0.5609322622877742 0.5625836000148239 0 0.3526521416443291 0.352743520485181 0 0.4300855679463789 0.4301312541745863 0 0.6104167581440928 0.611960007493762 0 0.5589678761962611 0.5597394976788772 0 0.4242166368705251 0.4249056286423939 0 0.3884343892574269 0.3888245745637872 0 0.5173166975073088 0.5184328180680778 0 0.4737011327268437 0.4742820361213319 0 0.2752187153422795 0.2753557867957758 0 0.1493259883794073 0.1493259878301475 0 0.5075189942484291 0.5075189878639921 0 0.2753557865960643 0.275218718133727 0 0.233254473021322 0.2333458538072329 0 0.1912902307003647 0.1913359208186902 0 0.352652141644329 0.3527435204851809 0 0.4300855679463786 0.4301312541745861 0 0.1913359211182934 0.1912902312646744 0 0.2333458538571792 0.233254474699201 0 0.430131258364307 0.4300855646205699 0 0.352743522480187 0.3526521413771498 0 0.2988800681356506 0.2989257574116789 0 0.2451079946269714 0.245107994338176 0 0.3645056632499785 0.364505661016124 0 0.2989257585535785 0.2988800678576622 0 0.149325988379407 0.1493259878301472 0 -1.08589982248161e-16 -1.085899829265646e-16 0 0.2753557865960673 0.27521871813373 0 -2.376649282057726e-15 -2.375741929256076e-15 0 0.09955065891960457 0.09955065855343136 0 0.04977532945980247 0.04977532927671585 0 0.191335921118293 0.191290231264674 0 0.2333458538571785 0.2332544746992004 0 6.702421967068526e-17 6.691896336354266e-17 0 -1.315654904713828e-16 -1.316935726683951e-16 0 0.1835705243973757 0.1834791454224842 0 0.09178526219868896 0.09173957271124319 0 0.1275572807455287 0.1275268208431161 0 0.06377864037276365 0.06376341042155732 0 0.1555639025714517 0.1555029831327996 0 0.07778195128572525 0.07775149156639921 0 1.836859226016127e-17 1.833126725643185e-17 0 0.2761610586157469 0.274547328802324 0 -5.84253629538139e-17 -5.784113215995664e-17 0 0.359003773513233 0.3563048044762465 0 0.09205368620524901 0.09151577626744137 0 0.184107372410498 0.1830315525348828 0 5.148178458028024e-17 5.125242218195717e-17 0 3.696047315078894e-17 3.683073123196207e-17 0 0.3037752969149089 0.3017998206936315 0 0.3313895352140709 0.3290523125849388 0 0.1196679245044112 0.118768268158749 0 0.2393358490088218 0.2375365363174974 0 0.1012584323049697 0.1005999402312105 0 0.2025168646099394 0.201199880462421 0 0.1104631784046904 0.1096841041949798 0 0.2209263568093807 0.2193682083899594 0 0.2761610586157471 0.2745473288023242 0 0.510010665415633 0.5100106592476984 0 0.3590037735132322 0.3563048044762456 0 0.6692211344379644 0.6686211926929176 0 0.3541109275490425 0.353035105617449 0 0.4320607964823379 0.4315228824325739 0 0.3037752969149092 0.3017998206936317 0 0.3313895352140716 0.3290523125849395 0 0.5630808217564102 0.5628808370627716 0 0.6161509780971868 0.6157510148778441 0 0.4624095604881435 0.4604102672151369 0 0.5658153474630532 0.5645157299540264 0 0.3902104718620761 0.3888268261500117 0 0.4766456468092434 0.4758538316063918 0 0.4263100161751099 0.4246185466825743 0 0.5212304971361487 0.5201847807802095 0 0.5075189942484285 0.5075189878639915 0 0.2753557865960653 0.275218718133728 0 0.6641805058366167 0.6618656480539183 0 0.359389761714121 0.3590655082336452 0 0.4301312583643073 0.4300855646205702 0 0.3527435224801864 0.3526521413771492 0 0.5597394981111574 0.5589678745939667 0 0.6119600019738861 0.6104167613239415 0 0.303367111635418 0.3031676481670345 0 0.3313784366747702 0.3311165782003406 0 0.5625835911291173 0.5609322681138265 0 0.4609866764216208 0.4599988881737376 0 0.4742820359525778 0.4737011324516561 0 0.3888245737939968 0.3884343903093442 0 0.518432813540847 0.5173167002827408 0 0.4249056251078078 0.4242166392415399 0 0.2753557865960648 0.2752187181337275 0 3.193965086019447e-16 3.189583669859203e-16 0 0.3593897617141251 0.3590655082336493 0 -3.109409352075898e-15 -3.107251476517645e-15 0 0.1835705243973767 0.1834791454224851 0 0.09178526219868871 0.09173957271124294 0 0.3033671116354169 0.3031676481670335 0 0.3313784366747692 0.3311165782003396 0 1.143421463564378e-16 1.138752013855434e-16 0 9.906065305620941e-17 9.84648447735514e-17 0 0.2395931744760803 0.2393770054890965 0 0.1197965872380413 0.1196885027445493 0 0.2022447410902783 0.2021117654446893 0 0.101122370545138 0.1010558827223435 0 0.2209189577831785 0.2207443854668921 0 0.1104594788915887 0.1103721927334455 0 1.285802987884529e-17 1.28977996388165e-17 0 0.3590037735132327 0.356304804476246 0 -4.211158739235013e-17 -4.240551949755631e-17 0 0.3860229292629435 0.3881937482946387 0 0.119667924504411 0.1187682681587488 0 0.2393358490088219 0.2375365363174975 0 6.180024825566212e-17 6.172587545052147e-17 0 4.217467929434876e-17 4.220507477726462e-17 0 0.3680101587631362 0.3669344524157102 0 0.3770165440130398 0.3775641003551744 0 0.1286743097543146 0.1293979160982131 0 0.2573486195086287 0.2587958321964255 0 0.1226700529210455 0.1223114841385702 0 0.2453401058420909 0.2446229682771402 0 0.12567218133768 0.1258547001183916 0 0.2513443626753599 0.251709400236783 0 0.359003773513233 0.3563048044762464 0 0.6692211344379636 0.6686211926929169 0 0.3860229292629428 0.3881937482946379 0 0.7103434225314381 0.7102227133162757 0 0.4624095604881432 0.4604102672151366 0 0.5658153474630532 0.5645157299540265 0 0.3680101587631366 0.3669344524157105 0 0.3770165440130403 0.377564100355175 0 0.682928563802455 0.6824883662340364 0 0.6966359931669464 0.696355539775156 0 0.4941297603524418 0.4955367366351845 0 0.6022365914419394 0.6028797249757295 0 0.4729829604429093 0.4721190903551524 0 0.5779557621226823 0.5773037282945945 0 0.4835563603976757 0.4838279134951686 0 0.5900961767823112 0.5900917266351624 0 0.6641805058366157 0.6618656480539173 0 0.3593897617141226 0.3590655082336467 0 0.7103434225314396 0.7102227133162775 0 0.3860229292629422 0.3881937482946382 0 0.5625835911291177 0.5609322681138269 0 0.4609866764216205 0.4599988881737372 0 0.6795681447348894 0.6779846698080364 0 0.694955783633163 0.6941036915621556 0 0.3682674842303965 0.3687749215873113 0 0.3771452067466696 0.3784843349409749 0 0.6022365914419385 0.6028797249757293 0 0.4941297603524426 0.4955367366351859 0 0.5758012579000589 0.5749147537344619 0 0.4720343710652264 0.4718448376608855 0 0.5890189246709983 0.5888972393550951 0 0.4830820657088332 0.4836907871480343 0 0.359389761714122 0.3590655082336462 0 -2.189715484722017e-16 -2.194184316648567e-16 0 0.386022929262946 0.3881937482946419 0 -3.008139545326856e-15 -3.020554652313868e-15 0 0.2395931744760816 0.2393770054890978 0 0.1197965872380412 0.1196885027445493 0 0.3682674842303949 0.3687749215873097 0 0.377145206746668 0.3784843349409733 0 1.265139620673813e-16 1.276784520685769e-16 0 1.073403098603615e-16 1.104156922954827e-16 0 0.2573486195086273 0.2587958321964246 0 0.1286743097543155 0.1293979160982142 0 0.2455116561535969 0.2458499477248734 0 0.1227558280767969 0.1229249738624351 0 0.2514301378311113 0.2523228899606482 0 0.125715068915555 0.1261614449803235 0 -2.118296500095635e-17 -2.144650162324667e-17 0 0.3860229292629431 0.3881937482946384 0 -5.079450180709488e-17 -5.083538117379003e-17 0 0.3593897617141224 0.3590655082336461 0 0.1286743097543144 0.1293979160982129 0 0.2573486195086289 0.2587958321964257 0 5.191048491895732e-17 5.195273756674741e-17 0 4.113588770402386e-17 4.116405613588391e-17 0 0.3771452067466696 0.3784843349409744 0 0.3682674842303961 0.3687749215873103 0 0.1197965872380409 0.1196885027445489 0 0.2395931744760817 0.2393770054890975 0 0.1257150689155566 0.1261614449803249 0 0.2514301378311131 0.2523228899606496 0 0.1227558280767988 0.1229249738624369 0 0.2455116561535973 0.2458499477248735 0 0.3860229292629434 0.3881937482946387 0 0.7103434225314378 0.7102227133162754 0 0.3593897617141222 0.359065508233646 0 0.6641805058366153 0.6618656480539179 0 0.4941297603524414 0.495536736635184 0 0.6022365914419396 0.6028797249757298 0 0.3771452067466698 0.3784843349409745 0 0.3682674842303965 0.3687749215873107 0 0.6949557836331637 0.6941036915621563 0 0.6795681447348897 0.6779846698080373 0 0.4609866764216202 0.4599988881737369 0 0.5625835911291179 0.5609322681138277 0 0.4830820657088343 0.483690787148035 0 0.5890189246709991 0.5888972393550959 0 0.4720343710652274 0.4718448376608861 0 0.5758012579000586 0.5749147537344618 0 0.7103434225314378 0.7102227133162758 0 0.3860229292629431 0.3881937482946391 0 0.6692211344379643 0.6686211926929188 0 0.3590037735132315 0.3563048044762453 0 0.6022365914419391 0.6028797249757298 0 0.4941297603524416 0.4955367366351849 0 0.6966359931669454 0.6963555397751555 0 0.6829285638024537 0.682488366234036 0 0.3770165440130402 0.3775641003551755 0 0.3680101587631369 0.3669344524157115 0 0.5658153474630516 0.5645157299540259 0 0.4624095604881436 0.4604102672151377 0 0.5900961767823111 0.590091726635163 0 0.4835563603976739 0.4838279134951675 0 0.5779557621226807 0.5773037282945938 0 0.4729829604429077 0.4721190903551515 0 0.3860229292629424 0.3881937482946384 0 -2.652816630806592e-16 -2.62272173131458e-16 0 0.3590037735132353 0.3563048044762491 0 -2.797209710649778e-15 -2.781921255452325e-15 0 0.2573486195086283 0.2587958321964256 0 0.1286743097543149 0.1293979160982135 0 0.3770165440130393 0.3775641003551746 0 0.3680101587631351 0.3669344524157097 0 4.412894215011398e-16 4.429918378614554e-16 0 1.051121677505109e-16 1.025887253872691e-16 0 0.2393358490088205 0.2375365363174964 0 0.1196679245044117 0.1187682681587497 0 0.2513443626753597 0.2517094002367832 0 0.125672181337678 0.1258547001183898 0 0.245340105842089 0.2446229682771388 0 0.1226700529210436 0.1223114841385684 0 -1.963726119390253e-17 -1.958971979695557e-17 0 0.3593897617141225 0.3590655082336462 0 -3.691805614946019e-17 -3.689402296492628e-17 0 0.2753557865960647 0.2752187181337274 0 0.1197965872380408 0.1196885027445487 0 0.2395931744760817 0.2393770054890975 0 5.457758512090268e-17 5.455024479946049e-17 0 3.38297602189557e-17 3.381868777219715e-17 0 0.3313784366747698 0.3311165782003399 0 0.3033671116354176 0.3031676481670339 0 0.09178526219868834 0.09173957271124254 0 0.1835705243973767 0.1834791454224852 0 0.11045947889159 0.1103721927334467 0 0.2209189577831798 0.2207443854668932 0 0.1011223705451392 0.1010558827223446 0 0.2022447410902782 0.2021117654446891 0 0.3593897617141226 0.3590655082336463 0 0.6641805058366157 0.6618656480539183 0 0.2753557865960652 0.2752187181337279 0 0.5075189942484283 0.507518987863992 0 0.46098667642162 0.4599988881737367 0 0.5625835911291182 0.5609322681138278 0 0.33137843667477 0.3311165782003401 0 0.3033671116354175 0.3031676481670338 0 0.6119600019738867 0.6104167613239431 0 0.5597394981111578 0.5589678745939677 0 0.3527435224801859 0.352652141377149 0 0.4301312583643075 0.4300855646205708 0 0.4249056251078089 0.4242166392415411 0 0.5184328135408475 0.5173167002827417 0 0.3888245737939975 0.388434390309345 0 0.4742820359525773 0.4737011324516561 0 0.6692211344379628 0.6686211926929173 0 0.3590037735132336 0.3563048044762475 0 0.5100106654156358 0.5100106592477012 0 0.2761610586157459 0.2745473288023231 0 0.5658153474630526 0.5645157299540269 0 0.4624095604881434 0.4604102672151374 0 0.6161509780971857 0.6157510148778438 0 0.5630808217564087 0.5628808370627704 0 0.3313895352140714 0.3290523125849397 0 0.3037752969149091 0.3017998206936319 0 0.4320607964823371 0.4315228824325731 0 0.3541109275490435 0.3530351056174501 0 0.5212304971361478 0.5201847807802094 0 0.4263100161751082 0.4246185466825731 0 0.4766456468092419 0.4758538316063908 0 0.3902104718620749 0.3888268261500106 0 0.3590037735132328 0.3563048044762467 0 3.809200204081775e-16 3.722216173232732e-16 0 0.2761610586157499 0.2745473288023271 0 -2.399439127959698e-15 -2.3885319786756e-15 0 0.2393358490088219 0.2375365363174978 0 0.1196679245044114 0.1187682681587494 0 0.3313895352140704 0.3290523125849387 0 0.3037752969149078 0.3017998206936305 0 1.163098570783398e-16 1.108881117274305e-16 0 -1.809457186362126e-16 -1.836397464186674e-16 0 0.1841073724104969 0.1830315525348817 0 0.09205368620524995 0.09151577626744235 0 0.2209263568093806 0.2193682083899594 0 0.1104631784046886 0.1096841041949781 0 0.202516864609938 0.2011998804624199 0 0.1012584323049684 0.1005999402312093 0 1.347067054212106e-17 1.347500006539195e-17 0 0.275355786596065 0.2752187181337277 0 -2.656386058900736e-17 -2.656195826763419e-17 0 0.1493259883794067 0.1493259878301467 0 0.09178526219868829 0.09173957271124251 0 0.1835705243973768 0.1834791454224852 0 4.900182549884123e-17 4.89897781444224e-17 0 2.132084901096295e-17 2.131831271458896e-17 0 0.2333458538571794 0.2332544746992011 0 0.1913359211182933 0.1912902312646742 0 0.04977532945980232 0.04977532927671565 0 0.09955065891960513 0.09955065855343177 0 0.07778195128572635 0.07775149156640027 0 0.1555639025714525 0.1555029831328003 0 0.06377864037276433 0.06376341042155796 0 0.1275572807455285 0.1275268208431158 0 0.275355786596065 0.2752187181337277 0 0.5075189942484287 0.5075189878639924 0 0.1493259883794079 0.1493259878301479 0 0.2752187153422786 0.2753557867957748 0 0.3527435224801859 0.3526521413771488 0 0.4301312583643075 0.4300855646205708 0 0.233345853857179 0.2332544746992007 0 0.1913359211182928 0.1912902312646737 0 0.4300855679463792 0.4301312541745871 0 0.3526521416443295 0.3527435204851815 0 0.1912902307003642 0.1913359208186896 0 0.2332544730213228 0.2333458538072336 0 0.2989257585535789 0.2988800678576627 0 0.3645056632499787 0.3645056610161245 0 0.2451079946269716 0.2451079943381761 0 0.29888006813565 0.2989257574116783 0 0.5075189942484283 0.507518987863992 0 0.6618656400919254 0.6641805173086469 0 0.2752187153422807 0.2753557867957769 0 0.3590655066794715 0.3593897654271757 0 0.5589678761962605 0.5597394976788769 0 0.6104167581440931 0.6119600074937621 0 0.4300855679463788 0.4301312541745866 0 0.3526521416443287 0.3527435204851808 0 0.5609322622877749 0.562583600014824 0 0.4599988844836231 0.4609866827209999 0 0.3031676457880097 0.3033671130062419 0 0.3311165762337424 0.3313784392167106 0 0.4737011327268439 0.4742820361213322 0 0.5173166975073085 0.5184328180680771 0 0.3884343892574267 0.388824574563787 0 0.4242166368705245 0.424905628642393 0 0.6618656400919251 0.6641805173086466 0 0.7102227084211913 0.7103434206119055 0 0.3590655066794741 0.3593897654271784 0 0.3881937452698407 0.3860229320381512 0 0.677984662868347 0.6795681517430661 0 0.6941036856447694 0.694955786177486 0 0.5609322622877739 0.5625836000148231 0 0.4599988844836225 0.4609866827209991 0 0.6028797207040757 0.602236591087322 0 0.4955367329869586 0.494129761562737 0 0.3687749195429278 0.3682674876308341 0 0.3784843324063866 0.377145209834495 0 0.5749147484265404 0.5758012637056554 0 0.5888972345653073 0.5890189273964879 0 0.4718448339847339 0.4720343756682445 0 0.4836907834858454 0.4830820686154899 0 0.7102227084211908 0.710343420611905 0 0.6686211784036918 0.6692211493154636 0 0.3881937452698434 0.3860229320381539 0 0.3563048051406726 0.3590037762528706 0 0.6963555317486909 0.6966359968464242 0 0.6824883550761913 0.6829285730809439 0 0.6028797207040746 0.6022365910873209 0 0.4955367329869572 0.4941297615627356 0 0.564515720649353 0.5658153582946002 0 0.4604102628950132 0.4624095672737358 0 0.377564098560118 0.3770165467763909 0 0.3669344518503981 0.3680101615146335 0 0.5900917206858335 0.5900961801564134 0 0.5773037206675922 0.5779557692255057 0 0.4838279096229756 0.4835563634664021 0 0.4721190862589938 0.4729829653700683 0 0.6686211784036914 0.6692211493154632 0 0.510010665415634 0.5100106592476994 0 0.3563048051406765 0.3590037762528744 0 0.2745473284431518 0.2761610565148899 0 0.6157510074076722 0.6161509859595418 0 0.5628808364116537 0.5630808226036212 0 0.5645157206493522 0.5658153582945993 0 0.4604102628950122 0.4624095672737348 0 0.4315228864248077 0.4320607916700974 0 0.35303510743398 0.3541109240924939 0 0.3290523129081658 0.3313895363402105 0 0.3017998206756614 0.3037752964275527 0 0.520184775907837 0.5212305027530983 0 0.4758538311663209 0.4766456472115963 0 0.4246185444080008 0.4263100195466538 0 0.3888268259209899 0.3902104718195734 0 0.5100106654156336 0.5100106592476989 0 0.2761610586157476 0.2745473288023248 0 0.2745473284431548 0.2761610565148929 0 0.1484355608609461 0.1484355610272425 0 0.4320607964823378 0.4315228824325738 0 0.3541109275490429 0.3530351056174496 0 0.4315228864248064 0.432060791670096 0 0.3530351074339789 0.3541109240924928 0 0.2335858926974811 0.2325100728772981 0 0.1910107267792139 0.1904728169522706 0 0.2325100725824167 0.2335858913523409 0 0.1904728167216834 0.1910107261897937 0 0.3655438885156982 0.3655438854058302 0 0.2995648906065881 0.2990269791415626 0 0.2990269805490567 0.2995648883790849 0 0.2450188536641346 0.2450188526656769 0 0.2761610586157466 0.2745473288023239 0 2.925119799186916e-16 2.876777582924981e-16 0 0.1484355608609492 0.1484355610272455 0 -1.298620581979234e-15 -1.298486213080488e-15 0 0.1841073724104979 0.1830315525348827 0 0.09205368620524894 0.09151577626744134 0 0.2335858926974798 0.2325100728772967 0 0.1910107267792128 0.1904728169522695 0 2.854754069819128e-16 2.820340421665526e-16 0 6.1551944600853e-17 6.032021985857341e-17 0 0.09895704057396397 0.0989570406848282 0 0.049478520286983 0.04947852034241511 0 0.1557239284649866 0.1550067152515313 0 0.07786196423249243 0.07750335762576475 0 0.1273404845194747 0.1269818779681791 0 0.06367024225973704 0.06349093898408927 0 8.405778538097474e-18 8.410216988149321e-18 0 0.1493259883794073 0.1493259878301473 0 2.072314380921781e-18 2.072314373299267e-18 0 -1.278756836008549e-15 -1.278756832382773e-15 0 0.04977532945980226 0.04977532927671558 0 0.099550658919605 0.09955065855343166 0 1.523225664620072e-17 1.523225661062899e-17 0 5.54381394217873e-18 5.543813932015377e-18 0 0.09955065891960524 0.09955065855343188 0 0.04977532945980252 0.04977532927671584 0 -3.29774531379945e-16 -3.297745305262234e-16 0 2.957878668449607e-16 2.957878650384249e-16 0 0.03318355297320164 0.03318355285114385 0 0.06636710594640288 0.06636710570228732 0 0.01659177648660056 0.01659177642557167 0 0.03318355297320107 0.03318355285114328 0 0.149325988379407 0.149325987830147 0 0.2752187153422798 0.275355786795776 0 1.22321739322411e-15 1.223217387646971e-15 0 -2.375741910823249e-15 -2.376649283334018e-15 0 0.1912902307003641 0.1913359208186894 0 0.2332544730213222 0.2333458538072329 0 0.09955065891960438 0.09955065855343102 0 0.04977532945980164 0.04977532927671497 0 0.18347914356152 0.1835705245305175 0 0.09173957178075982 0.09178526226525857 0 -9.114951466025721e-16 -9.116225962261235e-16 0 2.985096820314065e-16 2.988083344738377e-16 0 0.1275268204669096 0.1275572805457932 0 0.1555029820142141 0.1555639025381546 0 0.06376341023345412 0.06377864027289593 0 0.07775149100710615 0.07778195126907642 0 0.2752187153422793 0.2753557867957755 0 0.3590655066794727 0.359389765427177 0 2.027732140242316e-15 2.029019962569025e-15 0 -1.806350751280795e-15 -1.807340054484794e-15 0 0.3031676457880096 0.3033671130062418 0 0.3311165762337414 0.3313784392167096 0 0.1834791435615191 0.1835705245305166 0 0.09173957178075841 0.09178526226525716 0 0.2393770044529823 0.2395931769514518 0 0.1196885022264904 0.1197965884757251 0 -1.44625597742894e-15 -1.446814280587064e-15 0 1.017497957272221e-15 1.018820591578138e-15 0 0.2021117638586733 0.2022447420041615 0 0.2207443841558263 0.2209189594778052 0 0.1010558819293356 0.1011223710020797 0 0.110372192077912 0.1104594797389014 0 0.3590655066794722 0.3593897654271764 0 0.3881937452698421 0.3860229320381526 0 2.963636532665877e-15 2.966963078460074e-15 0 -2.66499478678616e-15 -2.654568035117008e-15 0 0.3687749195429277 0.3682674876308341 0 0.3784843324063855 0.3771452098344938 0 0.2393770044529807 0.2395931769514502 0 0.1196885022264889 0.1197965884757236 0 0.258795830179895 0.2573486213587687 0 0.1293979150899469 0.1286743106793837 0 -1.755799368106027e-15 -1.754360835540037e-15 0 1.160920737278455e-15 1.154128555791266e-15 0 0.2458499463619524 0.2455116584205566 0 0.2523228882709221 0.251430139889661 0 0.1229249731809747 0.1227558292102768 0 0.1261614441354598 0.1257150699448292 0 0.3881937452698412 0.3860229320381516 0 0.3563048051406744 0.3590037762528723 0 2.830021046893005e-15 2.809719191454378e-15 0 -3.098383497770049e-15 -3.116069133241829e-15 0 0.3775640985601181 0.377016546776391 0 0.3669344518503969 0.3680101615146323 0 0.258795830179893 0.2573486213587667 0 0.1293979150899452 0.128674310679382 0 0.2375365367604499 0.2393358508352485 0 0.1187682683802243 0.1196679254176236 0 -1.804862824109117e-15 -1.803305337722578e-15 0 1.116091694127406e-15 1.121563382268834e-15 0 0.2517093990400794 0.2513443645175947 0 0.2446229679002633 0.2453401076764203 0 0.1258546995200382 0.1256721822587958 0 0.1223114839501302 0.1226700538382087 0 0.3563048051406738 0.3590037762528718 0 0.2745473284431532 0.2761610565148913 0 2.914104006733636e-15 2.942009615865436e-15 0 -1.893217732599582e-15 -1.901213523678355e-15 0 0.3290523129081662 0.3313895363402109 0 0.3017998206756607 0.3037752964275521 0 0.2375365367604479 0.2393358508352466 0 0.118768268380223 0.1196679254176223 0 0.1830315522954357 0.1841073710099278 0 0.09151577614771743 0.09205368550496347 0 -1.569212372059609e-15 -1.575721865205242e-15 0 3.772161080508823e-16 3.835787561230426e-16 0 0.2193682086054446 0.2209263575601411 0 0.2011998804504387 0.202516864285033 0 0.1096841043027209 0.1104631787800691 0 0.1005999402252186 0.1012584321425158 0 0.2745473284431525 0.2761610565148906 0 0.1484355608609474 0.1484355610272438 0 1.993094026083573e-15 2.007941110279077e-15 0 -1.030691773770668e-15 -1.030826144426038e-15 0 0.232510072582417 0.2335858913523411 0 0.1904728167216826 0.1910107261897929 0 0.1830315522954336 0.1841073710099256 0 0.09151577614771636 0.09205368550496237 0 0.0989570405739652 0.09895704068482944 0 0.04947852028698253 0.04947852034241464 0 -1.524932211041122e-15 -1.529851640973141e-15 0 2.371505094324511e-16 2.388525279524708e-16 0 0.1550067150549451 0.1557239275682279 0 0.1269818778144539 0.1273404841265274 0 0.07750335752747151 0.07786196378411289 0 0.06349093890722649 0.06367024206326323 0 0.1484355608609469 0.1484355610272433 0 -1.003003015462079e-16 -1.002107213133983e-16 0 1.204088227165597e-15 1.203923999051924e-15 0 -1.235974330056925e-17 -1.23597433144162e-17 0 0.09895704057396443 0.09895704068482866 0 0.04947852028698262 0.04947852034241473 0 0.09895704057396358 0.0989570406848278 0 0.04947852028698155 0.04947852034241366 0 3.467791443831805e-17 3.46779146960252e-17 0 1.562232620519047e-17 1.562232633212085e-17 0 -4.713849084795824e-16 -4.713849087888311e-16 0 5.888142775719516e-17 5.888142793258988e-17 0 0.0659713603826431 0.06597136045655259 0 0.03298568019132104 0.03298568022827578 0 0.03298568019132102 0.03298568022827576 0 0.01649284009566028 0.01649284011413765 0 </DataArray>
      </PointData>
    </Piece>
  </UnstructuredGrid>
</VTKFile>
