<?xml version="1.0"?>
<VTKFile type="UnstructuredGrid" version="2.2">
  <UnstructuredGrid>
    <Piece NumberOfPoints="224" NumberOfCells="72">
      <Points>
        <DataArray type="Float64" NumberOfComponents="3" format="ascii">0.25 0.25 0 0.2999999999999999 0.25 0 0.2666666666666666 0.2499999999999999 0 0.2833333333333333 0.2500000000000001 0 0.25 0.4999999999999999 0 0.2499999999999999 0.3333333333333333 0 0.2500000000000001 0.4166666666666667 0 0.2999999999999999 0.5 0 0.2666666666666666 0.4999999999999999 0 0.2833333333333333 0.5000000000000001 0 0.2999999999999998 0.25 0 0.4999999999999999 0.25 0 0.3666666666666665 0.2499999999999999 0 0.4333333333333333 0.2500000000000001 0 0.5 0.3 0 0.4999999999999999 0.2666666666666666 0 0.5000000000000001 0.2833333333333333 0 0.2999999999999998 0.4999999999999999 0 0.3666666666666665 0.350928801500014 0 0.4333333333333333 0.3114381916835873 0 0.4999999999999999 0.25 0 0.7000000000000002 0.25 0 0.5666666666666665 0.2499999999999999 0 0.6333333333333335 0.2500000000000001 0 0.4999999999999999 0.2999999999999999 0 0.4999999999999999 0.2666666666666666 0 0.5000000000000001 0.2833333333333333 0 0.7000000000000002 0.5 0 0.5666666666666665 0.3114381916835872 0 0.6333333333333335 0.350928801500014 0 0.7 0.25 0 0.7499999999999999 0.25 0 0.7166666666666667 0.2499999999999999 0 0.7333333333333335 0.2500000000000001 0 0.7500000000000001 0.5 0 0.7499999999999999 0.3333333333333333 0 0.7500000000000001 0.4166666666666667 0 0.7 0.4999999999999999 0 0.7166666666666667 0.4999999999999999 0 0.7333333333333335 0.5000000000000001 0 0.25 0.4999999999999999 0 0.2999999999999999 0.5 0 0.2666666666666666 0.4999999999999999 0 0.2833333333333333 0.5000000000000001 0 0.25 0.7499999999999999 0 0.2499999999999999 0.5833333333333333 0 0.2500000000000001 0.6666666666666667 0 0.2999999999999999 0.7500000000000001 0 0.2666666666666666 0.7499999999999999 0 0.2833333333333333 0.7500000000000001 0 0.2999999999999998 0.4999999999999999 0 0.4999999999999999 0.7 0 0.3666666666666665 0.6490711984999858 0 0.4333333333333333 0.6885618083164129 0 0.5 0.7500000000000001 0 0.4999999999999999 0.7166666666666667 0 0.5000000000000001 0.7333333333333335 0 0.2999999999999998 0.7499999999999999 0 0.3666666666666665 0.7499999999999999 0 0.4333333333333333 0.7500000000000001 0 0.7 0.4999999999999999 0 0.5000000000000001 0.7000000000000002 0 0.6885618083164127 0.5666666666666665 0 0.6490711984999862 0.6333333333333335 0 0.7499999999999999 0.4999999999999999 0 0.7166666666666667 0.4999999999999999 0 0.7333333333333335 0.5000000000000001 0 0.7500000000000001 0.7000000000000002 0 0.7499999999999999 0.5666666666666665 0 0.7500000000000001 0.6333333333333335 0 0.4999999999999999 0.7 0 0.4999999999999999 0.7499999999999999 0 0.4999999999999999 0.7166666666666667 0 0.5000000000000001 0.7333333333333335 0 0.7500000000000001 0.7500000000000001 0 0.5833333333333333 0.7499999999999999 0 0.6666666666666667 0.7500000000000001 0 0.7499999999999999 0.7 0 0.7499999999999999 0.7166666666666667 0 0.7500000000000001 0.7333333333333335 0 -2.312964634635742e-18 0 0 -2.312964634635742e-18 0.25 0 0 0.0833333333333333 0 0 0.1666666666666667 0 0.25 -2.312964634635742e-18 0 0.0833333333333333 0 0 0.1666666666666667 0 0 0.25 0.25 0 0.0833333333333333 0.2499999999999999 0 0.1666666666666667 0.2500000000000001 0 0.2499999999999999 0.0833333333333333 0 0.2500000000000001 0.1666666666666667 0 0.25 0 0 0.25 0.25 0 0.2499999999999999 0.0833333333333333 0 0.2500000000000001 0.1666666666666667 0 0.4999999999999999 -2.312964634635742e-18 0 0.3333333333333333 0 0 0.4166666666666667 0 0 0.5 0.25 0 0.3333333333333333 0.2499999999999999 0 0.4166666666666667 0.2500000000000001 0 0.4999999999999999 0.0833333333333333 0 0.5000000000000001 0.1666666666666667 0 0.4999999999999999 0 0 0.4999999999999999 0.25 0 0.4999999999999999 0.0833333333333333 0 0.5000000000000001 0.1666666666666667 0 0.7499999999999999 -2.312964634635742e-18 0 0.5833333333333333 0 0 0.6666666666666667 0 0 0.7500000000000001 0.25 0 0.5833333333333333 0.2499999999999999 0 0.6666666666666667 0.2500000000000001 0 0.7499999999999999 0.0833333333333333 0 0.7500000000000001 0.1666666666666667 0 0.7499999999999999 0 0 0.7499999999999999 0.25 0 0.7499999999999999 0.0833333333333333 0 0.7500000000000001 0.1666666666666667 0 0.9999999999999999 -2.312964634635742e-18 0 0.8333333333333333 0 0 0.9166666666666669 0 0 1 0.25 0 0.8333333333333333 0.2499999999999999 0 0.9166666666666669 0.2500000000000001 0 0.9999999999999998 0.0833333333333333 0 1 0.1666666666666667 0 -2.312964634635742e-18 0.25 0 -2.312964634635742e-18 0.4999999999999999 0 0 0.3333333333333333 0 0 0.4166666666666667 0 0.25 0.25 0 0.0833333333333333 0.2499999999999999 0 0.1666666666666667 0.2500000000000001 0 0.25 0.5 0 0.0833333333333333 0.4999999999999999 0 0.1666666666666667 0.5000000000000001 0 0.2499999999999999 0.3333333333333333 0 0.2500000000000001 0.4166666666666667 0 0.7499999999999999 0.25 0 0.7499999999999999 0.4999999999999999 0 0.7499999999999999 0.3333333333333333 0 0.7500000000000001 0.4166666666666667 0 0.9999999999999999 0.25 0 0.8333333333333333 0.2499999999999999 0 0.9166666666666669 0.2500000000000001 0 1 0.5 0 0.8333333333333333 0.4999999999999999 0 0.9166666666666669 0.5000000000000001 0 0.9999999999999998 0.3333333333333333 0 1 0.4166666666666667 0 -2.312964634635742e-18 0.4999999999999999 0 -2.312964634635742e-18 0.7499999999999999 0 0 0.5833333333333333 0 0 0.6666666666666667 0 0.25 0.4999999999999999 0 0.0833333333333333 0.4999999999999999 0 0.1666666666666667 0.5000000000000001 0 0.25 0.7500000000000001 0 0.0833333333333333 0.7499999999999999 0 0.1666666666666667 0.7500000000000001 0 0.2499999999999999 0.5833333333333333 0 0.2500000000000001 0.6666666666666667 0 0.7499999999999999 0.4999999999999999 0 0.7499999999999999 0.7499999999999999 0 0.7499999999999999 0.5833333333333333 0 0.7500000000000001 0.6666666666666667 0 0.9999999999999999 0.4999999999999999 0 0.8333333333333333 0.4999999999999999 0 0.9166666666666669 0.5000000000000001 0 1 0.7500000000000001 0 0.8333333333333333 0.7499999999999999 0 0.9166666666666669 0.7500000000000001 0 0.9999999999999998 0.5833333333333333 0 1 0.6666666666666667 0 -2.312964634635742e-18 0.7499999999999999 0 -2.312964634635742e-18 0.9999999999999999 0 0 0.8333333333333333 0 0 0.9166666666666669 0 0.25 0.7499999999999999 0 0.0833333333333333 0.7499999999999999 0 0.1666666666666667 0.7500000000000001 0 0.25 1 0 0.0833333333333333 0.9999999999999998 0 0.1666666666666667 1 0 0.2499999999999999 0.8333333333333333 0 0.2500000000000001 0.9166666666666669 0 0.25 0.7499999999999999 0 0.25 0.9999999999999999 0 0.2499999999999999 0.8333333333333333 0 0.2500000000000001 0.9166666666666669 0 0.4999999999999999 0.7499999999999999 0 0.3333333333333333 0.7499999999999999 0 0.4166666666666667 0.7500000000000001 0 0.5 1 0 0.3333333333333333 0.9999999999999998 0 0.4166666666666667 1 0 0.4999999999999999 0.8333333333333333 0 0.5000000000000001 0.9166666666666669 0 0.4999999999999999 0.7499999999999999 0 0.4999999999999999 0.9999999999999999 0 0.4999999999999999 0.8333333333333333 0 0.5000000000000001 0.9166666666666669 0 0.7499999999999999 0.7499999999999999 0 0.5833333333333333 0.7499999999999999 0 0.6666666666666667 0.7500000000000001 0 0.7500000000000001 1 0 0.5833333333333333 0.9999999999999998 0 0.6666666666666667 1 0 0.7499999999999999 0.8333333333333333 0 0.7500000000000001 0.9166666666666669 0 0.7499999999999999 0.7499999999999999 0 0.7499999999999999 0.9999999999999999 0 0.7499999999999999 0.8333333333333333 0 0.7500000000000001 0.9166666666666669 0 0.9999999999999999 0.7499999999999999 0 0.8333333333333333 0.7499999999999999 0 0.9166666666666669 0.7500000000000001 0 1 1 0 0.8333333333333333 0.9999999999999998 0 0.9166666666666669 1 0 0.9999999999999998 0.8333333333333333 0 1 0.9166666666666669 0 </DataArray>
      </Points>
      <Cells>
        <DataArray type="Int32" Name="connectivity" format="ascii">0 1 2 3 0 4 5 6 4 7 8 9 10 11 12 13 11 14 15 16 17 14 18 19 20 21 22 23 20 24 25 26 24 27 28 29 30 31 32 33 31 34 35 36 37 34 38 39 40 41 42 43 40 44 45 46 44 47 48 49 50 51 52 53 51 54 55 56 57 54 58 59 60 61 62 63 60 64 65 66 64 67 68 69 70 71 72 73 71 74 75 76 77 74 78 79 80 81 82 83 80 84 85 86 81 87 88 89 84 87 90 91 92 93 94 95 92 96 97 98 93 99 100 101 96 99 102 103 104 105 106 107 104 108 109 110 105 111 112 113 108 111 114 115 116 117 118 119 116 120 121 122 117 123 124 125 120 123 126 127 128 129 130 131 128 132 133 134 129 135 136 137 132 135 138 139 140 141 142 143 140 144 145 146 141 147 148 149 144 147 150 151 152 153 154 155 152 156 157 158 153 159 160 161 156 159 162 163 164 165 166 167 164 168 169 170 165 171 172 173 168 171 174 175 176 177 178 179 176 180 181 182 177 183 184 185 180 183 186 187 188 189 190 191 188 192 193 194 189 195 196 197 192 195 198 199 200 201 202 203 200 204 205 206 201 207 208 209 204 207 210 211 212 213 214 215 212 216 217 218 213 219 220 221 216 219 222 223 </DataArray>
        <DataArray type="Int32" Name="offsets" format="ascii">4 8 12 16 20 24 28 32 36 40 44 48 52 56 60 64 68 72 76 80 84 88 92 96 100 104 108 112 116 120 124 128 132 136 140 144 148 152 156 160 164 168 172 176 180 184 188 192 196 200 204 208 212 216 220 224 228 232 236 240 244 248 252 256 260 264 268 272 276 280 284 288 </DataArray>
        <DataArray type="Int8" Name="types" format="ascii">68 68 68 68 68 68 68 68 68 68 68 68 68 68 68 68 68 68 68 68 68 68 68 68 68 68 68 68 68 68 68 68 68 68 68 68 68 68 68 68 68 68 68 68 68 68 68 68 68 68 68 68 68 68 68 68 68 68 68 68 68 68 68 68 68 68 68 68 68 68 68 68 </DataArray>
      </Cells>
      <CellData>
        <DataArray type="UInt8" Name="vtkGhostType" format="ascii" RangeMin="0" RangeMax="1">0 0 0 0 0 0 0 0 0 0 0 0 0 0 0 0 0 0 0 0 0 0 0 0 0 0 0 0 0 0 0 0 0 0 0 0 0 0 0 0 0 0 0 0 0 0 0 0 0 0 0 0 0 0 0 0 0 0 0 0 0 0 0 0 0 0 0 0 0 0 0 0 </DataArray>
        <DataArray type="Int64" IdType="1" Name="vtkOriginalCellIds" format="ascii" RangeMin="0" RangeMax="71">0 1 2 3 4 5 6 7 8 9 10 11 12 13 14 15 16 17 18 19 20 21 22 23 24 25 26 27 28 29 30 31 32 33 34 35 36 37 38 39 40 41 42 43 44 45 46 47 48 49 50 51 52 53 54 55 56 57 58 59 60 61 62 63 64 65 66 67 68 69 70 71 </DataArray>
      </CellData>
      <PointData Vectors="solution_wirebasket">
        <DataArray type="Int64" IdType="1" Name="vtkOriginalPointIds" format="ascii" RangeMin="0" RangeMax="223">0 1 2 3 4 5 6 7 8 9 10 11 12 13 14 15 16 17 18 19 20 21 22 23 24 25 26 27 28 29 30 31 32 33 34 35 36 37 38 39 40 41 42 43 44 45 46 47 48 49 50 51 52 53 54 55 56 57 58 59 60 61 62 63 64 65 66 67 68 69 70 71 72 73 74 75 76 77 78 79 80 81 82 83 84 85 86 87 88 89 90 91 92 93 94 95 96 97 98 99 100 101 102 103 104 105 106 107 108 109 110 111 112 113 114 115 116 117 118 119 120 121 122 123 124 125 126 127 128 129 130 131 132 133 134 135 136 137 138 139 140 141 142 143 144 145 146 147 148 149 150 151 152 153 154 155 156 157 158 159 160 161 162 163 164 165 166 167 168 169 170 171 172 173 174 175 176 177 178 179 180 181 182 183 184 185 186 187 188 189 190 191 192 193 194 195 196 197 198 199 200 201 202 203 204 205 206 207 208 209 210 211 212 213 214 215 216 217 218 219 220 221 222 223 </DataArray>
        <DataArray type="UInt8" Name="vtkGhostType" format="ascii" RangeMin="0" RangeMax="0">0 0 0 0 0 0 0 0 0 0 0 0 0 0 0 0 0 0 0 0 0 0 0 0 0 0 0 0 0 0 0 0 0 0 0 0 0 0 0 0 0 0 0 0 0 0 0 0 0 0 0 0 0 0 0 0 0 0 0 0 0 0 0 0 0 0 0 0 0 0 0 0 0 0 0 0 0 0 0 0 0 0 0 0 0 0 0 0 0 0 0 0 0 0 0 0 0 0 0 0 0 0 0 0 0 0 0 0 0 0 0 0 0 0 0 0 0 0 0 0 0 0 0 0 0 0 0 0 0 0 0 0 0 0 0 0 0 0 0 0 0 0 0 0 0 0 0 0 0 0 0 0 0 0 0 0 0 0 0 0 0 0 0 0 0 0 0 0 0 0 0 0 0 0 0 0 0 0 0 0 0 0 0 0 0 0 0 0 0 0 0 0 0 0 0 0 0 0 0 0 0 0 0 0 0 0 0 0 0 0 0 0 0 0 0 0 0 0 0 0 0 0 0 0 </DataArray>
        <DataArray type="Float64" Name="solution_wirebasket" format="ascii" NumberOfComponents="3">0.5652006434176455 0.5653062326799235 0 0.5962441819780475 0.5973378680991991 0 0.575548489604446 0.5759834444863485 0 0.585896335791247 0.5866606562927741 0 0.7249563686772382 0.7206891661769584 0 0.6184525518375097 0.6171005438456018 0 0.6717044602573743 0.6688948550112804 0 0.8654234093044172 0.8616652003279666 0 0.7717787155529643 0.7676811775606276 0 0.8186010624286907 0.814673188944297 0 0.5962441819780474 0.597337868099199 0 0.7204183362196553 0.7254644097763013 0 0.6376355667252501 0.6400467153248999 0 0.679026951472453 0.6827555625506009 0 0.8617929833383509 0.8654853952074409 0 0.7675432185925539 0.7721380715866814 0 0.8146681009654528 0.8188117333970615 0 0.8654234093044165 0.8616652003279659 0 0.8052085561737664 0.8054030258757934 0 0.816888167011782 0.8191104355254192 0 0.7204183362196553 0.7254644097763013 0 0.5758487965741887 0.5769541581637098 0 0.6722284896711666 0.6759609925721042 0 0.6240386431226779 0.6264575753679071 0 0.8617929833383506 0.8654853952074406 0 0.7675432185925539 0.7721380715866814 0 0.8146681009654528 0.8188117333970615 0 0.8655056006789428 0.8616649019492185 0 0.8117671789269297 0.8139856254754403 0 0.7971230386561723 0.7972999480492096 0 0.575848796574189 0.5769541581637099 0 0.5397064116628223 0.539826595260562 0 0.5638013349370667 0.5645783038626606 0 0.5517538732999445 0.5522024495616112 0 0.7250591078953955 0.7206887932035236 0 0.6014906437403468 0.6001139945748826 0 0.663274875817871 0.660401393889203 0 0.8655056006789433 0.8616649019492191 0 0.8186901030844274 0.8146728657006539 0 0.7718746054899113 0.7676808294520887 0 0.7249563686772382 0.7206891661769584 0 0.8654234093044172 0.8616652003279666 0 0.7717787155529643 0.7676811775606276 0 0.818601062428691 0.8146731889442973 0 0.5397559218500715 0.5398758147119975 0 0.6632228864015158 0.6604180490219714 0 0.6014894041257939 0.6001469318669848 0 0.5758883640148622 0.5769730658176725 0 0.551800069238335 0.5522415650805559 0 0.5638442166265983 0.5646073154491139 0 0.8654234093044165 0.8616652003279659 0 0.8617928205018478 0.8654035235786987 0 0.7971166059027932 0.797287203417234 0 0.8117702915360985 0.8139389440585851 0 0.7204181326740253 0.7253620702403724 0 0.8146679245592401 0.8187230391325896 0 0.7675430286166324 0.7720425546864809 0 0.5758883640148623 0.5769730658176726 0 0.6240649535679168 0.626436067291906 0 0.6722415431209714 0.6758990687661395 0 0.8655056006789433 0.8616649019492191 0 0.861792820501847 0.8654035235786979 0 0.8191437118055375 0.8167892484114727 0 0.8055007598230552 0.8051024804924711 0 0.7250591078953955 0.7206887932035236 0 0.8186901030844274 0.8146728657006539 0 0.7718746054899113 0.7676808294520887 0 0.5971169504842493 0.5964385960575818 0 0.6824117220916806 0.6792720608215435 0 0.6397643362879648 0.6378553284395625 0 0.8617928205018478 0.8654035235786987 0 0.7204181326740259 0.7253620702403729 0 0.8146679245592401 0.8187230391325896 0 0.7675430286166324 0.7720425546864809 0 0.5651314111314627 0.5653760467710963 0 0.6686558921598383 0.6720333957506143 0 0.6168936516456504 0.6187047212608551 0 0.5971169504842495 0.596438596057582 0 0.5864551040333206 0.5860844129620868 0 0.5757932575823915 0.5757302298665915 0 1.830204739577735e-17 1.83054665349896e-17 0 1.252664593958318e-17 1.252322680037093e-17 0 -1.848412908157755e-17 -1.848950201462536e-17 0 -3.641633716004247e-19 -3.680709592715651e-19 0 -1.334601352568413e-17 -1.335138645873194e-17 0 7.752693755290191e-18 7.753182203749083e-18 0 -1.064039448338727e-17 -1.064430207105841e-17 0 0.5652006434176456 0.5653062326799236 0 0.1884002144725484 0.1884354108933078 0 0.3768004289450971 0.3768708217866158 0 0.1884002144725484 0.1884354108933077 0 0.3768004289450972 0.3768708217866159 0 2.341455670696455e-18 2.339013428401992e-18 0 0.5652006434176455 0.5653062326799235 0 0.1884002144725484 0.1884354108933077 0 0.3768004289450972 0.3768708217866159 0 1.820904777134598e-17 1.809477611683751e-17 0 2.573180687832558e-18 2.593104327980895e-18 0 -1.744824597443128e-17 -1.763694200315153e-17 0 0.7204183362196555 0.7254644097763014 0 0.6169398743516488 0.6186922917120494 0 0.6686791052856524 0.6720783507441758 0 0.2401394454065517 0.2418214699254337 0 0.4802788908131038 0.4836429398508678 0 1.820904777134598e-17 1.809477611683751e-17 0 0.7204183362196553 0.7254644097763013 0 0.2401394454065517 0.2418214699254337 0 0.4802788908131038 0.4836429398508678 0 -4.014760325806579e-19 -4.275986160535932e-19 0 5.11235939546323e-19 3.939660819209247e-19 0 -5.76312994386321e-18 -5.790920409803557e-18 0 0.5397064116628223 0.539826595260562 0 0.6601810280340444 0.6635851382710549 0 0.5999437198484334 0.6017058667658085 0 0.1799021372209407 0.1799421984201872 0 0.3598042744418816 0.3598843968403747 0 -4.014760325806579e-19 -4.275986160535932e-19 0 0.5397064116628223 0.539826595260562 0 0.1799021372209407 0.1799421984201872 0 0.3598042744418816 0.3598843968403747 0 1.248321843262269e-17 1.248599823673504e-17 0 -4.703631007360358e-18 -4.70696677229518e-18 0 -4.848459190204722e-18 -4.850683033494602e-18 0 4.336290780504595e-16 4.33706356604783e-16 0 0.3598042744418817 0.3598843968403748 0 0.1799021372209406 0.1799421984201872 0 2.385832715425773e-16 2.386299722516648e-16 0 -2.443634823204358e-16 -2.444307535799547e-16 0 1.252664593958318e-17 1.252322680037093e-17 0 -3.467091295406728e-17 -3.425784298362095e-17 0 -8.729035439472577e-17 -8.696698939815088e-17 0 1.774218324884851e-17 1.790107836131792e-17 0 0.5652006434176455 0.5653062326799235 0 0.1884002144725484 0.1884354108933078 0 0.3768004289450971 0.3768708217866158 0 0.7249563686772381 0.7206891661769583 0 0.2416521228924126 0.240229722058986 0 0.4833042457848257 0.4804594441179725 0 0.6184525518375097 0.6171005438456018 0 0.6717044602573743 0.6688948550112804 0 0.5397064116628223 0.539826595260562 0 0.7250591078953955 0.7206887932035236 0 0.6014906437403468 0.6001139945748826 0 0.663274875817871 0.660401393889203 0 6.633202972107167e-16 6.634487241607074e-16 0 0.3598042744418817 0.3598843968403748 0 0.1799021372209406 0.1799421984201872 0 -3.31592873651573e-17 -3.250214136054288e-17 0 0.483372738596931 0.4804591954690164 0 0.2416863692984647 0.2402295977345074 0 6.094557515009619e-16 6.082488105007677e-16 0 -4.501263167958347e-16 -4.47714557602292e-16 0 -3.467091295406728e-17 -3.425784298362095e-17 0 -2.823952770855198e-17 -2.827313288297496e-17 0 -5.35555871067992e-17 -5.314604333406865e-17 0 1.695878355516837e-18 1.770400536099358e-18 0 0.7249563686772382 0.7206891661769584 0 0.2416521228924126 0.240229722058986 0 0.4833042457848257 0.4804594441179725 0 0.5397559218500714 0.5398758147119975 0 0.1799186406166904 0.1799586049039991 0 0.359837281233381 0.3599172098079985 0 0.6632228864015158 0.6604180490219714 0 0.6014894041257939 0.6001469318669848 0 0.7250591078953955 0.7206887932035236 0 0.565131411131463 0.5653760467710967 0 0.6717498756407516 0.6689178777260483 0 0.6184406433861067 0.6171469622485719 0 8.891349119538702e-16 8.84295321273231e-16 0 0.483372738596931 0.4804591954690164 0 0.2416863692984647 0.2402295977345074 0 -6.004820494076916e-17 -5.972164815755384e-17 0 0.3767542740876425 0.3769173645140649 0 0.1883771370438208 0.188458682257032 0 9.976161624809971e-16 9.938397883307871e-16 0 -2.906237540619274e-16 -2.897304558723728e-16 0 -2.823952770855198e-17 -2.827313288297496e-17 0 2.496872717148996e-18 2.497427333048157e-18 0 -3.188186483655233e-17 -3.18935117704347e-17 0 2.887402431914172e-19 2.865217795947741e-19 0 0.5397559218500715 0.5398758147119975 0 0.1799186406166904 0.1799586049039991 0 0.359837281233381 0.3599172098079985 0 -1.943760701662692e-16 -1.942989785562858e-16 0 1.0416303047165e-16 1.042262566841544e-16 0 -6.630825173416526e-16 -6.63149625865451e-16 0 0.359837281233381 0.3599172098079985 0 0.1799186406166897 0.1799586049039985 0 0.5397559218500715 0.5398758147119975 0 3.533621981142624e-17 3.546433608413243e-17 0 0.359837281233381 0.3599172098079985 0 0.1799186406166897 0.1799586049039985 0 0.7204181326740259 0.7253620702403729 0 0.5999766587913896 0.6017045665547894 0 0.6601973957327076 0.663533318397581 0 -6.007034391528763e-16 -5.992725929929634e-16 0 -1.849001575081236e-16 -1.836978529481318e-16 0 -6.601271252635555e-16 -6.598989768245184e-16 0 0.4802787551160172 0.4835747134935819 0 0.2401393775580079 0.2417873567467903 0 0.7204181326740259 0.7253620702403729 0 -2.957547561549035e-16 -2.921316883629984e-16 0 0.4802787551160172 0.4835747134935819 0 0.2401393775580079 0.2417873567467903 0 0.565131411131463 0.5653760467710967 0 0.6686558921598383 0.6720333957506143 0 0.6168936516456504 0.6187047212608551 0 -4.367299877673959e-16 -4.370703582348427e-16 0 -2.069874364586542e-16 -2.045066007180466e-16 0 -1.149143258245998e-15 -1.150766759830131e-15 0 0.3767542740876421 0.3769173645140645 0 0.1883771370438202 0.1884586822570314 0 0.565131411131463 0.5653760467710967 0 -1.985733919897481e-16 -1.987249578589712e-16 0 0.3767542740876421 0.3769173645140645 0 0.1883771370438202 0.1884586822570314 0 1.595494616612004e-16 1.599710784863335e-16 0 0.3767542740876425 0.3769173645140649 0 0.1883771370438208 0.188458682257032 0 -1.568554761442606e-17 -1.569233761742019e-17 0 8.346293050877402e-17 8.365531392694104e-17 0 -3.504072251062725e-16 -3.504807834720422e-16 0 3.714413560375605e-16 3.715771560974431e-16 0 -9.923343697663209e-17 -9.928888866775081e-17 0 </DataArray>
      </PointData>
    </Piece>
  </UnstructuredGrid>
</VTKFile>
