<?xml version="1.0"?>
<VTKFile type="UnstructuredGrid" version="2.2">
  <UnstructuredGrid>
    <Piece NumberOfPoints="320" NumberOfCells="20">
      <Points>
        <DataArray type="Float64" NumberOfComponents="3" format="ascii">0.25 0.2499999999999999 0 0.2999999999999998 0.2499999999999998 0 0.2499999999999997 0.4999999999999996 0 0.3 0.5000000000000003 0 0.2666666666666666 0.2500000000000001 0 0.283333333333333 0.2499999999999999 0 0.2500000000000001 0.3333333333333334 0 0.2500000000000001 0.4166666666666669 0 0.2999999999999998 0.3333333333333332 0 0.2999999999999998 0.4166666666666666 0 0.2666666666666668 0.5000000000000002 0 0.2833333333333331 0.4999999999999998 0 0.2666666666666666 0.3333333333333333 0 0.2833333333333332 0.3333333333333334 0 0.2666666666666667 0.4166666666666667 0 0.2833333333333333 0.4166666666666667 0 0.2999999999999998 0.25 0 0.4999999999999999 0.2499999999999998 0 0.2999999999999995 0.4999999999999997 0 0.5000000000000001 0.3000000000000002 0 0.3666666666666665 0.25 0 0.4333333333333332 0.25 0 0.2999999999999999 0.3333333333333334 0 0.3 0.4166666666666668 0 0.4999999999999999 0.2666666666666667 0 0.5 0.2833333333333332 0 0.3666666666666668 0.3509288015000141 0 0.4333333333333331 0.3114381916835872 0 0.3666666666666665 0.2836429338333379 0 0.4333333333333334 0.2704793972278625 0 0.3666666666666668 0.3172858676666761 0 0.4333333333333334 0.2909587944557249 0 0.4999999999999999 0.2499999999999999 0 0.7 0.2499999999999998 0 0.4999999999999994 0.2999999999999997 0 0.7000000000000004 0.5000000000000004 0 0.5666666666666667 0.2500000000000001 0 0.6333333333333333 0.25 0 0.5000000000000001 0.2666666666666668 0 0.5000000000000002 0.2833333333333334 0 0.7 0.3333333333333332 0 0.7 0.4166666666666666 0 0.5666666666666671 0.3114381916835874 0 0.6333333333333331 0.3509288015000138 0 0.5666666666666667 0.2704793972278624 0 0.6333333333333335 0.2836429338333381 0 0.5666666666666669 0.2909587944557249 0 0.6333333333333336 0.3172858676666761 0 0.7 0.2499999999999999 0 0.7499999999999999 0.2499999999999998 0 0.6999999999999993 0.4999999999999996 0 0.7500000000000003 0.5000000000000003 0 0.7166666666666667 0.2500000000000001 0 0.7333333333333332 0.2499999999999999 0 0.7000000000000001 0.3333333333333334 0 0.7000000000000004 0.4166666666666669 0 0.7499999999999999 0.3333333333333332 0 0.7499999999999999 0.4166666666666666 0 0.7166666666666671 0.5000000000000002 0 0.7333333333333331 0.4999999999999998 0 0.7166666666666667 0.3333333333333333 0 0.7333333333333336 0.3333333333333334 0 0.716666666666667 0.4166666666666667 0 0.7333333333333336 0.4166666666666667 0 0.25 0.4999999999999999 0 0.2999999999999998 0.4999999999999995 0 0.2499999999999997 0.7499999999999993 0 0.3 0.7500000000000003 0 0.2666666666666666 0.4999999999999999 0 0.2833333333333331 0.4999999999999999 0 0.2500000000000001 0.5833333333333335 0 0.2500000000000001 0.6666666666666671 0 0.2999999999999998 0.5833333333333334 0 0.2999999999999998 0.6666666666666665 0 0.2666666666666668 0.7500000000000002 0 0.2833333333333332 0.7499999999999997 0 0.2666666666666666 0.5833333333333334 0 0.2833333333333333 0.5833333333333336 0 0.2666666666666667 0.6666666666666669 0 0.2833333333333334 0.6666666666666669 0 0.2999999999999998 0.4999999999999998 0 0.4999999999999999 0.7 0 0.2999999999999995 0.7499999999999993 0 0.5000000000000001 0.7500000000000003 0 0.3666666666666665 0.6490711984999858 0 0.4333333333333332 0.6885618083164126 0 0.2999999999999999 0.5833333333333334 0 0.3 0.666666666666667 0 0.4999999999999999 0.7166666666666668 0 0.5 0.7333333333333334 0 0.3666666666666668 0.7500000000000003 0 0.4333333333333331 0.7499999999999997 0 0.3666666666666665 0.682714132333324 0 0.4333333333333334 0.7090412055442754 0 0.3666666666666668 0.7163570661666623 0 0.4333333333333334 0.7295206027721378 0 0.7000000000000001 0.4999999999999999 0 0.7499999999999999 0.4999999999999995 0 0.4999999999999993 0.6999999999999995 0 0.7500000000000003 0.7000000000000005 0 0.7166666666666667 0.4999999999999999 0 0.7333333333333333 0.4999999999999999 0 0.6885618083164128 0.5666666666666668 0 0.6490711984999864 0.6333333333333337 0 0.7499999999999999 0.5666666666666667 0 0.75 0.6333333333333333 0 0.5833333333333337 0.7000000000000003 0 0.6666666666666663 0.6999999999999998 0 0.7090412055442751 0.5666666666666667 0 0.7295206027721378 0.5666666666666669 0 0.6827141323333242 0.6333333333333336 0 0.7163570661666623 0.6333333333333336 0 0.4999999999999998 0.7 0 0.7499999999999999 0.7 0 0.4999999999999994 0.7499999999999992 0 0.7500000000000002 0.7500000000000003 0 0.5833333333333334 0.7 0 0.6666666666666665 0.6999999999999998 0 0.5000000000000001 0.7166666666666668 0 0.5000000000000003 0.7333333333333337 0 0.7499999999999998 0.7166666666666668 0 0.7499999999999999 0.7333333333333333 0 0.5833333333333337 0.7500000000000003 0 0.6666666666666663 0.7499999999999997 0 0.5833333333333334 0.7166666666666667 0 0.6666666666666667 0.716666666666667 0 0.5833333333333336 0.7333333333333336 0 0.6666666666666669 0.7333333333333337 0 -1.517883041479708e-17 -3.801935618182502e-17 0 0.2499999999999999 -2.211772431870429e-17 0 -2.761101532596417e-17 0.2499999999999999 0 0.25 0.25 0 0.08333333333333331 4.223682406666107e-17 0 0.1666666666666667 -6.385872229807052e-18 0 2.471365524371252e-17 0.0833333333333334 0 2.81954107735801e-17 0.1666666666666667 0 0.2499999999999999 0.08333333333333331 0 0.25 0.1666666666666667 0 0.08333333333333344 0.25 0 0.1666666666666666 0.25 0 0.08333333333333333 0.08333333333333333 0 0.1666666666666666 0.08333333333333334 0 0.0833333333333334 0.1666666666666667 0 0.1666666666666667 0.1666666666666667 0 0.25 -3.801935618182502e-17 0 0.4999999999999999 -2.211772431870429e-17 0 0.2499999999999997 0.2499999999999999 0 0.5000000000000001 0.25 0 0.3333333333333332 4.223682406666107e-17 0 0.4166666666666666 -6.385872229807052e-18 0 0.2500000000000001 0.0833333333333334 0 0.2500000000000003 0.1666666666666667 0 0.4999999999999999 0.08333333333333331 0 0.4999999999999999 0.1666666666666667 0 0.3333333333333335 0.25 0 0.4166666666666665 0.25 0 0.3333333333333333 0.08333333333333333 0 0.4166666666666667 0.08333333333333334 0 0.3333333333333335 0.1666666666666667 0 0.4166666666666667 0.1666666666666667 0 0.4999999999999998 -3.801935618182502e-17 0 0.7499999999999999 -2.211772431870429e-17 0 0.4999999999999994 0.2499999999999999 0 0.7500000000000002 0.25 0 0.5833333333333334 4.223682406666107e-17 0 0.6666666666666665 -6.385872229807052e-18 0 0.5000000000000001 0.0833333333333334 0 0.5000000000000003 0.1666666666666667 0 0.7499999999999998 0.08333333333333331 0 0.7499999999999999 0.1666666666666667 0 0.5833333333333337 0.25 0 0.6666666666666663 0.25 0 0.5833333333333334 0.08333333333333333 0 0.6666666666666667 0.08333333333333334 0 0.5833333333333336 0.1666666666666667 0 0.6666666666666669 0.1666666666666667 0 0.7499999999999999 -3.801935618182502e-17 0 0.9999999999999998 -2.211772431870429e-17 0 0.7499999999999992 0.2499999999999999 0 1.000000000000001 0.25 0 0.8333333333333334 4.223682406666107e-17 0 0.9166666666666665 -6.385872229807052e-18 0 0.7500000000000002 0.0833333333333334 0 0.7500000000000004 0.1666666666666667 0 0.9999999999999998 0.08333333333333331 0 1 0.1666666666666667 0 0.8333333333333338 0.25 0 0.9166666666666662 0.25 0 0.8333333333333333 0.08333333333333333 0 0.9166666666666669 0.08333333333333334 0 0.8333333333333337 0.1666666666666667 0 0.916666666666667 0.1666666666666667 0 -1.517883041479708e-17 0.2499999999999999 0 0.2499999999999999 0.2499999999999998 0 -2.761101532596417e-17 0.4999999999999996 0 0.25 0.5000000000000003 0 0.08333333333333331 0.2500000000000001 0 0.1666666666666667 0.2499999999999999 0 2.471365524371252e-17 0.3333333333333334 0 2.81954107735801e-17 0.4166666666666669 0 0.2499999999999999 0.3333333333333332 0 0.25 0.4166666666666666 0 0.08333333333333344 0.5000000000000002 0 0.1666666666666666 0.4999999999999998 0 0.08333333333333333 0.3333333333333333 0 0.1666666666666666 0.3333333333333334 0 0.0833333333333334 0.4166666666666667 0 0.1666666666666667 0.4166666666666667 0 0.7499999999999999 0.2499999999999999 0 0.9999999999999998 0.2499999999999998 0 0.7499999999999992 0.4999999999999996 0 1.000000000000001 0.5000000000000003 0 0.8333333333333334 0.2500000000000001 0 0.9166666666666665 0.2499999999999999 0 0.7500000000000002 0.3333333333333334 0 0.7500000000000004 0.4166666666666669 0 0.9999999999999998 0.3333333333333332 0 1 0.4166666666666666 0 0.8333333333333338 0.5000000000000002 0 0.9166666666666662 0.4999999999999998 0 0.8333333333333333 0.3333333333333333 0 0.9166666666666669 0.3333333333333334 0 0.8333333333333337 0.4166666666666667 0 0.916666666666667 0.4166666666666667 0 -1.517883041479708e-17 0.4999999999999999 0 0.2499999999999999 0.4999999999999995 0 -2.761101532596417e-17 0.7499999999999993 0 0.25 0.7500000000000003 0 0.08333333333333331 0.4999999999999999 0 0.1666666666666667 0.4999999999999999 0 2.471365524371252e-17 0.5833333333333335 0 2.81954107735801e-17 0.6666666666666671 0 0.2499999999999999 0.5833333333333334 0 0.25 0.6666666666666665 0 0.08333333333333344 0.7500000000000002 0 0.1666666666666666 0.7499999999999997 0 0.08333333333333333 0.5833333333333334 0 0.1666666666666666 0.5833333333333336 0 0.0833333333333334 0.6666666666666669 0 0.1666666666666667 0.6666666666666669 0 0.7499999999999999 0.4999999999999999 0 0.9999999999999998 0.4999999999999995 0 0.7499999999999992 0.7499999999999993 0 1.000000000000001 0.7500000000000003 0 0.8333333333333334 0.4999999999999999 0 0.9166666666666665 0.4999999999999999 0 0.7500000000000002 0.5833333333333335 0 0.7500000000000004 0.6666666666666671 0 0.9999999999999998 0.5833333333333334 0 1 0.6666666666666665 0 0.8333333333333338 0.7500000000000002 0 0.9166666666666662 0.7499999999999997 0 0.8333333333333333 0.5833333333333334 0 0.9166666666666669 0.5833333333333336 0 0.8333333333333337 0.6666666666666669 0 0.916666666666667 0.6666666666666669 0 -1.517883041479708e-17 0.7500000000000001 0 0.2499999999999999 0.7499999999999998 0 -2.761101532596417e-17 0.9999999999999989 0 0.25 1.000000000000001 0 0.08333333333333331 0.7500000000000004 0 0.1666666666666667 0.7499999999999998 0 2.471365524371252e-17 0.8333333333333337 0 2.81954107735801e-17 0.916666666666667 0 0.2499999999999999 0.8333333333333331 0 0.25 0.9166666666666665 0 0.08333333333333344 1 0 0.1666666666666666 0.9999999999999996 0 0.08333333333333333 0.8333333333333333 0 0.1666666666666666 0.8333333333333336 0 0.0833333333333334 0.916666666666667 0 0.1666666666666667 0.916666666666667 0 0.25 0.7500000000000001 0 0.4999999999999999 0.7499999999999998 0 0.2499999999999997 0.9999999999999989 0 0.5000000000000001 1.000000000000001 0 0.3333333333333332 0.7500000000000004 0 0.4166666666666666 0.7499999999999998 0 0.2500000000000001 0.8333333333333337 0 0.2500000000000003 0.916666666666667 0 0.4999999999999999 0.8333333333333331 0 0.4999999999999999 0.9166666666666665 0 0.3333333333333335 1 0 0.4166666666666665 0.9999999999999996 0 0.3333333333333333 0.8333333333333333 0 0.4166666666666667 0.8333333333333336 0 0.3333333333333335 0.916666666666667 0 0.4166666666666667 0.916666666666667 0 0.4999999999999998 0.7500000000000001 0 0.7499999999999999 0.7499999999999998 0 0.4999999999999994 0.9999999999999989 0 0.7500000000000002 1.000000000000001 0 0.5833333333333334 0.7500000000000004 0 0.6666666666666665 0.7499999999999998 0 0.5000000000000001 0.8333333333333337 0 0.5000000000000003 0.916666666666667 0 0.7499999999999998 0.8333333333333331 0 0.7499999999999999 0.9166666666666665 0 0.5833333333333337 1 0 0.6666666666666663 0.9999999999999996 0 0.5833333333333334 0.8333333333333333 0 0.6666666666666667 0.8333333333333336 0 0.5833333333333336 0.916666666666667 0 0.6666666666666669 0.916666666666667 0 0.7499999999999999 0.7500000000000001 0 0.9999999999999998 0.7499999999999998 0 0.7499999999999992 0.9999999999999989 0 1.000000000000001 1.000000000000001 0 0.8333333333333334 0.7500000000000004 0 0.9166666666666665 0.7499999999999998 0 0.7500000000000002 0.8333333333333337 0 0.7500000000000004 0.916666666666667 0 0.9999999999999998 0.8333333333333331 0 1 0.9166666666666665 0 0.8333333333333338 1 0 0.9166666666666662 0.9999999999999996 0 0.8333333333333333 0.8333333333333333 0 0.9166666666666669 0.8333333333333336 0 0.8333333333333337 0.916666666666667 0 0.916666666666667 0.916666666666667 0 </DataArray>
      </Points>
      <Cells>
        <DataArray type="Int32" Name="connectivity" format="ascii">0 1 3 2 4 5 8 9 10 11 6 7 12 13 14 15 16 17 19 18 20 21 24 25 26 27 22 23 28 29 30 31 32 33 35 34 36 37 40 41 42 43 38 39 44 45 46 47 48 49 51 50 52 53 56 57 58 59 54 55 60 61 62 63 64 65 67 66 68 69 72 73 74 75 70 71 76 77 78 79 80 81 83 82 84 85 88 89 90 91 86 87 92 93 94 95 96 97 99 98 100 101 104 105 106 107 102 103 108 109 110 111 112 113 115 114 116 117 120 121 122 123 118 119 124 125 126 127 128 129 131 130 132 133 136 137 138 139 134 135 140 141 142 143 144 145 147 146 148 149 152 153 154 155 150 151 156 157 158 159 160 161 163 162 164 165 168 169 170 171 166 167 172 173 174 175 176 177 179 178 180 181 184 185 186 187 182 183 188 189 190 191 192 193 195 194 196 197 200 201 202 203 198 199 204 205 206 207 208 209 211 210 212 213 216 217 218 219 214 215 220 221 222 223 224 225 227 226 228 229 232 233 234 235 230 231 236 237 238 239 240 241 243 242 244 245 248 249 250 251 246 247 252 253 254 255 256 257 259 258 260 261 264 265 266 267 262 263 268 269 270 271 272 273 275 274 276 277 280 281 282 283 278 279 284 285 286 287 288 289 291 290 292 293 296 297 298 299 294 295 300 301 302 303 304 305 307 306 308 309 312 313 314 315 310 311 316 317 318 319 </DataArray>
        <DataArray type="Int32" Name="offsets" format="ascii">16 32 48 64 80 96 112 128 144 160 176 192 208 224 240 256 272 288 304 320 </DataArray>
        <DataArray type="Int8" Name="types" format="ascii">70 70 70 70 70 70 70 70 70 70 70 70 70 70 70 70 70 70 70 70 </DataArray>
      </Cells>
      <CellData>
        <DataArray type="UInt8" Name="vtkGhostType" format="ascii" RangeMin="0" RangeMax="1">0 0 0 0 0 0 0 0 0 0 0 0 0 0 0 0 0 0 0 0 </DataArray>
        <DataArray type="Int64" IdType="1" Name="vtkOriginalCellIds" format="ascii" RangeMin="0" RangeMax="19">0 1 2 3 4 5 6 7 8 9 10 11 12 13 14 15 16 17 18 19 </DataArray>
      </CellData>
      <PointData Vectors="solution">
        <DataArray type="Int64" IdType="1" Name="vtkOriginalPointIds" format="ascii" RangeMin="0" RangeMax="319">0 1 2 3 4 5 6 7 8 9 10 11 12 13 14 15 16 17 18 19 20 21 22 23 24 25 26 27 28 29 30 31 32 33 34 35 36 37 38 39 40 41 42 43 44 45 46 47 48 49 50 51 52 53 54 55 56 57 58 59 60 61 62 63 64 65 66 67 68 69 70 71 72 73 74 75 76 77 78 79 80 81 82 83 84 85 86 87 88 89 90 91 92 93 94 95 96 97 98 99 100 101 102 103 104 105 106 107 108 109 110 111 112 113 114 115 116 117 118 119 120 121 122 123 124 125 126 127 128 129 130 131 132 133 134 135 136 137 138 139 140 141 142 143 144 145 146 147 148 149 150 151 152 153 154 155 156 157 158 159 160 161 162 163 164 165 166 167 168 169 170 171 172 173 174 175 176 177 178 179 180 181 182 183 184 185 186 187 188 189 190 191 192 193 194 195 196 197 198 199 200 201 202 203 204 205 206 207 208 209 210 211 212 213 214 215 216 217 218 219 220 221 222 223 224 225 226 227 228 229 230 231 232 233 234 235 236 237 238 239 240 241 242 243 244 245 246 247 248 249 250 251 252 253 254 255 256 257 258 259 260 261 262 263 264 265 266 267 268 269 270 271 272 273 274 275 276 277 278 279 280 281 282 283 284 285 286 287 288 289 290 291 292 293 294 295 296 297 298 299 300 301 302 303 304 305 306 307 308 309 310 311 312 313 314 315 316 317 318 319 </DataArray>
        <DataArray type="UInt8" Name="vtkGhostType" format="ascii" RangeMin="0" RangeMax="0">0 0 0 0 0 0 0 0 0 0 0 0 0 0 0 0 0 0 0 0 0 0 0 0 0 0 0 0 0 0 0 0 0 0 0 0 0 0 0 0 0 0 0 0 0 0 0 0 0 0 0 0 0 0 0 0 0 0 0 0 0 0 0 0 0 0 0 0 0 0 0 0 0 0 0 0 0 0 0 0 0 0 0 0 0 0 0 0 0 0 0 0 0 0 0 0 0 0 0 0 0 0 0 0 0 0 0 0 0 0 0 0 0 0 0 0 0 0 0 0 0 0 0 0 0 0 0 0 0 0 0 0 0 0 0 0 0 0 0 0 0 0 0 0 0 0 0 0 0 0 0 0 0 0 0 0 0 0 0 0 0 0 0 0 0 0 0 0 0 0 0 0 0 0 0 0 0 0 0 0 0 0 0 0 0 0 0 0 0 0 0 0 0 0 0 0 0 0 0 0 0 0 0 0 0 0 0 0 0 0 0 0 0 0 0 0 0 0 0 0 0 0 0 0 0 0 0 0 0 0 0 0 0 0 0 0 0 0 0 0 0 0 0 0 0 0 0 0 0 0 0 0 0 0 0 0 0 0 0 0 0 0 0 0 0 0 0 0 0 0 0 0 0 0 0 0 0 0 0 0 0 0 0 0 0 0 0 0 0 0 0 0 0 0 0 0 0 0 0 0 0 0 0 0 0 0 0 0 0 0 0 0 0 0 0 0 0 0 0 0 </DataArray>
        <DataArray type="Float64" Name="solution" format="ascii" NumberOfComponents="3">0.5587179428882584 0 0 0.5949276612201192 0 0 0.7371000973604881 0 0 1.429164101624994 0 0 0.570787848998879 0 0 0.5828577551094989 0 0 0.618178661045669 0 0 0.6776393792030795 0 0 0.8730064746884094 0 0 1.1510852881567 0 0 0.9677880987819911 0 0 1.198476100203488 0 0 0.7031212655932494 0 0 0.78806387014083 0 0 0.835454682187621 0 0 0.9932699851721614 0 0 0.5949276612201194 0 0 0.7397665345475636 0 0 1.429164101624985 0 0 1.431297251374656 0 0 0.643207285662601 0 0 0.6914869101050825 0 0 0.8730064746884106 0 0 1.151085288156703 0 0 0.970276773489927 0 0 1.200787012432289 0 0 1.333039019588498 0 0 1.326310837691934 0 0 0.8731511969712321 0 0 0.9030948859673683 0 0 1.103095108279866 0 0 1.114702861829653 0 0 0.7397665345475638 0 0 0.5948735633351172 0 0 1.431297251374646 0 0 1.430236759372624 0 0 0.6914688774767488 0 0 0.6431712204059332 0 0 0.9702767734899281 0 0 1.200787012432291 0 0 0.8733279620142873 0 0 1.151782360693458 0 0 1.326385106168319 0 0 1.333306213253389 0 0 0.9031076203739385 0 0 0.8732162180217515 0 0 1.114746363271129 0 0 1.103261215637571 0 0 0.5948735633351176 0 0 0.5586503205320057 0 0 1.430236759372638 0 0 0.7384409195450286 0 0 0.582799149067414 0 0 0.5707247347997098 0 0 0.8733279620142876 0 0 1.151782360693453 0 0 0.618580520203016 0 0 0.6785107198740261 0 0 1.199638146096756 0 0 0.9690395328209023 0 0 0.7884121480771964 0 0 0.7034963341401042 0 0 0.9940251470869756 0 0 0.8362679334804995 0 0 0.7371000973604893 0 0 1.429164101624987 0 0 0.5587847101288705 0 0 0.5947133624306551 0 0 0.967788098781988 0 0 1.198476100203487 0 0 0.6776616349499497 0 0 0.6182231725394103 0 0 1.151013855226878 0 0 0.8728636088287681 0 0 0.5707609275627992 0 0 0.5827371449967288 0 0 0.8354457083755928 0 0 0.9932297818012357 0 0 0.7031033179691965 0 0 0.7879834633989823 0 0 1.429164101624987 0 0 1.430226401046844 0 0 0.5947133624306589 0 0 0.7384279716377941 0 0 1.332687775945842 0 0 1.325583888021428 0 0 1.15101385522688 0 0 0.872863608828768 0 0 1.19962692457716 0 0 0.9690274481074812 0 0 0.6426182321663694 0 0 0.6905231019020898 0 0 1.102664594686018 0 0 1.113896959314978 0 0 0.8726414134261924 0 0 0.9022100306085312 0 0 1.430236759372627 0 0 0.7384409195450352 0 0 1.430226401046847 0 0 0.5946618598625832 0 0 1.199638146096763 0 0 0.9690395328208981 0 0 1.325664471087743 0 0 1.332955786980389 0 0 0.6905145663175511 0 0 0.6425882130900671 0 0 1.151704887318752 0 0 0.8731833735906727 0 0 1.113947836164348 0 0 0.9022312012409457 0 0 1.102833262350283 0 0 0.8727107377201744 0 0 1.430226401046844 0 0 0.5946618598625849 0 0 0.7384279716378123 0 0 0.5587170949419722 0 0 1.151704887318755 0 0 0.8731833735906718 0 0 1.199626924577161 0 0 0.9690274481074775 0 0 0.5826802715557142 0 0 0.5706986832488439 0 0 0.6785243460725217 0 0 0.6186207205072509 0 0 0.9939780402366785 0 0 0.7883291558961947 0 0 0.8362511931545991 0 0 0.7034749382017207 0 0 -2.584589685273934e-18 0 0 -1.301613987033318e-17 0 0 -9.581620124306298e-17 0 0 0.5587179428882585 0 0 4.132237114972873e-17 0 0 -1.040048637040476e-17 0 0 3.612212796452632e-17 0 0 4.122917970576527e-17 0 0 0.1862393142960861 0 0 0.3724786285921725 0 0 0.1862393142960865 0 0 0.3724786285921722 0 0 0.06207977143202873 0 0 0.1241595428640575 0 0 0.1241595428640576 0 0 0.248319085728115 0 0 -7.504629231690801e-17 0 0 -4.06362778294032e-17 0 0 0.5587179428882576 0 0 0.7397665345475642 0 0 1.22313104196274e-16 0 0 -1.804431909356196e-17 0 0 0.1862393142960863 0 0 0.3724786285921729 0 0 0.246588844849188 0 0 0.493177689698376 0 0 0.6190674734413605 0 0 0.679417003994462 0 0 0.2063558244804535 0 0 0.2264723346648208 0 0 0.4127116489609071 0 0 0.4529446693296416 0 0 -1.194167898623212e-16 0 0 -3.026480617942972e-17 0 0 0.739766534547563 0 0 0.5586503205320058 0 0 1.311371457517837e-16 0 0 -9.067191187577396e-18 0 0 0.2465888448491883 0 0 0.4931776896983765 0 0 0.1862167735106687 0 0 0.3724335470213374 0 0 0.6793944632090445 0 0 0.6190223918705258 0 0 0.2264648210696816 0 0 0.2063407972901752 0 0 0.4529296421393632 0 0 0.4126815945803503 0 0 -9.563877421853225e-17 0 0 -2.584276869036866e-18 0 0 0.5586503205320066 0 0 -1.264981196882751e-15 0 0 6.713032223059871e-17 0 0 -5.198991920254199e-18 0 0 0.1862167735106688 0 0 0.3724335470213373 0 0 3.260570418137603e-16 0 0 7.582034183229119e-17 0 0 0.3724335470213365 0 0 0.18621677351067 0 0 0.1241445156737792 0 0 0.06207225783688954 0 0 0.2482890313475578 0 0 0.1241445156737787 0 0 4.375164176173029e-17 0 0 0.5587179428882582 0 0 -3.57606440407315e-17 0 0 0.7371000973604895 0 0 0.1862393142960862 0 0 0.3724786285921722 0 0 9.151006072073958e-17 0 0 7.695834398772315e-17 0 0 0.6181786610456684 0 0 0.6776393792030788 0 0 0.2457000324534968 0 0 0.4914000649069925 0 0 0.2060595536818896 0 0 0.4121191073637792 0 0 0.2258797930676933 0 0 0.451759586135386 0 0 0.5586503205320063 0 0 6.83563562371074e-16 0 0 0.7384409195450461 0 0 -1.696943569207157e-15 0 0 0.3724335470213375 0 0 0.1862167735106691 0 0 0.6185805202030147 0 0 0.6785107198740192 0 0 6.238716421961599e-16 0 0 8.20052200875365e-16 0 0 0.4922939463633535 0 0 0.2461469731816791 0 0 0.4123870134686766 0 0 0.2061935067343379 0 0 0.4523404799160143 0 0 0.226170239958007 0 0 4.772427237255192e-17 0 0 0.7371000973604888 0 0 -9.57210599702211e-17 0 0 0.5587847101288705 0 0 0.2457000324534963 0 0 0.4914000649069928 0 0 1.129276081932691e-16 0 0 6.940352765744597e-17 0 0 0.6776616349499495 0 0 0.6182231725394104 0 0 0.1862615700429571 0 0 0.3725231400859139 0 0 0.2258872116499833 0 0 0.4517744232999663 0 0 0.2060743908464702 0 0 0.4121487816929401 0 0 0.738440919545034 0 0 1.27661848109694e-15 0 0 0.5587170949419734 0 0 -1.316291963575929e-15 0 0 0.4922939463633547 0 0 0.2461469731816781 0 0 0.6785329780106777 0 0 0.6186250364763237 0 0 1.006742086715387e-15 0 0 1.896630217951638e-16 0 0 0.3724780632946474 0 0 0.1862390316473257 0 0 0.452355318673786 0 0 0.2261776593368922 0 0 0.4124166909842159 0 0 0.2062083454921078 0 0 9.545181477827773e-18 0 0 0.5587847101288709 0 0 -7.754695637419234e-18 0 0 -1.877833926031936e-15 0 0 0.1862615700429568 0 0 0.372523140085914 0 0 5.674104186486493e-17 0 0 2.061582529501285e-17 0 0 0.3725231400859146 0 0 0.1862615700429574 0 0 -5.449511542420409e-16 0 0 6.08376036110808e-16 0 0 0.124174380028638 0 0 0.2483487600572754 0 0 0.06208719001431859 0 0 0.1241743800286372 0 0 0.5587847101288708 0 0 0.7384279716378048 0 0 2.547512384388842e-15 0 0 -2.564606599608171e-15 0 0 0.6186657972985119 0 0 0.6785468844681599 0 0 0.3725231400859129 0 0 0.1862615700429561 0 0 0.4922853144252005 0 0 0.2461426572126 0 0 -1.236032177309322e-15 0 0 1.156384765575296e-15 0 0 0.4124438648656757 0 0 0.4523645896454368 0 0 0.2062219324328369 0 0 0.2261822948227177 0 0 0.7384279716377986 0 0 0.558717094941973 0 0 2.697749102959716e-15 0 0 -1.944327868919585e-15 0 0 0.6785243460725219 0 0 0.6186207205072501 0 0 0.492285314425199 0 0 0.2461426572125988 0 0 0.3724780632946491 0 0 0.1862390316473242 0 0 -1.367275642798487e-15 0 0 5.051222580994213e-16 0 0 0.4523495640483493 0 0 0.4124138136714982 0 0 0.2261747820241735 0 0 0.2062069068357483 0 0 0.5587170949419727 0 0 4.050421544051873e-16 0 0 2.292548929657433e-15 0 0 -4.652254372921868e-17 0 0 0.3724780632946487 0 0 0.1862390316473252 0 0 0.3724780632946477 0 0 0.1862390316473232 0 0 3.678806952771618e-16 0 0 4.695730221365761e-17 0 0 -7.331412684003947e-16 0 0 1.555156898721524e-16 0 0 0.2483187088630987 0 0 0.124159354431549 0 0 0.1241593544315484 0 0 0.06207967721577417 0 0 </DataArray>
      </PointData>
    </Piece>
  </UnstructuredGrid>
</VTKFile>
