<?xml version="1.0"?>
<VTKFile type="UnstructuredGrid" version="2.2">
  <UnstructuredGrid>
    <Piece NumberOfPoints="224" NumberOfCells="72">
      <Points>
        <DataArray type="Float64" NumberOfComponents="3" format="ascii">0.25 0.25 0 0.2999999999999999 0.25 0 0.2666666666666666 0.2499999999999999 0 0.2833333333333333 0.2500000000000001 0 0.25 0.4999999999999999 0 0.2499999999999999 0.3333333333333333 0 0.2500000000000001 0.4166666666666667 0 0.2999999999999999 0.5 0 0.2666666666666666 0.4999999999999999 0 0.2833333333333333 0.5000000000000001 0 0.2999999999999998 0.25 0 0.4999999999999999 0.25 0 0.3666666666666665 0.2499999999999999 0 0.4333333333333333 0.2500000000000001 0 0.5 0.3 0 0.4999999999999999 0.2666666666666666 0 0.5000000000000001 0.2833333333333333 0 0.2999999999999998 0.4999999999999999 0 0.3666666666666665 0.350928801500014 0 0.4333333333333333 0.3114381916835873 0 0.4999999999999999 0.25 0 0.7000000000000002 0.25 0 0.5666666666666665 0.2499999999999999 0 0.6333333333333335 0.2500000000000001 0 0.4999999999999999 0.2999999999999999 0 0.4999999999999999 0.2666666666666666 0 0.5000000000000001 0.2833333333333333 0 0.7000000000000002 0.5 0 0.5666666666666665 0.3114381916835872 0 0.6333333333333335 0.350928801500014 0 0.7 0.25 0 0.7499999999999999 0.25 0 0.7166666666666667 0.2499999999999999 0 0.7333333333333335 0.2500000000000001 0 0.7500000000000001 0.5 0 0.7499999999999999 0.3333333333333333 0 0.7500000000000001 0.4166666666666667 0 0.7 0.4999999999999999 0 0.7166666666666667 0.4999999999999999 0 0.7333333333333335 0.5000000000000001 0 0.25 0.4999999999999999 0 0.2999999999999999 0.5 0 0.2666666666666666 0.4999999999999999 0 0.2833333333333333 0.5000000000000001 0 0.25 0.7499999999999999 0 0.2499999999999999 0.5833333333333333 0 0.2500000000000001 0.6666666666666667 0 0.2999999999999999 0.7500000000000001 0 0.2666666666666666 0.7499999999999999 0 0.2833333333333333 0.7500000000000001 0 0.2999999999999998 0.4999999999999999 0 0.4999999999999999 0.7 0 0.3666666666666665 0.6490711984999858 0 0.4333333333333333 0.6885618083164129 0 0.5 0.7500000000000001 0 0.4999999999999999 0.7166666666666667 0 0.5000000000000001 0.7333333333333335 0 0.2999999999999998 0.7499999999999999 0 0.3666666666666665 0.7499999999999999 0 0.4333333333333333 0.7500000000000001 0 0.7 0.4999999999999999 0 0.5000000000000001 0.7000000000000002 0 0.6885618083164127 0.5666666666666665 0 0.6490711984999862 0.6333333333333335 0 0.7499999999999999 0.4999999999999999 0 0.7166666666666667 0.4999999999999999 0 0.7333333333333335 0.5000000000000001 0 0.7500000000000001 0.7000000000000002 0 0.7499999999999999 0.5666666666666665 0 0.7500000000000001 0.6333333333333335 0 0.4999999999999999 0.7 0 0.4999999999999999 0.7499999999999999 0 0.4999999999999999 0.7166666666666667 0 0.5000000000000001 0.7333333333333335 0 0.7500000000000001 0.7500000000000001 0 0.5833333333333333 0.7499999999999999 0 0.6666666666666667 0.7500000000000001 0 0.7499999999999999 0.7 0 0.7499999999999999 0.7166666666666667 0 0.7500000000000001 0.7333333333333335 0 -2.312964634635742e-18 0 0 -2.312964634635742e-18 0.25 0 0 0.0833333333333333 0 0 0.1666666666666667 0 0.25 -2.312964634635742e-18 0 0.0833333333333333 0 0 0.1666666666666667 0 0 0.25 0.25 0 0.0833333333333333 0.2499999999999999 0 0.1666666666666667 0.2500000000000001 0 0.2499999999999999 0.0833333333333333 0 0.2500000000000001 0.1666666666666667 0 0.25 0 0 0.25 0.25 0 0.2499999999999999 0.0833333333333333 0 0.2500000000000001 0.1666666666666667 0 0.4999999999999999 -2.312964634635742e-18 0 0.3333333333333333 0 0 0.4166666666666667 0 0 0.5 0.25 0 0.3333333333333333 0.2499999999999999 0 0.4166666666666667 0.2500000000000001 0 0.4999999999999999 0.0833333333333333 0 0.5000000000000001 0.1666666666666667 0 0.4999999999999999 0 0 0.4999999999999999 0.25 0 0.4999999999999999 0.0833333333333333 0 0.5000000000000001 0.1666666666666667 0 0.7499999999999999 -2.312964634635742e-18 0 0.5833333333333333 0 0 0.6666666666666667 0 0 0.7500000000000001 0.25 0 0.5833333333333333 0.2499999999999999 0 0.6666666666666667 0.2500000000000001 0 0.7499999999999999 0.0833333333333333 0 0.7500000000000001 0.1666666666666667 0 0.7499999999999999 0 0 0.7499999999999999 0.25 0 0.7499999999999999 0.0833333333333333 0 0.7500000000000001 0.1666666666666667 0 0.9999999999999999 -2.312964634635742e-18 0 0.8333333333333333 0 0 0.9166666666666669 0 0 1 0.25 0 0.8333333333333333 0.2499999999999999 0 0.9166666666666669 0.2500000000000001 0 0.9999999999999998 0.0833333333333333 0 1 0.1666666666666667 0 -2.312964634635742e-18 0.25 0 -2.312964634635742e-18 0.4999999999999999 0 0 0.3333333333333333 0 0 0.4166666666666667 0 0.25 0.25 0 0.0833333333333333 0.2499999999999999 0 0.1666666666666667 0.2500000000000001 0 0.25 0.5 0 0.0833333333333333 0.4999999999999999 0 0.1666666666666667 0.5000000000000001 0 0.2499999999999999 0.3333333333333333 0 0.2500000000000001 0.4166666666666667 0 0.7499999999999999 0.25 0 0.7499999999999999 0.4999999999999999 0 0.7499999999999999 0.3333333333333333 0 0.7500000000000001 0.4166666666666667 0 0.9999999999999999 0.25 0 0.8333333333333333 0.2499999999999999 0 0.9166666666666669 0.2500000000000001 0 1 0.5 0 0.8333333333333333 0.4999999999999999 0 0.9166666666666669 0.5000000000000001 0 0.9999999999999998 0.3333333333333333 0 1 0.4166666666666667 0 -2.312964634635742e-18 0.4999999999999999 0 -2.312964634635742e-18 0.7499999999999999 0 0 0.5833333333333333 0 0 0.6666666666666667 0 0.25 0.4999999999999999 0 0.0833333333333333 0.4999999999999999 0 0.1666666666666667 0.5000000000000001 0 0.25 0.7500000000000001 0 0.0833333333333333 0.7499999999999999 0 0.1666666666666667 0.7500000000000001 0 0.2499999999999999 0.5833333333333333 0 0.2500000000000001 0.6666666666666667 0 0.7499999999999999 0.4999999999999999 0 0.7499999999999999 0.7499999999999999 0 0.7499999999999999 0.5833333333333333 0 0.7500000000000001 0.6666666666666667 0 0.9999999999999999 0.4999999999999999 0 0.8333333333333333 0.4999999999999999 0 0.9166666666666669 0.5000000000000001 0 1 0.7500000000000001 0 0.8333333333333333 0.7499999999999999 0 0.9166666666666669 0.7500000000000001 0 0.9999999999999998 0.5833333333333333 0 1 0.6666666666666667 0 -2.312964634635742e-18 0.7499999999999999 0 -2.312964634635742e-18 0.9999999999999999 0 0 0.8333333333333333 0 0 0.9166666666666669 0 0.25 0.7499999999999999 0 0.0833333333333333 0.7499999999999999 0 0.1666666666666667 0.7500000000000001 0 0.25 1 0 0.0833333333333333 0.9999999999999998 0 0.1666666666666667 1 0 0.2499999999999999 0.8333333333333333 0 0.2500000000000001 0.9166666666666669 0 0.25 0.7499999999999999 0 0.25 0.9999999999999999 0 0.2499999999999999 0.8333333333333333 0 0.2500000000000001 0.9166666666666669 0 0.4999999999999999 0.7499999999999999 0 0.3333333333333333 0.7499999999999999 0 0.4166666666666667 0.7500000000000001 0 0.5 1 0 0.3333333333333333 0.9999999999999998 0 0.4166666666666667 1 0 0.4999999999999999 0.8333333333333333 0 0.5000000000000001 0.9166666666666669 0 0.4999999999999999 0.7499999999999999 0 0.4999999999999999 0.9999999999999999 0 0.4999999999999999 0.8333333333333333 0 0.5000000000000001 0.9166666666666669 0 0.7499999999999999 0.7499999999999999 0 0.5833333333333333 0.7499999999999999 0 0.6666666666666667 0.7500000000000001 0 0.7500000000000001 1 0 0.5833333333333333 0.9999999999999998 0 0.6666666666666667 1 0 0.7499999999999999 0.8333333333333333 0 0.7500000000000001 0.9166666666666669 0 0.7499999999999999 0.7499999999999999 0 0.7499999999999999 0.9999999999999999 0 0.7499999999999999 0.8333333333333333 0 0.7500000000000001 0.9166666666666669 0 0.9999999999999999 0.7499999999999999 0 0.8333333333333333 0.7499999999999999 0 0.9166666666666669 0.7500000000000001 0 1 1 0 0.8333333333333333 0.9999999999999998 0 0.9166666666666669 1 0 0.9999999999999998 0.8333333333333333 0 1 0.9166666666666669 0 </DataArray>
      </Points>
      <Cells>
        <DataArray type="Int32" Name="connectivity" format="ascii">0 1 2 3 0 4 5 6 4 7 8 9 10 11 12 13 11 14 15 16 17 14 18 19 20 21 22 23 20 24 25 26 24 27 28 29 30 31 32 33 31 34 35 36 37 34 38 39 40 41 42 43 40 44 45 46 44 47 48 49 50 51 52 53 51 54 55 56 57 54 58 59 60 61 62 63 60 64 65 66 64 67 68 69 70 71 72 73 71 74 75 76 77 74 78 79 80 81 82 83 80 84 85 86 81 87 88 89 84 87 90 91 92 93 94 95 92 96 97 98 93 99 100 101 96 99 102 103 104 105 106 107 104 108 109 110 105 111 112 113 108 111 114 115 116 117 118 119 116 120 121 122 117 123 124 125 120 123 126 127 128 129 130 131 128 132 133 134 129 135 136 137 132 135 138 139 140 141 142 143 140 144 145 146 141 147 148 149 144 147 150 151 152 153 154 155 152 156 157 158 153 159 160 161 156 159 162 163 164 165 166 167 164 168 169 170 165 171 172 173 168 171 174 175 176 177 178 179 176 180 181 182 177 183 184 185 180 183 186 187 188 189 190 191 188 192 193 194 189 195 196 197 192 195 198 199 200 201 202 203 200 204 205 206 201 207 208 209 204 207 210 211 212 213 214 215 212 216 217 218 213 219 220 221 216 219 222 223 </DataArray>
        <DataArray type="Int32" Name="offsets" format="ascii">4 8 12 16 20 24 28 32 36 40 44 48 52 56 60 64 68 72 76 80 84 88 92 96 100 104 108 112 116 120 124 128 132 136 140 144 148 152 156 160 164 168 172 176 180 184 188 192 196 200 204 208 212 216 220 224 228 232 236 240 244 248 252 256 260 264 268 272 276 280 284 288 </DataArray>
        <DataArray type="Int8" Name="types" format="ascii">68 68 68 68 68 68 68 68 68 68 68 68 68 68 68 68 68 68 68 68 68 68 68 68 68 68 68 68 68 68 68 68 68 68 68 68 68 68 68 68 68 68 68 68 68 68 68 68 68 68 68 68 68 68 68 68 68 68 68 68 68 68 68 68 68 68 68 68 68 68 68 68 </DataArray>
      </Cells>
      <CellData>
        <DataArray type="UInt8" Name="vtkGhostType" format="ascii" RangeMin="0" RangeMax="1">0 0 0 0 0 0 0 0 0 0 0 0 0 0 0 0 0 0 0 0 0 0 0 0 0 0 0 0 0 0 0 0 0 0 0 0 0 0 0 0 0 0 0 0 0 0 0 0 0 0 0 0 0 0 0 0 0 0 0 0 0 0 0 0 0 0 0 0 0 0 0 0 </DataArray>
        <DataArray type="Int64" IdType="1" Name="vtkOriginalCellIds" format="ascii" RangeMin="0" RangeMax="71">0 1 2 3 4 5 6 7 8 9 10 11 12 13 14 15 16 17 18 19 20 21 22 23 24 25 26 27 28 29 30 31 32 33 34 35 36 37 38 39 40 41 42 43 44 45 46 47 48 49 50 51 52 53 54 55 56 57 58 59 60 61 62 63 64 65 66 67 68 69 70 71 </DataArray>
      </CellData>
      <PointData Vectors="solution_wirebasket">
        <DataArray type="Int64" IdType="1" Name="vtkOriginalPointIds" format="ascii" RangeMin="0" RangeMax="223">0 1 2 3 4 5 6 7 8 9 10 11 12 13 14 15 16 17 18 19 20 21 22 23 24 25 26 27 28 29 30 31 32 33 34 35 36 37 38 39 40 41 42 43 44 45 46 47 48 49 50 51 52 53 54 55 56 57 58 59 60 61 62 63 64 65 66 67 68 69 70 71 72 73 74 75 76 77 78 79 80 81 82 83 84 85 86 87 88 89 90 91 92 93 94 95 96 97 98 99 100 101 102 103 104 105 106 107 108 109 110 111 112 113 114 115 116 117 118 119 120 121 122 123 124 125 126 127 128 129 130 131 132 133 134 135 136 137 138 139 140 141 142 143 144 145 146 147 148 149 150 151 152 153 154 155 156 157 158 159 160 161 162 163 164 165 166 167 168 169 170 171 172 173 174 175 176 177 178 179 180 181 182 183 184 185 186 187 188 189 190 191 192 193 194 195 196 197 198 199 200 201 202 203 204 205 206 207 208 209 210 211 212 213 214 215 216 217 218 219 220 221 222 223 </DataArray>
        <DataArray type="UInt8" Name="vtkGhostType" format="ascii" RangeMin="0" RangeMax="0">0 0 0 0 0 0 0 0 0 0 0 0 0 0 0 0 0 0 0 0 0 0 0 0 0 0 0 0 0 0 0 0 0 0 0 0 0 0 0 0 0 0 0 0 0 0 0 0 0 0 0 0 0 0 0 0 0 0 0 0 0 0 0 0 0 0 0 0 0 0 0 0 0 0 0 0 0 0 0 0 0 0 0 0 0 0 0 0 0 0 0 0 0 0 0 0 0 0 0 0 0 0 0 0 0 0 0 0 0 0 0 0 0 0 0 0 0 0 0 0 0 0 0 0 0 0 0 0 0 0 0 0 0 0 0 0 0 0 0 0 0 0 0 0 0 0 0 0 0 0 0 0 0 0 0 0 0 0 0 0 0 0 0 0 0 0 0 0 0 0 0 0 0 0 0 0 0 0 0 0 0 0 0 0 0 0 0 0 0 0 0 0 0 0 0 0 0 0 0 0 0 0 0 0 0 0 0 0 0 0 0 0 0 0 0 0 0 0 0 0 0 0 0 0 </DataArray>
        <DataArray type="Float64" Name="solution_wirebasket" format="ascii" NumberOfComponents="3">0.5587179428882585 0 0 0.5949276612201195 0 0 0.5707878489988787 0 0 0.5828577551094994 0 0 0.7371000973604892 0 0 0.6181786610456687 0 0 0.6776393792030793 0 0 1.429164101624992 0 0 0.9677880987819892 0 0 1.19847610020349 0 0 0.5949276612201195 0 0 0.7397665345475639 0 0 0.643207285662601 0 0 0.6914869101050829 0 0 1.431297251374652 0 0 0.9702767734899261 0 0 1.20078701243229 0 0 1.429164101624989 0 0 1.333039019588495 0 0 1.326310837691937 0 0 0.7397665345475639 0 0 0.5948735633351176 0 0 0.6914688774767486 0 0 0.6431712204059332 0 0 1.431297251374651 0 0 0.9702767734899261 0 0 1.20078701243229 0 0 1.430236759372626 0 0 1.326385106168319 0 0 1.333306213253388 0 0 0.5948735633351176 0 0 0.5586503205320063 0 0 0.5827991490674138 0 0 0.57072473479971 0 0 0.7384409195450324 0 0 0.6185805202030155 0 0 0.6785107198740234 0 0 1.430236759372629 0 0 1.199638146096763 0 0 0.9690395328208967 0 0 0.7371000973604892 0 0 1.429164101624992 0 0 0.9677880987819892 0 0 1.198476100203491 0 0 0.5587847101288709 0 0 0.6776616349499497 0 0 0.6182231725394105 0 0 0.5947133624306564 0 0 0.5707609275627995 0 0 0.5827371449967271 0 0 1.429164101624989 0 0 1.430226401046844 0 0 1.332687775945842 0 0 1.325583888021424 0 0 0.7384279716377987 0 0 1.199626924577162 0 0 0.9690274481074785 0 0 0.5947133624306571 0 0 0.6426182321663723 0 0 0.6905231019020865 0 0 1.430236759372629 0 0 1.43022640104684 0 0 1.325664471087746 0 0 1.332955786980393 0 0 0.7384409195450324 0 0 1.199638146096763 0 0 0.9690395328208967 0 0 0.5946618598625845 0 0 0.6905145663175513 0 0 0.6425882130900675 0 0 1.430226401046844 0 0 0.7384279716378017 0 0 1.199626924577162 0 0 0.9690274481074785 0 0 0.5587170949419724 0 0 0.6785243460725259 0 0 0.6186207205072485 0 0 0.5946618598625849 0 0 0.5826802715557141 0 0 0.5706986832488431 0 0 1.809212779691766e-17 0 0 1.273656553844287e-17 0 0 -1.81542554262266e-17 0 0 -1.242552586179195e-19 0 0 -1.301613987033318e-17 0 0 7.722705241167378e-18 0 0 -1.040048637040476e-17 0 0 0.5587179428882586 0 0 0.1862393142960861 0 0 0.3724786285921725 0 0 0.1862393142960861 0 0 0.3724786285921726 0 0 2.49139824131052e-18 0 0 0.5587179428882585 0 0 0.1862393142960861 0 0 0.3724786285921726 0 0 1.76115882159682e-17 0 0 2.872603683644992e-18 0 0 -1.804431909356196e-17 0 0 0.739766534547564 0 0 0.6190674734413604 0 0 0.6794170039944625 0 0 0.2465888448491879 0 0 0.4931776896983762 0 0 1.76115882159682e-17 0 0 0.7397665345475639 0 0 0.2465888448491879 0 0 0.4931776896983762 0 0 -9.291453420952419e-19 0 0 -2.391422772975513e-20 0 0 -6.553698800914907e-18 0 0 0.5586503205320061 0 0 0.6793944632090447 0 0 0.6190223918705254 0 0 0.1862167735106686 0 0 0.3724335470213375 0 0 -9.291453420952419e-19 0 0 0.5586503205320063 0 0 0.1862167735106686 0 0 0.3724335470213375 0 0 1.292138434518453e-17 0 0 -5.229430102434573e-18 0 0 -5.198991920254199e-18 0 0 4.458100904196789e-16 0 0 0.3724335470213376 0 0 0.1862167735106685 0 0 2.459444588736163e-16 0 0 -2.549670974044325e-16 0 0 1.273656553844287e-17 0 0 -3.576064404073162e-17 0 0 -8.749563405087246e-17 0 0 1.723279798097134e-17 0 0 0.5587179428882585 0 0 0.1862393142960861 0 0 0.3724786285921725 0 0 0.7371000973604891 0 0 0.2457000324534963 0 0 0.491400064906993 0 0 0.6181786610456687 0 0 0.6776393792030793 0 0 0.5586503205320063 0 0 0.7384409195450324 0 0 0.6185805202030155 0 0 0.6785107198740234 0 0 6.835635623710741e-16 0 0 0.3724335470213376 0 0 0.1862167735106685 0 0 -3.67794940185157e-17 0 0 0.4922939463633553 0 0 0.2461469731816769 0 0 6.238716421961599e-16 0 0 -4.630498751280994e-16 0 0 -3.576064404073162e-17 0 0 -3.038399739503975e-17 0 0 -5.552751619375102e-17 0 0 7.669676064397188e-19 0 0 0.7371000973604892 0 0 0.2457000324534963 0 0 0.491400064906993 0 0 0.5587847101288708 0 0 0.1862615700429569 0 0 0.3725231400859139 0 0 0.6776616349499497 0 0 0.6182231725394105 0 0 0.7384409195450324 0 0 0.5587170949419729 0 0 0.6785329780106807 0 0 0.6186250364763251 0 0 9.027029394891346e-16 0 0 0.4922939463633553 0 0 0.2461469731816769 0 0 -6.018328288700621e-17 0 0 0.3724780632946491 0 0 0.1862390316473241 0 0 1.006742086715387e-15 0 0 -2.911052095787523e-16 0 0 -3.038399739503975e-17 0 0 2.584898545806665e-18 0 0 -3.373040723836336e-17 0 0 -6.336307143925588e-20 0 0 0.5587847101288709 0 0 0.1862615700429569 0 0 0.3725231400859139 0 0 -1.821404799828533e-16 0 0 1.141979749386242e-16 0 0 -6.737336426092305e-16 0 0 0.372523140085914 0 0 0.1862615700429562 0 0 0.5587847101288709 0 0 5.567018623134762e-17 0 0 0.372523140085914 0 0 0.1862615700429562 0 0 0.7384279716378017 0 0 0.6186657972985146 0 0 0.6785468844681571 0 0 -5.970392328732788e-16 0 0 -1.714038076105413e-16 0 0 -6.593820286802393e-16 0 0 0.4922853144252001 0 0 0.2461426572125994 0 0 0.7384279716378017 0 0 -2.846207296923025e-16 0 0 0.4922853144252001 0 0 0.2461426572125994 0 0 0.5587170949419729 0 0 0.6785243460725259 0 0 0.6186207205072485 0 0 -4.400989550081584e-16 0 0 -1.996399475418971e-16 0 0 -1.150968220990426e-15 0 0 0.3724780632946488 0 0 0.1862390316473235 0 0 0.5587170949419729 0 0 -2.041609171440068e-16 0 0 0.3724780632946488 0 0 0.1862390316473235 0 0 1.569219211826841e-16 0 0 0.3724780632946491 0 0 0.1862390316473241 0 0 -1.550751457640612e-17 0 0 7.841866109820902e-17 0 0 -3.484785338610564e-16 0 0 3.678806952771616e-16 0 0 -9.777950049946923e-17 0 0 </DataArray>
      </PointData>
    </Piece>
  </UnstructuredGrid>
</VTKFile>
