<?xml version="1.0"?>
<VTKFile type="UnstructuredGrid" version="2.2">
  <UnstructuredGrid>
    <Piece NumberOfPoints="320" NumberOfCells="20">
      <Points>
        <DataArray type="Float64" NumberOfComponents="3" format="ascii">0.25 0.2499999999999999 0 0.2999999999999998 0.2499999999999998 0 0.2499999999999997 0.4999999999999996 0 0.3 0.5000000000000003 0 0.2666666666666666 0.2500000000000001 0 0.283333333333333 0.2499999999999999 0 0.2500000000000001 0.3333333333333334 0 0.2500000000000001 0.4166666666666669 0 0.2999999999999998 0.3333333333333332 0 0.2999999999999998 0.4166666666666666 0 0.2666666666666668 0.5000000000000002 0 0.2833333333333331 0.4999999999999998 0 0.2666666666666666 0.3333333333333333 0 0.2833333333333332 0.3333333333333334 0 0.2666666666666667 0.4166666666666667 0 0.2833333333333333 0.4166666666666667 0 0.2999999999999998 0.25 0 0.4999999999999999 0.2499999999999998 0 0.2999999999999995 0.4999999999999997 0 0.5000000000000001 0.3000000000000002 0 0.3666666666666665 0.25 0 0.4333333333333332 0.25 0 0.2999999999999999 0.3333333333333334 0 0.3 0.4166666666666668 0 0.4999999999999999 0.2666666666666667 0 0.5 0.2833333333333332 0 0.3666666666666668 0.3509288015000141 0 0.4333333333333331 0.3114381916835872 0 0.3666666666666665 0.2836429338333379 0 0.4333333333333334 0.2704793972278625 0 0.3666666666666668 0.3172858676666761 0 0.4333333333333334 0.2909587944557249 0 0.4999999999999999 0.2499999999999999 0 0.7 0.2499999999999998 0 0.4999999999999994 0.2999999999999997 0 0.7000000000000004 0.5000000000000004 0 0.5666666666666667 0.2500000000000001 0 0.6333333333333333 0.25 0 0.5000000000000001 0.2666666666666668 0 0.5000000000000002 0.2833333333333334 0 0.7 0.3333333333333332 0 0.7 0.4166666666666666 0 0.5666666666666671 0.3114381916835874 0 0.6333333333333331 0.3509288015000138 0 0.5666666666666667 0.2704793972278624 0 0.6333333333333335 0.2836429338333381 0 0.5666666666666669 0.2909587944557249 0 0.6333333333333336 0.3172858676666761 0 0.7 0.2499999999999999 0 0.7499999999999999 0.2499999999999998 0 0.6999999999999993 0.4999999999999996 0 0.7500000000000003 0.5000000000000003 0 0.7166666666666667 0.2500000000000001 0 0.7333333333333332 0.2499999999999999 0 0.7000000000000001 0.3333333333333334 0 0.7000000000000004 0.4166666666666669 0 0.7499999999999999 0.3333333333333332 0 0.7499999999999999 0.4166666666666666 0 0.7166666666666671 0.5000000000000002 0 0.7333333333333331 0.4999999999999998 0 0.7166666666666667 0.3333333333333333 0 0.7333333333333336 0.3333333333333334 0 0.716666666666667 0.4166666666666667 0 0.7333333333333336 0.4166666666666667 0 0.25 0.4999999999999999 0 0.2999999999999998 0.4999999999999995 0 0.2499999999999997 0.7499999999999993 0 0.3 0.7500000000000003 0 0.2666666666666666 0.4999999999999999 0 0.2833333333333331 0.4999999999999999 0 0.2500000000000001 0.5833333333333335 0 0.2500000000000001 0.6666666666666671 0 0.2999999999999998 0.5833333333333334 0 0.2999999999999998 0.6666666666666665 0 0.2666666666666668 0.7500000000000002 0 0.2833333333333332 0.7499999999999997 0 0.2666666666666666 0.5833333333333334 0 0.2833333333333333 0.5833333333333336 0 0.2666666666666667 0.6666666666666669 0 0.2833333333333334 0.6666666666666669 0 0.2999999999999998 0.4999999999999998 0 0.4999999999999999 0.7 0 0.2999999999999995 0.7499999999999993 0 0.5000000000000001 0.7500000000000003 0 0.3666666666666665 0.6490711984999858 0 0.4333333333333332 0.6885618083164126 0 0.2999999999999999 0.5833333333333334 0 0.3 0.666666666666667 0 0.4999999999999999 0.7166666666666668 0 0.5 0.7333333333333334 0 0.3666666666666668 0.7500000000000003 0 0.4333333333333331 0.7499999999999997 0 0.3666666666666665 0.682714132333324 0 0.4333333333333334 0.7090412055442754 0 0.3666666666666668 0.7163570661666623 0 0.4333333333333334 0.7295206027721378 0 0.7000000000000001 0.4999999999999999 0 0.7499999999999999 0.4999999999999995 0 0.4999999999999993 0.6999999999999995 0 0.7500000000000003 0.7000000000000005 0 0.7166666666666667 0.4999999999999999 0 0.7333333333333333 0.4999999999999999 0 0.6885618083164128 0.5666666666666668 0 0.6490711984999864 0.6333333333333337 0 0.7499999999999999 0.5666666666666667 0 0.75 0.6333333333333333 0 0.5833333333333337 0.7000000000000003 0 0.6666666666666663 0.6999999999999998 0 0.7090412055442751 0.5666666666666667 0 0.7295206027721378 0.5666666666666669 0 0.6827141323333242 0.6333333333333336 0 0.7163570661666623 0.6333333333333336 0 0.4999999999999998 0.7 0 0.7499999999999999 0.7 0 0.4999999999999994 0.7499999999999992 0 0.7500000000000002 0.7500000000000003 0 0.5833333333333334 0.7 0 0.6666666666666665 0.6999999999999998 0 0.5000000000000001 0.7166666666666668 0 0.5000000000000003 0.7333333333333337 0 0.7499999999999998 0.7166666666666668 0 0.7499999999999999 0.7333333333333333 0 0.5833333333333337 0.7500000000000003 0 0.6666666666666663 0.7499999999999997 0 0.5833333333333334 0.7166666666666667 0 0.6666666666666667 0.716666666666667 0 0.5833333333333336 0.7333333333333336 0 0.6666666666666669 0.7333333333333337 0 -1.517883041479708e-17 -3.801935618182502e-17 0 0.2499999999999999 -2.211772431870429e-17 0 -2.761101532596417e-17 0.2499999999999999 0 0.25 0.25 0 0.08333333333333331 4.223682406666107e-17 0 0.1666666666666667 -6.385872229807052e-18 0 2.471365524371252e-17 0.0833333333333334 0 2.81954107735801e-17 0.1666666666666667 0 0.2499999999999999 0.08333333333333331 0 0.25 0.1666666666666667 0 0.08333333333333344 0.25 0 0.1666666666666666 0.25 0 0.08333333333333333 0.08333333333333333 0 0.1666666666666666 0.08333333333333334 0 0.0833333333333334 0.1666666666666667 0 0.1666666666666667 0.1666666666666667 0 0.25 -3.801935618182502e-17 0 0.4999999999999999 -2.211772431870429e-17 0 0.2499999999999997 0.2499999999999999 0 0.5000000000000001 0.25 0 0.3333333333333332 4.223682406666107e-17 0 0.4166666666666666 -6.385872229807052e-18 0 0.2500000000000001 0.0833333333333334 0 0.2500000000000003 0.1666666666666667 0 0.4999999999999999 0.08333333333333331 0 0.4999999999999999 0.1666666666666667 0 0.3333333333333335 0.25 0 0.4166666666666665 0.25 0 0.3333333333333333 0.08333333333333333 0 0.4166666666666667 0.08333333333333334 0 0.3333333333333335 0.1666666666666667 0 0.4166666666666667 0.1666666666666667 0 0.4999999999999998 -3.801935618182502e-17 0 0.7499999999999999 -2.211772431870429e-17 0 0.4999999999999994 0.2499999999999999 0 0.7500000000000002 0.25 0 0.5833333333333334 4.223682406666107e-17 0 0.6666666666666665 -6.385872229807052e-18 0 0.5000000000000001 0.0833333333333334 0 0.5000000000000003 0.1666666666666667 0 0.7499999999999998 0.08333333333333331 0 0.7499999999999999 0.1666666666666667 0 0.5833333333333337 0.25 0 0.6666666666666663 0.25 0 0.5833333333333334 0.08333333333333333 0 0.6666666666666667 0.08333333333333334 0 0.5833333333333336 0.1666666666666667 0 0.6666666666666669 0.1666666666666667 0 0.7499999999999999 -3.801935618182502e-17 0 0.9999999999999998 -2.211772431870429e-17 0 0.7499999999999992 0.2499999999999999 0 1.000000000000001 0.25 0 0.8333333333333334 4.223682406666107e-17 0 0.9166666666666665 -6.385872229807052e-18 0 0.7500000000000002 0.0833333333333334 0 0.7500000000000004 0.1666666666666667 0 0.9999999999999998 0.08333333333333331 0 1 0.1666666666666667 0 0.8333333333333338 0.25 0 0.9166666666666662 0.25 0 0.8333333333333333 0.08333333333333333 0 0.9166666666666669 0.08333333333333334 0 0.8333333333333337 0.1666666666666667 0 0.916666666666667 0.1666666666666667 0 -1.517883041479708e-17 0.2499999999999999 0 0.2499999999999999 0.2499999999999998 0 -2.761101532596417e-17 0.4999999999999996 0 0.25 0.5000000000000003 0 0.08333333333333331 0.2500000000000001 0 0.1666666666666667 0.2499999999999999 0 2.471365524371252e-17 0.3333333333333334 0 2.81954107735801e-17 0.4166666666666669 0 0.2499999999999999 0.3333333333333332 0 0.25 0.4166666666666666 0 0.08333333333333344 0.5000000000000002 0 0.1666666666666666 0.4999999999999998 0 0.08333333333333333 0.3333333333333333 0 0.1666666666666666 0.3333333333333334 0 0.0833333333333334 0.4166666666666667 0 0.1666666666666667 0.4166666666666667 0 0.7499999999999999 0.2499999999999999 0 0.9999999999999998 0.2499999999999998 0 0.7499999999999992 0.4999999999999996 0 1.000000000000001 0.5000000000000003 0 0.8333333333333334 0.2500000000000001 0 0.9166666666666665 0.2499999999999999 0 0.7500000000000002 0.3333333333333334 0 0.7500000000000004 0.4166666666666669 0 0.9999999999999998 0.3333333333333332 0 1 0.4166666666666666 0 0.8333333333333338 0.5000000000000002 0 0.9166666666666662 0.4999999999999998 0 0.8333333333333333 0.3333333333333333 0 0.9166666666666669 0.3333333333333334 0 0.8333333333333337 0.4166666666666667 0 0.916666666666667 0.4166666666666667 0 -1.517883041479708e-17 0.4999999999999999 0 0.2499999999999999 0.4999999999999995 0 -2.761101532596417e-17 0.7499999999999993 0 0.25 0.7500000000000003 0 0.08333333333333331 0.4999999999999999 0 0.1666666666666667 0.4999999999999999 0 2.471365524371252e-17 0.5833333333333335 0 2.81954107735801e-17 0.6666666666666671 0 0.2499999999999999 0.5833333333333334 0 0.25 0.6666666666666665 0 0.08333333333333344 0.7500000000000002 0 0.1666666666666666 0.7499999999999997 0 0.08333333333333333 0.5833333333333334 0 0.1666666666666666 0.5833333333333336 0 0.0833333333333334 0.6666666666666669 0 0.1666666666666667 0.6666666666666669 0 0.7499999999999999 0.4999999999999999 0 0.9999999999999998 0.4999999999999995 0 0.7499999999999992 0.7499999999999993 0 1.000000000000001 0.7500000000000003 0 0.8333333333333334 0.4999999999999999 0 0.9166666666666665 0.4999999999999999 0 0.7500000000000002 0.5833333333333335 0 0.7500000000000004 0.6666666666666671 0 0.9999999999999998 0.5833333333333334 0 1 0.6666666666666665 0 0.8333333333333338 0.7500000000000002 0 0.9166666666666662 0.7499999999999997 0 0.8333333333333333 0.5833333333333334 0 0.9166666666666669 0.5833333333333336 0 0.8333333333333337 0.6666666666666669 0 0.916666666666667 0.6666666666666669 0 -1.517883041479708e-17 0.7500000000000001 0 0.2499999999999999 0.7499999999999998 0 -2.761101532596417e-17 0.9999999999999989 0 0.25 1.000000000000001 0 0.08333333333333331 0.7500000000000004 0 0.1666666666666667 0.7499999999999998 0 2.471365524371252e-17 0.8333333333333337 0 2.81954107735801e-17 0.916666666666667 0 0.2499999999999999 0.8333333333333331 0 0.25 0.9166666666666665 0 0.08333333333333344 1 0 0.1666666666666666 0.9999999999999996 0 0.08333333333333333 0.8333333333333333 0 0.1666666666666666 0.8333333333333336 0 0.0833333333333334 0.916666666666667 0 0.1666666666666667 0.916666666666667 0 0.25 0.7500000000000001 0 0.4999999999999999 0.7499999999999998 0 0.2499999999999997 0.9999999999999989 0 0.5000000000000001 1.000000000000001 0 0.3333333333333332 0.7500000000000004 0 0.4166666666666666 0.7499999999999998 0 0.2500000000000001 0.8333333333333337 0 0.2500000000000003 0.916666666666667 0 0.4999999999999999 0.8333333333333331 0 0.4999999999999999 0.9166666666666665 0 0.3333333333333335 1 0 0.4166666666666665 0.9999999999999996 0 0.3333333333333333 0.8333333333333333 0 0.4166666666666667 0.8333333333333336 0 0.3333333333333335 0.916666666666667 0 0.4166666666666667 0.916666666666667 0 0.4999999999999998 0.7500000000000001 0 0.7499999999999999 0.7499999999999998 0 0.4999999999999994 0.9999999999999989 0 0.7500000000000002 1.000000000000001 0 0.5833333333333334 0.7500000000000004 0 0.6666666666666665 0.7499999999999998 0 0.5000000000000001 0.8333333333333337 0 0.5000000000000003 0.916666666666667 0 0.7499999999999998 0.8333333333333331 0 0.7499999999999999 0.9166666666666665 0 0.5833333333333337 1 0 0.6666666666666663 0.9999999999999996 0 0.5833333333333334 0.8333333333333333 0 0.6666666666666667 0.8333333333333336 0 0.5833333333333336 0.916666666666667 0 0.6666666666666669 0.916666666666667 0 0.7499999999999999 0.7500000000000001 0 0.9999999999999998 0.7499999999999998 0 0.7499999999999992 0.9999999999999989 0 1.000000000000001 1.000000000000001 0 0.8333333333333334 0.7500000000000004 0 0.9166666666666665 0.7499999999999998 0 0.7500000000000002 0.8333333333333337 0 0.7500000000000004 0.916666666666667 0 0.9999999999999998 0.8333333333333331 0 1 0.9166666666666665 0 0.8333333333333338 1 0 0.9166666666666662 0.9999999999999996 0 0.8333333333333333 0.8333333333333333 0 0.9166666666666669 0.8333333333333336 0 0.8333333333333337 0.916666666666667 0 0.916666666666667 0.916666666666667 0 </DataArray>
      </Points>
      <Cells>
        <DataArray type="Int32" Name="connectivity" format="ascii">0 1 3 2 4 5 8 9 10 11 6 7 12 13 14 15 16 17 19 18 20 21 24 25 26 27 22 23 28 29 30 31 32 33 35 34 36 37 40 41 42 43 38 39 44 45 46 47 48 49 51 50 52 53 56 57 58 59 54 55 60 61 62 63 64 65 67 66 68 69 72 73 74 75 70 71 76 77 78 79 80 81 83 82 84 85 88 89 90 91 86 87 92 93 94 95 96 97 99 98 100 101 104 105 106 107 102 103 108 109 110 111 112 113 115 114 116 117 120 121 122 123 118 119 124 125 126 127 128 129 131 130 132 133 136 137 138 139 134 135 140 141 142 143 144 145 147 146 148 149 152 153 154 155 150 151 156 157 158 159 160 161 163 162 164 165 168 169 170 171 166 167 172 173 174 175 176 177 179 178 180 181 184 185 186 187 182 183 188 189 190 191 192 193 195 194 196 197 200 201 202 203 198 199 204 205 206 207 208 209 211 210 212 213 216 217 218 219 214 215 220 221 222 223 224 225 227 226 228 229 232 233 234 235 230 231 236 237 238 239 240 241 243 242 244 245 248 249 250 251 246 247 252 253 254 255 256 257 259 258 260 261 264 265 266 267 262 263 268 269 270 271 272 273 275 274 276 277 280 281 282 283 278 279 284 285 286 287 288 289 291 290 292 293 296 297 298 299 294 295 300 301 302 303 304 305 307 306 308 309 312 313 314 315 310 311 316 317 318 319 </DataArray>
        <DataArray type="Int32" Name="offsets" format="ascii">16 32 48 64 80 96 112 128 144 160 176 192 208 224 240 256 272 288 304 320 </DataArray>
        <DataArray type="Int8" Name="types" format="ascii">70 70 70 70 70 70 70 70 70 70 70 70 70 70 70 70 70 70 70 70 </DataArray>
      </Cells>
      <CellData>
        <DataArray type="UInt8" Name="vtkGhostType" format="ascii" RangeMin="0" RangeMax="1">0 0 0 0 0 0 0 0 0 0 0 0 0 0 0 0 0 0 0 0 </DataArray>
        <DataArray type="Int64" IdType="1" Name="vtkOriginalCellIds" format="ascii" RangeMin="0" RangeMax="19">0 1 2 3 4 5 6 7 8 9 10 11 12 13 14 15 16 17 18 19 </DataArray>
      </CellData>
      <PointData Vectors="solution">
        <DataArray type="Int64" IdType="1" Name="vtkOriginalPointIds" format="ascii" RangeMin="0" RangeMax="319">0 1 2 3 4 5 6 7 8 9 10 11 12 13 14 15 16 17 18 19 20 21 22 23 24 25 26 27 28 29 30 31 32 33 34 35 36 37 38 39 40 41 42 43 44 45 46 47 48 49 50 51 52 53 54 55 56 57 58 59 60 61 62 63 64 65 66 67 68 69 70 71 72 73 74 75 76 77 78 79 80 81 82 83 84 85 86 87 88 89 90 91 92 93 94 95 96 97 98 99 100 101 102 103 104 105 106 107 108 109 110 111 112 113 114 115 116 117 118 119 120 121 122 123 124 125 126 127 128 129 130 131 132 133 134 135 136 137 138 139 140 141 142 143 144 145 146 147 148 149 150 151 152 153 154 155 156 157 158 159 160 161 162 163 164 165 166 167 168 169 170 171 172 173 174 175 176 177 178 179 180 181 182 183 184 185 186 187 188 189 190 191 192 193 194 195 196 197 198 199 200 201 202 203 204 205 206 207 208 209 210 211 212 213 214 215 216 217 218 219 220 221 222 223 224 225 226 227 228 229 230 231 232 233 234 235 236 237 238 239 240 241 242 243 244 245 246 247 248 249 250 251 252 253 254 255 256 257 258 259 260 261 262 263 264 265 266 267 268 269 270 271 272 273 274 275 276 277 278 279 280 281 282 283 284 285 286 287 288 289 290 291 292 293 294 295 296 297 298 299 300 301 302 303 304 305 306 307 308 309 310 311 312 313 314 315 316 317 318 319 </DataArray>
        <DataArray type="UInt8" Name="vtkGhostType" format="ascii" RangeMin="0" RangeMax="0">0 0 0 0 0 0 0 0 0 0 0 0 0 0 0 0 0 0 0 0 0 0 0 0 0 0 0 0 0 0 0 0 0 0 0 0 0 0 0 0 0 0 0 0 0 0 0 0 0 0 0 0 0 0 0 0 0 0 0 0 0 0 0 0 0 0 0 0 0 0 0 0 0 0 0 0 0 0 0 0 0 0 0 0 0 0 0 0 0 0 0 0 0 0 0 0 0 0 0 0 0 0 0 0 0 0 0 0 0 0 0 0 0 0 0 0 0 0 0 0 0 0 0 0 0 0 0 0 0 0 0 0 0 0 0 0 0 0 0 0 0 0 0 0 0 0 0 0 0 0 0 0 0 0 0 0 0 0 0 0 0 0 0 0 0 0 0 0 0 0 0 0 0 0 0 0 0 0 0 0 0 0 0 0 0 0 0 0 0 0 0 0 0 0 0 0 0 0 0 0 0 0 0 0 0 0 0 0 0 0 0 0 0 0 0 0 0 0 0 0 0 0 0 0 0 0 0 0 0 0 0 0 0 0 0 0 0 0 0 0 0 0 0 0 0 0 0 0 0 0 0 0 0 0 0 0 0 0 0 0 0 0 0 0 0 0 0 0 0 0 0 0 0 0 0 0 0 0 0 0 0 0 0 0 0 0 0 0 0 0 0 0 0 0 0 0 0 0 0 0 0 0 0 0 0 0 0 0 0 0 0 0 0 0 0 0 0 0 0 0 </DataArray>
        <DataArray type="Float64" Name="solution" format="ascii" NumberOfComponents="3">0.5652006434176454 0.5653062326799234 0 0.5962441819780472 0.5973378680991988 0 0.7249563686772371 0.7206891661769573 0 0.8654234093044176 0.8616652003279669 0 0.5755484896044464 0.5759834444863489 0 0.5858963357912466 0.5866606562927735 0 0.61845255183751 0.6171005438456021 0 0.6717044602573745 0.6688948550112805 0 0.685970591086837 0.6854469788421212 0 0.775697000195627 0.773556089585044 0 0.7717787155529647 0.7676811775606281 0 0.81860106242869 0.8146731889442964 0 0.6409585649206191 0.6398826888444418 0 0.6634645780037283 0.6626648338432817 0 0.7063686402367921 0.7037819332025351 0 0.7410328202162096 0.7386690113937896 0 0.5962441819780474 0.597337868099199 0 0.720418336219655 0.725464409776301 0 0.8654234093044155 0.8616652003279648 0 0.861792983338352 0.8654853952074419 0 0.63763556672525 0.6400467153248998 0 0.6790269514724527 0.6827555625506007 0 0.6859705910868374 0.6854469788421217 0 0.7756970001956277 0.7735560895850446 0 0.7675432185925541 0.7721380715866815 0 0.8146681009654526 0.8188117333970614 0 0.805208556173767 0.805403025875794 0 0.8168881670117815 0.8191104355254184 0 0.6934932298747555 0.6951654855085309 0 0.7249806899855629 0.7282071868755404 0 0.7493508930242616 0.7502842556921627 0 0.7709344284986724 0.77365881120048 0 0.7204183362196552 0.7254644097763012 0 0.5758487965741885 0.5769541581637094 0 0.8617929833383495 0.8654853952074395 0 0.8655056006789428 0.8616649019492184 0 0.6722284896711668 0.6759609925721044 0 0.6240386431226776 0.626457575367907 0 0.7675432185925544 0.7721380715866817 0 0.8146681009654531 0.8188117333970618 0 0.6724010646091069 0.6718577394255461 0 0.7689533326440251 0.7667613206873826 0 0.8117671789269296 0.8139856254754402 0 0.7971230386561725 0.7972999480492099 0 0.7187413860897542 0.7219692035398829 0 0.6817334416338425 0.6834050329283411 0 0.7652542825083419 0.7679774145076614 0 0.7394282401450074 0.7403524904887756 0 0.5758487965741889 0.5769541581637099 0 0.5397064116628218 0.5398265952605615 0 0.8655056006789451 0.8616649019492209 0 0.725059107895395 0.7206887932035231 0 0.5638013349370669 0.5645783038626607 0 0.5517538732999443 0.552202449561611 0 0.6724010646091071 0.6718577394255463 0 0.7689533326440242 0.7667613206873816 0 0.6014906437403469 0.6001139945748828 0 0.6632748758178716 0.6604013938892036 0 0.818690103084426 0.8146728657006526 0 0.7718746054899123 0.7676808294520895 0 0.6487642576528535 0.6479431578086582 0 0.6251274506965997 0.6240285761917701 0 0.7337271803686395 0.7313080117546551 0 0.6985010280932553 0.6958547028219292 0 0.7249563686772383 0.7206891661769586 0 0.865423409304416 0.8616652003279653 0 0.5397559218500713 0.5398758147119974 0 0.5758883640148618 0.576973065817672 0 0.7717787155529641 0.7676811775606274 0 0.8186010624286899 0.8146731889442963 0 0.6632228864015159 0.6604180490219715 0 0.6014894041257937 0.6001469318669845 0 0.7689117275412317 0.766767822157868 0 0.672400045778047 0.6718704439877704 0 0.551800069238335 0.5522415650805558 0 0.5638442166265989 0.5646073154491145 0 0.6984525001147546 0.6958679734006037 0 0.733682113827993 0.7313178977792357 0 0.6251262846765447 0.6240547692405798 0 0.6487631652272958 0.6479626066141752 0 0.8654234093044162 0.8616652003279655 0 0.8617928205018478 0.8654035235786987 0 0.5758883640148628 0.576973065817673 0 0.7204181326740244 0.7253620702403715 0 0.7971166059027931 0.7972872034172339 0 0.8117702915360994 0.813938944058586 0 0.7689117275412319 0.7667678221578682 0 0.6724000457780469 0.6718704439877704 0 0.8146679245592398 0.8187230391325893 0 0.7675430286166329 0.7720425546864812 0 0.6240649535679162 0.6264360672919056 0 0.672241543120972 0.6758990687661399 0 0.7394327217911675 0.740336824708791 0 0.765260708731056 0.7679256522944364 0 0.6817488376795415 0.683386446000348 0 0.7187511259260135 0.7219123605302878 0 0.865505600678943 0.8616649019492186 0 0.7250591078953958 0.720688793203524 0 0.8617928205018479 0.8654035235786988 0 0.5971169504842487 0.5964385960575812 0 0.8186901030844275 0.8146728657006539 0 0.7718746054899115 0.7676808294520888 0 0.8191437118055367 0.8167892484114718 0 0.8055007598230545 0.8051024804924704 0 0.6824117220916803 0.6792720608215432 0 0.6397643362879647 0.6378553284395624 0 0.7735675304959801 0.7757485477383249 0 0.6853422404901159 0.6860935718979546 0 0.7735663819009184 0.7709501858814963 0 0.7279890519962986 0.7251111233515188 0 0.7502552853113579 0.7493534298081679 0 0.6950098107996612 0.6936043791238651 0 0.8617928205018475 0.8654035235786984 0 0.5971169504842495 0.596438596057582 0 0.7204181326740279 0.7253620702403748 0 0.5651314111314625 0.5653760467710961 0 0.7735675304959808 0.7757485477383256 0 0.6853422404901157 0.6860935718979544 0 0.8146679245592401 0.8187230391325896 0 0.7675430286166324 0.7720425546864806 0 0.5864551040333206 0.5860844129620868 0 0.575793257582392 0.5757302298665921 0 0.6686558921598372 0.672033395750613 0 0.6168936516456514 0.6187047212608561 0 0.7385969843839334 0.7411768304090885 0 0.6625260442086266 0.6636306216855872 0 0.7036264382718851 0.7066051130798505 0 0.6397098479271381 0.6411676714732208 0 -2.614578199396747e-18 -2.615066647855639e-18 0 -1.334601352568413e-17 -1.335138645873194e-17 0 -9.728563843508084e-17 -9.730957240956658e-17 0 0.5652006434176455 0.5653062326799235 0 4.174221034744811e-17 4.174904862587261e-17 0 -1.064039448338727e-17 -1.064430207105841e-17 0 3.642201310575445e-17 3.642689759034338e-17 0 4.146908781874777e-17 4.147299540641891e-17 0 0.1884002144725485 0.1884354108933078 0 0.3768004289450971 0.3768708217866158 0 0.1884002144725488 0.1884354108933082 0 0.3768004289450969 0.3768708217866156 0 0.06280007149084951 0.06281180363110263 0 0.125600142981699 0.1256236072622052 0 0.1256001429816992 0.1256236072622054 0 0.2512002859633981 0.2512472145244105 0 -7.609589031120647e-17 -7.611298600726771e-17 0 -3.89057247731783e-17 -3.934874913257054e-17 0 0.5652006434176446 0.5653062326799226 0 0.7204183362196557 0.7254644097763017 0 1.217198039496375e-16 1.220573487267813e-16 0 -1.744824597443128e-17 -1.763694200315153e-17 0 0.1884002144725487 0.188435410893308 0 0.3768004289450976 0.3768708217866162 0 0.2401394454065518 0.2418214699254338 0 0.4802788908131036 0.4836429398508676 0 0.616939874351649 0.6186922917120496 0 0.668679105285652 0.6720783507441754 0 0.205646624783883 0.2062307639040166 0 0.2228930350952175 0.2240261169147252 0 0.4112932495677661 0.4124615278080331 0 0.4457860701904349 0.4480522338294505 0 -1.160161229235327e-16 -1.169279566639722e-16 0 -2.868927910864745e-17 -2.86764995849138e-17 0 0.7204183362196547 0.7254644097763006 0 0.539706411662822 0.5398265952605616 0 1.279412064636502e-16 1.284625310610977e-16 0 -8.271011687204583e-18 -8.367162608759278e-18 0 0.2401394454065521 0.2418214699254341 0 0.480278890813104 0.483642939850868 0 0.1799021372209408 0.1799421984201874 0 0.3598042744418815 0.3598843968403746 0 0.6601810280340442 0.6635851382710548 0 0.5999437198484336 0.6017058667658087 0 0.2200603426780148 0.2211950460903517 0 0.1999812399494778 0.2005686222552695 0 0.4401206853560296 0.4423900921807033 0 0.3999624798989555 0.4011372445105389 0 -9.195256990969162e-17 -9.204428071984972e-17 0 -2.496643686524497e-18 -2.497199647346968e-18 0 0.5397064116628226 0.5398265952605624 0 -1.219149042428782e-15 -1.219439809938934e-15 0 6.520239221532658e-17 6.521462335342093e-17 0 -4.848459190204722e-18 -4.850683033494602e-18 0 0.1799021372209409 0.1799421984201874 0 0.3598042744418814 0.3598843968403745 0 3.159792258248378e-16 3.16043161319422e-16 0 7.52069095547046e-17 7.52108012804619e-17 0 0.3598042744418806 0.3598843968403737 0 0.179902137220942 0.1799421984201885 0 0.1199347581472939 0.1199614656134583 0 0.05996737907364689 0.05998073280672907 0 0.2398695162945872 0.2399229312269159 0 0.1199347581472934 0.1199614656134577 0 4.390158433234436e-17 4.390402657463882e-17 0 0.5652006434176451 0.5653062326799231 0 -3.467091295406715e-17 -3.425784298362082e-17 0 0.7249563686772386 0.7206891661769588 0 0.1884002144725486 0.1884354108933079 0 0.3768004289450969 0.3768708217866156 0 9.101587944602916e-17 9.078193281345508e-17 0 7.662888980458286e-17 7.647292538286682e-17 0 0.6184525518375095 0.6171005438456015 0 0.6717044602573738 0.66889485501128 0 0.2416521228924131 0.2402297220589865 0 0.4833042457848252 0.480459444117972 0 0.2061508506125033 0.2057001812818673 0 0.4123017012250065 0.4114003625637346 0 0.2239014867524582 0.222964951670427 0 0.447802973504916 0.4459299033408534 0 0.5397064116628224 0.5398265952605621 0 6.633202972107167e-16 6.634487241607073e-16 0 0.7250591078953981 0.7206887932035263 0 -1.663238351859436e-15 -1.652755857263379e-15 0 0.3598042744418816 0.3598843968403747 0 0.1799021372209412 0.1799421984201877 0 0.6014906437403467 0.6001139945748826 0 0.6632748758178703 0.6604013938892022 0 6.094557515009619e-16 6.082488105007677e-16 0 8.042971345323532e-16 8.012232256867938e-16 0 0.4833727385969292 0.4804591954690146 0 0.2416863692984669 0.2402295977345096 0 0.4009937624935646 0.4000759963832551 0 0.2004968812467819 0.2000379981916272 0 0.4421832505452462 0.4402675959261341 0 0.2210916252726229 0.2201337979630669 0 4.729344965216814e-17 4.719230852515392e-17 0 0.7249563686772379 0.7206891661769581 0 -9.159136959076421e-17 -9.155710797539461e-17 0 0.5397559218500712 0.5398758147119973 0 0.2416521228924127 0.2402297220589861 0 0.4833042457848255 0.4804594441179723 0 1.112608854873372e-16 1.109900747691135e-16 0 6.847461690836885e-17 6.840009472778634e-17 0 0.6632228864015156 0.6604180490219711 0 0.6014894041257939 0.6001469318669846 0 0.1799186406166906 0.1799586049039993 0 0.359837281233381 0.3599172098079985 0 0.221074295467172 0.2201393496739905 0 0.4421485909343437 0.4402786993479808 0 0.2004964680419313 0.200048977288995 0 0.4009929360838623 0.4000979545779896 0 0.7250591078953958 0.7206887932035241 0 1.256519274839554e-15 1.249371636995987e-15 0 0.5651314111314637 0.5653760467710973 0 -1.330577561709307e-15 -1.330800995168616e-15 0 0.4833727385969304 0.4804591954690158 0 0.2416863692984659 0.2402295977345086 0 0.6717498756407509 0.6689178777260476 0 0.6184406433861063 0.6171469622485715 0 9.976161624809969e-16 9.938397883307869e-16 0 1.900011750939487e-16 1.898890810737132e-16 0 0.3767542740876408 0.3769173645140633 0 0.1883771370438224 0.1884586822570336 0 0.4478332504271675 0.4459452518173653 0 0.223916625213583 0.2229726259086819 0 0.4122937622574033 0.4114313081657135 0 0.2061468811287016 0.2057156540828566 0 9.850387858847702e-18 9.989120913354531e-18 0 0.5397559218500715 0.5398758147119976 0 -7.490618151446231e-18 -7.492281999143714e-18 0 -1.832324572615921e-15 -1.832611309035787e-15 0 0.1799186406166904 0.1799586049039991 0 0.3598372812333811 0.3599172098079985 0 5.550868026365758e-17 5.551644488624583e-17 0 2.026372198038218e-17 2.026594044397882e-17 0 0.3598372812333817 0.3599172098079991 0 0.1799186406166909 0.1799586049039996 0 -5.325395124013097e-16 -5.326177132430915e-16 0 5.753663503641824e-16 5.755743313263679e-16 0 0.1199457604111271 0.1199724032693329 0 0.2398915208222535 0.2399448065386651 0 0.05997288020556311 0.05998620163466602 0 0.1199457604111262 0.119972403269332 0 0.5397559218500714 0.5398758147119975 0 0.7204181326740267 0.7253620702403737 0 2.442321519142928e-15 2.442984285142425e-15 0 -2.520282954958072e-15 -2.532025404762482e-15 0 0.5999766587913888 0.6017045665547887 0 0.6601973957327081 0.6635333183975816 0 0.35983728123338 0.3599172098079975 0 0.1799186406166897 0.1799586049039984 0 0.4802787551160175 0.4835747134935822 0 0.2401393775580085 0.2417873567467908 0 -1.217367403791326e-15 -1.219138561855535e-15 0 1.106482731783937e-15 1.115601227632859e-15 0 0.3999844391942595 0.4011363777031927 0 0.4401315971551372 0.4423555455983861 0 0.1999922195971288 0.2005681888515954 0 0.2200657985775679 0.2211777727991924 0 0.7204181326740252 0.7253620702403722 0 0.5651314111314631 0.5653760467710968 0 2.613576990158678e-15 2.636966657287857e-15 0 -1.958228106366757e-15 -1.959227107124634e-15 0 0.6686558921598375 0.6720333957506134 0 0.6168936516456509 0.6187047212608557 0 0.480278755116016 0.4835747134935807 0 0.2401393775580074 0.2417873567467897 0 0.3767542740876424 0.3769173645140648 0 0.1883771370438209 0.1884586822570322 0 -1.357641045350703e-15 -1.360972372101058e-15 0 5.02434401486237e-16 5.056399537499993e-16 0 0.4457705947732251 0.4480222638337424 0 0.4112624344304328 0.4124698141739026 0 0.2228852973866114 0.2240111319168701 0 0.2056312172152156 0.2062349070869505 0 0.5651314111314628 0.5653760467710965 0 4.105182234920227e-16 4.110484803650619e-16 0 2.326799773932903e-15 2.327741398545735e-15 0 -4.705664284327852e-17 -4.707701285226091e-17 0 0.3767542740876421 0.3769173645140645 0 0.1883771370438219 0.188458682257033 0 0.3767542740876411 0.3769173645140635 0 0.1883771370438199 0.1884586822570311 0 3.714413560375607e-16 3.715771560974433e-16 0 4.716500742468088e-17 4.71729290948407e-17 0 -7.374140613128734e-16 -7.375770213847324e-16 0 1.593730723625846e-16 1.59520189094124e-16 0 0.2511695160584276 0.2512782430093758 0 0.1255847580292135 0.1256391215046876 0 0.1255847580292128 0.1256391215046869 0 0.06279237901460638 0.06281956075234345 0 </DataArray>
      </PointData>
    </Piece>
  </UnstructuredGrid>
</VTKFile>
