<?xml version="1.0"?>
<VTKFile type="UnstructuredGrid" version="2.2">
  <UnstructuredGrid>
    <Piece NumberOfPoints="752" NumberOfCells="248">
      <Points>
        <DataArray type="Float64" NumberOfComponents="3" format="ascii">0.25 0.25 0 0.34387505004004 0.25 0 0.2812916833466799 0.2499999999999999 0 0.31258336669336 0.2500000000000001 0 0.25 0.3749999999999999 0 0.2499999999999999 0.2916666666666666 0 0.2500000000000001 0.3333333333333334 0 0.34387505004004 0.3750000000000001 0 0.2812916833466799 0.3749999999999999 0 0.31258336669336 0.3750000000000001 0 0.3438750500400399 0.25 0 0.3749999999999999 0.25 0 0.3542500333600266 0.2499999999999999 0 0.3646250166800134 0.2500000000000001 0 0.3750000000000001 0.34387505004004 0 0.3749999999999999 0.2812916833466799 0 0.3750000000000001 0.31258336669336 0 0.3438750500400399 0.3749999999999999 0 0.3542500333600266 0.3630439952961291 0 0.3646250166800134 0.3527803889044895 0 0.6249999999999999 0.25 0 0.6561249499599602 0.25 0 0.6353749833199865 0.2499999999999999 0 0.6457499666399734 0.2500000000000001 0 0.6249999999999999 0.3438750500400399 0 0.6249999999999999 0.2812916833466799 0 0.6250000000000001 0.31258336669336 0 0.6561249499599602 0.3750000000000001 0 0.6353749833199865 0.3527803889044894 0 0.6457499666399734 0.3630439952961292 0 0.65612494995996 0.25 0 0.7499999999999999 0.25 0 0.6874166333066399 0.2499999999999999 0 0.7187083166533201 0.2500000000000001 0 0.7500000000000001 0.3750000000000001 0 0.7499999999999999 0.2916666666666666 0 0.7500000000000001 0.3333333333333334 0 0.65612494995996 0.3749999999999999 0 0.6874166333066399 0.3749999999999999 0 0.7187083166533201 0.3750000000000001 0 0.25 0.6249999999999999 0 0.34387505004004 0.6250000000000001 0 0.2812916833466799 0.6249999999999999 0 0.31258336669336 0.6250000000000001 0 0.25 0.7499999999999999 0 0.2499999999999999 0.6666666666666665 0 0.2500000000000001 0.7083333333333335 0 0.34387505004004 0.7500000000000001 0 0.2812916833466799 0.7499999999999999 0 0.31258336669336 0.7500000000000001 0 0.3438750500400399 0.6249999999999999 0 0.3749999999999999 0.65612494995996 0 0.3542500333600266 0.6369560047038707 0 0.3646250166800134 0.6472196110955106 0 0.3750000000000001 0.7500000000000001 0 0.3749999999999999 0.6874166333066399 0 0.3750000000000001 0.7187083166533201 0 0.3438750500400399 0.7499999999999999 0 0.3542500333600266 0.7499999999999999 0 0.3646250166800134 0.7500000000000001 0 0.6249999999999999 0.65612494995996 0 0.6561249499599602 0.6250000000000001 0 0.6353749833199865 0.6472196110955104 0 0.6457499666399734 0.6369560047038709 0 0.6249999999999999 0.7499999999999999 0 0.6249999999999999 0.6874166333066399 0 0.6250000000000001 0.7187083166533201 0 0.6561249499599602 0.7500000000000001 0 0.6353749833199865 0.7499999999999999 0 0.6457499666399734 0.7500000000000001 0 0.65612494995996 0.6249999999999999 0 0.7499999999999999 0.6249999999999999 0 0.6874166333066399 0.6249999999999999 0 0.7187083166533201 0.6250000000000001 0 0.7500000000000001 0.7500000000000001 0 0.7499999999999999 0.6666666666666665 0 0.7500000000000001 0.7083333333333335 0 0.65612494995996 0.7499999999999999 0 0.6874166333066399 0.7499999999999999 0 0.7187083166533201 0.7500000000000001 0 0.3749999999999999 0.25 0 0.3749999999999999 0.3438750500400399 0 0.3749999999999999 0.2812916833466799 0 0.3750000000000001 0.31258336669336 0 0.4999999999999999 0.25 0 0.4166666666666666 0.2499999999999999 0 0.4583333333333334 0.2500000000000001 0 0.5 0.3 0 0.4166666666666666 0.3181881314227379 0 0.4583333333333334 0.3043884234282416 0 0.4999999999999999 0.2666666666666666 0 0.5000000000000001 0.2833333333333333 0 0.4999999999999999 0.25 0 0.4999999999999999 0.2999999999999999 0 0.4999999999999999 0.2666666666666666 0 0.5000000000000001 0.2833333333333333 0 0.6249999999999999 0.25 0 0.5416666666666665 0.2499999999999999 0 0.5833333333333335 0.2500000000000001 0 0.6250000000000001 0.34387505004004 0 0.5416666666666665 0.3043884234282415 0 0.5833333333333335 0.3181881314227381 0 0.6249999999999999 0.2812916833466799 0 0.6250000000000001 0.31258336669336 0 0.25 0.3749999999999999 0 0.25 0.4999999999999999 0 0.2499999999999999 0.4166666666666666 0 0.2500000000000001 0.4583333333333334 0 0.3438750500400399 0.3749999999999999 0 0.2812916833466799 0.3749999999999999 0 0.31258336669336 0.3750000000000001 0 0.3000000000000001 0.5 0 0.2666666666666666 0.4999999999999999 0 0.2833333333333334 0.5000000000000001 0 0.318188131422738 0.4166666666666666 0 0.3043884234282417 0.4583333333333334 0 0.65612494995996 0.3749999999999999 0 0.6999999999999998 0.4999999999999999 0 0.6818118685772618 0.4166666666666666 0 0.6956115765717585 0.4583333333333334 0 0.7499999999999999 0.3749999999999999 0 0.6874166333066399 0.3749999999999999 0 0.7187083166533201 0.3750000000000001 0 0.7500000000000001 0.5 0 0.7166666666666666 0.4999999999999999 0 0.7333333333333334 0.5000000000000001 0 0.7499999999999999 0.4166666666666666 0 0.7500000000000001 0.4583333333333334 0 0.25 0.4999999999999999 0 0.25 0.6249999999999999 0 0.2499999999999999 0.5416666666666665 0 0.2500000000000001 0.5833333333333335 0 0.2999999999999999 0.4999999999999999 0 0.2666666666666666 0.4999999999999999 0 0.2833333333333334 0.5000000000000001 0 0.34387505004004 0.6250000000000001 0 0.2812916833466799 0.6249999999999999 0 0.31258336669336 0.6250000000000001 0 0.3043884234282415 0.5416666666666665 0 0.3181881314227381 0.5833333333333335 0 0.6999999999999998 0.4999999999999999 0 0.65612494995996 0.6249999999999999 0 0.6956115765717583 0.5416666666666665 0 0.6818118685772621 0.5833333333333335 0 0.7499999999999999 0.4999999999999999 0 0.7166666666666666 0.4999999999999999 0 0.7333333333333335 0.5000000000000001 0 0.7500000000000001 0.6250000000000001 0 0.6874166333066399 0.6249999999999999 0 0.7187083166533201 0.6250000000000001 0 0.7499999999999999 0.5416666666666665 0 0.7500000000000001 0.5833333333333335 0 0.3749999999999999 0.65612494995996 0 0.3749999999999999 0.7499999999999999 0 0.3749999999999999 0.6874166333066399 0 0.3750000000000001 0.7187083166533201 0 0.4999999999999999 0.7 0 0.4166666666666666 0.6818118685772619 0 0.4583333333333334 0.6956115765717585 0 0.5 0.7500000000000001 0 0.4166666666666666 0.7499999999999999 0 0.4583333333333334 0.7500000000000001 0 0.4999999999999999 0.7166666666666667 0 0.5000000000000001 0.7333333333333335 0 0.4999999999999999 0.7 0 0.4999999999999999 0.7499999999999999 0 0.4999999999999999 0.7166666666666666 0 0.5000000000000001 0.7333333333333335 0 0.6249999999999999 0.65612494995996 0 0.5416666666666665 0.6956115765717583 0 0.5833333333333335 0.6818118685772622 0 0.6250000000000001 0.7500000000000001 0 0.5416666666666665 0.7499999999999999 0 0.5833333333333335 0.7500000000000001 0 0.6249999999999999 0.6874166333066399 0 0.6250000000000001 0.7187083166533201 0 -1.156482317317871e-18 0 0 -1.156482317317871e-18 0.125 0 0 0.04166666666666665 0 0 0.08333333333333334 0 0.125 -1.156482317317871e-18 0 0.04166666666666665 0 0 0.08333333333333334 0 0 0.125 0.125 0 0.04166666666666665 0.125 0 0.08333333333333334 0.125 0 0.125 0.04166666666666665 0 0.125 0.08333333333333334 0 0.125 0 0 0.125 0.125 0 0.125 0.04166666666666665 0 0.125 0.08333333333333334 0 0.25 -1.156482317317871e-18 0 0.1666666666666666 0 0 0.2083333333333333 0 0 0.25 0.125 0 0.1666666666666666 0.125 0 0.2083333333333333 0.125 0 0.2499999999999999 0.04166666666666665 0 0.2500000000000001 0.08333333333333334 0 0.25 0 0 0.25 0.125 0 0.2499999999999999 0.04166666666666665 0 0.2500000000000001 0.08333333333333334 0 0.3749999999999999 -1.156482317317871e-18 0 0.2916666666666666 0 0 0.3333333333333334 0 0 0.3750000000000001 0.125 0 0.2916666666666666 0.125 0 0.3333333333333334 0.125 0 0.3749999999999999 0.04166666666666665 0 0.3750000000000001 0.08333333333333334 0 0.3749999999999999 0 0 0.3749999999999999 0.125 0 0.3749999999999999 0.04166666666666665 0 0.3750000000000001 0.08333333333333334 0 0.4999999999999999 -1.156482317317871e-18 0 0.4166666666666666 0 0 0.4583333333333334 0 0 0.5 0.125 0 0.4166666666666666 0.125 0 0.4583333333333334 0.125 0 0.4999999999999999 0.04166666666666665 0 0.5000000000000001 0.08333333333333334 0 0.4999999999999999 0 0 0.4999999999999999 0.125 0 0.4999999999999999 0.04166666666666665 0 0.5000000000000001 0.08333333333333334 0 0.6249999999999999 -1.156482317317871e-18 0 0.5416666666666665 0 0 0.5833333333333335 0 0 0.6250000000000001 0.125 0 0.5416666666666665 0.125 0 0.5833333333333335 0.125 0 0.6249999999999999 0.04166666666666665 0 0.6250000000000001 0.08333333333333334 0 0.6249999999999999 0 0 0.6249999999999999 0.125 0 0.6249999999999999 0.04166666666666665 0 0.6250000000000001 0.08333333333333334 0 0.7499999999999999 -1.156482317317871e-18 0 0.6666666666666665 0 0 0.7083333333333335 0 0 0.7500000000000001 0.125 0 0.6666666666666665 0.125 0 0.7083333333333335 0.125 0 0.7499999999999999 0.04166666666666665 0 0.7500000000000001 0.08333333333333334 0 0.7499999999999999 0 0 0.7499999999999999 0.125 0 0.7499999999999999 0.04166666666666665 0 0.7500000000000001 0.08333333333333334 0 0.8749999999999999 -1.156482317317871e-18 0 0.7916666666666665 0 0 0.8333333333333335 0 0 0.8750000000000001 0.125 0 0.7916666666666665 0.125 0 0.8333333333333335 0.125 0 0.8749999999999999 0.04166666666666665 0 0.8750000000000002 0.08333333333333334 0 0.8749999999999999 0 0 0.8749999999999999 0.125 0 0.8749999999999999 0.04166666666666665 0 0.8750000000000002 0.08333333333333334 0 0.9999999999999999 -1.156482317317871e-18 0 0.9166666666666665 0 0 0.9583333333333336 0 0 1 0.125 0 0.9166666666666665 0.125 0 0.9583333333333336 0.125 0 0.9999999999999998 0.04166666666666665 0 1 0.08333333333333334 0 -1.156482317317871e-18 0.125 0 -1.156482317317871e-18 0.25 0 0 0.1666666666666666 0 0 0.2083333333333333 0 0.125 0.125 0 0.04166666666666665 0.125 0 0.08333333333333334 0.125 0 0.125 0.25 0 0.04166666666666665 0.2499999999999999 0 0.08333333333333334 0.2500000000000001 0 0.125 0.1666666666666666 0 0.125 0.2083333333333333 0 0.125 0.125 0 0.125 0.25 0 0.125 0.1666666666666666 0 0.125 0.2083333333333333 0 0.25 0.125 0 0.1666666666666666 0.125 0 0.2083333333333333 0.125 0 0.25 0.25 0 0.1666666666666666 0.2499999999999999 0 0.2083333333333333 0.2500000000000001 0 0.2499999999999999 0.1666666666666666 0 0.2500000000000001 0.2083333333333333 0 0.25 0.125 0 0.25 0.25 0 0.2499999999999999 0.1666666666666666 0 0.2500000000000001 0.2083333333333333 0 0.3749999999999999 0.125 0 0.2916666666666666 0.125 0 0.3333333333333334 0.125 0 0.3750000000000001 0.25 0 0.2916666666666666 0.2499999999999999 0 0.3333333333333334 0.2500000000000001 0 0.3749999999999999 0.1666666666666666 0 0.3750000000000001 0.2083333333333333 0 0.3749999999999999 0.125 0 0.3749999999999999 0.25 0 0.3749999999999999 0.1666666666666666 0 0.3750000000000001 0.2083333333333333 0 0.4999999999999999 0.125 0 0.4166666666666666 0.125 0 0.4583333333333334 0.125 0 0.5 0.25 0 0.4166666666666666 0.2499999999999999 0 0.4583333333333334 0.2500000000000001 0 0.4999999999999999 0.1666666666666666 0 0.5000000000000001 0.2083333333333333 0 0.4999999999999999 0.125 0 0.4999999999999999 0.25 0 0.4999999999999999 0.1666666666666666 0 0.5000000000000001 0.2083333333333333 0 0.6249999999999999 0.125 0 0.5416666666666665 0.125 0 0.5833333333333335 0.125 0 0.6250000000000001 0.25 0 0.5416666666666665 0.2499999999999999 0 0.5833333333333335 0.2500000000000001 0 0.6249999999999999 0.1666666666666666 0 0.6250000000000001 0.2083333333333333 0 0.6249999999999999 0.125 0 0.6249999999999999 0.25 0 0.6249999999999999 0.1666666666666666 0 0.6250000000000001 0.2083333333333333 0 0.7499999999999999 0.125 0 0.6666666666666665 0.125 0 0.7083333333333335 0.125 0 0.7500000000000001 0.25 0 0.6666666666666665 0.2499999999999999 0 0.7083333333333335 0.2500000000000001 0 0.7499999999999999 0.1666666666666666 0 0.7500000000000001 0.2083333333333333 0 0.7499999999999999 0.125 0 0.7499999999999999 0.25 0 0.7499999999999999 0.1666666666666666 0 0.7500000000000001 0.2083333333333333 0 0.8749999999999999 0.125 0 0.7916666666666665 0.125 0 0.8333333333333335 0.125 0 0.8750000000000001 0.25 0 0.7916666666666665 0.2499999999999999 0 0.8333333333333335 0.2500000000000001 0 0.8749999999999999 0.1666666666666666 0 0.8750000000000002 0.2083333333333333 0 0.8749999999999999 0.125 0 0.8749999999999999 0.25 0 0.8749999999999999 0.1666666666666666 0 0.8750000000000002 0.2083333333333333 0 0.9999999999999999 0.125 0 0.9166666666666665 0.125 0 0.9583333333333336 0.125 0 1 0.25 0 0.9166666666666665 0.2499999999999999 0 0.9583333333333336 0.2500000000000001 0 0.9999999999999998 0.1666666666666666 0 1 0.2083333333333333 0 -1.156482317317871e-18 0.25 0 -1.156482317317871e-18 0.3749999999999999 0 0 0.2916666666666666 0 0 0.3333333333333334 0 0.125 0.25 0 0.04166666666666665 0.2499999999999999 0 0.08333333333333334 0.2500000000000001 0 0.125 0.3750000000000001 0 0.04166666666666665 0.3749999999999999 0 0.08333333333333334 0.3750000000000001 0 0.125 0.2916666666666666 0 0.125 0.3333333333333334 0 0.125 0.25 0 0.125 0.3749999999999999 0 0.125 0.2916666666666666 0 0.125 0.3333333333333334 0 0.25 0.25 0 0.1666666666666666 0.2499999999999999 0 0.2083333333333333 0.2500000000000001 0 0.25 0.3750000000000001 0 0.1666666666666666 0.3749999999999999 0 0.2083333333333333 0.3750000000000001 0 0.2499999999999999 0.2916666666666666 0 0.2500000000000001 0.3333333333333334 0 0.7499999999999999 0.25 0 0.7499999999999999 0.3749999999999999 0 0.7499999999999999 0.2916666666666666 0 0.7500000000000001 0.3333333333333334 0 0.8749999999999999 0.25 0 0.7916666666666665 0.2499999999999999 0 0.8333333333333335 0.2500000000000001 0 0.8750000000000001 0.3750000000000001 0 0.7916666666666665 0.3749999999999999 0 0.8333333333333335 0.3750000000000001 0 0.8749999999999999 0.2916666666666666 0 0.8750000000000002 0.3333333333333334 0 0.8749999999999999 0.25 0 0.8749999999999999 0.3749999999999999 0 0.8749999999999999 0.2916666666666666 0 0.8750000000000002 0.3333333333333334 0 0.9999999999999999 0.25 0 0.9166666666666665 0.2499999999999999 0 0.9583333333333336 0.2500000000000001 0 1 0.3750000000000001 0 0.9166666666666665 0.3749999999999999 0 0.9583333333333336 0.3750000000000001 0 0.9999999999999998 0.2916666666666666 0 1 0.3333333333333334 0 -1.156482317317871e-18 0.3749999999999999 0 -1.156482317317871e-18 0.4999999999999999 0 0 0.4166666666666666 0 0 0.4583333333333334 0 0.125 0.3749999999999999 0 0.04166666666666665 0.3749999999999999 0 0.08333333333333334 0.3750000000000001 0 0.125 0.5 0 0.04166666666666665 0.4999999999999999 0 0.08333333333333334 0.5000000000000001 0 0.125 0.4166666666666666 0 0.125 0.4583333333333334 0 0.125 0.3749999999999999 0 0.125 0.4999999999999999 0 0.125 0.4166666666666666 0 0.125 0.4583333333333334 0 0.25 0.3749999999999999 0 0.1666666666666666 0.3749999999999999 0 0.2083333333333333 0.3750000000000001 0 0.25 0.5 0 0.1666666666666666 0.4999999999999999 0 0.2083333333333333 0.5000000000000001 0 0.2499999999999999 0.4166666666666666 0 0.2500000000000001 0.4583333333333334 0 0.7499999999999999 0.3749999999999999 0 0.7499999999999999 0.4999999999999999 0 0.7499999999999999 0.4166666666666666 0 0.7500000000000001 0.4583333333333334 0 0.8749999999999999 0.3749999999999999 0 0.7916666666666665 0.3749999999999999 0 0.8333333333333335 0.3750000000000001 0 0.8750000000000001 0.5 0 0.7916666666666665 0.4999999999999999 0 0.8333333333333335 0.5000000000000001 0 0.8749999999999999 0.4166666666666666 0 0.8750000000000002 0.4583333333333334 0 0.8749999999999999 0.3749999999999999 0 0.8749999999999999 0.4999999999999999 0 0.8749999999999999 0.4166666666666666 0 0.8750000000000002 0.4583333333333334 0 0.9999999999999999 0.3749999999999999 0 0.9166666666666665 0.3749999999999999 0 0.9583333333333336 0.3750000000000001 0 1 0.5 0 0.9166666666666665 0.4999999999999999 0 0.9583333333333336 0.5000000000000001 0 0.9999999999999998 0.4166666666666666 0 1 0.4583333333333334 0 -1.156482317317871e-18 0.4999999999999999 0 -1.156482317317871e-18 0.6249999999999999 0 0 0.5416666666666665 0 0 0.5833333333333335 0 0.125 0.4999999999999999 0 0.04166666666666665 0.4999999999999999 0 0.08333333333333334 0.5000000000000001 0 0.125 0.6250000000000001 0 0.04166666666666665 0.6249999999999999 0 0.08333333333333334 0.6250000000000001 0 0.125 0.5416666666666665 0 0.125 0.5833333333333335 0 0.125 0.4999999999999999 0 0.125 0.6249999999999999 0 0.125 0.5416666666666665 0 0.125 0.5833333333333335 0 0.25 0.4999999999999999 0 0.1666666666666666 0.4999999999999999 0 0.2083333333333333 0.5000000000000001 0 0.25 0.6250000000000001 0 0.1666666666666666 0.6249999999999999 0 0.2083333333333333 0.6250000000000001 0 0.2499999999999999 0.5416666666666665 0 0.2500000000000001 0.5833333333333335 0 0.7499999999999999 0.4999999999999999 0 0.7499999999999999 0.6249999999999999 0 0.7499999999999999 0.5416666666666665 0 0.7500000000000001 0.5833333333333335 0 0.8749999999999999 0.4999999999999999 0 0.7916666666666665 0.4999999999999999 0 0.8333333333333335 0.5000000000000001 0 0.8750000000000001 0.6250000000000001 0 0.7916666666666665 0.6249999999999999 0 0.8333333333333335 0.6250000000000001 0 0.8749999999999999 0.5416666666666665 0 0.8750000000000002 0.5833333333333335 0 0.8749999999999999 0.4999999999999999 0 0.8749999999999999 0.6249999999999999 0 0.8749999999999999 0.5416666666666665 0 0.8750000000000002 0.5833333333333335 0 0.9999999999999999 0.4999999999999999 0 0.9166666666666665 0.4999999999999999 0 0.9583333333333336 0.5000000000000001 0 1 0.6250000000000001 0 0.9166666666666665 0.6249999999999999 0 0.9583333333333336 0.6250000000000001 0 0.9999999999999998 0.5416666666666665 0 1 0.5833333333333335 0 -1.156482317317871e-18 0.6249999999999999 0 -1.156482317317871e-18 0.7499999999999999 0 0 0.6666666666666665 0 0 0.7083333333333335 0 0.125 0.6249999999999999 0 0.04166666666666665 0.6249999999999999 0 0.08333333333333334 0.6250000000000001 0 0.125 0.7500000000000001 0 0.04166666666666665 0.7499999999999999 0 0.08333333333333334 0.7500000000000001 0 0.125 0.6666666666666665 0 0.125 0.7083333333333335 0 0.125 0.6249999999999999 0 0.125 0.7499999999999999 0 0.125 0.6666666666666665 0 0.125 0.7083333333333335 0 0.25 0.6249999999999999 0 0.1666666666666666 0.6249999999999999 0 0.2083333333333333 0.6250000000000001 0 0.25 0.7500000000000001 0 0.1666666666666666 0.7499999999999999 0 0.2083333333333333 0.7500000000000001 0 0.2499999999999999 0.6666666666666665 0 0.2500000000000001 0.7083333333333335 0 0.7499999999999999 0.6249999999999999 0 0.7499999999999999 0.7499999999999999 0 0.7499999999999999 0.6666666666666665 0 0.7500000000000001 0.7083333333333335 0 0.8749999999999999 0.6249999999999999 0 0.7916666666666665 0.6249999999999999 0 0.8333333333333335 0.6250000000000001 0 0.8750000000000001 0.7500000000000001 0 0.7916666666666665 0.7499999999999999 0 0.8333333333333335 0.7500000000000001 0 0.8749999999999999 0.6666666666666665 0 0.8750000000000002 0.7083333333333335 0 0.8749999999999999 0.6249999999999999 0 0.8749999999999999 0.7499999999999999 0 0.8749999999999999 0.6666666666666665 0 0.8750000000000002 0.7083333333333335 0 0.9999999999999999 0.6249999999999999 0 0.9166666666666665 0.6249999999999999 0 0.9583333333333336 0.6250000000000001 0 1 0.7500000000000001 0 0.9166666666666665 0.7499999999999999 0 0.9583333333333336 0.7500000000000001 0 0.9999999999999998 0.6666666666666665 0 1 0.7083333333333335 0 -1.156482317317871e-18 0.7499999999999999 0 -1.156482317317871e-18 0.8749999999999999 0 0 0.7916666666666665 0 0 0.8333333333333335 0 0.125 0.7499999999999999 0 0.04166666666666665 0.7499999999999999 0 0.08333333333333334 0.7500000000000001 0 0.125 0.8750000000000001 0 0.04166666666666665 0.8749999999999999 0 0.08333333333333334 0.8750000000000002 0 0.125 0.7916666666666665 0 0.125 0.8333333333333335 0 0.125 0.7499999999999999 0 0.125 0.8749999999999999 0 0.125 0.7916666666666665 0 0.125 0.8333333333333335 0 0.25 0.7499999999999999 0 0.1666666666666666 0.7499999999999999 0 0.2083333333333333 0.7500000000000001 0 0.25 0.8750000000000001 0 0.1666666666666666 0.8749999999999999 0 0.2083333333333333 0.8750000000000002 0 0.2499999999999999 0.7916666666666665 0 0.2500000000000001 0.8333333333333335 0 0.25 0.7499999999999999 0 0.25 0.8749999999999999 0 0.2499999999999999 0.7916666666666665 0 0.2500000000000001 0.8333333333333335 0 0.3749999999999999 0.7499999999999999 0 0.2916666666666666 0.7499999999999999 0 0.3333333333333334 0.7500000000000001 0 0.3750000000000001 0.8750000000000001 0 0.2916666666666666 0.8749999999999999 0 0.3333333333333334 0.8750000000000002 0 0.3749999999999999 0.7916666666666665 0 0.3750000000000001 0.8333333333333335 0 0.3749999999999999 0.7499999999999999 0 0.3749999999999999 0.8749999999999999 0 0.3749999999999999 0.7916666666666665 0 0.3750000000000001 0.8333333333333335 0 0.4999999999999999 0.7499999999999999 0 0.4166666666666666 0.7499999999999999 0 0.4583333333333334 0.7500000000000001 0 0.5 0.8750000000000001 0 0.4166666666666666 0.8749999999999999 0 0.4583333333333334 0.8750000000000002 0 0.4999999999999999 0.7916666666666665 0 0.5000000000000001 0.8333333333333335 0 0.4999999999999999 0.7499999999999999 0 0.4999999999999999 0.8749999999999999 0 0.4999999999999999 0.7916666666666665 0 0.5000000000000001 0.8333333333333335 0 0.6249999999999999 0.7499999999999999 0 0.5416666666666665 0.7499999999999999 0 0.5833333333333335 0.7500000000000001 0 0.6250000000000001 0.8750000000000001 0 0.5416666666666665 0.8749999999999999 0 0.5833333333333335 0.8750000000000002 0 0.6249999999999999 0.7916666666666665 0 0.6250000000000001 0.8333333333333335 0 0.6249999999999999 0.7499999999999999 0 0.6249999999999999 0.8749999999999999 0 0.6249999999999999 0.7916666666666665 0 0.6250000000000001 0.8333333333333335 0 0.7499999999999999 0.7499999999999999 0 0.6666666666666665 0.7499999999999999 0 0.7083333333333335 0.7500000000000001 0 0.7500000000000001 0.8750000000000001 0 0.6666666666666665 0.8749999999999999 0 0.7083333333333335 0.8750000000000002 0 0.7499999999999999 0.7916666666666665 0 0.7500000000000001 0.8333333333333335 0 0.7499999999999999 0.7499999999999999 0 0.7499999999999999 0.8749999999999999 0 0.7499999999999999 0.7916666666666665 0 0.7500000000000001 0.8333333333333335 0 0.8749999999999999 0.7499999999999999 0 0.7916666666666665 0.7499999999999999 0 0.8333333333333335 0.7500000000000001 0 0.8750000000000001 0.8750000000000001 0 0.7916666666666665 0.8749999999999999 0 0.8333333333333335 0.8750000000000002 0 0.8749999999999999 0.7916666666666665 0 0.8750000000000002 0.8333333333333335 0 0.8749999999999999 0.7499999999999999 0 0.8749999999999999 0.8749999999999999 0 0.8749999999999999 0.7916666666666665 0 0.8750000000000002 0.8333333333333335 0 0.9999999999999999 0.7499999999999999 0 0.9166666666666665 0.7499999999999999 0 0.9583333333333336 0.7500000000000001 0 1 0.8750000000000001 0 0.9166666666666665 0.8749999999999999 0 0.9583333333333336 0.8750000000000002 0 0.9999999999999998 0.7916666666666665 0 1 0.8333333333333335 0 -1.156482317317871e-18 0.8749999999999999 0 -1.156482317317871e-18 0.9999999999999999 0 0 0.9166666666666665 0 0 0.9583333333333336 0 0.125 0.8749999999999999 0 0.04166666666666665 0.8749999999999999 0 0.08333333333333334 0.8750000000000002 0 0.125 1 0 0.04166666666666665 0.9999999999999998 0 0.08333333333333334 1 0 0.125 0.9166666666666665 0 0.125 0.9583333333333336 0 0.125 0.8749999999999999 0 0.125 0.9999999999999999 0 0.125 0.9166666666666665 0 0.125 0.9583333333333336 0 0.25 0.8749999999999999 0 0.1666666666666666 0.8749999999999999 0 0.2083333333333333 0.8750000000000002 0 0.25 1 0 0.1666666666666666 0.9999999999999998 0 0.2083333333333333 1 0 0.2499999999999999 0.9166666666666665 0 0.2500000000000001 0.9583333333333336 0 0.25 0.8749999999999999 0 0.25 0.9999999999999999 0 0.2499999999999999 0.9166666666666665 0 0.2500000000000001 0.9583333333333336 0 0.3749999999999999 0.8749999999999999 0 0.2916666666666666 0.8749999999999999 0 0.3333333333333334 0.8750000000000002 0 0.3750000000000001 1 0 0.2916666666666666 0.9999999999999998 0 0.3333333333333334 1 0 0.3749999999999999 0.9166666666666665 0 0.3750000000000001 0.9583333333333336 0 0.3749999999999999 0.8749999999999999 0 0.3749999999999999 0.9999999999999999 0 0.3749999999999999 0.9166666666666665 0 0.3750000000000001 0.9583333333333336 0 0.4999999999999999 0.8749999999999999 0 0.4166666666666666 0.8749999999999999 0 0.4583333333333334 0.8750000000000002 0 0.5 1 0 0.4166666666666666 0.9999999999999998 0 0.4583333333333334 1 0 0.4999999999999999 0.9166666666666665 0 0.5000000000000001 0.9583333333333336 0 0.4999999999999999 0.8749999999999999 0 0.4999999999999999 0.9999999999999999 0 0.4999999999999999 0.9166666666666665 0 0.5000000000000001 0.9583333333333336 0 0.6249999999999999 0.8749999999999999 0 0.5416666666666665 0.8749999999999999 0 0.5833333333333335 0.8750000000000002 0 0.6250000000000001 1 0 0.5416666666666665 0.9999999999999998 0 0.5833333333333335 1 0 0.6249999999999999 0.9166666666666665 0 0.6250000000000001 0.9583333333333336 0 0.6249999999999999 0.8749999999999999 0 0.6249999999999999 0.9999999999999999 0 0.6249999999999999 0.9166666666666665 0 0.6250000000000001 0.9583333333333336 0 0.7499999999999999 0.8749999999999999 0 0.6666666666666665 0.8749999999999999 0 0.7083333333333335 0.8750000000000002 0 0.7500000000000001 1 0 0.6666666666666665 0.9999999999999998 0 0.7083333333333335 1 0 0.7499999999999999 0.9166666666666665 0 0.7500000000000001 0.9583333333333336 0 0.7499999999999999 0.8749999999999999 0 0.7499999999999999 0.9999999999999999 0 0.7499999999999999 0.9166666666666665 0 0.7500000000000001 0.9583333333333336 0 0.8749999999999999 0.8749999999999999 0 0.7916666666666665 0.8749999999999999 0 0.8333333333333335 0.8750000000000002 0 0.8750000000000001 1 0 0.7916666666666665 0.9999999999999998 0 0.8333333333333335 1 0 0.8749999999999999 0.9166666666666665 0 0.8750000000000002 0.9583333333333336 0 0.8749999999999999 0.8749999999999999 0 0.8749999999999999 0.9999999999999999 0 0.8749999999999999 0.9166666666666665 0 0.8750000000000002 0.9583333333333336 0 0.9999999999999999 0.8749999999999999 0 0.9166666666666665 0.8749999999999999 0 0.9583333333333336 0.8750000000000002 0 1 1 0 0.9166666666666665 0.9999999999999998 0 0.9583333333333336 1 0 0.9999999999999998 0.9166666666666665 0 1 0.9583333333333336 0 </DataArray>
      </Points>
      <Cells>
        <DataArray type="Int32" Name="connectivity" format="ascii">0 1 2 3 0 4 5 6 4 7 8 9 10 11 12 13 11 14 15 16 17 14 18 19 20 21 22 23 20 24 25 26 24 27 28 29 30 31 32 33 31 34 35 36 37 34 38 39 40 41 42 43 40 44 45 46 44 47 48 49 50 51 52 53 51 54 55 56 57 54 58 59 60 61 62 63 60 64 65 66 64 67 68 69 70 71 72 73 71 74 75 76 77 74 78 79 80 81 82 83 80 84 85 86 81 87 88 89 84 87 90 91 92 93 94 95 92 96 97 98 93 99 100 101 96 99 102 103 104 105 106 107 104 108 109 110 105 111 112 113 108 111 114 115 116 117 118 119 116 120 121 122 117 123 124 125 120 123 126 127 128 129 130 131 128 132 133 134 129 135 136 137 132 135 138 139 140 141 142 143 140 144 145 146 141 147 148 149 144 147 150 151 152 153 154 155 152 156 157 158 153 159 160 161 156 159 162 163 164 165 166 167 164 168 169 170 165 171 172 173 168 171 174 175 176 177 178 179 176 180 181 182 177 183 184 185 180 183 186 187 188 189 190 191 188 192 193 194 189 195 196 197 192 195 198 199 200 201 202 203 200 204 205 206 201 207 208 209 204 207 210 211 212 213 214 215 212 216 217 218 213 219 220 221 216 219 222 223 224 225 226 227 224 228 229 230 225 231 232 233 228 231 234 235 236 237 238 239 236 240 241 242 237 243 244 245 240 243 246 247 248 249 250 251 248 252 253 254 249 255 256 257 252 255 258 259 260 261 262 263 260 264 265 266 261 267 268 269 264 267 270 271 272 273 274 275 272 276 277 278 273 279 280 281 276 279 282 283 284 285 286 287 284 288 289 290 285 291 292 293 288 291 294 295 296 297 298 299 296 300 301 302 297 303 304 305 300 303 306 307 308 309 310 311 308 312 313 314 309 315 316 317 312 315 318 319 320 321 322 323 320 324 325 326 321 327 328 329 324 327 330 331 332 333 334 335 332 336 337 338 333 339 340 341 336 339 342 343 344 345 346 347 344 348 349 350 345 351 352 353 348 351 354 355 356 357 358 359 356 360 361 362 357 363 364 365 360 363 366 367 368 369 370 371 368 372 373 374 369 375 376 377 372 375 378 379 380 381 382 383 380 384 385 386 381 387 388 389 384 387 390 391 392 393 394 395 392 396 397 398 393 399 400 401 396 399 402 403 404 405 406 407 404 408 409 410 405 411 412 413 408 411 414 415 416 417 418 419 416 420 421 422 417 423 424 425 420 423 426 427 428 429 430 431 428 432 433 434 429 435 436 437 432 435 438 439 440 441 442 443 440 444 445 446 441 447 448 449 444 447 450 451 452 453 454 455 452 456 457 458 453 459 460 461 456 459 462 463 464 465 466 467 464 468 469 470 465 471 472 473 468 471 474 475 476 477 478 479 476 480 481 482 477 483 484 485 480 483 486 487 488 489 490 491 488 492 493 494 489 495 496 497 492 495 498 499 500 501 502 503 500 504 505 506 501 507 508 509 504 507 510 511 512 513 514 515 512 516 517 518 513 519 520 521 516 519 522 523 524 525 526 527 524 528 529 530 525 531 532 533 528 531 534 535 536 537 538 539 536 540 541 542 537 543 544 545 540 543 546 547 548 549 550 551 548 552 553 554 549 555 556 557 552 555 558 559 560 561 562 563 560 564 565 566 561 567 568 569 564 567 570 571 572 573 574 575 572 576 577 578 573 579 580 581 576 579 582 583 584 585 586 587 584 588 589 590 585 591 592 593 588 591 594 595 596 597 598 599 596 600 601 602 597 603 604 605 600 603 606 607 608 609 610 611 608 612 613 614 609 615 616 617 612 615 618 619 620 621 622 623 620 624 625 626 621 627 628 629 624 627 630 631 632 633 634 635 632 636 637 638 633 639 640 641 636 639 642 643 644 645 646 647 644 648 649 650 645 651 652 653 648 651 654 655 656 657 658 659 656 660 661 662 657 663 664 665 660 663 666 667 668 669 670 671 668 672 673 674 669 675 676 677 672 675 678 679 680 681 682 683 680 684 685 686 681 687 688 689 684 687 690 691 692 693 694 695 692 696 697 698 693 699 700 701 696 699 702 703 704 705 706 707 704 708 709 710 705 711 712 713 708 711 714 715 716 717 718 719 716 720 721 722 717 723 724 725 720 723 726 727 728 729 730 731 728 732 733 734 729 735 736 737 732 735 738 739 740 741 742 743 740 744 745 746 741 747 748 749 744 747 750 751 </DataArray>
        <DataArray type="Int32" Name="offsets" format="ascii">4 8 12 16 20 24 28 32 36 40 44 48 52 56 60 64 68 72 76 80 84 88 92 96 100 104 108 112 116 120 124 128 132 136 140 144 148 152 156 160 164 168 172 176 180 184 188 192 196 200 204 208 212 216 220 224 228 232 236 240 244 248 252 256 260 264 268 272 276 280 284 288 292 296 300 304 308 312 316 320 324 328 332 336 340 344 348 352 356 360 364 368 372 376 380 384 388 392 396 400 404 408 412 416 420 424 428 432 436 440 444 448 452 456 460 464 468 472 476 480 484 488 492 496 500 504 508 512 516 520 524 528 532 536 540 544 548 552 556 560 564 568 572 576 580 584 588 592 596 600 604 608 612 616 620 624 628 632 636 640 644 648 652 656 660 664 668 672 676 680 684 688 692 696 700 704 708 712 716 720 724 728 732 736 740 744 748 752 756 760 764 768 772 776 780 784 788 792 796 800 804 808 812 816 820 824 828 832 836 840 844 848 852 856 860 864 868 872 876 880 884 888 892 896 900 904 908 912 916 920 924 928 932 936 940 944 948 952 956 960 964 968 972 976 980 984 988 992 </DataArray>
        <DataArray type="Int8" Name="types" format="ascii">68 68 68 68 68 68 68 68 68 68 68 68 68 68 68 68 68 68 68 68 68 68 68 68 68 68 68 68 68 68 68 68 68 68 68 68 68 68 68 68 68 68 68 68 68 68 68 68 68 68 68 68 68 68 68 68 68 68 68 68 68 68 68 68 68 68 68 68 68 68 68 68 68 68 68 68 68 68 68 68 68 68 68 68 68 68 68 68 68 68 68 68 68 68 68 68 68 68 68 68 68 68 68 68 68 68 68 68 68 68 68 68 68 68 68 68 68 68 68 68 68 68 68 68 68 68 68 68 68 68 68 68 68 68 68 68 68 68 68 68 68 68 68 68 68 68 68 68 68 68 68 68 68 68 68 68 68 68 68 68 68 68 68 68 68 68 68 68 68 68 68 68 68 68 68 68 68 68 68 68 68 68 68 68 68 68 68 68 68 68 68 68 68 68 68 68 68 68 68 68 68 68 68 68 68 68 68 68 68 68 68 68 68 68 68 68 68 68 68 68 68 68 68 68 68 68 68 68 68 68 68 68 68 68 68 68 68 68 68 68 68 68 68 68 68 68 68 68 </DataArray>
      </Cells>
      <CellData>
        <DataArray type="UInt8" Name="vtkGhostType" format="ascii" RangeMin="0" RangeMax="1">0 0 0 0 0 0 0 0 0 0 0 0 0 0 0 0 0 0 0 0 0 0 0 0 0 0 0 0 0 0 0 0 0 0 0 0 0 0 0 0 0 0 0 0 0 0 0 0 0 0 0 0 0 0 0 0 0 0 0 0 0 0 0 0 0 0 0 0 0 0 0 0 0 0 0 0 0 0 0 0 0 0 0 0 0 0 0 0 0 0 0 0 0 0 0 0 0 0 0 0 0 0 0 0 0 0 0 0 0 0 0 0 0 0 0 0 0 0 0 0 0 0 0 0 0 0 0 0 0 0 0 0 0 0 0 0 0 0 0 0 0 0 0 0 0 0 0 0 0 0 0 0 0 0 0 0 0 0 0 0 0 0 0 0 0 0 0 0 0 0 0 0 0 0 0 0 0 0 0 0 0 0 0 0 0 0 0 0 0 0 0 0 0 0 0 0 0 0 0 0 0 0 0 0 0 0 0 0 0 0 0 0 0 0 0 0 0 0 0 0 0 0 0 0 0 0 0 0 0 0 0 0 0 0 0 0 0 0 0 0 0 0 0 0 0 0 0 0 </DataArray>
        <DataArray type="Int64" IdType="1" Name="vtkOriginalCellIds" format="ascii" RangeMin="0" RangeMax="247">0 1 2 3 4 5 6 7 8 9 10 11 12 13 14 15 16 17 18 19 20 21 22 23 24 25 26 27 28 29 30 31 32 33 34 35 36 37 38 39 40 41 42 43 44 45 46 47 48 49 50 51 52 53 54 55 56 57 58 59 60 61 62 63 64 65 66 67 68 69 70 71 72 73 74 75 76 77 78 79 80 81 82 83 84 85 86 87 88 89 90 91 92 93 94 95 96 97 98 99 100 101 102 103 104 105 106 107 108 109 110 111 112 113 114 115 116 117 118 119 120 121 122 123 124 125 126 127 128 129 130 131 132 133 134 135 136 137 138 139 140 141 142 143 144 145 146 147 148 149 150 151 152 153 154 155 156 157 158 159 160 161 162 163 164 165 166 167 168 169 170 171 172 173 174 175 176 177 178 179 180 181 182 183 184 185 186 187 188 189 190 191 192 193 194 195 196 197 198 199 200 201 202 203 204 205 206 207 208 209 210 211 212 213 214 215 216 217 218 219 220 221 222 223 224 225 226 227 228 229 230 231 232 233 234 235 236 237 238 239 240 241 242 243 244 245 246 247 </DataArray>
      </CellData>
      <PointData Vectors="solution_wirebasket">
        <DataArray type="Int64" IdType="1" Name="vtkOriginalPointIds" format="ascii" RangeMin="0" RangeMax="751">0 1 2 3 4 5 6 7 8 9 10 11 12 13 14 15 16 17 18 19 20 21 22 23 24 25 26 27 28 29 30 31 32 33 34 35 36 37 38 39 40 41 42 43 44 45 46 47 48 49 50 51 52 53 54 55 56 57 58 59 60 61 62 63 64 65 66 67 68 69 70 71 72 73 74 75 76 77 78 79 80 81 82 83 84 85 86 87 88 89 90 91 92 93 94 95 96 97 98 99 100 101 102 103 104 105 106 107 108 109 110 111 112 113 114 115 116 117 118 119 120 121 122 123 124 125 126 127 128 129 130 131 132 133 134 135 136 137 138 139 140 141 142 143 144 145 146 147 148 149 150 151 152 153 154 155 156 157 158 159 160 161 162 163 164 165 166 167 168 169 170 171 172 173 174 175 176 177 178 179 180 181 182 183 184 185 186 187 188 189 190 191 192 193 194 195 196 197 198 199 200 201 202 203 204 205 206 207 208 209 210 211 212 213 214 215 216 217 218 219 220 221 222 223 224 225 226 227 228 229 230 231 232 233 234 235 236 237 238 239 240 241 242 243 244 245 246 247 248 249 250 251 252 253 254 255 256 257 258 259 260 261 262 263 264 265 266 267 268 269 270 271 272 273 274 275 276 277 278 279 280 281 282 283 284 285 286 287 288 289 290 291 292 293 294 295 296 297 298 299 300 301 302 303 304 305 306 307 308 309 310 311 312 313 314 315 316 317 318 319 320 321 322 323 324 325 326 327 328 329 330 331 332 333 334 335 336 337 338 339 340 341 342 343 344 345 346 347 348 349 350 351 352 353 354 355 356 357 358 359 360 361 362 363 364 365 366 367 368 369 370 371 372 373 374 375 376 377 378 379 380 381 382 383 384 385 386 387 388 389 390 391 392 393 394 395 396 397 398 399 400 401 402 403 404 405 406 407 408 409 410 411 412 413 414 415 416 417 418 419 420 421 422 423 424 425 426 427 428 429 430 431 432 433 434 435 436 437 438 439 440 441 442 443 444 445 446 447 448 449 450 451 452 453 454 455 456 457 458 459 460 461 462 463 464 465 466 467 468 469 470 471 472 473 474 475 476 477 478 479 480 481 482 483 484 485 486 487 488 489 490 491 492 493 494 495 496 497 498 499 500 501 502 503 504 505 506 507 508 509 510 511 512 513 514 515 516 517 518 519 520 521 522 523 524 525 526 527 528 529 530 531 532 533 534 535 536 537 538 539 540 541 542 543 544 545 546 547 548 549 550 551 552 553 554 555 556 557 558 559 560 561 562 563 564 565 566 567 568 569 570 571 572 573 574 575 576 577 578 579 580 581 582 583 584 585 586 587 588 589 590 591 592 593 594 595 596 597 598 599 600 601 602 603 604 605 606 607 608 609 610 611 612 613 614 615 616 617 618 619 620 621 622 623 624 625 626 627 628 629 630 631 632 633 634 635 636 637 638 639 640 641 642 643 644 645 646 647 648 649 650 651 652 653 654 655 656 657 658 659 660 661 662 663 664 665 666 667 668 669 670 671 672 673 674 675 676 677 678 679 680 681 682 683 684 685 686 687 688 689 690 691 692 693 694 695 696 697 698 699 700 701 702 703 704 705 706 707 708 709 710 711 712 713 714 715 716 717 718 719 720 721 722 723 724 725 726 727 728 729 730 731 732 733 734 735 736 737 738 739 740 741 742 743 744 745 746 747 748 749 750 751 </DataArray>
        <DataArray type="UInt8" Name="vtkGhostType" format="ascii" RangeMin="0" RangeMax="0">0 0 0 0 0 0 0 0 0 0 0 0 0 0 0 0 0 0 0 0 0 0 0 0 0 0 0 0 0 0 0 0 0 0 0 0 0 0 0 0 0 0 0 0 0 0 0 0 0 0 0 0 0 0 0 0 0 0 0 0 0 0 0 0 0 0 0 0 0 0 0 0 0 0 0 0 0 0 0 0 0 0 0 0 0 0 0 0 0 0 0 0 0 0 0 0 0 0 0 0 0 0 0 0 0 0 0 0 0 0 0 0 0 0 0 0 0 0 0 0 0 0 0 0 0 0 0 0 0 0 0 0 0 0 0 0 0 0 0 0 0 0 0 0 0 0 0 0 0 0 0 0 0 0 0 0 0 0 0 0 0 0 0 0 0 0 0 0 0 0 0 0 0 0 0 0 0 0 0 0 0 0 0 0 0 0 0 0 0 0 0 0 0 0 0 0 0 0 0 0 0 0 0 0 0 0 0 0 0 0 0 0 0 0 0 0 0 0 0 0 0 0 0 0 0 0 0 0 0 0 0 0 0 0 0 0 0 0 0 0 0 0 0 0 0 0 0 0 0 0 0 0 0 0 0 0 0 0 0 0 0 0 0 0 0 0 0 0 0 0 0 0 0 0 0 0 0 0 0 0 0 0 0 0 0 0 0 0 0 0 0 0 0 0 0 0 0 0 0 0 0 0 0 0 0 0 0 0 0 0 0 0 0 0 0 0 0 0 0 0 0 0 0 0 0 0 0 0 0 0 0 0 0 0 0 0 0 0 0 0 0 0 0 0 0 0 0 0 0 0 0 0 0 0 0 0 0 0 0 0 0 0 0 0 0 0 0 0 0 0 0 0 0 0 0 0 0 0 0 0 0 0 0 0 0 0 0 0 0 0 0 0 0 0 0 0 0 0 0 0 0 0 0 0 0 0 0 0 0 0 0 0 0 0 0 0 0 0 0 0 0 0 0 0 0 0 0 0 0 0 0 0 0 0 0 0 0 0 0 0 0 0 0 0 0 0 0 0 0 0 0 0 0 0 0 0 0 0 0 0 0 0 0 0 0 0 0 0 0 0 0 0 0 0 0 0 0 0 0 0 0 0 0 0 0 0 0 0 0 0 0 0 0 0 0 0 0 0 0 0 0 0 0 0 0 0 0 0 0 0 0 0 0 0 0 0 0 0 0 0 0 0 0 0 0 0 0 0 0 0 0 0 0 0 0 0 0 0 0 0 0 0 0 0 0 0 0 0 0 0 0 0 0 0 0 0 0 0 0 0 0 0 0 0 0 0 0 0 0 0 0 0 0 0 0 0 0 0 0 0 0 0 0 0 0 0 0 0 0 0 0 0 0 0 0 0 0 0 0 0 0 0 0 0 0 0 0 0 0 0 0 0 0 0 0 0 0 0 0 0 0 0 0 0 0 0 0 0 0 0 0 0 0 0 0 0 0 0 0 0 0 0 0 0 0 0 0 0 0 0 0 0 0 0 0 0 0 0 0 0 0 0 0 0 0 0 0 0 0 0 0 0 0 0 0 0 0 0 0 0 0 0 0 0 0 0 0 0 0 0 0 0 0 0 0 0 0 0 0 0 0 0 0 0 0 0 0 0 0 0 0 0 0 0 0 0 0 0 0 0 0 0 0 0 0 0 0 0 0 0 0 0 0 0 0 0 0 0 0 0 0 0 0 0 0 0 0 0 0 0 0 0 </DataArray>
        <DataArray type="Float64" Name="solution_wirebasket" format="ascii" NumberOfComponents="3">0.5101530054372168 0 0 0.6258474227877123 0 0 0.5487178112207151 0 0 0.587282617004214 0 0 0.6642067393635929 0 0 0.5615042500793419 0 0 0.6128554947214677 0 0 0.8332193831493818 0 0 0.720544287292189 0 0 0.7768818352207858 0 0 0.625847422787712 0 0 0.6642067413621897 0 0 0.6386338623125378 0 0 0.651420301837364 0 0 0.8332193836470319 0 0 0.7205442887904703 0 0 0.776881836218751 0 0 0.8332193831493814 0 0 0.8315001590986831 0 0 0.8316209001839273 0 0 0.6642067413621898 0 0 0.6258474227877123 0 0 0.651420301837364 0 0 0.6386338623125385 0 0 0.8332193836470326 0 0 0.7205442887904706 0 0 0.7768818362187513 0 0 0.8332193831493827 0 0 0.8316209001839283 0 0 0.8315001590986845 0 0 0.6258474227877125 0 0 0.5101530054372174 0 0 0.587282617004214 0 0 0.5487178112207156 0 0 0.6642067393635931 0 0 0.5615042500793428 0 0 0.6128554947214679 0 0 0.8332193831493833 0 0 0.7768818352207865 0 0 0.7205442872921899 0 0 0.6642067393635934 0 0 0.8332193831493825 0 0 0.7205442872921897 0 0 0.7768818352207862 0 0 0.5101530054372175 0 0 0.6128554947214683 0 0 0.5615042500793427 0 0 0.625847422787712 0 0 0.5487178112207157 0 0 0.5872826170042139 0 0 0.8332193831493826 0 0 0.8332193836470321 0 0 0.8315001590986844 0 0 0.8316209001839278 0 0 0.6642067413621892 0 0 0.7768818362187513 0 0 0.7205442887904702 0 0 0.6258474227877123 0 0 0.6386338623125382 0 0 0.6514203018373634 0 0 0.8332193836470327 0 0 0.8332193831493819 0 0 0.8316209001839273 0 0 0.8315001590986826 0 0 0.6642067413621907 0 0 0.7768818362187517 0 0 0.7205442887904703 0 0 0.6258474227877122 0 0 0.6514203018373648 0 0 0.6386338623125378 0 0 0.8332193831493827 0 0 0.6642067393635939 0 0 0.7768818352207865 0 0 0.7205442872921897 0 0 0.5101530054372169 0 0 0.6128554947214686 0 0 0.5615042500793425 0 0 0.6258474227877128 0 0 0.5872826170042142 0 0 0.5487178112207153 0 0 0.6642067413621897 0 0 0.8332193836470315 0 0 0.7205442887904703 0 0 0.776881836218751 0 0 0.7132220572271359 0 0 0.6805451799838383 0 0 0.6968836186054874 0 0 0.8470752239610799 0 0 0.8232371044186979 0 0 0.8265914276695184 0 0 0.7578397794717837 0 0 0.8024575017164322 0 0 0.7132220572271359 0 0 0.8470752239610795 0 0 0.7578397794717837 0 0 0.8024575017164322 0 0 0.6642067413621898 0 0 0.6968836186054872 0 0 0.6805451799838386 0 0 0.8332193836470323 0 0 0.8265914276695184 0 0 0.8232371044186985 0 0 0.7205442887904706 0 0 0.7768818362187513 0 0 0.6642067393635929 0 0 0.7132220570778441 0 0 0.6805451786016764 0 0 0.6968836178397605 0 0 0.8332193831493814 0 0 0.720544287292189 0 0 0.7768818352207858 0 0 0.8470752238800091 0 0 0.7578397793452321 0 0 0.8024575016126207 0 0 0.8232371037943782 0 0 0.8265914272431323 0 0 0.8332193831493833 0 0 0.8470752238800101 0 0 0.8232371037943794 0 0 0.8265914272431323 0 0 0.6642067393635934 0 0 0.7768818352207865 0 0 0.7205442872921899 0 0 0.7132220570778437 0 0 0.8024575016126214 0 0 0.7578397793452329 0 0 0.680545178601677 0 0 0.6968836178397603 0 0 0.7132220570778441 0 0 0.6642067393635934 0 0 0.6968836178397604 0 0 0.6805451786016772 0 0 0.847075223880009 0 0 0.7578397793452321 0 0 0.8024575016126207 0 0 0.8332193831493825 0 0 0.7205442872921897 0 0 0.7768818352207862 0 0 0.8265914272431322 0 0 0.8232371037943786 0 0 0.8470752238800101 0 0 0.8332193831493827 0 0 0.8265914272431327 0 0 0.8232371037943786 0 0 0.7132220570778444 0 0 0.8024575016126214 0 0 0.7578397793452322 0 0 0.6642067393635934 0 0 0.7768818352207865 0 0 0.7205442872921897 0 0 0.696883617839761 0 0 0.6805451786016768 0 0 0.8332193836470321 0 0 0.6642067413621896 0 0 0.7768818362187513 0 0 0.7205442887904702 0 0 0.84707522396108 0 0 0.8232371044186984 0 0 0.8265914276695183 0 0 0.7132220572271359 0 0 0.6805451799838387 0 0 0.696883618605487 0 0 0.8024575017164322 0 0 0.7578397794717837 0 0 0.84707522396108 0 0 0.7132220572271366 0 0 0.8024575017164324 0 0 0.7578397794717837 0 0 0.8332193836470327 0 0 0.8265914276695188 0 0 0.8232371044186977 0 0 0.6642067413621902 0 0 0.6968836186054876 0 0 0.6805451799838386 0 0 0.7768818362187517 0 0 0.7205442887904703 0 0 4.827029490090277e-18 0 0 -1.239937388671116e-17 0 0 -4.804603954906116e-18 0 0 4.485107036831221e-20 0 0 -3.414239904431101e-18 0 0 2.079939691916484e-18 0 0 -2.735877030581716e-18 0 0 0.1490674848882991 0 0 0.04968916162943304 0 0 0.09937832325886611 0 0 0.04968916162943301 0 0 0.09937832325886613 0 0 7.232139442177058e-19 0 0 0.1490674848882992 0 0 0.04968916162943301 0 0 0.09937832325886613 0 0 4.790626968923856e-18 0 0 1.795641303231204e-18 0 0 -6.412902274795246e-18 0 0 0.2751630732618589 0 0 0.1910993476794857 0 0 0.2331312104706724 0 0 0.09172102442061958 0 0 0.1834420488412394 0 0 4.790626968923856e-18 0 0 0.2751630732618588 0 0 0.09172102442061958 0 0 0.1834420488412394 0 0 5.004673287735461e-19 0 0 4.710157313265298e-19 0 0 -5.265043639780674e-18 0 0 0.3586978752049398 0 0 0.3030080072428857 0 0 0.3308529412239128 0 0 0.1195659584016465 0 0 0.2391319168032931 0 0 5.004673287735461e-19 0 0 0.3586978752049396 0 0 0.1195659584016465 0 0 0.2391319168032931 0 0 1.022148680652693e-17 0 0 3.906018482617651e-19 0 0 -1.037366714495496e-17 0 0 0.388015325182158 0 0 0.368470358530679 0 0 0.3782428418564186 0 0 0.1293384417273859 0 0 0.258676883454772 0 0 1.022148680652693e-17 0 0 0.3880153251821578 0 0 0.1293384417273859 0 0 0.258676883454772 0 0 1.07480094916285e-17 0 0 -2.821806965887878e-19 0 0 -5.129812950746431e-18 0 0 0.3586978752049397 0 0 0.3782428418564185 0 0 0.3684703585306792 0 0 0.1195659584016465 0 0 0.2391319168032932 0 0 1.07480094916285e-17 0 0 0.3586978752049397 0 0 0.1195659584016465 0 0 0.2391319168032932 0 0 9.639303760396709e-18 0 0 4.30439627332422e-18 0 0 -3.347639011947719e-18 0 0 0.2751630732618591 0 0 0.3308529412239129 0 0 0.303008007242886 0 0 0.09172102442061973 0 0 0.1834420488412394 0 0 9.639303760396709e-18 0 0 0.2751630732618592 0 0 0.09172102442061973 0 0 0.1834420488412394 0 0 7.087638516341414e-18 0 0 2.709824863094273e-18 0 0 -1.439704167059774e-18 0 0 0.1490674848882992 0 0 0.2331312104706726 0 0 0.1910993476794859 0 0 0.04968916162943308 0 0 0.09937832325886604 0 0 7.087638516341414e-18 0 0 0.1490674848882993 0 0 0.04968916162943308 0 0 0.09937832325886604 0 0 -6.895756414414497e-19 0 0 -2.046301389140239e-18 0 0 -1.367938515290851e-18 0 0 -9.78760556222463e-17 0 0 0.09937832325886618 0 0 0.04968916162943253 0 0 1.196720627246631e-17 0 0 -3.229221351001267e-16 0 0 -1.239937388671116e-17 0 0 -1.338496343390972e-17 0 0 -2.817886280269631e-17 0 0 4.253031189994814e-18 0 0 0.1490674848882992 0 0 0.04968916162943304 0 0 0.09937832325886611 0 0 0.2751630729977814 0 0 0.09172102433259376 0 0 0.1834420486651877 0 0 0.1910993475914598 0 0 0.2331312102946207 0 0 0.1490674848882992 0 0 0.2751630729977814 0 0 0.1910993475914598 0 0 0.2331312102946207 0 0 0.2751630732618588 0 0 0.1910993476794857 0 0 0.2331312104706724 0 0 0.5101530054372169 0 0 0.3534930504775932 0 0 0.4318230279574051 0 0 0.3534930506536447 0 0 0.431823028045431 0 0 0.2751630732618588 0 0 0.5101530054372168 0 0 0.3534930506536447 0 0 0.431823028045431 0 0 0.3586978752049396 0 0 0.3030080072428857 0 0 0.3308529412239128 0 0 0.6642067413621896 0 0 0.5615042507455411 0 0 0.6128554960538657 0 0 0.4605341639240228 0 0 0.5623704526431063 0 0 0.3586978752049396 0 0 0.6642067413621897 0 0 0.4605341639240228 0 0 0.5623704526431063 0 0 0.3880153251821578 0 0 0.368470358530679 0 0 0.3782428418564186 0 0 0.7132220572271361 0 0 0.6805451799838383 0 0 0.6968836186054874 0 0 0.4964175691971505 0 0 0.6048198132121434 0 0 0.3880153251821578 0 0 0.7132220572271359 0 0 0.4964175691971505 0 0 0.6048198132121434 0 0 0.3586978752049397 0 0 0.3782428418564185 0 0 0.3684703585306792 0 0 0.6642067413621895 0 0 0.6968836186054872 0 0 0.6805451799838386 0 0 0.4605341639240231 0 0 0.5623704526431064 0 0 0.3586978752049397 0 0 0.6642067413621898 0 0 0.4605341639240231 0 0 0.5623704526431064 0 0 0.2751630732618592 0 0 0.3308529412239129 0 0 0.303008007242886 0 0 0.5101530054372171 0 0 0.6128554960538657 0 0 0.5615042507455412 0 0 0.3534930506536451 0 0 0.4318230280454311 0 0 0.2751630732618592 0 0 0.5101530054372174 0 0 0.3534930506536451 0 0 0.4318230280454311 0 0 0.1490674848882993 0 0 0.2331312104706726 0 0 0.1910993476794859 0 0 0.2751630729977814 0 0 0.4318230279574055 0 0 0.3534930504775935 0 0 0.1910993475914601 0 0 0.2331312102946205 0 0 0.1490674848882993 0 0 0.2751630729977818 0 0 0.1910993475914601 0 0 0.2331312102946205 0 0 3.176416496875e-17 0 0 0.09937832325886618 0 0 0.04968916162943253 0 0 -6.645947268445793e-16 0 0 0.1834420486651878 0 0 0.09172102433259334 0 0 6.647563475783639e-17 0 0 -7.589400585214446e-16 0 0 -1.338496343390972e-17 0 0 -2.007007555271411e-17 0 0 -2.467487955277582e-17 0 0 1.986309083563232e-19 0 0 0.2751630729977814 0 0 0.09172102433259376 0 0 0.1834420486651877 0 0 0.3586978748268396 0 0 0.1195659582756131 0 0 0.2391319165512264 0 0 0.3030080069408008 0 0 0.3308529408838203 0 0 0.2751630729977814 0 0 0.3586978748268394 0 0 0.3030080069408008 0 0 0.3308529408838203 0 0 0.5101530054372168 0 0 0.3534930504775932 0 0 0.4318230279574051 0 0 0.664206739363593 0 0 0.4605341630057571 0 0 0.5623704511846751 0 0 0.5615042500793419 0 0 0.6128554947214677 0 0 0.5101530054372174 0 0 0.6642067393635934 0 0 0.5615042500793428 0 0 0.6128554947214679 0 0 0.2751630729977818 0 0 0.4318230279574055 0 0 0.3534930504775935 0 0 0.3586978748268392 0 0 0.5623704511846757 0 0 0.4605341630057572 0 0 0.3030080069408015 0 0 0.3308529408838199 0 0 0.2751630729977818 0 0 0.35869787482684 0 0 0.3030080069408015 0 0 0.3308529408838199 0 0 8.26949835753361e-17 0 0 0.1834420486651878 0 0 0.09172102433259334 0 0 -8.846551032008386e-16 0 0 0.2391319165512266 0 0 0.1195659582756121 0 0 1.135022306875635e-16 0 0 -1.389012683119052e-15 0 0 -2.007007555271411e-17 0 0 -2.141479706073659e-17 0 0 -3.030697828603031e-17 0 0 2.493613361981552e-19 0 0 0.3586978748268394 0 0 0.1195659582756131 0 0 0.2391319165512264 0 0 0.3880153245693222 0 0 0.1293384415231073 0 0 0.2586768830462149 0 0 0.3684703580743336 0 0 0.3782428413218281 0 0 0.3586978748268394 0 0 0.388015324569322 0 0 0.3684703580743336 0 0 0.3782428413218281 0 0 0.6642067393635929 0 0 0.4605341630057571 0 0 0.5623704511846751 0 0 0.7132220570778443 0 0 0.4964175687388294 0 0 0.6048198129083368 0 0 0.6805451786016764 0 0 0.6968836178397605 0 0 0.6642067393635934 0 0 0.7132220570778444 0 0 0.680545178601677 0 0 0.6968836178397603 0 0 0.35869787482684 0 0 0.5623704511846757 0 0 0.4605341630057572 0 0 0.3880153245693218 0 0 0.6048198129083369 0 0 0.4964175687388291 0 0 0.3684703580743337 0 0 0.3782428413218272 0 0 0.35869787482684 0 0 0.3880153245693224 0 0 0.3684703580743337 0 0 0.3782428413218272 0 0 -5.461556596114988e-16 0 0 0.2391319165512266 0 0 0.1195659582756121 0 0 -9.517403736252013e-16 0 0 0.2586768830462147 0 0 0.1293384415231065 0 0 1.26971723274188e-16 0 0 -1.244278327973209e-15 0 0 -2.141479706073659e-17 0 0 -1.954802901906607e-17 0 0 1.047646822184826e-17 0 0 2.387219220555261e-19 0 0 0.388015324569322 0 0 0.1293384415231073 0 0 0.2586768830462149 0 0 0.3586978748268396 0 0 0.1195659582756132 0 0 0.2391319165512265 0 0 0.3782428413218279 0 0 0.3684703580743339 0 0 0.388015324569322 0 0 0.3586978748268397 0 0 0.3782428413218279 0 0 0.3684703580743339 0 0 0.7132220570778441 0 0 0.4964175687388294 0 0 0.6048198129083368 0 0 0.6642067393635933 0 0 0.4605341630057574 0 0 0.5623704511846752 0 0 0.6968836178397604 0 0 0.6805451786016772 0 0 0.7132220570778444 0 0 0.6642067393635939 0 0 0.696883617839761 0 0 0.6805451786016768 0 0 0.3880153245693224 0 0 0.6048198129083369 0 0 0.4964175687388291 0 0 0.3586978748268388 0 0 0.562370451184676 0 0 0.4605341630057573 0 0 0.3782428413218286 0 0 0.3684703580743333 0 0 0.3880153245693224 0 0 0.3586978748268404 0 0 0.3782428413218286 0 0 0.3684703580743333 0 0 -5.748047697864695e-16 0 0 0.2586768830462147 0 0 0.1293384415231065 0 0 -2.267376787180164e-16 0 0 0.2391319165512267 0 0 0.1195659582756121 0 0 4.451419424575187e-16 0 0 -1.202552171860318e-15 0 0 -1.954802901906607e-17 0 0 -7.884007854759757e-18 0 0 -2.773683663148968e-17 0 0 1.691793087995306e-19 0 0 0.3586978748268397 0 0 0.1195659582756132 0 0 0.2391319165512265 0 0 0.2751630729977819 0 0 0.09172102433259392 0 0 0.1834420486651878 0 0 0.3308529408838204 0 0 0.303008006940801 0 0 0.3586978748268397 0 0 0.2751630729977818 0 0 0.3308529408838204 0 0 0.303008006940801 0 0 0.6642067393635934 0 0 0.4605341630057574 0 0 0.5623704511846752 0 0 0.5101530054372172 0 0 0.3534930504775937 0 0 0.4318230279574055 0 0 0.6128554947214683 0 0 0.5615042500793427 0 0 0.6642067393635939 0 0 0.5101530054372174 0 0 0.6128554947214686 0 0 0.5615042500793425 0 0 0.3586978748268404 0 0 0.562370451184676 0 0 0.4605341630057573 0 0 0.2751630729977811 0 0 0.4318230279574053 0 0 0.3534930504775931 0 0 0.3308529408838206 0 0 0.3030080069408002 0 0 0.3586978748268404 0 0 0.2751630729977821 0 0 0.3308529408838206 0 0 0.3030080069408002 0 0 9.185003289547964e-17 0 0 0.2391319165512267 0 0 0.1195659582756121 0 0 -1.856248471131786e-16 0 0 0.1834420486651877 0 0 0.09172102433259298 0 0 1.150694526670996e-16 0 0 -9.981848112913794e-16 0 0 -7.884007854759757e-18 0 0 1.298765923534911e-20 0 0 3.086412646471518e-18 0 0 7.728736452667932e-18 0 0 0.2751630729977818 0 0 0.09172102433259392 0 0 0.1834420486651878 0 0 0.149067484888299 0 0 0.04968916162943315 0 0 0.09937832325886609 0 0 0.2331312102946211 0 0 0.1910993475914601 0 0 0.2751630729977818 0 0 0.1490674848882995 0 0 0.2331312102946211 0 0 0.1910993475914601 0 0 0.5101530054372175 0 0 0.3534930504775937 0 0 0.4318230279574055 0 0 0.2751630732618587 0 0 0.1910993476794859 0 0 0.2331312104706722 0 0 0.4318230280454315 0 0 0.3534930506536451 0 0 0.5101530054372175 0 0 0.2751630732618591 0 0 0.4318230280454315 0 0 0.3534930506536451 0 0 0.6642067413621896 0 0 0.5615042507455414 0 0 0.6128554960538652 0 0 0.3586978752049396 0 0 0.3030080072428859 0 0 0.3308529412239125 0 0 0.5623704526431067 0 0 0.4605341639240221 0 0 0.6642067413621896 0 0 0.3586978752049401 0 0 0.5623704526431067 0 0 0.4605341639240221 0 0 0.7132220572271366 0 0 0.6805451799838387 0 0 0.696883618605487 0 0 0.3880153251821574 0 0 0.3684703585306793 0 0 0.378242841856418 0 0 0.6048198132121438 0 0 0.4964175691971499 0 0 0.7132220572271366 0 0 0.3880153251821577 0 0 0.6048198132121438 0 0 0.4964175691971499 0 0 0.6642067413621907 0 0 0.6968836186054876 0 0 0.6805451799838386 0 0 0.3586978752049395 0 0 0.3782428418564187 0 0 0.3684703585306786 0 0 0.5623704526431071 0 0 0.4605341639240226 0 0 0.6642067413621907 0 0 0.3586978752049398 0 0 0.5623704526431071 0 0 0.4605341639240226 0 0 0.5101530054372174 0 0 0.6128554960538662 0 0 0.5615042507455413 0 0 0.2751630732618582 0 0 0.3308529412239131 0 0 0.3030080072428853 0 0 0.4318230280454315 0 0 0.3534930506536442 0 0 0.5101530054372174 0 0 0.2751630732618588 0 0 0.4318230280454315 0 0 0.3534930506536442 0 0 0.2751630729977821 0 0 0.4318230279574053 0 0 0.3534930504775931 0 0 0.1490674848882988 0 0 0.2331312104706723 0 0 0.1910993476794851 0 0 0.2331312102946209 0 0 0.1910993475914596 0 0 0.2751630729977821 0 0 0.1490674848882994 0 0 0.2331312102946209 0 0 0.1910993475914596 0 0 7.027062654887853e-17 0 0 0.1834420486651877 0 0 0.09172102433259298 0 0 -3.800684252418948e-16 0 0 0.09937832325886597 0 0 0.04968916162943247 0 0 2.840078006690443e-16 0 0 -6.306910857037591e-16 0 0 1.298765923534911e-20 0 0 4.827029490090352e-18 0 0 -8.91963226837076e-18 0 0 2.242553518414941e-20 0 0 0.1490674848882995 0 0 0.04968916162943315 0 0 0.09937832325886609 0 0 -9.78760556222463e-17 0 0 2.64482947427372e-17 0 0 -2.325877260712941e-16 0 0 0.09937832325886622 0 0 0.04968916162943268 0 0 0.1490674848882995 0 0 3.176416496874995e-17 0 0 0.09937832325886622 0 0 0.04968916162943268 0 0 0.2751630732618591 0 0 0.1910993476794859 0 0 0.2331312104706722 0 0 -4.125635138947623e-16 0 0 1.283745758770567e-16 0 0 -7.054246034038365e-16 0 0 0.1834420488412394 0 0 0.0917210244206187 0 0 0.2751630732618591 0 0 -1.681696103252141e-16 0 0 0.1834420488412394 0 0 0.0917210244206187 0 0 0.3586978752049401 0 0 0.3030080072428859 0 0 0.3308529412239125 0 0 -2.183849336622315e-16 0 0 2.048547313684766e-16 0 0 -7.886845564112197e-16 0 0 0.2391319168032935 0 0 0.1195659584016452 0 0 0.3586978752049401 0 0 1.002027782870851e-16 0 0 0.2391319168032935 0 0 0.1195659584016452 0 0 0.3880153251821577 0 0 0.3684703585306793 0 0 0.378242841856418 0 0 -5.96343946865488e-16 0 0 2.495613866605678e-16 0 0 -9.033532661304515e-16 0 0 0.2586768834547716 0 0 0.1293384417273845 0 0 0.3880153251821577 0 0 -2.517171085257682e-16 0 0 0.2586768834547716 0 0 0.1293384417273845 0 0 0.3586978752049398 0 0 0.3782428418564187 0 0 0.3684703585306786 0 0 -2.369647851247286e-16 0 0 -8.502461966938741e-17 0 0 -8.806695460533194e-16 0 0 0.2391319168032929 0 0 0.1195659584016455 0 0 0.3586978752049398 0 0 -2.364223033249286e-16 0 0 0.2391319168032929 0 0 0.1195659584016455 0 0 0.2751630732618588 0 0 0.3308529412239131 0 0 0.3030080072428853 0 0 -4.300187503440639e-16 0 0 2.256520454746563e-16 0 0 -9.932068786930744e-16 0 0 0.1834420488412391 0 0 0.09172102442061859 0 0 0.2751630732618588 0 0 -1.85624846774516e-16 0 0 0.1834420488412391 0 0 0.09172102442061859 0 0 0.1490674848882994 0 0 0.2331312104706723 0 0 0.1910993476794851 0 0 -1.016923988584474e-16 0 0 1.566627093448908e-16 0 0 -5.785524702581238e-16 0 0 0.09937832325886592 0 0 0.04968916162943265 0 0 0.1490674848882994 0 0 2.306881481176572e-17 0 0 0.09937832325886592 0 0 0.04968916162943265 0 0 -2.393949943878357e-16 0 0 0.09937832325886597 0 0 0.04968916162943247 0 0 -1.241236154594587e-17 0 0 6.875682923862656e-17 0 0 -1.514622207491611e-16 0 0 3.565719844943631e-17 0 0 -2.128344528374512e-16 0 0 </DataArray>
      </PointData>
    </Piece>
  </UnstructuredGrid>
</VTKFile>
