<?xml version="1.0"?>
<VTKFile type="UnstructuredGrid" version="2.2">
  <UnstructuredGrid>
    <Piece NumberOfPoints="1024" NumberOfCells="64">
      <Points>
        <DataArray type="Float64" NumberOfComponents="3" format="ascii">0.2499999999999999 0.2499999999999999 0 0.3438750500400399 0.2499999999999998 0 0.2499999999999997 0.3749999999999997 0 0.3438750500400401 0.3750000000000002 0 0.28129168334668 0.25 0 0.3125833666933599 0.25 0 0.2500000000000001 0.2916666666666667 0 0.2500000000000001 0.3333333333333335 0 0.3438750500400399 0.2916666666666667 0 0.3438750500400399 0.3333333333333333 0 0.2812916833466802 0.3750000000000001 0 0.3125833666933598 0.3749999999999998 0 0.28129168334668 0.2916666666666667 0 0.31258336669336 0.2916666666666668 0 0.2812916833466801 0.3333333333333334 0 0.3125833666933601 0.3333333333333334 0 0.3438750500400399 0.2499999999999999 0 0.3749999999999999 0.2499999999999998 0 0.3438750500400395 0.3749999999999997 0 0.3750000000000002 0.3438750500400402 0 0.3542500333600266 0.25 0 0.3646250166800132 0.25 0 0.3438750500400399 0.2916666666666667 0 0.3438750500400401 0.3333333333333335 0 0.3749999999999999 0.28129168334668 0 0.375 0.3125833666933599 0 0.3542500333600268 0.3630439952961292 0 0.3646250166800132 0.3527803889044893 0 0.3542500333600266 0.2876813317653764 0 0.3646250166800135 0.2842601296348299 0 0.3542500333600268 0.3253626635307529 0 0.3646250166800135 0.3185202592696598 0 0.3749999999999999 0.25 0 0.4999999999999999 0.2499999999999998 0 0.3749999999999996 0.3438750500400397 0 0.5000000000000003 0.3000000000000002 0 0.4166666666666667 0.25 0 0.4583333333333333 0.2499999999999999 0 0.3750000000000001 0.28129168334668 0 0.3750000000000002 0.3125833666933601 0 0.4999999999999999 0.2666666666666666 0 0.5 0.2833333333333332 0 0.4166666666666669 0.3181881314227381 0 0.4583333333333331 0.3043884234282415 0 0.4166666666666666 0.2727293771409127 0 0.4583333333333334 0.2681294744760806 0 0.4166666666666669 0.2954587542818254 0 0.4583333333333335 0.2862589489521611 0 0.4999999999999999 0.25 0 0.6249999999999999 0.2499999999999998 0 0.4999999999999994 0.2999999999999997 0 0.6250000000000003 0.3438750500400401 0 0.5416666666666666 0.25 0 0.5833333333333333 0.25 0 0.5000000000000001 0.2666666666666667 0 0.5000000000000002 0.2833333333333334 0 0.6249999999999999 0.2812916833466799 0 0.6249999999999999 0.3125833666933599 0 0.5416666666666671 0.3043884234282417 0 0.583333333333333 0.3181881314227379 0 0.5416666666666666 0.2681294744760805 0 0.5833333333333334 0.2727293771409128 0 0.5416666666666669 0.2862589489521611 0 0.5833333333333336 0.2954587542818254 0 0.625 0.2499999999999999 0 0.65612494995996 0.2499999999999998 0 0.6249999999999992 0.3438750500400396 0 0.6561249499599604 0.3750000000000002 0 0.6353749833199865 0.25 0 0.6457499666399732 0.25 0 0.625 0.28129168334668 0 0.6250000000000003 0.3125833666933601 0 0.6561249499599601 0.2916666666666667 0 0.65612494995996 0.3333333333333333 0 0.635374983319987 0.3527803889044896 0 0.645749966639973 0.363043995296129 0 0.6353749833199867 0.2842601296348298 0 0.6457499666399735 0.2876813317653765 0 0.6353749833199869 0.3185202592696598 0 0.6457499666399735 0.3253626635307529 0 0.65612494995996 0.2499999999999999 0 0.7499999999999999 0.2499999999999998 0 0.6561249499599593 0.3749999999999997 0 0.7500000000000003 0.3750000000000002 0 0.6874166333066399 0.25 0 0.7187083166533198 0.25 0 0.6561249499599601 0.2916666666666667 0 0.6561249499599604 0.3333333333333335 0 0.7499999999999999 0.2916666666666667 0 0.75 0.3333333333333333 0 0.6874166333066404 0.3750000000000001 0 0.7187083166533197 0.3749999999999998 0 0.6874166333066399 0.2916666666666667 0 0.7187083166533202 0.2916666666666668 0 0.6874166333066403 0.3333333333333334 0 0.7187083166533202 0.3333333333333334 0 0.25 0.3750000000000001 0 0.3438750500400399 0.3749999999999999 0 0.2499999999999997 0.4999999999999994 0 0.3000000000000002 0.5000000000000003 0 0.28129168334668 0.3750000000000002 0 0.3125833666933598 0.3749999999999999 0 0.2500000000000001 0.4166666666666669 0 0.2500000000000001 0.4583333333333335 0 0.318188131422738 0.4166666666666666 0 0.3043884234282416 0.4583333333333333 0 0.2666666666666669 0.5000000000000002 0 0.2833333333333332 0.4999999999999998 0 0.2727293771409127 0.4166666666666666 0 0.2954587542818253 0.4166666666666668 0 0.2681294744760807 0.4583333333333335 0 0.2862589489521612 0.4583333333333335 0 0.65612494995996 0.3750000000000001 0 0.7499999999999999 0.3749999999999999 0 0.6999999999999992 0.4999999999999994 0 0.7500000000000003 0.5000000000000003 0 0.6874166333066399 0.3750000000000002 0 0.7187083166533198 0.3749999999999999 0 0.6818118685772619 0.4166666666666669 0 0.6956115765717588 0.4583333333333335 0 0.7499999999999999 0.4166666666666666 0 0.75 0.4583333333333333 0 0.716666666666667 0.5000000000000002 0 0.7333333333333329 0.4999999999999998 0 0.7045412457181746 0.4166666666666666 0 0.7272706228590875 0.4166666666666668 0 0.7137410510478391 0.4583333333333335 0 0.7318705255239197 0.4583333333333335 0 0.25 0.4999999999999999 0 0.2999999999999999 0.4999999999999996 0 0.2499999999999997 0.6249999999999994 0 0.3438750500400401 0.6250000000000003 0 0.2666666666666667 0.5 0 0.2833333333333333 0.4999999999999999 0 0.2500000000000001 0.5416666666666667 0 0.2500000000000001 0.5833333333333337 0 0.3043884234282415 0.5416666666666665 0 0.318188131422738 0.5833333333333333 0 0.2812916833466802 0.6250000000000002 0 0.3125833666933598 0.6249999999999998 0 0.2681294744760805 0.5416666666666666 0 0.2862589489521611 0.5416666666666669 0 0.2727293771409128 0.5833333333333336 0 0.2954587542818254 0.5833333333333336 0 0.6999999999999998 0.4999999999999999 0 0.7499999999999999 0.4999999999999996 0 0.6561249499599593 0.6249999999999994 0 0.7500000000000003 0.6250000000000003 0 0.7166666666666666 0.5 0 0.7333333333333332 0.4999999999999999 0 0.6956115765717584 0.5416666666666667 0 0.6818118685772623 0.5833333333333337 0 0.7499999999999999 0.5416666666666665 0 0.7499999999999999 0.5833333333333333 0 0.6874166333066404 0.6250000000000002 0 0.7187083166533197 0.6249999999999998 0 0.7137410510478388 0.5416666666666666 0 0.7318705255239197 0.5416666666666669 0 0.7045412457181749 0.5833333333333336 0 0.7272706228590875 0.5833333333333336 0 0.2499999999999999 0.6249999999999999 0 0.3438750500400399 0.6249999999999999 0 0.2499999999999997 0.7499999999999992 0 0.3438750500400401 0.7500000000000003 0 0.28129168334668 0.6249999999999999 0 0.3125833666933599 0.6249999999999998 0 0.2500000000000001 0.6666666666666666 0 0.2500000000000001 0.7083333333333338 0 0.3438750500400399 0.6666666666666666 0 0.3438750500400399 0.7083333333333333 0 0.2812916833466802 0.7500000000000003 0 0.3125833666933598 0.7499999999999997 0 0.28129168334668 0.6666666666666665 0 0.31258336669336 0.6666666666666669 0 0.2812916833466801 0.7083333333333336 0 0.3125833666933601 0.7083333333333336 0 0.3438750500400399 0.6249999999999999 0 0.3749999999999999 0.65612494995996 0 0.3438750500400395 0.7499999999999992 0 0.3750000000000002 0.7500000000000003 0 0.3542500333600266 0.6369560047038707 0 0.3646250166800132 0.6472196110955103 0 0.3438750500400399 0.6666666666666666 0 0.3438750500400401 0.7083333333333338 0 0.3749999999999999 0.68741663330664 0 0.375 0.7187083166533199 0 0.3542500333600268 0.7500000000000003 0 0.3646250166800132 0.7499999999999997 0 0.3542500333600266 0.6746373364692471 0 0.3646250166800135 0.6814797407303406 0 0.3542500333600268 0.7123186682346239 0 0.3646250166800135 0.7157398703651704 0 0.3749999999999999 0.65612494995996 0 0.4999999999999999 0.7 0 0.3749999999999996 0.7499999999999992 0 0.5000000000000003 0.7500000000000003 0 0.4166666666666667 0.6818118685772619 0 0.4583333333333333 0.6956115765717582 0 0.3750000000000001 0.68741663330664 0 0.3750000000000002 0.7187083166533204 0 0.4999999999999999 0.7166666666666668 0 0.5 0.7333333333333334 0 0.4166666666666669 0.7500000000000003 0 0.4583333333333331 0.7499999999999997 0 0.4166666666666666 0.7045412457181746 0 0.4583333333333334 0.7137410510478392 0 0.4166666666666669 0.7272706228590875 0 0.4583333333333335 0.7318705255239197 0 0.4999999999999999 0.7 0 0.6249999999999999 0.65612494995996 0 0.4999999999999994 0.7499999999999992 0 0.6250000000000003 0.7500000000000003 0 0.5416666666666666 0.6956115765717583 0 0.5833333333333333 0.6818118685772618 0 0.5000000000000001 0.7166666666666667 0 0.5000000000000002 0.7333333333333337 0 0.6249999999999999 0.68741663330664 0 0.6249999999999999 0.7187083166533199 0 0.5416666666666671 0.7500000000000003 0 0.583333333333333 0.7499999999999997 0 0.5416666666666666 0.7137410510478389 0 0.5833333333333334 0.7045412457181749 0 0.5416666666666669 0.7318705255239197 0 0.5833333333333336 0.7272706228590876 0 0.625 0.65612494995996 0 0.65612494995996 0.6249999999999999 0 0.6249999999999992 0.7499999999999992 0 0.6561249499599604 0.7500000000000003 0 0.6353749833199865 0.6472196110955104 0 0.6457499666399732 0.6369560047038706 0 0.625 0.68741663330664 0 0.6250000000000003 0.7187083166533204 0 0.6561249499599601 0.6666666666666666 0 0.65612494995996 0.7083333333333333 0 0.635374983319987 0.7500000000000003 0 0.645749966639973 0.7499999999999997 0 0.6353749833199867 0.6814797407303402 0 0.6457499666399735 0.6746373364692474 0 0.6353749833199869 0.7157398703651704 0 0.6457499666399735 0.7123186682346239 0 0.65612494995996 0.6249999999999999 0 0.7499999999999999 0.6249999999999999 0 0.6561249499599593 0.7499999999999992 0 0.7500000000000003 0.7500000000000003 0 0.6874166333066399 0.6249999999999999 0 0.7187083166533198 0.6249999999999998 0 0.6561249499599601 0.6666666666666666 0 0.6561249499599604 0.7083333333333338 0 0.7499999999999999 0.6666666666666666 0 0.75 0.7083333333333333 0 0.6874166333066404 0.7500000000000003 0 0.7187083166533197 0.7499999999999997 0 0.6874166333066399 0.6666666666666665 0 0.7187083166533202 0.6666666666666669 0 0.6874166333066403 0.7083333333333336 0 0.7187083166533202 0.7083333333333336 0 -7.58941520739854e-18 -1.900967809091251e-17 0 0.125 -1.105886215935214e-17 0 -1.380550766298208e-17 0.1249999999999999 0 0.125 0.125 0 0.04166666666666666 2.111841203333054e-17 0 0.08333333333333334 -3.192936114903526e-18 0 1.235682762185626e-17 0.0416666666666667 0 1.409770538679005e-17 0.08333333333333336 0 0.1249999999999999 0.04166666666666666 0 0.125 0.08333333333333333 0 0.04166666666666672 0.125 0 0.08333333333333331 0.125 0 0.04166666666666666 0.04166666666666666 0 0.08333333333333331 0.04166666666666667 0 0.0416666666666667 0.08333333333333334 0 0.08333333333333333 0.08333333333333334 0 0.125 -1.900967809091251e-17 0 0.25 -1.105886215935214e-17 0 0.1249999999999999 0.1249999999999999 0 0.2500000000000001 0.125 0 0.1666666666666666 2.111841203333054e-17 0 0.2083333333333333 -3.192936114903526e-18 0 0.125 0.0416666666666667 0 0.1250000000000001 0.08333333333333336 0 0.2499999999999999 0.04166666666666666 0 0.25 0.08333333333333333 0 0.1666666666666668 0.125 0 0.2083333333333332 0.125 0 0.1666666666666667 0.04166666666666666 0 0.2083333333333333 0.04166666666666667 0 0.1666666666666667 0.08333333333333334 0 0.2083333333333334 0.08333333333333334 0 0.2499999999999999 -1.900967809091251e-17 0 0.3749999999999999 -1.105886215935214e-17 0 0.2499999999999997 0.1249999999999999 0 0.3750000000000001 0.125 0 0.2916666666666667 2.111841203333054e-17 0 0.3333333333333333 -3.192936114903526e-18 0 0.2500000000000001 0.0416666666666667 0 0.2500000000000002 0.08333333333333336 0 0.3749999999999999 0.04166666666666666 0 0.3749999999999999 0.08333333333333333 0 0.2916666666666669 0.125 0 0.3333333333333331 0.125 0 0.2916666666666667 0.04166666666666666 0 0.3333333333333334 0.04166666666666667 0 0.2916666666666668 0.08333333333333334 0 0.3333333333333334 0.08333333333333334 0 0.3749999999999999 -1.900967809091251e-17 0 0.4999999999999999 -1.105886215935214e-17 0 0.3749999999999996 0.1249999999999999 0 0.5000000000000003 0.125 0 0.4166666666666667 2.111841203333054e-17 0 0.4583333333333333 -3.192936114903526e-18 0 0.3750000000000001 0.0416666666666667 0 0.3750000000000002 0.08333333333333336 0 0.4999999999999999 0.04166666666666666 0 0.5 0.08333333333333333 0 0.4166666666666669 0.125 0 0.4583333333333331 0.125 0 0.4166666666666666 0.04166666666666666 0 0.4583333333333334 0.04166666666666667 0 0.4166666666666669 0.08333333333333334 0 0.4583333333333335 0.08333333333333334 0 0.4999999999999999 -1.900967809091251e-17 0 0.6249999999999999 -1.105886215935214e-17 0 0.4999999999999994 0.1249999999999999 0 0.6250000000000003 0.125 0 0.5416666666666666 2.111841203333054e-17 0 0.5833333333333333 -3.192936114903526e-18 0 0.5000000000000001 0.0416666666666667 0 0.5000000000000002 0.08333333333333336 0 0.6249999999999999 0.04166666666666666 0 0.6249999999999999 0.08333333333333333 0 0.5416666666666671 0.125 0 0.583333333333333 0.125 0 0.5416666666666666 0.04166666666666666 0 0.5833333333333334 0.04166666666666667 0 0.5416666666666669 0.08333333333333334 0 0.5833333333333336 0.08333333333333334 0 0.6249999999999999 -1.900967809091251e-17 0 0.7499999999999999 -1.105886215935214e-17 0 0.6249999999999992 0.1249999999999999 0 0.7500000000000003 0.125 0 0.6666666666666665 2.111841203333054e-17 0 0.7083333333333331 -3.192936114903526e-18 0 0.625 0.0416666666666667 0 0.6250000000000004 0.08333333333333336 0 0.7499999999999999 0.04166666666666666 0 0.7499999999999999 0.08333333333333333 0 0.666666666666667 0.125 0 0.708333333333333 0.125 0 0.6666666666666665 0.04166666666666666 0 0.7083333333333336 0.04166666666666667 0 0.6666666666666669 0.08333333333333334 0 0.7083333333333336 0.08333333333333334 0 0.75 -1.900967809091251e-17 0 0.8749999999999999 -1.105886215935214e-17 0 0.7499999999999992 0.1249999999999999 0 0.8750000000000003 0.125 0 0.7916666666666667 2.111841203333054e-17 0 0.8333333333333331 -3.192936114903526e-18 0 0.7500000000000002 0.0416666666666667 0 0.7500000000000004 0.08333333333333336 0 0.8749999999999998 0.04166666666666666 0 0.8749999999999999 0.08333333333333333 0 0.791666666666667 0.125 0 0.8333333333333329 0.125 0 0.7916666666666665 0.04166666666666666 0 0.8333333333333336 0.04166666666666667 0 0.791666666666667 0.08333333333333334 0 0.8333333333333337 0.08333333333333334 0 0.8750000000000001 -1.900967809091251e-17 0 0.9999999999999998 -1.105886215935214e-17 0 0.8749999999999989 0.1249999999999999 0 1.000000000000001 0.125 0 0.9166666666666666 2.111841203333054e-17 0 0.9583333333333331 -3.192936114903526e-18 0 0.8750000000000002 0.0416666666666667 0 0.8750000000000004 0.08333333333333336 0 0.9999999999999998 0.04166666666666666 0 0.9999999999999999 0.08333333333333333 0 0.9166666666666671 0.125 0 0.9583333333333329 0.125 0 0.9166666666666665 0.04166666666666666 0 0.9583333333333337 0.04166666666666667 0 0.916666666666667 0.08333333333333334 0 0.9583333333333337 0.08333333333333334 0 -7.58941520739854e-18 0.125 0 0.125 0.1249999999999999 0 -1.380550766298208e-17 0.2499999999999998 0 0.125 0.2500000000000002 0 0.04166666666666666 0.125 0 0.08333333333333334 0.1249999999999999 0 1.235682762185626e-17 0.1666666666666667 0 1.409770538679005e-17 0.2083333333333334 0 0.1249999999999999 0.1666666666666666 0 0.125 0.2083333333333333 0 0.04166666666666672 0.2500000000000001 0 0.08333333333333331 0.2499999999999999 0 0.04166666666666666 0.1666666666666667 0 0.08333333333333331 0.1666666666666667 0 0.0416666666666667 0.2083333333333334 0 0.08333333333333333 0.2083333333333334 0 0.125 0.125 0 0.25 0.1249999999999999 0 0.1249999999999999 0.2499999999999998 0 0.2500000000000001 0.2500000000000002 0 0.1666666666666666 0.125 0 0.2083333333333333 0.1249999999999999 0 0.125 0.1666666666666667 0 0.1250000000000001 0.2083333333333334 0 0.2499999999999999 0.1666666666666666 0 0.25 0.2083333333333333 0 0.1666666666666668 0.2500000000000001 0 0.2083333333333332 0.2499999999999999 0 0.1666666666666667 0.1666666666666667 0 0.2083333333333333 0.1666666666666667 0 0.1666666666666667 0.2083333333333334 0 0.2083333333333334 0.2083333333333334 0 0.2499999999999999 0.125 0 0.3749999999999999 0.1249999999999999 0 0.2499999999999997 0.2499999999999998 0 0.3750000000000001 0.2500000000000002 0 0.2916666666666667 0.125 0 0.3333333333333333 0.1249999999999999 0 0.2500000000000001 0.1666666666666667 0 0.2500000000000002 0.2083333333333334 0 0.3749999999999999 0.1666666666666666 0 0.3749999999999999 0.2083333333333333 0 0.2916666666666669 0.2500000000000001 0 0.3333333333333331 0.2499999999999999 0 0.2916666666666667 0.1666666666666667 0 0.3333333333333334 0.1666666666666667 0 0.2916666666666668 0.2083333333333334 0 0.3333333333333334 0.2083333333333334 0 0.3749999999999999 0.125 0 0.4999999999999999 0.1249999999999999 0 0.3749999999999996 0.2499999999999998 0 0.5000000000000003 0.2500000000000002 0 0.4166666666666667 0.125 0 0.4583333333333333 0.1249999999999999 0 0.3750000000000001 0.1666666666666667 0 0.3750000000000002 0.2083333333333334 0 0.4999999999999999 0.1666666666666666 0 0.5 0.2083333333333333 0 0.4166666666666669 0.2500000000000001 0 0.4583333333333331 0.2499999999999999 0 0.4166666666666666 0.1666666666666667 0 0.4583333333333334 0.1666666666666667 0 0.4166666666666669 0.2083333333333334 0 0.4583333333333335 0.2083333333333334 0 0.4999999999999999 0.125 0 0.6249999999999999 0.1249999999999999 0 0.4999999999999994 0.2499999999999998 0 0.6250000000000003 0.2500000000000002 0 0.5416666666666666 0.125 0 0.5833333333333333 0.1249999999999999 0 0.5000000000000001 0.1666666666666667 0 0.5000000000000002 0.2083333333333334 0 0.6249999999999999 0.1666666666666666 0 0.6249999999999999 0.2083333333333333 0 0.5416666666666671 0.2500000000000001 0 0.583333333333333 0.2499999999999999 0 0.5416666666666666 0.1666666666666667 0 0.5833333333333334 0.1666666666666667 0 0.5416666666666669 0.2083333333333334 0 0.5833333333333336 0.2083333333333334 0 0.6249999999999999 0.125 0 0.7499999999999999 0.1249999999999999 0 0.6249999999999992 0.2499999999999998 0 0.7500000000000003 0.2500000000000002 0 0.6666666666666665 0.125 0 0.7083333333333331 0.1249999999999999 0 0.625 0.1666666666666667 0 0.6250000000000004 0.2083333333333334 0 0.7499999999999999 0.1666666666666666 0 0.7499999999999999 0.2083333333333333 0 0.666666666666667 0.2500000000000001 0 0.708333333333333 0.2499999999999999 0 0.6666666666666665 0.1666666666666667 0 0.7083333333333336 0.1666666666666667 0 0.6666666666666669 0.2083333333333334 0 0.7083333333333336 0.2083333333333334 0 0.75 0.125 0 0.8749999999999999 0.1249999999999999 0 0.7499999999999992 0.2499999999999998 0 0.8750000000000003 0.2500000000000002 0 0.7916666666666667 0.125 0 0.8333333333333331 0.1249999999999999 0 0.7500000000000002 0.1666666666666667 0 0.7500000000000004 0.2083333333333334 0 0.8749999999999998 0.1666666666666666 0 0.8749999999999999 0.2083333333333333 0 0.791666666666667 0.2500000000000001 0 0.8333333333333329 0.2499999999999999 0 0.7916666666666665 0.1666666666666667 0 0.8333333333333336 0.1666666666666667 0 0.791666666666667 0.2083333333333334 0 0.8333333333333337 0.2083333333333334 0 0.8750000000000001 0.125 0 0.9999999999999998 0.1249999999999999 0 0.8749999999999989 0.2499999999999998 0 1.000000000000001 0.2500000000000002 0 0.9166666666666666 0.125 0 0.9583333333333331 0.1249999999999999 0 0.8750000000000002 0.1666666666666667 0 0.8750000000000004 0.2083333333333334 0 0.9999999999999998 0.1666666666666666 0 0.9999999999999999 0.2083333333333333 0 0.9166666666666671 0.2500000000000001 0 0.9583333333333329 0.2499999999999999 0 0.9166666666666665 0.1666666666666667 0 0.9583333333333337 0.1666666666666667 0 0.916666666666667 0.2083333333333334 0 0.9583333333333337 0.2083333333333334 0 -7.58941520739854e-18 0.2499999999999999 0 0.125 0.2499999999999998 0 -1.380550766298208e-17 0.3749999999999997 0 0.125 0.3750000000000002 0 0.04166666666666666 0.25 0 0.08333333333333334 0.25 0 1.235682762185626e-17 0.2916666666666667 0 1.409770538679005e-17 0.3333333333333335 0 0.1249999999999999 0.2916666666666667 0 0.125 0.3333333333333333 0 0.04166666666666672 0.3750000000000001 0 0.08333333333333331 0.3749999999999998 0 0.04166666666666666 0.2916666666666667 0 0.08333333333333331 0.2916666666666668 0 0.0416666666666667 0.3333333333333334 0 0.08333333333333333 0.3333333333333334 0 0.125 0.2499999999999999 0 0.25 0.2499999999999998 0 0.1249999999999999 0.3749999999999997 0 0.2500000000000001 0.3750000000000002 0 0.1666666666666666 0.25 0 0.2083333333333333 0.25 0 0.125 0.2916666666666667 0 0.1250000000000001 0.3333333333333335 0 0.2499999999999999 0.2916666666666667 0 0.25 0.3333333333333333 0 0.1666666666666668 0.3750000000000001 0 0.2083333333333332 0.3749999999999998 0 0.1666666666666667 0.2916666666666667 0 0.2083333333333333 0.2916666666666668 0 0.1666666666666667 0.3333333333333334 0 0.2083333333333334 0.3333333333333334 0 0.75 0.2499999999999999 0 0.8749999999999999 0.2499999999999998 0 0.7499999999999992 0.3749999999999997 0 0.8750000000000003 0.3750000000000002 0 0.7916666666666667 0.25 0 0.8333333333333331 0.25 0 0.7500000000000002 0.2916666666666667 0 0.7500000000000004 0.3333333333333335 0 0.8749999999999998 0.2916666666666667 0 0.8749999999999999 0.3333333333333333 0 0.791666666666667 0.3750000000000001 0 0.8333333333333329 0.3749999999999998 0 0.7916666666666665 0.2916666666666667 0 0.8333333333333336 0.2916666666666668 0 0.791666666666667 0.3333333333333334 0 0.8333333333333337 0.3333333333333334 0 0.8750000000000001 0.2499999999999999 0 0.9999999999999998 0.2499999999999998 0 0.8749999999999989 0.3749999999999997 0 1.000000000000001 0.3750000000000002 0 0.9166666666666666 0.25 0 0.9583333333333331 0.25 0 0.8750000000000002 0.2916666666666667 0 0.8750000000000004 0.3333333333333335 0 0.9999999999999998 0.2916666666666667 0 0.9999999999999999 0.3333333333333333 0 0.9166666666666671 0.3750000000000001 0 0.9583333333333329 0.3749999999999998 0 0.9166666666666665 0.2916666666666667 0 0.9583333333333337 0.2916666666666668 0 0.916666666666667 0.3333333333333334 0 0.9583333333333337 0.3333333333333334 0 -7.58941520739854e-18 0.3750000000000001 0 0.125 0.3749999999999999 0 -1.380550766298208e-17 0.4999999999999994 0 0.125 0.5000000000000003 0 0.04166666666666666 0.3750000000000002 0 0.08333333333333334 0.3749999999999999 0 1.235682762185626e-17 0.4166666666666669 0 1.409770538679005e-17 0.4583333333333335 0 0.1249999999999999 0.4166666666666666 0 0.125 0.4583333333333333 0 0.04166666666666672 0.5000000000000002 0 0.08333333333333331 0.4999999999999998 0 0.04166666666666666 0.4166666666666666 0 0.08333333333333331 0.4166666666666668 0 0.0416666666666667 0.4583333333333335 0 0.08333333333333333 0.4583333333333335 0 0.125 0.3750000000000001 0 0.25 0.3749999999999999 0 0.1249999999999999 0.4999999999999994 0 0.2500000000000001 0.5000000000000003 0 0.1666666666666666 0.3750000000000002 0 0.2083333333333333 0.3749999999999999 0 0.125 0.4166666666666669 0 0.1250000000000001 0.4583333333333335 0 0.2499999999999999 0.4166666666666666 0 0.25 0.4583333333333333 0 0.1666666666666668 0.5000000000000002 0 0.2083333333333332 0.4999999999999998 0 0.1666666666666667 0.4166666666666666 0 0.2083333333333333 0.4166666666666668 0 0.1666666666666667 0.4583333333333335 0 0.2083333333333334 0.4583333333333335 0 0.75 0.3750000000000001 0 0.8749999999999999 0.3749999999999999 0 0.7499999999999992 0.4999999999999994 0 0.8750000000000003 0.5000000000000003 0 0.7916666666666667 0.3750000000000002 0 0.8333333333333331 0.3749999999999999 0 0.7500000000000002 0.4166666666666669 0 0.7500000000000004 0.4583333333333335 0 0.8749999999999998 0.4166666666666666 0 0.8749999999999999 0.4583333333333333 0 0.791666666666667 0.5000000000000002 0 0.8333333333333329 0.4999999999999998 0 0.7916666666666665 0.4166666666666666 0 0.8333333333333336 0.4166666666666668 0 0.791666666666667 0.4583333333333335 0 0.8333333333333337 0.4583333333333335 0 0.8750000000000001 0.3750000000000001 0 0.9999999999999998 0.3749999999999999 0 0.8749999999999989 0.4999999999999994 0 1.000000000000001 0.5000000000000003 0 0.9166666666666666 0.3750000000000002 0 0.9583333333333331 0.3749999999999999 0 0.8750000000000002 0.4166666666666669 0 0.8750000000000004 0.4583333333333335 0 0.9999999999999998 0.4166666666666666 0 0.9999999999999999 0.4583333333333333 0 0.9166666666666671 0.5000000000000002 0 0.9583333333333329 0.4999999999999998 0 0.9166666666666665 0.4166666666666666 0 0.9583333333333337 0.4166666666666668 0 0.916666666666667 0.4583333333333335 0 0.9583333333333337 0.4583333333333335 0 -7.58941520739854e-18 0.4999999999999999 0 0.125 0.4999999999999996 0 -1.380550766298208e-17 0.6249999999999994 0 0.125 0.6250000000000003 0 0.04166666666666666 0.5 0 0.08333333333333334 0.4999999999999999 0 1.235682762185626e-17 0.5416666666666667 0 1.409770538679005e-17 0.5833333333333337 0 0.1249999999999999 0.5416666666666665 0 0.125 0.5833333333333333 0 0.04166666666666672 0.6250000000000002 0 0.08333333333333331 0.6249999999999998 0 0.04166666666666666 0.5416666666666666 0 0.08333333333333331 0.5416666666666669 0 0.0416666666666667 0.5833333333333336 0 0.08333333333333333 0.5833333333333336 0 0.125 0.4999999999999999 0 0.25 0.4999999999999996 0 0.1249999999999999 0.6249999999999994 0 0.2500000000000001 0.6250000000000003 0 0.1666666666666666 0.5 0 0.2083333333333333 0.4999999999999999 0 0.125 0.5416666666666667 0 0.1250000000000001 0.5833333333333337 0 0.2499999999999999 0.5416666666666665 0 0.25 0.5833333333333333 0 0.1666666666666668 0.6250000000000002 0 0.2083333333333332 0.6249999999999998 0 0.1666666666666667 0.5416666666666666 0 0.2083333333333333 0.5416666666666669 0 0.1666666666666667 0.5833333333333336 0 0.2083333333333334 0.5833333333333336 0 0.75 0.4999999999999999 0 0.8749999999999999 0.4999999999999996 0 0.7499999999999992 0.6249999999999994 0 0.8750000000000003 0.6250000000000003 0 0.7916666666666667 0.5 0 0.8333333333333331 0.4999999999999999 0 0.7500000000000002 0.5416666666666667 0 0.7500000000000004 0.5833333333333337 0 0.8749999999999998 0.5416666666666665 0 0.8749999999999999 0.5833333333333333 0 0.791666666666667 0.6250000000000002 0 0.8333333333333329 0.6249999999999998 0 0.7916666666666665 0.5416666666666666 0 0.8333333333333336 0.5416666666666669 0 0.791666666666667 0.5833333333333336 0 0.8333333333333337 0.5833333333333336 0 0.8750000000000001 0.4999999999999999 0 0.9999999999999998 0.4999999999999996 0 0.8749999999999989 0.6249999999999994 0 1.000000000000001 0.6250000000000003 0 0.9166666666666666 0.5 0 0.9583333333333331 0.4999999999999999 0 0.8750000000000002 0.5416666666666667 0 0.8750000000000004 0.5833333333333337 0 0.9999999999999998 0.5416666666666665 0 0.9999999999999999 0.5833333333333333 0 0.9166666666666671 0.6250000000000002 0 0.9583333333333329 0.6249999999999998 0 0.9166666666666665 0.5416666666666666 0 0.9583333333333337 0.5416666666666669 0 0.916666666666667 0.5833333333333336 0 0.9583333333333337 0.5833333333333336 0 -7.58941520739854e-18 0.6249999999999999 0 0.125 0.6249999999999999 0 -1.380550766298208e-17 0.7499999999999992 0 0.125 0.7500000000000003 0 0.04166666666666666 0.6249999999999999 0 0.08333333333333334 0.6249999999999998 0 1.235682762185626e-17 0.6666666666666666 0 1.409770538679005e-17 0.7083333333333338 0 0.1249999999999999 0.6666666666666666 0 0.125 0.7083333333333333 0 0.04166666666666672 0.7500000000000003 0 0.08333333333333331 0.7499999999999997 0 0.04166666666666666 0.6666666666666665 0 0.08333333333333331 0.6666666666666669 0 0.0416666666666667 0.7083333333333336 0 0.08333333333333333 0.7083333333333336 0 0.125 0.6249999999999999 0 0.25 0.6249999999999999 0 0.1249999999999999 0.7499999999999992 0 0.2500000000000001 0.7500000000000003 0 0.1666666666666666 0.6249999999999999 0 0.2083333333333333 0.6249999999999998 0 0.125 0.6666666666666666 0 0.1250000000000001 0.7083333333333338 0 0.2499999999999999 0.6666666666666666 0 0.25 0.7083333333333333 0 0.1666666666666668 0.7500000000000003 0 0.2083333333333332 0.7499999999999997 0 0.1666666666666667 0.6666666666666665 0 0.2083333333333333 0.6666666666666669 0 0.1666666666666667 0.7083333333333336 0 0.2083333333333334 0.7083333333333336 0 0.75 0.6249999999999999 0 0.8749999999999999 0.6249999999999999 0 0.7499999999999992 0.7499999999999992 0 0.8750000000000003 0.7500000000000003 0 0.7916666666666667 0.6249999999999999 0 0.8333333333333331 0.6249999999999998 0 0.7500000000000002 0.6666666666666666 0 0.7500000000000004 0.7083333333333338 0 0.8749999999999998 0.6666666666666666 0 0.8749999999999999 0.7083333333333333 0 0.791666666666667 0.7500000000000003 0 0.8333333333333329 0.7499999999999997 0 0.7916666666666665 0.6666666666666665 0 0.8333333333333336 0.6666666666666669 0 0.791666666666667 0.7083333333333336 0 0.8333333333333337 0.7083333333333336 0 0.8750000000000001 0.6249999999999999 0 0.9999999999999998 0.6249999999999999 0 0.8749999999999989 0.7499999999999992 0 1.000000000000001 0.7500000000000003 0 0.9166666666666666 0.6249999999999999 0 0.9583333333333331 0.6249999999999998 0 0.8750000000000002 0.6666666666666666 0 0.8750000000000004 0.7083333333333338 0 0.9999999999999998 0.6666666666666666 0 0.9999999999999999 0.7083333333333333 0 0.9166666666666671 0.7500000000000003 0 0.9583333333333329 0.7499999999999997 0 0.9166666666666665 0.6666666666666665 0 0.9583333333333337 0.6666666666666669 0 0.916666666666667 0.7083333333333336 0 0.9583333333333337 0.7083333333333336 0 -7.58941520739854e-18 0.7500000000000001 0 0.125 0.7499999999999999 0 -1.380550766298208e-17 0.8749999999999992 0 0.125 0.8750000000000003 0 0.04166666666666666 0.7500000000000001 0 0.08333333333333334 0.7499999999999998 0 1.235682762185626e-17 0.7916666666666669 0 1.409770538679005e-17 0.8333333333333337 0 0.1249999999999999 0.7916666666666664 0 0.125 0.8333333333333333 0 0.04166666666666672 0.8750000000000003 0 0.08333333333333331 0.8749999999999996 0 0.04166666666666666 0.7916666666666665 0 0.08333333333333331 0.7916666666666669 0 0.0416666666666667 0.8333333333333336 0 0.08333333333333333 0.8333333333333337 0 0.125 0.7500000000000001 0 0.25 0.7499999999999999 0 0.1249999999999999 0.8749999999999992 0 0.2500000000000001 0.8750000000000003 0 0.1666666666666666 0.7500000000000001 0 0.2083333333333333 0.7499999999999998 0 0.125 0.7916666666666669 0 0.1250000000000001 0.8333333333333337 0 0.2499999999999999 0.7916666666666664 0 0.25 0.8333333333333333 0 0.1666666666666668 0.8750000000000003 0 0.2083333333333332 0.8749999999999996 0 0.1666666666666667 0.7916666666666665 0 0.2083333333333333 0.7916666666666669 0 0.1666666666666667 0.8333333333333336 0 0.2083333333333334 0.8333333333333337 0 0.2499999999999999 0.7500000000000001 0 0.3749999999999999 0.7499999999999999 0 0.2499999999999997 0.8749999999999992 0 0.3750000000000001 0.8750000000000003 0 0.2916666666666667 0.7500000000000001 0 0.3333333333333333 0.7499999999999998 0 0.2500000000000001 0.7916666666666669 0 0.2500000000000002 0.8333333333333337 0 0.3749999999999999 0.7916666666666664 0 0.3749999999999999 0.8333333333333333 0 0.2916666666666669 0.8750000000000003 0 0.3333333333333331 0.8749999999999996 0 0.2916666666666667 0.7916666666666665 0 0.3333333333333334 0.7916666666666669 0 0.2916666666666668 0.8333333333333336 0 0.3333333333333334 0.8333333333333337 0 0.3749999999999999 0.7500000000000001 0 0.4999999999999999 0.7499999999999999 0 0.3749999999999996 0.8749999999999992 0 0.5000000000000003 0.8750000000000003 0 0.4166666666666667 0.7500000000000001 0 0.4583333333333333 0.7499999999999998 0 0.3750000000000001 0.7916666666666669 0 0.3750000000000002 0.8333333333333337 0 0.4999999999999999 0.7916666666666664 0 0.5 0.8333333333333333 0 0.4166666666666669 0.8750000000000003 0 0.4583333333333331 0.8749999999999996 0 0.4166666666666666 0.7916666666666665 0 0.4583333333333334 0.7916666666666669 0 0.4166666666666669 0.8333333333333336 0 0.4583333333333335 0.8333333333333337 0 0.4999999999999999 0.7500000000000001 0 0.6249999999999999 0.7499999999999999 0 0.4999999999999994 0.8749999999999992 0 0.6250000000000003 0.8750000000000003 0 0.5416666666666666 0.7500000000000001 0 0.5833333333333333 0.7499999999999998 0 0.5000000000000001 0.7916666666666669 0 0.5000000000000002 0.8333333333333337 0 0.6249999999999999 0.7916666666666664 0 0.6249999999999999 0.8333333333333333 0 0.5416666666666671 0.8750000000000003 0 0.583333333333333 0.8749999999999996 0 0.5416666666666666 0.7916666666666665 0 0.5833333333333334 0.7916666666666669 0 0.5416666666666669 0.8333333333333336 0 0.5833333333333336 0.8333333333333337 0 0.6249999999999999 0.7500000000000001 0 0.7499999999999999 0.7499999999999999 0 0.6249999999999992 0.8749999999999992 0 0.7500000000000003 0.8750000000000003 0 0.6666666666666665 0.7500000000000001 0 0.7083333333333331 0.7499999999999998 0 0.625 0.7916666666666669 0 0.6250000000000004 0.8333333333333337 0 0.7499999999999999 0.7916666666666664 0 0.7499999999999999 0.8333333333333333 0 0.666666666666667 0.8750000000000003 0 0.708333333333333 0.8749999999999996 0 0.6666666666666665 0.7916666666666665 0 0.7083333333333336 0.7916666666666669 0 0.6666666666666669 0.8333333333333336 0 0.7083333333333336 0.8333333333333337 0 0.75 0.7500000000000001 0 0.8749999999999999 0.7499999999999999 0 0.7499999999999992 0.8749999999999992 0 0.8750000000000003 0.8750000000000003 0 0.7916666666666667 0.7500000000000001 0 0.8333333333333331 0.7499999999999998 0 0.7500000000000002 0.7916666666666669 0 0.7500000000000004 0.8333333333333337 0 0.8749999999999998 0.7916666666666664 0 0.8749999999999999 0.8333333333333333 0 0.791666666666667 0.8750000000000003 0 0.8333333333333329 0.8749999999999996 0 0.7916666666666665 0.7916666666666665 0 0.8333333333333336 0.7916666666666669 0 0.791666666666667 0.8333333333333336 0 0.8333333333333337 0.8333333333333337 0 0.8750000000000001 0.7500000000000001 0 0.9999999999999998 0.7499999999999999 0 0.8749999999999989 0.8749999999999992 0 1.000000000000001 0.8750000000000003 0 0.9166666666666666 0.7500000000000001 0 0.9583333333333331 0.7499999999999998 0 0.8750000000000002 0.7916666666666669 0 0.8750000000000004 0.8333333333333337 0 0.9999999999999998 0.7916666666666664 0 0.9999999999999999 0.8333333333333333 0 0.9166666666666671 0.8750000000000003 0 0.9583333333333329 0.8749999999999996 0 0.9166666666666665 0.7916666666666665 0 0.9583333333333337 0.7916666666666669 0 0.916666666666667 0.8333333333333336 0 0.9583333333333337 0.8333333333333337 0 -7.58941520739854e-18 0.8750000000000001 0 0.125 0.8749999999999998 0 -1.380550766298208e-17 0.9999999999999989 0 0.125 1.000000000000001 0 0.04166666666666666 0.8750000000000003 0 0.08333333333333334 0.8749999999999999 0 1.235682762185626e-17 0.916666666666667 0 1.409770538679005e-17 0.9583333333333338 0 0.1249999999999999 0.9166666666666664 0 0.125 0.9583333333333333 0 0.04166666666666672 1 0 0.08333333333333331 0.9999999999999996 0 0.04166666666666666 0.9166666666666665 0 0.08333333333333331 0.916666666666667 0 0.0416666666666667 0.9583333333333337 0 0.08333333333333333 0.9583333333333337 0 0.125 0.8750000000000001 0 0.25 0.8749999999999998 0 0.1249999999999999 0.9999999999999989 0 0.2500000000000001 1.000000000000001 0 0.1666666666666666 0.8750000000000003 0 0.2083333333333333 0.8749999999999999 0 0.125 0.916666666666667 0 0.1250000000000001 0.9583333333333338 0 0.2499999999999999 0.9166666666666664 0 0.25 0.9583333333333333 0 0.1666666666666668 1 0 0.2083333333333332 0.9999999999999996 0 0.1666666666666667 0.9166666666666665 0 0.2083333333333333 0.916666666666667 0 0.1666666666666667 0.9583333333333337 0 0.2083333333333334 0.9583333333333337 0 0.2499999999999999 0.8750000000000001 0 0.3749999999999999 0.8749999999999998 0 0.2499999999999997 0.9999999999999989 0 0.3750000000000001 1.000000000000001 0 0.2916666666666667 0.8750000000000003 0 0.3333333333333333 0.8749999999999999 0 0.2500000000000001 0.916666666666667 0 0.2500000000000002 0.9583333333333338 0 0.3749999999999999 0.9166666666666664 0 0.3749999999999999 0.9583333333333333 0 0.2916666666666669 1 0 0.3333333333333331 0.9999999999999996 0 0.2916666666666667 0.9166666666666665 0 0.3333333333333334 0.916666666666667 0 0.2916666666666668 0.9583333333333337 0 0.3333333333333334 0.9583333333333337 0 0.3749999999999999 0.8750000000000001 0 0.4999999999999999 0.8749999999999998 0 0.3749999999999996 0.9999999999999989 0 0.5000000000000003 1.000000000000001 0 0.4166666666666667 0.8750000000000003 0 0.4583333333333333 0.8749999999999999 0 0.3750000000000001 0.916666666666667 0 0.3750000000000002 0.9583333333333338 0 0.4999999999999999 0.9166666666666664 0 0.5 0.9583333333333333 0 0.4166666666666669 1 0 0.4583333333333331 0.9999999999999996 0 0.4166666666666666 0.9166666666666665 0 0.4583333333333334 0.916666666666667 0 0.4166666666666669 0.9583333333333337 0 0.4583333333333335 0.9583333333333337 0 0.4999999999999999 0.8750000000000001 0 0.6249999999999999 0.8749999999999998 0 0.4999999999999994 0.9999999999999989 0 0.6250000000000003 1.000000000000001 0 0.5416666666666666 0.8750000000000003 0 0.5833333333333333 0.8749999999999999 0 0.5000000000000001 0.916666666666667 0 0.5000000000000002 0.9583333333333338 0 0.6249999999999999 0.9166666666666664 0 0.6249999999999999 0.9583333333333333 0 0.5416666666666671 1 0 0.583333333333333 0.9999999999999996 0 0.5416666666666666 0.9166666666666665 0 0.5833333333333334 0.916666666666667 0 0.5416666666666669 0.9583333333333337 0 0.5833333333333336 0.9583333333333337 0 0.6249999999999999 0.8750000000000001 0 0.7499999999999999 0.8749999999999998 0 0.6249999999999992 0.9999999999999989 0 0.7500000000000003 1.000000000000001 0 0.6666666666666665 0.8750000000000003 0 0.7083333333333331 0.8749999999999999 0 0.625 0.916666666666667 0 0.6250000000000004 0.9583333333333338 0 0.7499999999999999 0.9166666666666664 0 0.7499999999999999 0.9583333333333333 0 0.666666666666667 1 0 0.708333333333333 0.9999999999999996 0 0.6666666666666665 0.9166666666666665 0 0.7083333333333336 0.916666666666667 0 0.6666666666666669 0.9583333333333337 0 0.7083333333333336 0.9583333333333337 0 0.75 0.8750000000000001 0 0.8749999999999999 0.8749999999999998 0 0.7499999999999992 0.9999999999999989 0 0.8750000000000003 1.000000000000001 0 0.7916666666666667 0.8750000000000003 0 0.8333333333333331 0.8749999999999999 0 0.7500000000000002 0.916666666666667 0 0.7500000000000004 0.9583333333333338 0 0.8749999999999998 0.9166666666666664 0 0.8749999999999999 0.9583333333333333 0 0.791666666666667 1 0 0.8333333333333329 0.9999999999999996 0 0.7916666666666665 0.9166666666666665 0 0.8333333333333336 0.916666666666667 0 0.791666666666667 0.9583333333333337 0 0.8333333333333337 0.9583333333333337 0 0.8750000000000001 0.8750000000000001 0 0.9999999999999998 0.8749999999999998 0 0.8749999999999989 0.9999999999999989 0 1.000000000000001 1.000000000000001 0 0.9166666666666666 0.8750000000000003 0 0.9583333333333331 0.8749999999999999 0 0.8750000000000002 0.916666666666667 0 0.8750000000000004 0.9583333333333338 0 0.9999999999999998 0.9166666666666664 0 0.9999999999999999 0.9583333333333333 0 0.9166666666666671 1 0 0.9583333333333329 0.9999999999999996 0 0.9166666666666665 0.9166666666666665 0 0.9583333333333337 0.916666666666667 0 0.916666666666667 0.9583333333333337 0 0.9583333333333337 0.9583333333333337 0 </DataArray>
      </Points>
      <Cells>
        <DataArray type="Int32" Name="connectivity" format="ascii">0 1 3 2 4 5 8 9 10 11 6 7 12 13 14 15 16 17 19 18 20 21 24 25 26 27 22 23 28 29 30 31 32 33 35 34 36 37 40 41 42 43 38 39 44 45 46 47 48 49 51 50 52 53 56 57 58 59 54 55 60 61 62 63 64 65 67 66 68 69 72 73 74 75 70 71 76 77 78 79 80 81 83 82 84 85 88 89 90 91 86 87 92 93 94 95 96 97 99 98 100 101 104 105 106 107 102 103 108 109 110 111 112 113 115 114 116 117 120 121 122 123 118 119 124 125 126 127 128 129 131 130 132 133 136 137 138 139 134 135 140 141 142 143 144 145 147 146 148 149 152 153 154 155 150 151 156 157 158 159 160 161 163 162 164 165 168 169 170 171 166 167 172 173 174 175 176 177 179 178 180 181 184 185 186 187 182 183 188 189 190 191 192 193 195 194 196 197 200 201 202 203 198 199 204 205 206 207 208 209 211 210 212 213 216 217 218 219 214 215 220 221 222 223 224 225 227 226 228 229 232 233 234 235 230 231 236 237 238 239 240 241 243 242 244 245 248 249 250 251 246 247 252 253 254 255 256 257 259 258 260 261 264 265 266 267 262 263 268 269 270 271 272 273 275 274 276 277 280 281 282 283 278 279 284 285 286 287 288 289 291 290 292 293 296 297 298 299 294 295 300 301 302 303 304 305 307 306 308 309 312 313 314 315 310 311 316 317 318 319 320 321 323 322 324 325 328 329 330 331 326 327 332 333 334 335 336 337 339 338 340 341 344 345 346 347 342 343 348 349 350 351 352 353 355 354 356 357 360 361 362 363 358 359 364 365 366 367 368 369 371 370 372 373 376 377 378 379 374 375 380 381 382 383 384 385 387 386 388 389 392 393 394 395 390 391 396 397 398 399 400 401 403 402 404 405 408 409 410 411 406 407 412 413 414 415 416 417 419 418 420 421 424 425 426 427 422 423 428 429 430 431 432 433 435 434 436 437 440 441 442 443 438 439 444 445 446 447 448 449 451 450 452 453 456 457 458 459 454 455 460 461 462 463 464 465 467 466 468 469 472 473 474 475 470 471 476 477 478 479 480 481 483 482 484 485 488 489 490 491 486 487 492 493 494 495 496 497 499 498 500 501 504 505 506 507 502 503 508 509 510 511 512 513 515 514 516 517 520 521 522 523 518 519 524 525 526 527 528 529 531 530 532 533 536 537 538 539 534 535 540 541 542 543 544 545 547 546 548 549 552 553 554 555 550 551 556 557 558 559 560 561 563 562 564 565 568 569 570 571 566 567 572 573 574 575 576 577 579 578 580 581 584 585 586 587 582 583 588 589 590 591 592 593 595 594 596 597 600 601 602 603 598 599 604 605 606 607 608 609 611 610 612 613 616 617 618 619 614 615 620 621 622 623 624 625 627 626 628 629 632 633 634 635 630 631 636 637 638 639 640 641 643 642 644 645 648 649 650 651 646 647 652 653 654 655 656 657 659 658 660 661 664 665 666 667 662 663 668 669 670 671 672 673 675 674 676 677 680 681 682 683 678 679 684 685 686 687 688 689 691 690 692 693 696 697 698 699 694 695 700 701 702 703 704 705 707 706 708 709 712 713 714 715 710 711 716 717 718 719 720 721 723 722 724 725 728 729 730 731 726 727 732 733 734 735 736 737 739 738 740 741 744 745 746 747 742 743 748 749 750 751 752 753 755 754 756 757 760 761 762 763 758 759 764 765 766 767 768 769 771 770 772 773 776 777 778 779 774 775 780 781 782 783 784 785 787 786 788 789 792 793 794 795 790 791 796 797 798 799 800 801 803 802 804 805 808 809 810 811 806 807 812 813 814 815 816 817 819 818 820 821 824 825 826 827 822 823 828 829 830 831 832 833 835 834 836 837 840 841 842 843 838 839 844 845 846 847 848 849 851 850 852 853 856 857 858 859 854 855 860 861 862 863 864 865 867 866 868 869 872 873 874 875 870 871 876 877 878 879 880 881 883 882 884 885 888 889 890 891 886 887 892 893 894 895 896 897 899 898 900 901 904 905 906 907 902 903 908 909 910 911 912 913 915 914 916 917 920 921 922 923 918 919 924 925 926 927 928 929 931 930 932 933 936 937 938 939 934 935 940 941 942 943 944 945 947 946 948 949 952 953 954 955 950 951 956 957 958 959 960 961 963 962 964 965 968 969 970 971 966 967 972 973 974 975 976 977 979 978 980 981 984 985 986 987 982 983 988 989 990 991 992 993 995 994 996 997 1000 1001 1002 1003 998 999 1004 1005 1006 1007 1008 1009 1011 1010 1012 1013 1016 1017 1018 1019 1014 1015 1020 1021 1022 1023 </DataArray>
        <DataArray type="Int32" Name="offsets" format="ascii">16 32 48 64 80 96 112 128 144 160 176 192 208 224 240 256 272 288 304 320 336 352 368 384 400 416 432 448 464 480 496 512 528 544 560 576 592 608 624 640 656 672 688 704 720 736 752 768 784 800 816 832 848 864 880 896 912 928 944 960 976 992 1008 1024 </DataArray>
        <DataArray type="Int8" Name="types" format="ascii">70 70 70 70 70 70 70 70 70 70 70 70 70 70 70 70 70 70 70 70 70 70 70 70 70 70 70 70 70 70 70 70 70 70 70 70 70 70 70 70 70 70 70 70 70 70 70 70 70 70 70 70 70 70 70 70 70 70 70 70 70 70 70 70 </DataArray>
      </Cells>
      <CellData>
        <DataArray type="UInt8" Name="vtkGhostType" format="ascii" RangeMin="0" RangeMax="1">0 0 0 0 0 0 0 0 0 0 0 0 0 0 0 0 0 0 0 0 0 0 0 0 0 0 0 0 0 0 0 0 0 0 0 0 0 0 0 0 0 0 0 0 0 0 0 0 0 0 0 0 0 0 0 0 0 0 0 0 0 0 0 0 </DataArray>
        <DataArray type="Int64" IdType="1" Name="vtkOriginalCellIds" format="ascii" RangeMin="0" RangeMax="63">0 1 2 3 4 5 6 7 8 9 10 11 12 13 14 15 16 17 18 19 20 21 22 23 24 25 26 27 28 29 30 31 32 33 34 35 36 37 38 39 40 41 42 43 44 45 46 47 48 49 50 51 52 53 54 55 56 57 58 59 60 61 62 63 </DataArray>
      </CellData>
      <PointData Vectors="solution">
        <DataArray type="Int64" IdType="1" Name="vtkOriginalPointIds" format="ascii" RangeMin="0" RangeMax="1023">0 1 2 3 4 5 6 7 8 9 10 11 12 13 14 15 16 17 18 19 20 21 22 23 24 25 26 27 28 29 30 31 32 33 34 35 36 37 38 39 40 41 42 43 44 45 46 47 48 49 50 51 52 53 54 55 56 57 58 59 60 61 62 63 64 65 66 67 68 69 70 71 72 73 74 75 76 77 78 79 80 81 82 83 84 85 86 87 88 89 90 91 92 93 94 95 96 97 98 99 100 101 102 103 104 105 106 107 108 109 110 111 112 113 114 115 116 117 118 119 120 121 122 123 124 125 126 127 128 129 130 131 132 133 134 135 136 137 138 139 140 141 142 143 144 145 146 147 148 149 150 151 152 153 154 155 156 157 158 159 160 161 162 163 164 165 166 167 168 169 170 171 172 173 174 175 176 177 178 179 180 181 182 183 184 185 186 187 188 189 190 191 192 193 194 195 196 197 198 199 200 201 202 203 204 205 206 207 208 209 210 211 212 213 214 215 216 217 218 219 220 221 222 223 224 225 226 227 228 229 230 231 232 233 234 235 236 237 238 239 240 241 242 243 244 245 246 247 248 249 250 251 252 253 254 255 256 257 258 259 260 261 262 263 264 265 266 267 268 269 270 271 272 273 274 275 276 277 278 279 280 281 282 283 284 285 286 287 288 289 290 291 292 293 294 295 296 297 298 299 300 301 302 303 304 305 306 307 308 309 310 311 312 313 314 315 316 317 318 319 320 321 322 323 324 325 326 327 328 329 330 331 332 333 334 335 336 337 338 339 340 341 342 343 344 345 346 347 348 349 350 351 352 353 354 355 356 357 358 359 360 361 362 363 364 365 366 367 368 369 370 371 372 373 374 375 376 377 378 379 380 381 382 383 384 385 386 387 388 389 390 391 392 393 394 395 396 397 398 399 400 401 402 403 404 405 406 407 408 409 410 411 412 413 414 415 416 417 418 419 420 421 422 423 424 425 426 427 428 429 430 431 432 433 434 435 436 437 438 439 440 441 442 443 444 445 446 447 448 449 450 451 452 453 454 455 456 457 458 459 460 461 462 463 464 465 466 467 468 469 470 471 472 473 474 475 476 477 478 479 480 481 482 483 484 485 486 487 488 489 490 491 492 493 494 495 496 497 498 499 500 501 502 503 504 505 506 507 508 509 510 511 512 513 514 515 516 517 518 519 520 521 522 523 524 525 526 527 528 529 530 531 532 533 534 535 536 537 538 539 540 541 542 543 544 545 546 547 548 549 550 551 552 553 554 555 556 557 558 559 560 561 562 563 564 565 566 567 568 569 570 571 572 573 574 575 576 577 578 579 580 581 582 583 584 585 586 587 588 589 590 591 592 593 594 595 596 597 598 599 600 601 602 603 604 605 606 607 608 609 610 611 612 613 614 615 616 617 618 619 620 621 622 623 624 625 626 627 628 629 630 631 632 633 634 635 636 637 638 639 640 641 642 643 644 645 646 647 648 649 650 651 652 653 654 655 656 657 658 659 660 661 662 663 664 665 666 667 668 669 670 671 672 673 674 675 676 677 678 679 680 681 682 683 684 685 686 687 688 689 690 691 692 693 694 695 696 697 698 699 700 701 702 703 704 705 706 707 708 709 710 711 712 713 714 715 716 717 718 719 720 721 722 723 724 725 726 727 728 729 730 731 732 733 734 735 736 737 738 739 740 741 742 743 744 745 746 747 748 749 750 751 752 753 754 755 756 757 758 759 760 761 762 763 764 765 766 767 768 769 770 771 772 773 774 775 776 777 778 779 780 781 782 783 784 785 786 787 788 789 790 791 792 793 794 795 796 797 798 799 800 801 802 803 804 805 806 807 808 809 810 811 812 813 814 815 816 817 818 819 820 821 822 823 824 825 826 827 828 829 830 831 832 833 834 835 836 837 838 839 840 841 842 843 844 845 846 847 848 849 850 851 852 853 854 855 856 857 858 859 860 861 862 863 864 865 866 867 868 869 870 871 872 873 874 875 876 877 878 879 880 881 882 883 884 885 886 887 888 889 890 891 892 893 894 895 896 897 898 899 900 901 902 903 904 905 906 907 908 909 910 911 912 913 914 915 916 917 918 919 920 921 922 923 924 925 926 927 928 929 930 931 932 933 934 935 936 937 938 939 940 941 942 943 944 945 946 947 948 949 950 951 952 953 954 955 956 957 958 959 960 961 962 963 964 965 966 967 968 969 970 971 972 973 974 975 976 977 978 979 980 981 982 983 984 985 986 987 988 989 990 991 992 993 994 995 996 997 998 999 1000 1001 1002 1003 1004 1005 1006 1007 1008 1009 1010 1011 1012 1013 1014 1015 1016 1017 1018 1019 1020 1021 1022 1023 </DataArray>
        <DataArray type="UInt8" Name="vtkGhostType" format="ascii" RangeMin="0" RangeMax="0">0 0 0 0 0 0 0 0 0 0 0 0 0 0 0 0 0 0 0 0 0 0 0 0 0 0 0 0 0 0 0 0 0 0 0 0 0 0 0 0 0 0 0 0 0 0 0 0 0 0 0 0 0 0 0 0 0 0 0 0 0 0 0 0 0 0 0 0 0 0 0 0 0 0 0 0 0 0 0 0 0 0 0 0 0 0 0 0 0 0 0 0 0 0 0 0 0 0 0 0 0 0 0 0 0 0 0 0 0 0 0 0 0 0 0 0 0 0 0 0 0 0 0 0 0 0 0 0 0 0 0 0 0 0 0 0 0 0 0 0 0 0 0 0 0 0 0 0 0 0 0 0 0 0 0 0 0 0 0 0 0 0 0 0 0 0 0 0 0 0 0 0 0 0 0 0 0 0 0 0 0 0 0 0 0 0 0 0 0 0 0 0 0 0 0 0 0 0 0 0 0 0 0 0 0 0 0 0 0 0 0 0 0 0 0 0 0 0 0 0 0 0 0 0 0 0 0 0 0 0 0 0 0 0 0 0 0 0 0 0 0 0 0 0 0 0 0 0 0 0 0 0 0 0 0 0 0 0 0 0 0 0 0 0 0 0 0 0 0 0 0 0 0 0 0 0 0 0 0 0 0 0 0 0 0 0 0 0 0 0 0 0 0 0 0 0 0 0 0 0 0 0 0 0 0 0 0 0 0 0 0 0 0 0 0 0 0 0 0 0 0 0 0 0 0 0 0 0 0 0 0 0 0 0 0 0 0 0 0 0 0 0 0 0 0 0 0 0 0 0 0 0 0 0 0 0 0 0 0 0 0 0 0 0 0 0 0 0 0 0 0 0 0 0 0 0 0 0 0 0 0 0 0 0 0 0 0 0 0 0 0 0 0 0 0 0 0 0 0 0 0 0 0 0 0 0 0 0 0 0 0 0 0 0 0 0 0 0 0 0 0 0 0 0 0 0 0 0 0 0 0 0 0 0 0 0 0 0 0 0 0 0 0 0 0 0 0 0 0 0 0 0 0 0 0 0 0 0 0 0 0 0 0 0 0 0 0 0 0 0 0 0 0 0 0 0 0 0 0 0 0 0 0 0 0 0 0 0 0 0 0 0 0 0 0 0 0 0 0 0 0 0 0 0 0 0 0 0 0 0 0 0 0 0 0 0 0 0 0 0 0 0 0 0 0 0 0 0 0 0 0 0 0 0 0 0 0 0 0 0 0 0 0 0 0 0 0 0 0 0 0 0 0 0 0 0 0 0 0 0 0 0 0 0 0 0 0 0 0 0 0 0 0 0 0 0 0 0 0 0 0 0 0 0 0 0 0 0 0 0 0 0 0 0 0 0 0 0 0 0 0 0 0 0 0 0 0 0 0 0 0 0 0 0 0 0 0 0 0 0 0 0 0 0 0 0 0 0 0 0 0 0 0 0 0 0 0 0 0 0 0 0 0 0 0 0 0 0 0 0 0 0 0 0 0 0 0 0 0 0 0 0 0 0 0 0 0 0 0 0 0 0 0 0 0 0 0 0 0 0 0 0 0 0 0 0 0 0 0 0 0 0 0 0 0 0 0 0 0 0 0 0 0 0 0 0 0 0 0 0 0 0 0 0 0 0 0 0 0 0 0 0 0 0 0 0 0 0 0 0 0 0 0 0 0 0 0 0 0 0 0 0 0 0 0 0 0 0 0 0 0 0 0 0 0 0 0 0 0 0 0 0 0 0 0 0 0 0 0 0 0 0 0 0 0 0 0 0 0 0 0 0 0 0 0 0 0 0 0 0 0 0 0 0 0 0 0 0 0 0 0 0 0 0 0 0 0 0 0 0 0 0 0 0 0 0 0 0 0 0 0 0 0 0 0 0 0 0 0 0 0 0 0 0 0 0 0 0 0 0 0 0 0 0 0 0 0 0 0 0 0 0 0 0 0 0 0 0 0 0 0 0 0 0 0 0 0 0 0 0 0 0 0 0 0 0 0 0 0 0 0 0 0 0 0 0 0 0 0 0 0 0 0 0 0 0 0 0 0 0 0 0 0 0 0 0 0 0 0 0 0 0 0 0 0 0 0 0 0 0 0 0 0 0 0 0 0 0 0 0 0 0 0 0 0 0 0 0 0 0 0 0 0 0 0 0 0 0 0 0 0 0 0 0 0 0 0 0 0 0 0 0 0 0 0 0 0 0 0 0 0 0 0 0 0 0 0 0 0 0 0 0 0 0 0 0 0 0 0 0 0 0 0 0 0 0 0 0 0 0 0 0 0 0 0 0 0 0 0 0 0 0 0 0 0 0 0 0 0 0 0 0 0 0 </DataArray>
        <DataArray type="Float64" Name="solution" format="ascii" NumberOfComponents="3">0.5101530054372165 0 0 0.6258474227877115 0 0 0.6642067393635918 0 0 0.8332193831493826 0 0 0.5487178112207152 0 0 0.5872826170042137 0 0 0.5615042500793423 0 0 0.6128554947214681 0 0 0.6949714095749353 0 0 0.7640953963621584 0 0 0.7205442872921896 0 0 0.7768818352207849 0 0 0.6059933032445399 0 0 0.6504823564097379 0 0 0.6632687952683649 0 0 0.713682095815262 0 0 0.625847422787712 0 0 0.6642067413621888 0 0 0.8332193831493806 0 0 0.8332193836470322 0 0 0.6386338623125379 0 0 0.6514203018373638 0 0 0.6949714095749356 0 0 0.7640953963621591 0 0 0.7205442887904704 0 0 0.776881836218751 0 0 0.8315001590986837 0 0 0.8316209001839265 0 0 0.7029226279079199 0 0 0.7114871679528852 0 0 0.7672113935033021 0 0 0.7715540340684064 0 0 0.6642067413621897 0 0 0.7132220572271354 0 0 0.8332193836470307 0 0 0.8470752239610804 0 0 0.6805451799838385 0 0 0.6968836186054872 0 0 0.7205442887904706 0 0 0.7768818362187514 0 0 0.7578397794717837 0 0 0.8024575017164317 0 0 0.8232371044186984 0 0 0.8265914276695179 0 0 0.7281091547954583 0 0 0.7401195549601643 0 0 0.7756731296070785 0 0 0.7833554913148416 0 0 0.7132220572271359 0 0 0.6642067413621894 0 0 0.8470752239610784 0 0 0.8332193836470323 0 0 0.6968836186054872 0 0 0.6805451799838385 0 0 0.7578397794717844 0 0 0.8024575017164326 0 0 0.7205442887904706 0 0 0.7768818362187516 0 0 0.8265914276695185 0 0 0.8232371044186984 0 0 0.7401195549601643 0 0 0.7281091547954585 0 0 0.7833554913148414 0 0 0.7756731296070785 0 0 0.6642067413621895 0 0 0.6258474227877121 0 0 0.8332193836470333 0 0 0.8332193831493827 0 0 0.6514203018373641 0 0 0.6386338623125384 0 0 0.7205442887904705 0 0 0.7768818362187513 0 0 0.6949714095749356 0 0 0.7640953963621593 0 0 0.8316209001839279 0 0 0.831500159098685 0 0 0.7114871679528852 0 0 0.7029226279079202 0 0 0.7715540340684066 0 0 0.7672113935033024 0 0 0.6258474227877124 0 0 0.510153005437217 0 0 0.8332193831493839 0 0 0.6642067393635926 0 0 0.587282617004214 0 0 0.5487178112207159 0 0 0.694971409574936 0 0 0.7640953963621591 0 0 0.5615042500793428 0 0 0.6128554947214678 0 0 0.7768818352207861 0 0 0.7205442872921903 0 0 0.6504823564097381 0 0 0.6059933032445403 0 0 0.713682095815262 0 0 0.6632687952683649 0 0 0.664206739363593 0 0 0.8332193831493813 0 0 0.7132220570778431 0 0 0.8470752238800097 0 0 0.7205442872921894 0 0 0.7768818352207851 0 0 0.6805451786016767 0 0 0.6968836178397607 0 0 0.8232371037943782 0 0 0.8265914272431318 0 0 0.7578397793452331 0 0 0.8024575016126201 0 0 0.7281091536659106 0 0 0.7756731287301444 0 0 0.7401195543075512 0 0 0.7833554907753418 0 0 0.8332193831493833 0 0 0.6642067393635934 0 0 0.8470752238800117 0 0 0.7132220570778435 0 0 0.776881835220787 0 0 0.7205442872921902 0 0 0.8232371037943795 0 0 0.8265914272431321 0 0 0.680545178601677 0 0 0.6968836178397604 0 0 0.8024575016126204 0 0 0.7578397793452338 0 0 0.7756731287301453 0 0 0.7281091536659107 0 0 0.7833554907753416 0 0 0.7401195543075509 0 0 0.7132220570778441 0 0 0.8470752238800084 0 0 0.6642067393635934 0 0 0.8332193831493825 0 0 0.7578397793452325 0 0 0.8024575016126205 0 0 0.6968836178397605 0 0 0.6805451786016772 0 0 0.8265914272431322 0 0 0.8232371037943785 0 0 0.72054428729219 0 0 0.776881835220786 0 0 0.7401195543075511 0 0 0.7833554907753415 0 0 0.7281091536659109 0 0 0.7756731287301449 0 0 0.8470752238800101 0 0 0.713222057077844 0 0 0.8332193831493843 0 0 0.6642067393635928 0 0 0.8024575016126212 0 0 0.7578397793452331 0 0 0.8265914272431325 0 0 0.823237103794378 0 0 0.696883617839761 0 0 0.6805451786016772 0 0 0.7768818352207851 0 0 0.7205442872921904 0 0 0.7833554907753421 0 0 0.7401195543075507 0 0 0.775673128730144 0 0 0.7281091536659107 0 0 0.6642067393635933 0 0 0.8332193831493826 0 0 0.5101530054372178 0 0 0.6258474227877117 0 0 0.7205442872921898 0 0 0.7768818352207862 0 0 0.6128554947214682 0 0 0.5615042500793423 0 0 0.764095396362159 0 0 0.6949714095749355 0 0 0.5487178112207156 0 0 0.5872826170042141 0 0 0.663268795268365 0 0 0.7136820958152617 0 0 0.60599330324454 0 0 0.6504823564097377 0 0 0.8332193831493826 0 0 0.8332193836470321 0 0 0.625847422787713 0 0 0.664206741362189 0 0 0.8315001590986844 0 0 0.8316209001839281 0 0 0.7640953963621591 0 0 0.6949714095749349 0 0 0.7768818362187513 0 0 0.7205442887904703 0 0 0.6386338623125376 0 0 0.6514203018373642 0 0 0.7672113935033023 0 0 0.7715540340684062 0 0 0.7029226279079196 0 0 0.7114871679528849 0 0 0.8332193836470321 0 0 0.84707522396108 0 0 0.6642067413621906 0 0 0.7132220572271349 0 0 0.8232371044186981 0 0 0.826591427669519 0 0 0.7768818362187513 0 0 0.7205442887904698 0 0 0.8024575017164318 0 0 0.7578397794717844 0 0 0.6805451799838376 0 0 0.696883618605488 0 0 0.7756731296070783 0 0 0.7833554913148406 0 0 0.7281091547954581 0 0 0.7401195549601638 0 0 0.84707522396108 0 0 0.8332193836470327 0 0 0.7132220572271385 0 0 0.664206741362189 0 0 0.8265914276695183 0 0 0.8232371044186985 0 0 0.8024575017164323 0 0 0.7578397794717834 0 0 0.7768818362187517 0 0 0.7205442887904712 0 0 0.6968836186054866 0 0 0.6805451799838396 0 0 0.7833554913148413 0 0 0.7756731296070778 0 0 0.7401195549601639 0 0 0.7281091547954579 0 0 0.8332193836470324 0 0 0.8332193831493827 0 0 0.6642067413621922 0 0 0.6258474227877119 0 0 0.8316209001839273 0 0 0.8315001590986839 0 0 0.7768818362187514 0 0 0.7205442887904696 0 0 0.7640953963621587 0 0 0.6949714095749358 0 0 0.6514203018373632 0 0 0.638633862312539 0 0 0.7715540340684063 0 0 0.7672113935033016 0 0 0.7114871679528841 0 0 0.702922627907919 0 0 0.8332193831493827 0 0 0.6642067393635939 0 0 0.6258474227877148 0 0 0.5101530054372161 0 0 0.7768818352207865 0 0 0.7205442872921903 0 0 0.7640953963621587 0 0 0.6949714095749343 0 0 0.6128554947214681 0 0 0.5615042500793429 0 0 0.5872826170042129 0 0 0.5487178112207166 0 0 0.7136820958152623 0 0 0.6632687952683646 0 0 0.6504823564097371 0 0 0.6059933032445395 0 0 -6.895756414414636e-19 0 0 -3.414239904431101e-18 0 0 1.298765923527361e-20 0 0 0.1490674848882992 0 0 1.104442303065557e-17 0 0 -2.735877030581716e-18 0 0 9.676484515364701e-18 0 0 1.107806133343179e-17 0 0 0.04968916162943302 0 0 0.0993783232588661 0 0 0.04968916162943313 0 0 0.09937832325886604 0 0 0.01656305387647768 0 0 0.03312610775295535 0 0 0.03312610775295539 0 0 0.06625221550591073 0 0 -1.996405529902633e-17 0 0 -1.578806439878821e-17 0 0 0.1490674848882989 0 0 0.2751630732618588 0 0 3.834083879255522e-17 0 0 -6.412902274795246e-18 0 0 0.04968916162943308 0 0 0.09937832325886621 0 0 0.09172102442061961 0 0 0.1834420488412392 0 0 0.1910993476794859 0 0 0.2331312104706722 0 0 0.06369978255982858 0 0 0.07771040349022412 0 0 0.1273995651196572 0 0 0.1554208069804482 0 0 -4.40040652530486e-17 0 0 -2.018411683868132e-17 0 0 0.2751630732618585 0 0 0.3586978752049398 0 0 5.972857341683443e-17 0 0 -4.105765383846721e-18 0 0 0.09172102442061972 0 0 0.1834420488412395 0 0 0.1195659584016465 0 0 0.239131916803293 0 0 0.3030080072428859 0 0 0.3308529412239126 0 0 0.101002669080962 0 0 0.1102843137413043 0 0 0.202005338161924 0 0 0.2205686274826086 0 0 -5.846187649110064e-17 0 0 -2.12735565881216e-17 0 0 0.3586978752049392 0 0 0.388015325182158 0 0 7.198035013647481e-17 0 0 -1.037366714495496e-17 0 0 0.1195659584016467 0 0 0.2391319168032933 0 0 0.1293384417273859 0 0 0.2586768834547719 0 0 0.3684703585306791 0 0 0.3782428418564184 0 0 0.1228234528435597 0 0 0.1260809472854729 0 0 0.2456469056871194 0 0 0.2521618945709457 0 0 -7.485025917880275e-17 0 0 -1.966207030342001e-17 0 0 0.3880153251821576 0 0 0.3586978752049396 0 0 7.293501299102442e-17 0 0 -4.722951600896271e-18 0 0 0.1293384417273861 0 0 0.2586768834547721 0 0 0.1195659584016465 0 0 0.2391319168032931 0 0 0.3782428418564185 0 0 0.3684703585306791 0 0 0.1260809472854729 0 0 0.1228234528435597 0 0 0.2521618945709456 0 0 0.2456469056871194 0 0 -6.002801609688459e-17 0 0 -1.481832904049362e-17 0 0 0.3586978752049396 0 0 0.275163073261859 0 0 6.244828181273706e-17 0 0 -3.347639011947584e-18 0 0 0.1195659584016467 0 0 0.2391319168032932 0 0 0.09172102442061973 0 0 0.1834420488412395 0 0 0.3308529412239127 0 0 0.3030080072428862 0 0 0.1102843137413043 0 0 0.1010026690809619 0 0 0.2205686274826085 0 0 0.2020053381619239 0 0 -4.691327132793232e-17 0 0 -7.657960121538086e-18 0 0 0.2751630732618596 0 0 0.1490674848882987 0 0 4.418600670389298e-17 0 0 -5.258358910333902e-18 0 0 0.09172102442061975 0 0 0.1834420488412393 0 0 0.04968916162943324 0 0 0.09937832325886628 0 0 0.2331312104706722 0 0 0.1910993476794862 0 0 0.07771040349022421 0 0 0.06369978255982854 0 0 0.1554208069804481 0 0 0.127399565119657 0 0 -9.991197213471235e-18 0 0 6.895756414415201e-19 0 0 0.1490674848883005 0 0 -1.277050402487159e-15 0 0 1.795139221266231e-17 0 0 -1.367938515290818e-18 0 0 0.04968916162943311 0 0 0.09937832325886596 0 0 -3.354478606267068e-17 0 0 -6.915829904966586e-17 0 0 0.09937832325886566 0 0 0.04968916162943357 0 0 0.03312610775295539 0 0 0.01656305387647751 0 0 0.06625221550591036 0 0 0.03312610775295492 0 0 -1.473261097375778e-17 0 0 0.149067484888299 0 0 -1.338496343390968e-17 0 0 0.2751630729977816 0 0 0.04968916162943306 0 0 0.09937832325886604 0 0 3.011164456487974e-17 0 0 2.59983410841277e-17 0 0 0.1910993475914597 0 0 0.2331312102946205 0 0 0.09172102433259395 0 0 0.1834420486651874 0 0 0.06369978253048664 0 0 0.1273995650609733 0 0 0.07771040343154031 0 0 0.1554208068630804 0 0 0.1490674848882991 0 0 0.2751630732618586 0 0 0.2751630729977809 0 0 0.5101530054372173 0 0 0.1910993476794857 0 0 0.2331312104706722 0 0 0.19109934759146 0 0 0.233131210294621 0 0 0.3534930506536447 0 0 0.4318230280454308 0 0 0.3534930504775935 0 0 0.4318230279574047 0 0 0.2452305819455215 0 0 0.2993618162995834 0 0 0.2993618162115576 0 0 0.3655924221284942 0 0 0.2751630732618587 0 0 0.3586978752049392 0 0 0.5101530054372159 0 0 0.66420674136219 0 0 0.303008007242886 0 0 0.3308529412239125 0 0 0.353493050653645 0 0 0.4318230280454313 0 0 0.4605341639240227 0 0 0.562370452643106 0 0 0.5615042507455416 0 0 0.6128554960538651 0 0 0.389173421743771 0 0 0.4248537928338971 0 0 0.4753388362446562 0 0 0.5188546444438813 0 0 0.3586978752049395 0 0 0.3880153251821576 0 0 0.6642067413621886 0 0 0.7132220572271366 0 0 0.3684703585306791 0 0 0.3782428418564183 0 0 0.4605341639240231 0 0 0.5623704526431068 0 0 0.4964175691971505 0 0 0.6048198132121432 0 0 0.6805451799838388 0 0 0.6968836186054871 0 0 0.4724952990150654 0 0 0.4844564341061083 0 0 0.5765202394994522 0 0 0.5906700263557978 0 0 0.3880153251821578 0 0 0.3586978752049395 0 0 0.7132220572271352 0 0 0.66420674136219 0 0 0.3782428418564185 0 0 0.368470358530679 0 0 0.4964175691971509 0 0 0.6048198132121436 0 0 0.460534163924023 0 0 0.5623704526431064 0 0 0.6968836186054874 0 0 0.6805451799838385 0 0 0.4844564341061081 0 0 0.4724952990150657 0 0 0.5906700263557977 0 0 0.576520239499452 0 0 0.3586978752049397 0 0 0.275163073261859 0 0 0.6642067413621896 0 0 0.5101530054372171 0 0 0.330852941223913 0 0 0.303008007242886 0 0 0.4605341639240232 0 0 0.5623704526431065 0 0 0.3534930506536451 0 0 0.4318230280454312 0 0 0.6128554960538655 0 0 0.5615042507455418 0 0 0.4248537928338971 0 0 0.3891734217437709 0 0 0.5188546444438812 0 0 0.475338836244656 0 0 0.2751630732618592 0 0 0.1490674848882994 0 0 0.5101530054372178 0 0 0.275163072997781 0 0 0.2331312104706725 0 0 0.1910993476794859 0 0 0.3534930506536451 0 0 0.431823028045431 0 0 0.1910993475914604 0 0 0.233131210294621 0 0 0.431823027957405 0 0 0.3534930504775944 0 0 0.2993618162995836 0 0 0.2452305819455213 0 0 0.365592422128494 0 0 0.2993618162115572 0 0 0.1490674848882991 0 0 -1.089092658853096e-16 0 0 0.275163072997784 0 0 -2.375352050189582e-15 0 0 0.09937832325886596 0 0 0.04968916162943315 0 0 0.1910993475914599 0 0 0.2331312102946204 0 0 6.647563475783641e-17 0 0 -1.318663470307479e-16 0 0 0.1834420486651869 0 0 0.09172102433259453 0 0 0.1273995650609734 0 0 0.06369978253048597 0 0 0.1554208068630796 0 0 0.0777104034315392 0 0 1.833089302648855e-17 0 0 0.2751630729977812 0 0 -5.834783516526567e-17 0 0 0.3586978748268396 0 0 0.09172102433259377 0 0 0.1834420486651876 0 0 5.140300137108562e-17 0 0 3.693068618177254e-17 0 0 0.3030080069408007 0 0 0.33085294088382 0 0 0.1195659582756134 0 0 0.2391319165512262 0 0 0.101002668980267 0 0 0.2020053379605339 0 0 0.1102843136279402 0 0 0.2205686272558801 0 0 0.2751630729977814 0 0 0.5101530054372163 0 0 0.3586978748268388 0 0 0.6642067393635934 0 0 0.3534930504775931 0 0 0.4318230279574049 0 0 0.3030080069408009 0 0 0.3308529408838207 0 0 0.5615042500793421 0 0 0.6128554947214673 0 0 0.4605341630057576 0 0 0.5623704511846747 0 0 0.3891734213203146 0 0 0.4753388356998285 0 0 0.4248537921630362 0 0 0.518854643442252 0 0 0.5101530054372172 0 0 0.275163072997782 0 0 0.6642067393635944 0 0 0.3586978748268382 0 0 0.4318230279574053 0 0 0.3534930504775938 0 0 0.5615042500793425 0 0 0.6128554947214674 0 0 0.3030080069408015 0 0 0.3308529408838206 0 0 0.5623704511846748 0 0 0.4605341630057582 0 0 0.4753388356998289 0 0 0.3891734213203142 0 0 0.5188546434422514 0 0 0.4248537921630352 0 0 0.2751630729977815 0 0 3.188139792130392e-16 0 0 0.3586978748268422 0 0 -3.10481321850739e-15 0 0 0.1834420486651878 0 0 0.09172102433259428 0 0 0.3030080069408005 0 0 0.3308529408838195 0 0 1.135022306875633e-16 0 0 9.786270328474343e-17 0 0 0.2391319165512251 0 0 0.1195659582756136 0 0 0.202005337960534 0 0 0.1010026689802658 0 0 0.2205686272558788 0 0 0.1102843136279388 0 0 1.288893108932169e-17 0 0 0.3586978748268393 0 0 -4.241149262749299e-17 0 0 0.3880153245693223 0 0 0.1195659582756132 0 0 0.2391319165512263 0 0 6.187260413368402e-17 0 0 4.224275246971137e-17 0 0 0.3684703580743335 0 0 0.3782428413218278 0 0 0.1293384415231076 0 0 0.2586768830462146 0 0 0.1228234526914446 0 0 0.2456469053828891 0 0 0.1260809471072761 0 0 0.2521618942145519 0 0 0.3586978748268396 0 0 0.6642067393635926 0 0 0.3880153245693215 0 0 0.7132220570778444 0 0 0.4605341630057573 0 0 0.5623704511846749 0 0 0.3684703580743339 0 0 0.3782428413218284 0 0 0.6805451786016764 0 0 0.6968836178397602 0 0 0.4964175687388297 0 0 0.6048198129083363 0 0 0.4724952982501146 0 0 0.5765202384258956 0 0 0.4844564334944723 0 0 0.5906700256671163 0 0 0.6642067393635933 0 0 0.3586978748268397 0 0 0.7132220570778461 0 0 0.3880153245693213 0 0 0.5623704511846752 0 0 0.4605341630057578 0 0 0.6805451786016764 0 0 0.6968836178397596 0 0 0.3684703580743343 0 0 0.3782428413218281 0 0 0.6048198129083358 0 0 0.4964175687388308 0 0 0.5765202384258962 0 0 0.4724952982501141 0 0 0.5906700256671155 0 0 0.484456433494471 0 0 0.3586978748268392 0 0 -2.199306385187839e-16 0 0 0.3880153245693251 0 0 -3.019501400397675e-15 0 0 0.2391319165512264 0 0 0.1195659582756136 0 0 0.3684703580743327 0 0 0.3782428413218264 0 0 1.26971723274188e-16 0 0 1.098729156337329e-16 0 0 0.2586768830462134 0 0 0.1293384415231086 0 0 0.2456469053828888 0 0 0.1228234526914428 0 0 0.2521618942145503 0 0 0.1260809471072745 0 0 -2.141479706073659e-17 0 0 0.3880153245693219 0 0 -5.077183147147259e-17 0 0 0.3586978748268396 0 0 0.1293384415231074 0 0 0.2586768830462148 0 0 5.192737755990486e-17 0 0 4.114714946465555e-17 0 0 0.3782428413218278 0 0 0.3684703580743338 0 0 0.1195659582756133 0 0 0.2391319165512265 0 0 0.126080947107276 0 0 0.2521618942145519 0 0 0.1228234526914447 0 0 0.2456469053828891 0 0 0.3880153245693222 0 0 0.7132220570778439 0 0 0.3586978748268395 0 0 0.6642067393635931 0 0 0.4964175687388293 0 0 0.6048198129083366 0 0 0.3782428413218281 0 0 0.3684703580743341 0 0 0.6968836178397604 0 0 0.6805451786016768 0 0 0.4605341630057576 0 0 0.5623704511846755 0 0 0.4844564334944721 0 0 0.5906700256671163 0 0 0.4724952982501149 0 0 0.5765202384258959 0 0 0.713222057077844 0 0 0.3880153245693223 0 0 0.6642067393635952 0 0 0.3586978748268382 0 0 0.6048198129083363 0 0 0.4964175687388298 0 0 0.6968836178397596 0 0 0.6805451786016762 0 0 0.3782428413218286 0 0 0.3684703580743345 0 0 0.5623704511846743 0 0 0.4605341630057584 0 0 0.5906700256671168 0 0 0.4844564334944709 0 0 0.5765202384258951 0 0 0.4724952982501135 0 0 0.3880153245693215 0 0 -2.624866980343766e-16 0 0 0.358697874826842 0 0 -2.795622344499558e-15 0 0 0.2586768830462143 0 0 0.1293384415231079 0 0 0.3782428413218276 0 0 0.3684703580743326 0 0 4.451419424575187e-16 0 0 1.061106481562954e-16 0 0 0.239131916551225 0 0 0.119565958275614 0 0 0.2521618942145519 0 0 0.1260809471072741 0 0 0.2456469053828874 0 0 0.1228234526914427 0 0 -1.954802901906612e-17 0 0 0.3586978748268396 0 0 -3.68875414324991e-17 0 0 0.2751630729977816 0 0 0.1195659582756132 0 0 0.2391319165512265 0 0 5.452386164891313e-17 0 0 3.3809825903945e-17 0 0 0.3308529408838203 0 0 0.3030080069408012 0 0 0.09172102433259395 0 0 0.183442048665188 0 0 0.1102843136279402 0 0 0.2205686272558801 0 0 0.101002668980267 0 0 0.2020053379605339 0 0 0.3586978748268397 0 0 0.6642067393635934 0 0 0.2751630729977821 0 0 0.5101530054372171 0 0 0.4605341630057573 0 0 0.5623704511846757 0 0 0.3308529408838204 0 0 0.3030080069408011 0 0 0.6128554947214682 0 0 0.5615042500793428 0 0 0.3534930504775935 0 0 0.4318230279574056 0 0 0.4248537921630364 0 0 0.5188546434422519 0 0 0.3891734213203148 0 0 0.4753388356998286 0 0 0.6642067393635936 0 0 0.3586978748268404 0 0 0.5101530054372191 0 0 0.2751630729977804 0 0 0.5623704511846754 0 0 0.4605341630057581 0 0 0.6128554947214674 0 0 0.5615042500793412 0 0 0.3308529408838207 0 0 0.303008006940801 0 0 0.4318230279574043 0 0 0.3534930504775943 0 0 0.5188546434422521 0 0 0.424853792163035 0 0 0.4753388356998277 0 0 0.3891734213203137 0 0 0.3586978748268396 0 0 3.797564238520258e-16 0 0 0.2751630729977844 0 0 -2.392807286607399e-15 0 0 0.2391319165512264 0 0 0.1195659582756137 0 0 0.3308529408838197 0 0 0.3030080069407997 0 0 1.150694526670996e-16 0 0 -1.820127052743129e-16 0 0 0.1834420486651866 0 0 0.09172102433259478 0 0 0.2205686272558801 0 0 0.1102843136279384 0 0 0.2020053379605326 0 0 0.1010026689802657 0 0 1.348221624376117e-17 0 0 0.2751630729977819 0 0 -2.650737430162508e-17 0 0 0.1490674848882987 0 0 0.09172102433259391 0 0 0.183442048665188 0 0 4.89645584681011e-17 0 0 2.130771654213761e-17 0 0 0.2331312102946213 0 0 0.1910993475914603 0 0 0.04968916162943301 0 0 0.09937832325886649 0 0 0.07771040343154031 0 0 0.1554208068630804 0 0 0.06369978253048666 0 0 0.1273995650609732 0 0 0.2751630729977819 0 0 0.5101530054372175 0 0 0.1490674848883 0 0 0.2751630732618581 0 0 0.3534930504775934 0 0 0.4318230279574057 0 0 0.2331312102946209 0 0 0.1910993475914598 0 0 0.4318230280454315 0 0 0.3534930506536454 0 0 0.1910993476794854 0 0 0.2331312104706732 0 0 0.2993618162115577 0 0 0.3655924221284943 0 0 0.2452305819455215 0 0 0.299361816299583 0 0 0.5101530054372171 0 0 0.6642067413621896 0 0 0.2751630732618602 0 0 0.3586978752049388 0 0 0.5615042507455411 0 0 0.6128554960538657 0 0 0.4318230280454312 0 0 0.3534930506536447 0 0 0.5623704526431068 0 0 0.4605341639240229 0 0 0.3030080072428851 0 0 0.3308529412239138 0 0 0.4753388362446561 0 0 0.5188546444438805 0 0 0.3891734217437706 0 0 0.4248537928338962 0 0 0.6642067413621893 0 0 0.7132220572271365 0 0 0.3586978752049415 0 0 0.3880153251821566 0 0 0.6805451799838381 0 0 0.6968836186054878 0 0 0.5623704526431059 0 0 0.4605341639240221 0 0 0.6048198132121444 0 0 0.496417569197151 0 0 0.368470358530678 0 0 0.3782428418564196 0 0 0.5765202394994514 0 0 0.590670026355797 0 0 0.4724952990150644 0 0 0.4844564341061068 0 0 0.7132220572271361 0 0 0.6642067413621907 0 0 0.3880153251821593 0 0 0.3586978752049381 0 0 0.6968836186054873 0 0 0.680545179983839 0 0 0.6048198132121433 0 0 0.4964175691971496 0 0 0.5623704526431074 0 0 0.4605341639240232 0 0 0.3782428418564171 0 0 0.3684703585306803 0 0 0.5906700263557975 0 0 0.5765202394994513 0 0 0.4844564341061072 0 0 0.4724952990150646 0 0 0.6642067413621903 0 0 0.5101530054372174 0 0 0.358697875204942 0 0 0.2751630732618576 0 0 0.6128554960538658 0 0 0.5615042507455422 0 0 0.5623704526431066 0 0 0.4605341639240222 0 0 0.4318230280454319 0 0 0.3534930506536451 0 0 0.3308529412239115 0 0 0.3030080072428871 0 0 0.5188546444438813 0 0 0.4753388362446552 0 0 0.4248537928338958 0 0 0.38917342174377 0 0 0.510153005437217 0 0 0.2751630729977821 0 0 0.2751630732618606 0 0 0.149067484888298 0 0 0.4318230279574049 0 0 0.3534930504775938 0 0 0.4318230280454306 0 0 0.3534930506536439 0 0 0.2331312102946214 0 0 0.19109934759146 0 0 0.2331312104706712 0 0 0.1910993476794866 0 0 0.3655924221284944 0 0 0.2993618162115564 0 0 0.2993618162995821 0 0 0.2452305819455203 0 0 0.2751630729977811 0 0 2.894340449375195e-16 0 0 0.1490674848883011 0 0 -1.302720633490579e-15 0 0 0.1834420486651876 0 0 0.09172102433259377 0 0 0.2331312102946201 0 0 0.1910993475914589 0 0 2.840078006690441e-16 0 0 6.175487163742473e-17 0 0 0.09937832325886523 0 0 0.04968916162943363 0 0 0.1554208068630802 0 0 0.0777104034315392 0 0 0.1273995650609721 0 0 0.06369978253048574 0 0 8.39647324916724e-18 0 0 0.1490674848882994 0 0 2.068726924324606e-18 0 0 -1.277050402487159e-15 0 0 0.04968916162943294 0 0 0.09937832325886638 0 0 1.521551518208057e-17 0 0 5.539030666715828e-18 0 0 0.0993783232588666 0 0 0.0496891616294332 0 0 -3.293727362410613e-16 0 0 2.949376396314301e-16 0 0 0.03312610775295543 0 0 0.06625221550591047 0 0 0.01656305387647746 0 0 0.03312610775295485 0 0 0.149067484888299 0 0 0.2751630732618593 0 0 1.220592570813844e-15 0 0 -2.375352051937697e-15 0 0 0.1910993476794852 0 0 0.2331312104706725 0 0 0.09937832325886574 0 0 0.04968916162943233 0 0 0.1834420488412397 0 0 0.09172102442061966 0 0 -9.109591032999411e-16 0 0 2.981158016593352e-16 0 0 0.1273995651196571 0 0 0.1554208069804477 0 0 0.06369978255982786 0 0 0.07771040349022294 0 0 0.2751630732618588 0 0 0.3586978752049401 0 0 2.027238067952071e-15 0 0 -1.805231888263511e-15 0 0 0.3030080072428851 0 0 0.3308529412239128 0 0 0.1834420488412388 0 0 0.09172102442061826 0 0 0.2391319168032939 0 0 0.1195659584016462 0 0 -1.445809903839062e-15 0 0 1.016164086835525e-15 0 0 0.2020053381619236 0 0 0.2205686274826072 0 0 0.1010026690809608 0 0 0.1102843137413025 0 0 0.3586978752049396 0 0 0.388015325182158 0 0 2.959854876344386e-15 0 0 -2.664104976903806e-15 0 0 0.3684703585306779 0 0 0.3782428418564185 0 0 0.2391319168032923 0 0 0.1195659584016447 0 0 0.2586768834547723 0 0 0.1293384417273855 0 0 -1.754951565409402e-15 0 0 1.159707696668983e-15 0 0 0.2456469056871192 0 0 0.2521618945709441 0 0 0.1228234528435581 0 0 0.1260809472854708 0 0 0.3880153251821571 0 0 0.3586978752049398 0 0 2.828385259135477e-15 0 0 -3.114210058666994e-15 0 0 0.3782428418564172 0 0 0.3684703585306792 0 0 0.2586768834547703 0 0 0.1293384417273838 0 0 0.2391319168032935 0 0 0.1195659584016462 0 0 -1.806753658576845e-15 0 0 1.123843406016651e-15 0 0 0.2521618945709455 0 0 0.2456469056871182 0 0 0.1260809472854712 0 0 0.1228234528435577 0 0 0.3586978752049393 0 0 0.275163073261859 0 0 2.938685227470121e-15 0 0 -1.896382171761352e-15 0 0 0.3308529412239118 0 0 0.3030080072428865 0 0 0.2391319168032916 0 0 0.1195659584016449 0 0 0.1834420488412396 0 0 0.09172102442061937 0 0 -1.574218664772879e-15 0 0 3.81081700083755e-16 0 0 0.2205686274826084 0 0 0.2020053381619225 0 0 0.1102843137413028 0 0 0.1010026690809605 0 0 0.2751630732618583 0 0 0.1490674848882993 0 0 1.998645666378319e-15 0 0 -1.033786133350395e-15 0 0 0.2331312104706715 0 0 0.1910993476794858 0 0 0.1834420488412375 0 0 0.09172102442061827 0 0 0.09937832325886646 0 0 0.04968916162943315 0 0 -1.527785662130713e-15 0 0 2.391767868909939e-16 0 0 0.1554208069804482 0 0 0.1273995651196561 0 0 0.077710403490223 0 0 0.06369978255982754 0 0 0.1490674848882988 0 0 -9.935916175185529e-17 0 0 1.210518069373972e-15 0 0 -1.241236154594274e-17 0 0 0.09937832325886568 0 0 0.04968916162943324 0 0 0.09937832325886482 0 0 0.04968916162943218 0 0 3.565719844943584e-17 0 0 1.610466012111415e-17 0 0 -4.725600492929238e-16 0 0 5.954792553192607e-17 0 0 0.06625221550591061 0 0 0.03312610775295478 0 0 0.03312610775295477 0 0 0.01656305387647716 0 0 </DataArray>
      </PointData>
    </Piece>
  </UnstructuredGrid>
</VTKFile>
